<svg width="238" height="237" viewBox="0 0 238 237" fill="none" xmlns="http://www.w3.org/2000/svg">
<path d="M22.7232 19.5626C22.7232 20.9989 21.5589 22.1632 20.1227 22.1632C18.6864 22.1632 17.5221 20.9989 17.5221 19.5626C17.5221 18.1263 18.6864 16.962 20.1227 16.962C21.5589 16.962 22.7232 18.1263 22.7232 19.5626Z" fill="#E7E7E7"/>
<path d="M22.7232 39.6086C22.7232 41.0449 21.5589 42.2092 20.1227 42.2092C18.6864 42.2092 17.5221 41.0449 17.5221 39.6086C17.5221 38.1723 18.6864 37.008 20.1227 37.008C21.5589 37.008 22.7232 38.1723 22.7232 39.6086Z" fill="#E7E7E7"/>
<path d="M22.7232 59.1408C22.7232 60.577 21.5589 61.7412 20.1227 61.7412C18.6864 61.7412 17.5221 60.577 17.5221 59.1408C17.5221 57.7042 18.6864 56.54 20.1227 56.54C21.5589 56.54 22.7232 57.7042 22.7232 59.1408Z" fill="#E7E7E7"/>
<path d="M22.7232 79.1868C22.7232 80.623 21.5589 81.7872 20.1227 81.7872C18.6864 81.7872 17.5221 80.623 17.5221 79.1868C17.5221 77.7502 18.6864 76.586 20.1227 76.586C21.5589 76.586 22.7232 77.7502 22.7232 79.1868Z" fill="#E7E7E7"/>
<path d="M22.7232 98.7188C22.7232 100.155 21.5589 101.319 20.1227 101.319C18.6864 101.319 17.5221 100.155 17.5221 98.7188C17.5221 97.2822 18.6864 96.118 20.1227 96.118C21.5589 96.118 22.7232 97.2822 22.7232 98.7188Z" fill="#E7E7E7"/>
<path d="M22.7232 118.765C22.7232 120.201 21.5589 121.365 20.1227 121.365C18.6864 121.365 17.5221 120.201 17.5221 118.765C17.5221 117.328 18.6864 116.164 20.1227 116.164C21.5589 116.164 22.7232 117.328 22.7232 118.765Z" fill="#E7E7E7"/>
<path d="M22.7232 138.297C22.7232 139.733 21.5589 140.897 20.1227 140.897C18.6864 140.897 17.5221 139.733 17.5221 138.297C17.5221 136.86 18.6864 135.696 20.1227 135.696C21.5589 135.696 22.7232 136.86 22.7232 138.297Z" fill="#E7E7E7"/>
<path d="M22.7232 158.343C22.7232 159.779 21.5589 160.943 20.1227 160.943C18.6864 160.943 17.5221 159.779 17.5221 158.343C17.5221 156.906 18.6864 155.742 20.1227 155.742C21.5589 155.742 22.7232 156.906 22.7232 158.343Z" fill="#E7E7E7"/>
<path d="M22.7232 177.875C22.7232 179.311 21.5589 180.475 20.1227 180.475C18.6864 180.475 17.5221 179.311 17.5221 177.875C17.5221 176.438 18.6864 175.274 20.1227 175.274C21.5589 175.274 22.7232 176.438 22.7232 177.875Z" fill="#E7E7E7"/>
<path d="M22.7232 197.921C22.7232 199.357 21.5589 200.521 20.1227 200.521C18.6864 200.521 17.5221 199.357 17.5221 197.921C17.5221 196.484 18.6864 195.32 20.1227 195.32C21.5589 195.32 22.7232 196.484 22.7232 197.921Z" fill="#E7E7E7"/>
<path d="M22.7232 217.453C22.7232 218.889 21.5589 220.053 20.1227 220.053C18.6864 220.053 17.5221 218.889 17.5221 217.453C17.5221 216.016 18.6864 214.852 20.1227 214.852C21.5589 214.852 22.7232 216.016 22.7232 217.453Z" fill="#E7E7E7"/>
<path d="M22.7232 236.985H17.5221C17.5221 235.548 18.6864 234.384 20.1227 234.384C21.5589 234.384 22.7232 235.548 22.7232 236.985Z" fill="#E7E7E7"/>
<path d="M61.7872 19.5626C61.7872 20.9989 60.623 22.1632 59.1869 22.1632C57.7503 22.1632 56.5861 20.9989 56.5861 19.5626C56.5861 18.1263 57.7503 16.962 59.1869 16.962C60.623 16.962 61.7872 18.1263 61.7872 19.5626Z" fill="#E7E7E7"/>
<path d="M61.7872 39.6086C61.7872 41.0449 60.623 42.2092 59.1869 42.2092C57.7503 42.2092 56.5861 41.0449 56.5861 39.6086C56.5861 38.1723 57.7503 37.008 59.1869 37.008C60.623 37.008 61.7872 38.1723 61.7872 39.6086Z" fill="#E7E7E7"/>
<path d="M61.7872 59.1408C61.7872 60.577 60.623 61.7412 59.1869 61.7412C57.7503 61.7412 56.5861 60.577 56.5861 59.1408C56.5861 57.7042 57.7503 56.54 59.1869 56.54C60.623 56.54 61.7872 57.7042 61.7872 59.1408Z" fill="#E7E7E7"/>
<path d="M61.7872 79.1868C61.7872 80.623 60.623 81.7872 59.1869 81.7872C57.7503 81.7872 56.5861 80.623 56.5861 79.1868C56.5861 77.7502 57.7503 76.586 59.1869 76.586C60.623 76.586 61.7872 77.7502 61.7872 79.1868Z" fill="#E7E7E7"/>
<path d="M61.7872 98.7188C61.7872 100.155 60.623 101.319 59.1869 101.319C57.7503 101.319 56.5861 100.155 56.5861 98.7188C56.5861 97.2822 57.7503 96.118 59.1869 96.118C60.623 96.118 61.7872 97.2822 61.7872 98.7188Z" fill="#E7E7E7"/>
<path d="M61.7872 118.765C61.7872 120.201 60.623 121.365 59.1869 121.365C57.7503 121.365 56.5861 120.201 56.5861 118.765C56.5861 117.328 57.7503 116.164 59.1869 116.164C60.623 116.164 61.7872 117.328 61.7872 118.765Z" fill="#E7E7E7"/>
<path d="M61.7872 138.297C61.7872 139.733 60.623 140.897 59.1869 140.897C57.7503 140.897 56.5861 139.733 56.5861 138.297C56.5861 136.86 57.7503 135.696 59.1869 135.696C60.623 135.696 61.7872 136.86 61.7872 138.297Z" fill="#E7E7E7"/>
<path d="M61.7872 158.343C61.7872 159.779 60.623 160.943 59.1869 160.943C57.7503 160.943 56.5861 159.779 56.5861 158.343C56.5861 156.906 57.7503 155.742 59.1869 155.742C60.623 155.742 61.7872 156.906 61.7872 158.343Z" fill="#E7E7E7"/>
<path d="M61.7872 177.875C61.7872 179.311 60.623 180.475 59.1869 180.475C57.7503 180.475 56.5861 179.311 56.5861 177.875C56.5861 176.438 57.7503 175.274 59.1869 175.274C60.623 175.274 61.7872 176.438 61.7872 177.875Z" fill="#E7E7E7"/>
<path d="M61.7872 197.921C61.7872 199.357 60.623 200.521 59.1869 200.521C57.7503 200.521 56.5861 199.357 56.5861 197.921C56.5861 196.484 57.7503 195.32 59.1869 195.32C60.623 195.32 61.7872 196.484 61.7872 197.921Z" fill="#E7E7E7"/>
<path d="M61.7872 217.453C61.7872 218.889 60.623 220.053 59.1869 220.053C57.7503 220.053 56.5861 218.889 56.5861 217.453C56.5861 216.016 57.7503 214.852 59.1869 214.852C60.623 214.852 61.7872 216.016 61.7872 217.453Z" fill="#E7E7E7"/>
<path d="M101.365 19.5626C101.365 20.9989 100.201 22.1632 98.7649 22.1632C97.3283 22.1632 96.1641 20.9989 96.1641 19.5626C96.1641 18.1263 97.3283 16.962 98.7649 16.962C100.201 16.962 101.365 18.1263 101.365 19.5626Z" fill="#E7E7E7"/>
<path d="M101.365 39.6086C101.365 41.0449 100.201 42.2092 98.7649 42.2092C97.3283 42.2092 96.1641 41.0449 96.1641 39.6086C96.1641 38.1723 97.3283 37.008 98.7649 37.008C100.201 37.008 101.365 38.1723 101.365 39.6086Z" fill="#E7E7E7"/>
<path d="M101.365 59.1408C101.365 60.577 100.201 61.7412 98.7649 61.7412C97.3283 61.7412 96.1641 60.577 96.1641 59.1408C96.1641 57.7042 97.3283 56.54 98.7649 56.54C100.201 56.54 101.365 57.7042 101.365 59.1408Z" fill="#E7E7E7"/>
<path d="M101.365 79.1868C101.365 80.623 100.201 81.7872 98.7649 81.7872C97.3283 81.7872 96.1641 80.623 96.1641 79.1868C96.1641 77.7502 97.3283 76.586 98.7649 76.586C100.201 76.586 101.365 77.7502 101.365 79.1868Z" fill="#E7E7E7"/>
<path d="M101.365 98.7188C101.365 100.155 100.201 101.319 98.7649 101.319C97.3283 101.319 96.1641 100.155 96.1641 98.7188C96.1641 97.2822 97.3283 96.118 98.7649 96.118C100.201 96.118 101.365 97.2822 101.365 98.7188Z" fill="#E7E7E7"/>
<path d="M101.365 118.765C101.365 120.201 100.201 121.365 98.7649 121.365C97.3283 121.365 96.1641 120.201 96.1641 118.765C96.1641 117.328 97.3283 116.164 98.7649 116.164C100.201 116.164 101.365 117.328 101.365 118.765Z" fill="#E7E7E7"/>
<path d="M101.365 138.297C101.365 139.733 100.201 140.897 98.7649 140.897C97.3283 140.897 96.1641 139.733 96.1641 138.297C96.1641 136.86 97.3283 135.696 98.7649 135.696C100.201 135.696 101.365 136.86 101.365 138.297Z" fill="#E7E7E7"/>
<path d="M101.365 158.343C101.365 159.779 100.201 160.943 98.7649 160.943C97.3283 160.943 96.1641 159.779 96.1641 158.343C96.1641 156.906 97.3283 155.742 98.7649 155.742C100.201 155.742 101.365 156.906 101.365 158.343Z" fill="#E7E7E7"/>
<path d="M101.365 177.875C101.365 179.311 100.201 180.475 98.7649 180.475C97.3283 180.475 96.1641 179.311 96.1641 177.875C96.1641 176.438 97.3283 175.274 98.7649 175.274C100.201 175.274 101.365 176.438 101.365 177.875Z" fill="#E7E7E7"/>
<path d="M101.365 197.921C101.365 199.357 100.201 200.521 98.7649 200.521C97.3283 200.521 96.1641 199.357 96.1641 197.921C96.1641 196.484 97.3283 195.32 98.7649 195.32C100.201 195.32 101.365 196.484 101.365 197.921Z" fill="#E7E7E7"/>
<path d="M101.365 217.453C101.365 218.889 100.201 220.053 98.7649 220.053C97.3283 220.053 96.1641 218.889 96.1641 217.453C96.1641 216.016 97.3283 214.852 98.7649 214.852C100.201 214.852 101.365 216.016 101.365 217.453Z" fill="#E7E7E7"/>
<path d="M140.943 19.5626C140.943 20.9989 139.779 22.1632 138.343 22.1632C136.906 22.1632 135.742 20.9989 135.742 19.5626C135.742 18.1263 136.906 16.962 138.343 16.962C139.779 16.962 140.943 18.1263 140.943 19.5626Z" fill="#E7E7E7"/>
<path d="M140.943 39.6086C140.943 41.0449 139.779 42.2092 138.343 42.2092C136.906 42.2092 135.742 41.0449 135.742 39.6086C135.742 38.1723 136.906 37.008 138.343 37.008C139.779 37.008 140.943 38.1723 140.943 39.6086Z" fill="#E7E7E7"/>
<path d="M140.943 59.1408C140.943 60.577 139.779 61.7412 138.343 61.7412C136.906 61.7412 135.742 60.577 135.742 59.1408C135.742 57.7042 136.906 56.54 138.343 56.54C139.779 56.54 140.943 57.7042 140.943 59.1408Z" fill="#E7E7E7"/>
<path d="M140.943 79.1868C140.943 80.623 139.779 81.7872 138.343 81.7872C136.906 81.7872 135.742 80.623 135.742 79.1868C135.742 77.7502 136.906 76.586 138.343 76.586C139.779 76.586 140.943 77.7502 140.943 79.1868Z" fill="#E7E7E7"/>
<path d="M140.943 98.7188C140.943 100.155 139.779 101.319 138.343 101.319C136.906 101.319 135.742 100.155 135.742 98.7188C135.742 97.2822 136.906 96.118 138.343 96.118C139.779 96.118 140.943 97.2822 140.943 98.7188Z" fill="#E7E7E7"/>
<path d="M140.943 118.765C140.943 120.201 139.779 121.365 138.343 121.365C136.906 121.365 135.742 120.201 135.742 118.765C135.742 117.328 136.906 116.164 138.343 116.164C139.779 116.164 140.943 117.328 140.943 118.765Z" fill="#E7E7E7"/>
<path d="M140.943 138.297C140.943 139.733 139.779 140.897 138.343 140.897C136.906 140.897 135.742 139.733 135.742 138.297C135.742 136.86 136.906 135.696 138.343 135.696C139.779 135.696 140.943 136.86 140.943 138.297Z" fill="#E7E7E7"/>
<path d="M140.943 158.343C140.943 159.779 139.779 160.943 138.343 160.943C136.906 160.943 135.742 159.779 135.742 158.343C135.742 156.906 136.906 155.742 138.343 155.742C139.779 155.742 140.943 156.906 140.943 158.343Z" fill="#E7E7E7"/>
<path d="M140.943 177.875C140.943 179.311 139.779 180.475 138.343 180.475C136.906 180.475 135.742 179.311 135.742 177.875C135.742 176.438 136.906 175.274 138.343 175.274C139.779 175.274 140.943 176.438 140.943 177.875Z" fill="#E7E7E7"/>
<path d="M140.943 197.921C140.943 199.357 139.779 200.521 138.343 200.521C136.906 200.521 135.742 199.357 135.742 197.921C135.742 196.484 136.906 195.32 138.343 195.32C139.779 195.32 140.943 196.484 140.943 197.921Z" fill="#E7E7E7"/>
<path d="M140.943 217.453C140.943 218.889 139.779 220.053 138.343 220.053C136.906 220.053 135.742 218.889 135.742 217.453C135.742 216.016 136.906 214.852 138.343 214.852C139.779 214.852 140.943 216.016 140.943 217.453Z" fill="#E7E7E7"/>
<path d="M180.521 19.5626C180.521 20.9989 179.357 22.1632 177.921 22.1632C176.484 22.1632 175.32 20.9989 175.32 19.5626C175.32 18.1263 176.484 16.962 177.921 16.962C179.357 16.962 180.521 18.1263 180.521 19.5626Z" fill="#E7E7E7"/>
<path d="M180.521 39.6086C180.521 41.0449 179.357 42.2092 177.921 42.2092C176.484 42.2092 175.32 41.0449 175.32 39.6086C175.32 38.1723 176.484 37.008 177.921 37.008C179.357 37.008 180.521 38.1723 180.521 39.6086Z" fill="#E7E7E7"/>
<path d="M180.521 59.1408C180.521 60.577 179.357 61.7412 177.921 61.7412C176.484 61.7412 175.32 60.577 175.32 59.1408C175.32 57.7042 176.484 56.54 177.921 56.54C179.357 56.54 180.521 57.7042 180.521 59.1408Z" fill="#E7E7E7"/>
<path d="M180.521 79.1868C180.521 80.623 179.357 81.7872 177.921 81.7872C176.484 81.7872 175.32 80.623 175.32 79.1868C175.32 77.7502 176.484 76.586 177.921 76.586C179.357 76.586 180.521 77.7502 180.521 79.1868Z" fill="#E7E7E7"/>
<path d="M180.521 98.7188C180.521 100.155 179.357 101.319 177.921 101.319C176.484 101.319 175.32 100.155 175.32 98.7188C175.32 97.2822 176.484 96.118 177.921 96.118C179.357 96.118 180.521 97.2822 180.521 98.7188Z" fill="#E7E7E7"/>
<path d="M180.521 118.765C180.521 120.201 179.357 121.365 177.921 121.365C176.484 121.365 175.32 120.201 175.32 118.765C175.32 117.328 176.484 116.164 177.921 116.164C179.357 116.164 180.521 117.328 180.521 118.765Z" fill="#E7E7E7"/>
<path d="M180.521 138.297C180.521 139.733 179.357 140.897 177.921 140.897C176.484 140.897 175.32 139.733 175.32 138.297C175.32 136.86 176.484 135.696 177.921 135.696C179.357 135.696 180.521 136.86 180.521 138.297Z" fill="#E7E7E7"/>
<path d="M180.521 158.343C180.521 159.779 179.357 160.943 177.921 160.943C176.484 160.943 175.32 159.779 175.32 158.343C175.32 156.906 176.484 155.742 177.921 155.742C179.357 155.742 180.521 156.906 180.521 158.343Z" fill="#E7E7E7"/>
<path d="M180.521 177.875C180.521 179.311 179.357 180.475 177.921 180.475C176.484 180.475 175.32 179.311 175.32 177.875C175.32 176.438 176.484 175.274 177.921 175.274C179.357 175.274 180.521 176.438 180.521 177.875Z" fill="#E7E7E7"/>
<path d="M180.521 197.921C180.521 199.357 179.357 200.521 177.921 200.521C176.484 200.521 175.32 199.357 175.32 197.921C175.32 196.484 176.484 195.32 177.921 195.32C179.357 195.32 180.521 196.484 180.521 197.921Z" fill="#E7E7E7"/>
<path d="M180.521 217.453C180.521 218.889 179.357 220.053 177.921 220.053C176.484 220.053 175.32 218.889 175.32 217.453C175.32 216.016 176.484 214.852 177.921 214.852C179.357 214.852 180.521 216.016 180.521 217.453Z" fill="#E7E7E7"/>
<path d="M220.099 19.5626C220.099 20.9989 218.935 22.1632 217.499 22.1632C216.062 22.1632 214.898 20.9989 214.898 19.5626C214.898 18.1263 216.062 16.962 217.499 16.962C218.935 16.962 220.099 18.1263 220.099 19.5626Z" fill="#E7E7E7"/>
<path d="M220.099 39.6086C220.099 41.0449 218.935 42.2092 217.499 42.2092C216.062 42.2092 214.898 41.0449 214.898 39.6086C214.898 38.1723 216.062 37.008 217.499 37.008C218.935 37.008 220.099 38.1723 220.099 39.6086Z" fill="#E7E7E7"/>
<path d="M220.099 59.1408C220.099 60.577 218.935 61.7412 217.499 61.7412C216.062 61.7412 214.898 60.577 214.898 59.1408C214.898 57.7042 216.062 56.54 217.499 56.54C218.935 56.54 220.099 57.7042 220.099 59.1408Z" fill="#E7E7E7"/>
<path d="M220.099 79.1868C220.099 80.623 218.935 81.7872 217.499 81.7872C216.062 81.7872 214.898 80.623 214.898 79.1868C214.898 77.7502 216.062 76.586 217.499 76.586C218.935 76.586 220.099 77.7502 220.099 79.1868Z" fill="#E7E7E7"/>
<path d="M220.099 98.7188C220.099 100.155 218.935 101.319 217.499 101.319C216.062 101.319 214.898 100.155 214.898 98.7188C214.898 97.2822 216.062 96.118 217.499 96.118C218.935 96.118 220.099 97.2822 220.099 98.7188Z" fill="#E7E7E7"/>
<path d="M220.099 118.765C220.099 120.201 218.935 121.365 217.499 121.365C216.062 121.365 214.898 120.201 214.898 118.765C214.898 117.328 216.062 116.164 217.499 116.164C218.935 116.164 220.099 117.328 220.099 118.765Z" fill="#E7E7E7"/>
<path d="M220.099 138.297C220.099 139.733 218.935 140.897 217.499 140.897C216.062 140.897 214.898 139.733 214.898 138.297C214.898 136.86 216.062 135.696 217.499 135.696C218.935 135.696 220.099 136.86 220.099 138.297Z" fill="#E7E7E7"/>
<path d="M220.099 158.343C220.099 159.779 218.935 160.943 217.499 160.943C216.062 160.943 214.898 159.779 214.898 158.343C214.898 156.906 216.062 155.742 217.499 155.742C218.935 155.742 220.099 156.906 220.099 158.343Z" fill="#E7E7E7"/>
<path d="M220.099 177.875C220.099 179.311 218.935 180.475 217.499 180.475C216.062 180.475 214.898 179.311 214.898 177.875C214.898 176.438 216.062 175.274 217.499 175.274C218.935 175.274 220.099 176.438 220.099 177.875Z" fill="#E7E7E7"/>
<path d="M220.099 197.921C220.099 199.357 218.935 200.521 217.499 200.521C216.062 200.521 214.898 199.357 214.898 197.921C214.898 196.484 216.062 195.32 217.499 195.32C218.935 195.32 220.099 196.484 220.099 197.921Z" fill="#E7E7E7"/>
<path d="M220.099 217.453C220.099 218.889 218.935 220.053 217.499 220.053C216.062 220.053 214.898 218.889 214.898 217.453C214.898 216.016 216.062 214.852 217.499 214.852C218.935 214.852 220.099 216.016 220.099 217.453Z" fill="#E7E7E7"/>
<path d="M2.67724 19.5626C2.67724 20.9989 1.51293 22.1632 0.0766611 22.1632V16.962C1.51293 16.962 2.67724 18.1263 2.67724 19.5626Z" fill="#E7E7E7"/>
<path d="M2.67724 39.6086C2.67724 41.0449 1.51293 42.2092 0.0766611 42.2092V37.008C1.51293 37.008 2.67724 38.1723 2.67724 39.6086Z" fill="#E7E7E7"/>
<path d="M2.67724 59.1408C2.67724 60.577 1.51293 61.7412 0.0766611 61.7412V56.54C1.51293 56.54 2.67724 57.7042 2.67724 59.1408Z" fill="#E7E7E7"/>
<path d="M2.67724 79.1868C2.67724 80.623 1.51293 81.7872 0.0766611 81.7872V76.586C1.51293 76.586 2.67724 77.7502 2.67724 79.1868Z" fill="#E7E7E7"/>
<path d="M2.67724 98.7188C2.67724 100.155 1.51293 101.319 0.0766611 101.319V96.118C1.51293 96.118 2.67724 97.2822 2.67724 98.7188Z" fill="#E7E7E7"/>
<path d="M2.67724 118.765C2.67724 120.201 1.51293 121.365 0.0766611 121.365V116.164C1.51293 116.164 2.67724 117.328 2.67724 118.765Z" fill="#E7E7E7"/>
<path d="M42.2552 19.5626C42.2552 20.9989 41.091 22.1632 39.6549 22.1632C38.2183 22.1632 37.0541 20.9989 37.0541 19.5626C37.0541 18.1263 38.2183 16.962 39.6549 16.962C41.091 16.962 42.2552 18.1263 42.2552 19.5626Z" fill="#E7E7E7"/>
<path d="M42.2552 39.6086C42.2552 41.0449 41.091 42.2092 39.6549 42.2092C38.2183 42.2092 37.0541 41.0449 37.0541 39.6086C37.0541 38.1723 38.2183 37.008 39.6549 37.008C41.091 37.008 42.2552 38.1723 42.2552 39.6086Z" fill="#E7E7E7"/>
<path d="M42.2552 59.1408C42.2552 60.577 41.091 61.7412 39.6549 61.7412C38.2183 61.7412 37.0541 60.577 37.0541 59.1408C37.0541 57.7042 38.2183 56.54 39.6549 56.54C41.091 56.54 42.2552 57.7042 42.2552 59.1408Z" fill="#E7E7E7"/>
<path d="M42.2552 79.1868C42.2552 80.623 41.091 81.7872 39.6549 81.7872C38.2183 81.7872 37.0541 80.623 37.0541 79.1868C37.0541 77.7502 38.2183 76.586 39.6549 76.586C41.091 76.586 42.2552 77.7502 42.2552 79.1868Z" fill="#E7E7E7"/>
<path d="M42.2552 98.7188C42.2552 100.155 41.091 101.319 39.6549 101.319C38.2183 101.319 37.0541 100.155 37.0541 98.7188C37.0541 97.2822 38.2183 96.118 39.6549 96.118C41.091 96.118 42.2552 97.2822 42.2552 98.7188Z" fill="#E7E7E7"/>
<path d="M42.2552 118.765C42.2552 120.201 41.091 121.365 39.6549 121.365C38.2183 121.365 37.0541 120.201 37.0541 118.765C37.0541 117.328 38.2183 116.164 39.6549 116.164C41.091 116.164 42.2552 117.328 42.2552 118.765Z" fill="#E7E7E7"/>
<path d="M42.2552 138.297C42.2552 139.733 41.091 140.897 39.6549 140.897C38.2183 140.897 37.0541 139.733 37.0541 138.297C37.0541 136.86 38.2183 135.696 39.6549 135.696C41.091 135.696 42.2552 136.86 42.2552 138.297Z" fill="#E7E7E7"/>
<path d="M42.2552 158.343C42.2552 159.779 41.091 160.943 39.6549 160.943C38.2183 160.943 37.0541 159.779 37.0541 158.343C37.0541 156.906 38.2183 155.742 39.6549 155.742C41.091 155.742 42.2552 156.906 42.2552 158.343Z" fill="#E7E7E7"/>
<path d="M42.2552 177.875C42.2552 179.311 41.091 180.475 39.6549 180.475C38.2183 180.475 37.0541 179.311 37.0541 177.875C37.0541 176.438 38.2183 175.274 39.6549 175.274C41.091 175.274 42.2552 176.438 42.2552 177.875Z" fill="#E7E7E7"/>
<path d="M42.2552 197.921C42.2552 199.357 41.091 200.521 39.6549 200.521C38.2183 200.521 37.0541 199.357 37.0541 197.921C37.0541 196.484 38.2183 195.32 39.6549 195.32C41.091 195.32 42.2552 196.484 42.2552 197.921Z" fill="#E7E7E7"/>
<path d="M42.2552 217.453C42.2552 218.889 41.091 220.053 39.6549 220.053C38.2183 220.053 37.0541 218.889 37.0541 217.453C37.0541 216.016 38.2183 214.852 39.6549 214.852C41.091 214.852 42.2552 216.016 42.2552 217.453Z" fill="#E7E7E7"/>
<path d="M81.8332 19.5626C81.8332 20.9989 80.669 22.1632 79.2329 22.1632C77.7963 22.1632 76.6321 20.9989 76.6321 19.5626C76.6321 18.1263 77.7963 16.962 79.2329 16.962C80.669 16.962 81.8332 18.1263 81.8332 19.5626Z" fill="#E7E7E7"/>
<path d="M81.8332 39.6086C81.8332 41.0449 80.669 42.2092 79.2329 42.2092C77.7963 42.2092 76.6321 41.0449 76.6321 39.6086C76.6321 38.1723 77.7963 37.008 79.2329 37.008C80.669 37.008 81.8332 38.1723 81.8332 39.6086Z" fill="#E7E7E7"/>
<path d="M81.8332 59.1408C81.8332 60.577 80.669 61.7412 79.2329 61.7412C77.7963 61.7412 76.6321 60.577 76.6321 59.1408C76.6321 57.7042 77.7963 56.54 79.2329 56.54C80.669 56.54 81.8332 57.7042 81.8332 59.1408Z" fill="#E7E7E7"/>
<path d="M81.8332 79.1868C81.8332 80.623 80.669 81.7872 79.2329 81.7872C77.7963 81.7872 76.6321 80.623 76.6321 79.1868C76.6321 77.7502 77.7963 76.586 79.2329 76.586C80.669 76.586 81.8332 77.7502 81.8332 79.1868Z" fill="#E7E7E7"/>
<path d="M81.8332 98.7188C81.8332 100.155 80.669 101.319 79.2329 101.319C77.7963 101.319 76.6321 100.155 76.6321 98.7188C76.6321 97.2822 77.7963 96.118 79.2329 96.118C80.669 96.118 81.8332 97.2822 81.8332 98.7188Z" fill="#E7E7E7"/>
<path d="M81.8332 118.765C81.8332 120.201 80.669 121.365 79.2329 121.365C77.7963 121.365 76.6321 120.201 76.6321 118.765C76.6321 117.328 77.7963 116.164 79.2329 116.164C80.669 116.164 81.8332 117.328 81.8332 118.765Z" fill="#E7E7E7"/>
<path d="M81.8332 138.297C81.8332 139.733 80.669 140.897 79.2329 140.897C77.7963 140.897 76.6321 139.733 76.6321 138.297C76.6321 136.86 77.7963 135.696 79.2329 135.696C80.669 135.696 81.8332 136.86 81.8332 138.297Z" fill="#E7E7E7"/>
<path d="M81.8332 158.343C81.8332 159.779 80.669 160.943 79.2329 160.943C77.7963 160.943 76.6321 159.779 76.6321 158.343C76.6321 156.906 77.7963 155.742 79.2329 155.742C80.669 155.742 81.8332 156.906 81.8332 158.343Z" fill="#E7E7E7"/>
<path d="M81.8332 177.875C81.8332 179.311 80.669 180.475 79.2329 180.475C77.7963 180.475 76.6321 179.311 76.6321 177.875C76.6321 176.438 77.7963 175.274 79.2329 175.274C80.669 175.274 81.8332 176.438 81.8332 177.875Z" fill="#E7E7E7"/>
<path d="M81.8332 197.921C81.8332 199.357 80.669 200.521 79.2329 200.521C77.7963 200.521 76.6321 199.357 76.6321 197.921C76.6321 196.484 77.7963 195.32 79.2329 195.32C80.669 195.32 81.8332 196.484 81.8332 197.921Z" fill="#E7E7E7"/>
<path d="M81.8332 217.453C81.8332 218.889 80.669 220.053 79.2329 220.053C77.7963 220.053 76.6321 218.889 76.6321 217.453C76.6321 216.016 77.7963 214.852 79.2329 214.852C80.669 214.852 81.8332 216.016 81.8332 217.453Z" fill="#E7E7E7"/>
<path d="M121.411 19.5626C121.411 20.9989 120.247 22.1632 118.811 22.1632C117.374 22.1632 116.21 20.9989 116.21 19.5626C116.21 18.1263 117.374 16.962 118.811 16.962C120.247 16.962 121.411 18.1263 121.411 19.5626Z" fill="#E7E7E7"/>
<path d="M121.411 39.6086C121.411 41.0449 120.247 42.2092 118.811 42.2092C117.374 42.2092 116.21 41.0449 116.21 39.6086C116.21 38.1723 117.374 37.008 118.811 37.008C120.247 37.008 121.411 38.1723 121.411 39.6086Z" fill="#E7E7E7"/>
<path d="M121.411 59.1408C121.411 60.577 120.247 61.7412 118.811 61.7412C117.374 61.7412 116.21 60.577 116.21 59.1408C116.21 57.7042 117.374 56.54 118.811 56.54C120.247 56.54 121.411 57.7042 121.411 59.1408Z" fill="#E7E7E7"/>
<path d="M121.411 79.1868C121.411 80.623 120.247 81.7872 118.811 81.7872C117.374 81.7872 116.21 80.623 116.21 79.1868C116.21 77.7502 117.374 76.586 118.811 76.586C120.247 76.586 121.411 77.7502 121.411 79.1868Z" fill="#E7E7E7"/>
<path d="M121.411 98.7188C121.411 100.155 120.247 101.319 118.811 101.319C117.374 101.319 116.21 100.155 116.21 98.7188C116.21 97.2822 117.374 96.118 118.811 96.118C120.247 96.118 121.411 97.2822 121.411 98.7188Z" fill="#E7E7E7"/>
<path d="M121.411 118.765C121.411 120.201 120.247 121.365 118.811 121.365C117.374 121.365 116.21 120.201 116.21 118.765C116.21 117.328 117.374 116.164 118.811 116.164C120.247 116.164 121.411 117.328 121.411 118.765Z" fill="#E7E7E7"/>
<path d="M121.411 138.297C121.411 139.733 120.247 140.897 118.811 140.897C117.374 140.897 116.21 139.733 116.21 138.297C116.21 136.86 117.374 135.696 118.811 135.696C120.247 135.696 121.411 136.86 121.411 138.297Z" fill="#E7E7E7"/>
<path d="M121.411 158.343C121.411 159.779 120.247 160.943 118.811 160.943C117.374 160.943 116.21 159.779 116.21 158.343C116.21 156.906 117.374 155.742 118.811 155.742C120.247 155.742 121.411 156.906 121.411 158.343Z" fill="#E7E7E7"/>
<path d="M121.411 177.875C121.411 179.311 120.247 180.475 118.811 180.475C117.374 180.475 116.21 179.311 116.21 177.875C116.21 176.438 117.374 175.274 118.811 175.274C120.247 175.274 121.411 176.438 121.411 177.875Z" fill="#E7E7E7"/>
<path d="M121.411 197.921C121.411 199.357 120.247 200.521 118.811 200.521C117.374 200.521 116.21 199.357 116.21 197.921C116.21 196.484 117.374 195.32 118.811 195.32C120.247 195.32 121.411 196.484 121.411 197.921Z" fill="#E7E7E7"/>
<path d="M121.411 217.453C121.411 218.889 120.247 220.053 118.811 220.053C117.374 220.053 116.21 218.889 116.21 217.453C116.21 216.016 117.374 214.852 118.811 214.852C120.247 214.852 121.411 216.016 121.411 217.453Z" fill="#E7E7E7"/>
<path d="M160.989 19.5626C160.989 20.9989 159.825 22.1632 158.389 22.1632C156.952 22.1632 155.788 20.9989 155.788 19.5626C155.788 18.1263 156.952 16.962 158.389 16.962C159.825 16.962 160.989 18.1263 160.989 19.5626Z" fill="#E7E7E7"/>
<path d="M160.989 39.6086C160.989 41.0449 159.825 42.2092 158.389 42.2092C156.952 42.2092 155.788 41.0449 155.788 39.6086C155.788 38.1723 156.952 37.008 158.389 37.008C159.825 37.008 160.989 38.1723 160.989 39.6086Z" fill="#E7E7E7"/>
<path d="M160.989 59.1408C160.989 60.577 159.825 61.7412 158.389 61.7412C156.952 61.7412 155.788 60.577 155.788 59.1408C155.788 57.7042 156.952 56.54 158.389 56.54C159.825 56.54 160.989 57.7042 160.989 59.1408Z" fill="#E7E7E7"/>
<path d="M160.989 79.1868C160.989 80.623 159.825 81.7872 158.389 81.7872C156.952 81.7872 155.788 80.623 155.788 79.1868C155.788 77.7502 156.952 76.586 158.389 76.586C159.825 76.586 160.989 77.7502 160.989 79.1868Z" fill="#E7E7E7"/>
<path d="M160.989 98.7188C160.989 100.155 159.825 101.319 158.389 101.319C156.952 101.319 155.788 100.155 155.788 98.7188C155.788 97.2822 156.952 96.118 158.389 96.118C159.825 96.118 160.989 97.2822 160.989 98.7188Z" fill="#E7E7E7"/>
<path d="M160.989 118.765C160.989 120.201 159.825 121.365 158.389 121.365C156.952 121.365 155.788 120.201 155.788 118.765C155.788 117.328 156.952 116.164 158.389 116.164C159.825 116.164 160.989 117.328 160.989 118.765Z" fill="#E7E7E7"/>
<path d="M160.989 138.297C160.989 139.733 159.825 140.897 158.389 140.897C156.952 140.897 155.788 139.733 155.788 138.297C155.788 136.86 156.952 135.696 158.389 135.696C159.825 135.696 160.989 136.86 160.989 138.297Z" fill="#E7E7E7"/>
<path d="M160.989 158.343C160.989 159.779 159.825 160.943 158.389 160.943C156.952 160.943 155.788 159.779 155.788 158.343C155.788 156.906 156.952 155.742 158.389 155.742C159.825 155.742 160.989 156.906 160.989 158.343Z" fill="#E7E7E7"/>
<path d="M160.989 177.875C160.989 179.311 159.825 180.475 158.389 180.475C156.952 180.475 155.788 179.311 155.788 177.875C155.788 176.438 156.952 175.274 158.389 175.274C159.825 175.274 160.989 176.438 160.989 177.875Z" fill="#E7E7E7"/>
<path d="M160.989 197.921C160.989 199.357 159.825 200.521 158.389 200.521C156.952 200.521 155.788 199.357 155.788 197.921C155.788 196.484 156.952 195.32 158.389 195.32C159.825 195.32 160.989 196.484 160.989 197.921Z" fill="#E7E7E7"/>
<path d="M160.989 217.453C160.989 218.889 159.825 220.053 158.389 220.053C156.952 220.053 155.788 218.889 155.788 217.453C155.788 216.016 156.952 214.852 158.389 214.852C159.825 214.852 160.989 216.016 160.989 217.453Z" fill="#E7E7E7"/>
<path d="M200.567 19.5626C200.567 20.9989 199.403 22.1632 197.967 22.1632C196.53 22.1632 195.366 20.9989 195.366 19.5626C195.366 18.1263 196.53 16.962 197.967 16.962C199.403 16.962 200.567 18.1263 200.567 19.5626Z" fill="#E7E7E7"/>
<path d="M200.567 39.6086C200.567 41.0449 199.403 42.2092 197.967 42.2092C196.53 42.2092 195.366 41.0449 195.366 39.6086C195.366 38.1723 196.53 37.008 197.967 37.008C199.403 37.008 200.567 38.1723 200.567 39.6086Z" fill="#E7E7E7"/>
<path d="M200.567 59.1408C200.567 60.577 199.403 61.7412 197.967 61.7412C196.53 61.7412 195.366 60.577 195.366 59.1408C195.366 57.7042 196.53 56.54 197.967 56.54C199.403 56.54 200.567 57.7042 200.567 59.1408Z" fill="#E7E7E7"/>
<path d="M200.567 79.1868C200.567 80.623 199.403 81.7872 197.967 81.7872C196.53 81.7872 195.366 80.623 195.366 79.1868C195.366 77.7502 196.53 76.586 197.967 76.586C199.403 76.586 200.567 77.7502 200.567 79.1868Z" fill="#E7E7E7"/>
<path d="M200.567 98.7188C200.567 100.155 199.403 101.319 197.967 101.319C196.53 101.319 195.366 100.155 195.366 98.7188C195.366 97.2822 196.53 96.118 197.967 96.118C199.403 96.118 200.567 97.2822 200.567 98.7188Z" fill="#E7E7E7"/>
<path d="M200.567 118.765C200.567 120.201 199.403 121.365 197.967 121.365C196.53 121.365 195.366 120.201 195.366 118.765C195.366 117.328 196.53 116.164 197.967 116.164C199.403 116.164 200.567 117.328 200.567 118.765Z" fill="#E7E7E7"/>
<path d="M200.567 138.297C200.567 139.733 199.403 140.897 197.967 140.897C196.53 140.897 195.366 139.733 195.366 138.297C195.366 136.86 196.53 135.696 197.967 135.696C199.403 135.696 200.567 136.86 200.567 138.297Z" fill="#E7E7E7"/>
<path d="M200.567 158.343C200.567 159.779 199.403 160.943 197.967 160.943C196.53 160.943 195.366 159.779 195.366 158.343C195.366 156.906 196.53 155.742 197.967 155.742C199.403 155.742 200.567 156.906 200.567 158.343Z" fill="#E7E7E7"/>
<path d="M200.567 177.875C200.567 179.311 199.403 180.475 197.967 180.475C196.53 180.475 195.366 179.311 195.366 177.875C195.366 176.438 196.53 175.274 197.967 175.274C199.403 175.274 200.567 176.438 200.567 177.875Z" fill="#E7E7E7"/>
<path d="M200.567 197.921C200.567 199.357 199.403 200.521 197.967 200.521C196.53 200.521 195.366 199.357 195.366 197.921C195.366 196.484 196.53 195.32 197.967 195.32C199.403 195.32 200.567 196.484 200.567 197.921Z" fill="#E7E7E7"/>
<path d="M200.567 217.453C200.567 218.889 199.403 220.053 197.967 220.053C196.53 220.053 195.366 218.889 195.366 217.453C195.366 216.016 196.53 214.852 197.967 214.852C199.403 214.852 200.567 216.016 200.567 217.453Z" fill="#E7E7E7"/>
<path d="M237 2.63101C235.578 2.61462 234.43 1.45665 234.43 0.0305951C234.43 0.0203829 234.43 0.0101844 234.43 0H237V2.63101Z" fill="#E7E7E7"/>
<path d="M200.567 0C200.567 1.43626 199.403 2.60057 197.967 2.60057C196.53 2.60057 195.366 1.43626 195.366 0H200.567Z" fill="#E7E7E7"/>
<path d="M180.521 0C180.521 1.43626 179.357 2.60057 177.921 2.60057C176.484 2.60057 175.32 1.43626 175.32 0H180.521Z" fill="#E7E7E7"/>
<path d="M160.989 0C160.989 1.43626 159.825 2.60057 158.389 2.60057C156.952 2.60057 155.788 1.43626 155.788 0H160.989Z" fill="#E7E7E7"/>
<path d="M140.943 0C140.943 1.43626 139.779 2.60057 138.343 2.60057C136.906 2.60057 135.742 1.43626 135.742 0H140.943Z" fill="#E7E7E7"/>
<path d="M121.411 0C121.411 1.43626 120.247 2.60057 118.811 2.60057C117.374 2.60057 116.21 1.43626 116.21 0H121.411Z" fill="#E7E7E7"/>
<path d="M101.365 0C101.365 1.43626 100.201 2.60057 98.7649 2.60057C97.3283 2.60057 96.1641 1.43626 96.1641 0H101.365Z" fill="#E7E7E7"/>
<path d="M81.8332 0C81.8332 1.43626 80.669 2.60057 79.2329 2.60057C77.7963 2.60057 76.6321 1.43626 76.6321 0H81.8332Z" fill="#E7E7E7"/>
<path d="M61.7872 0C61.7872 1.43626 60.623 2.60057 59.1869 2.60057C57.7503 2.60057 56.5861 1.43626 56.5861 0H61.7872Z" fill="#E7E7E7"/>
<path d="M42.2552 0C42.2552 1.43626 41.091 2.60057 39.6549 2.60057C38.2183 2.60057 37.0541 1.43626 37.0541 0H42.2552Z" fill="#E7E7E7"/>
<path d="M22.7232 0C22.7232 1.43626 21.5589 2.60057 20.1227 2.60057C18.6864 2.60057 17.5221 1.43626 17.5221 0H22.7232Z" fill="#E7E7E7"/>
<path d="M2.67724 0C2.67724 1.43626 1.51293 2.60057 0.0766611 2.60057L0.0766602 0H2.67724Z" fill="#E7E7E7"/>
<path d="M237 234.323V236.923H234.43C234.43 235.497 235.578 234.339 237 234.323Z" fill="#E7E7E7"/>
<path d="M237 214.791V219.992C235.578 219.976 234.43 218.818 234.43 217.391C234.43 215.965 235.578 214.807 237 214.791Z" fill="#E7E7E7"/>
<path d="M237 195.259V200.46C235.578 200.444 234.43 199.286 234.43 197.859C234.43 196.433 235.578 195.275 237 195.259Z" fill="#E7E7E7"/>
<path d="M237 175.213V180.414C235.578 180.398 234.43 179.24 234.43 177.813C234.43 176.387 235.578 175.229 237 175.213Z" fill="#E7E7E7"/>
<path d="M237 155.681V160.882C235.578 160.866 234.43 159.708 234.43 158.281C234.43 156.855 235.578 155.697 237 155.681Z" fill="#E7E7E7"/>
<path d="M237 135.635V140.836C235.578 140.82 234.43 139.662 234.43 138.235C234.43 136.809 235.578 135.651 237 135.635Z" fill="#E7E7E7"/>
<path d="M237 116.103V121.304C235.578 121.288 234.43 120.13 234.43 118.703C234.43 117.277 235.578 116.119 237 116.103Z" fill="#E7E7E7"/>
<path d="M237 96.0568V101.258C235.578 101.242 234.43 100.084 234.43 98.6572C234.43 97.2313 235.578 96.0733 237 96.0568Z" fill="#E7E7E7"/>
<path d="M237 76.5248V81.726C235.578 81.7095 234.43 80.5515 234.43 79.1252C234.43 77.6993 235.578 76.5413 237 76.5248Z" fill="#E7E7E7"/>
<path d="M237 56.4788V61.68C235.578 61.6636 234.43 60.5055 234.43 59.0792C234.43 57.6533 235.578 56.4953 237 56.4788Z" fill="#E7E7E7"/>
<path d="M237 36.947V42.1479C235.578 42.1315 234.43 40.9735 234.43 39.5474C234.43 38.1213 235.578 36.9634 237 36.947Z" fill="#E7E7E7"/>
<path d="M237 16.901V22.1018C235.578 22.0854 234.43 20.9275 234.43 19.5014C234.43 18.0753 235.578 16.9174 237 16.901Z" fill="#E7E7E7"/>
<path d="M220.099 0C220.099 1.43626 218.935 2.60057 217.499 2.60057C216.062 2.60057 214.898 1.43626 214.898 0H220.099Z" fill="#E7E7E7"/>
<path d="M2.67724 138.297C2.67724 139.733 1.51293 140.897 0.0766611 140.897V135.696C1.51293 135.696 2.67724 136.86 2.67724 138.297Z" fill="#E7E7E7"/>
<path d="M2.67724 158.343C2.67724 159.779 1.51293 160.943 0.0766611 160.943V155.742C1.51293 155.742 2.67724 156.906 2.67724 158.343Z" fill="#E7E7E7"/>
<path d="M2.67724 177.875C2.67724 179.311 1.51293 180.475 0.0766611 180.475V175.274C1.51293 175.274 2.67724 176.438 2.67724 177.875Z" fill="#E7E7E7"/>
<path d="M2.67724 197.921C2.67724 199.357 1.51293 200.521 0.0766611 200.521V195.32C1.51293 195.32 2.67724 196.484 2.67724 197.921Z" fill="#E7E7E7"/>
<path d="M2.67724 217.453C2.67724 218.889 1.51293 220.053 0.0766611 220.053V214.852C1.51293 214.852 2.67724 216.016 2.67724 217.453Z" fill="#E7E7E7"/>
<path d="M2.67724 236.985H0.0766611V234.384C1.51293 234.384 2.67724 235.548 2.67724 236.985Z" fill="#E7E7E7"/>
<path d="M42.2552 236.985H37.0541C37.0541 235.548 38.2183 234.384 39.6549 234.384C41.091 234.384 42.2552 235.548 42.2552 236.985Z" fill="#E7E7E7"/>
<path d="M61.7872 236.985H56.5861C56.5861 235.548 57.7503 234.384 59.1869 234.384C60.623 234.384 61.7872 235.548 61.7872 236.985Z" fill="#E7E7E7"/>
<path d="M81.8332 236.985H76.6321C76.6321 235.548 77.7963 234.384 79.2329 234.384C80.669 234.384 81.8332 235.548 81.8332 236.985Z" fill="#E7E7E7"/>
<path d="M101.365 236.985H96.1641C96.1641 235.548 97.3283 234.384 98.7649 234.384C100.201 234.384 101.365 235.548 101.365 236.985Z" fill="#E7E7E7"/>
<path d="M121.411 236.985H116.21C116.21 235.548 117.374 234.384 118.811 234.384C120.247 234.384 121.411 235.548 121.411 236.985Z" fill="#E7E7E7"/>
<path d="M140.943 236.985H135.742C135.742 235.548 136.906 234.384 138.343 234.384C139.779 234.384 140.943 235.548 140.943 236.985Z" fill="#E7E7E7"/>
<path d="M160.989 236.985H155.788C155.788 235.548 156.952 234.384 158.389 234.384C159.825 234.384 160.989 235.548 160.989 236.985Z" fill="#E7E7E7"/>
<path d="M180.521 236.985H175.32C175.32 235.548 176.484 234.384 177.921 234.384C179.357 234.384 180.521 235.548 180.521 236.985Z" fill="#E7E7E7"/>
<path d="M200.567 236.985H195.366C195.366 235.548 196.53 234.384 197.967 234.384C199.403 234.384 200.567 235.548 200.567 236.985Z" fill="#E7E7E7"/>
<path d="M220.099 236.985H214.898C214.898 235.548 216.062 234.384 217.499 234.384C218.935 234.384 220.099 235.548 220.099 236.985Z" fill="#E7E7E7"/>
</svg>
