<svg width="100" height="144" viewBox="0 0 100 144" fill="none" xmlns="http://www.w3.org/2000/svg">
<g filter="url(#filter0_d_358_659)">
<path d="M83.6538 55.8718H16.3461C11.0357 55.8718 6.73071 62.1127 6.73071 69.8112V118.599C6.73071 126.298 11.0357 132.538 16.3461 132.538H83.6538C88.9642 132.538 93.2692 126.298 93.2692 118.599V69.8112C93.2692 62.1127 88.9642 55.8718 83.6538 55.8718Z" stroke="#3DB3E5" stroke-width="5" stroke-linecap="round" stroke-linejoin="round" shape-rendering="crispEdges"/>
</g>
<path d="M18.8462 55.8719V32.2821C18.8462 24.4616 22.1386 16.9614 27.9991 11.4315C33.8596 5.9016 41.8082 2.79492 50.0962 2.79492C58.3842 2.79492 66.3328 5.9016 72.1933 11.4315C78.0538 16.9614 81.3462 24.4616 81.3462 32.2821V55.8719" stroke="#3DB3E5" stroke-width="5" stroke-linecap="round" stroke-linejoin="round"/>
<ellipse cx="49.9988" cy="98.9231" rx="5.76923" ry="5.89744" transform="rotate(180 49.9988 98.9231)" fill="#3DB3E5"/>
<rect x="52.8857" y="114.256" width="5.76923" height="12.9744" rx="2.88462" transform="rotate(180 52.8857 114.256)" fill="#3DB3E5"/>
<defs>
<filter id="filter0_d_358_659" x="0.230713" y="53.3718" width="99.5386" height="89.6667" filterUnits="userSpaceOnUse" color-interpolation-filters="sRGB">
<feFlood flood-opacity="0" result="BackgroundImageFix"/>
<feColorMatrix in="SourceAlpha" type="matrix" values="0 0 0 0 0 0 0 0 0 0 0 0 0 0 0 0 0 0 127 0" result="hardAlpha"/>
<feOffset dy="4"/>
<feGaussianBlur stdDeviation="2"/>
<feComposite in2="hardAlpha" operator="out"/>
<feColorMatrix type="matrix" values="0 0 0 0 0 0 0 0 0 0 0 0 0 0 0 0 0 0 0.1 0"/>
<feBlend mode="normal" in2="BackgroundImageFix" result="effect1_dropShadow_358_659"/>
<feBlend mode="normal" in="SourceGraphic" in2="effect1_dropShadow_358_659" result="shape"/>
</filter>
</defs>
</svg>
