<svg width="106" height="100" viewBox="0 0 106 100" fill="none" xmlns="http://www.w3.org/2000/svg">
<path d="M0.580566 32.2579H105.419V99.9998H0.580566V32.2579Z" fill="#FDFDFD"/>
<path d="M0.580566 8.0646H105.419V32.2579H0.580566V8.0646Z" fill="#0D469A"/>
<path d="M15.0966 0H24.774V17.7419H15.0966V0Z" fill="#FDFDFD"/>
<path d="M81.2258 0H90.9032V17.7419H81.2258V0Z" fill="#FDFDFD"/>
<path d="M66.9095 53.3614H48.7934V61.3743C49.5676 60.5227 50.6515 59.8259 52.045 59.284C53.4385 58.742 54.9482 58.4711 56.574 58.4711C59.4773 58.4711 61.8773 59.1291 63.774 60.4453C65.7095 61.7614 67.1224 63.4646 68.0127 65.555C68.9031 67.6453 69.3482 69.9098 69.3482 72.3485C69.3482 76.8775 68.0708 80.4775 65.516 83.1485C62.9611 85.7808 59.3611 87.0969 54.716 87.0969C51.6192 87.0969 48.9289 86.5743 46.645 85.5292C44.3611 84.4453 42.5998 82.955 41.3611 81.0582C40.1224 79.1614 39.445 76.9743 39.3289 74.4969H49.0256C49.2579 75.6969 49.8192 76.7033 50.7095 77.5163C51.5998 78.2904 52.8192 78.6775 54.3676 78.6775C56.1869 78.6775 57.5418 78.0969 58.4321 76.9356C59.3224 75.7743 59.7676 74.2259 59.7676 72.2904C59.7676 70.3937 59.3031 68.9421 58.374 67.9356C57.445 66.9291 56.0902 66.4259 54.3095 66.4259C52.9934 66.4259 51.9095 66.755 51.0579 67.413C50.2063 68.0324 49.645 68.8646 49.374 69.9098H39.7934V44.6517H66.9095V53.3614Z" fill="#0D4699"/>
<path d="M38.5483 14.5966V22.6773C38.5483 23.6773 38.2418 24.4676 37.6289 25.0482C37.0268 25.6289 36.2311 25.9192 35.2418 25.9192C34.2526 25.9192 33.4515 25.6289 32.8386 25.0482C32.2365 24.4676 31.9354 23.6773 31.9354 22.6773H33.7902C33.801 23.1719 33.9246 23.5644 34.1612 23.8547C34.4085 24.145 34.7687 24.2902 35.2418 24.2902C35.715 24.2902 36.0752 24.145 36.3225 23.8547C36.5698 23.5536 36.6935 23.1611 36.6935 22.6773V14.5966H38.5483Z" fill="white"/>
<path d="M43.7115 14.5966V21.7418C43.7115 22.5913 43.9319 23.231 44.3727 23.6611C44.8244 24.0913 45.448 24.3063 46.2437 24.3063C47.0502 24.3063 47.6738 24.0913 48.1147 23.6611C48.5663 23.231 48.7921 22.5913 48.7921 21.7418V14.5966H50.6308V21.7095C50.6308 22.6235 50.4319 23.3977 50.034 24.0321C49.6362 24.6665 49.1039 25.1396 48.4373 25.4515C47.7706 25.7633 47.034 25.9192 46.2276 25.9192C45.4211 25.9192 44.6846 25.7633 44.0179 25.4515C43.362 25.1396 42.8405 24.6665 42.4534 24.0321C42.0663 23.3977 41.8727 22.6235 41.8727 21.7095V14.5966H43.7115Z" fill="white"/>
<path d="M62.5839 25.8063H60.7452L55.2129 17.4353V25.8063H53.3742V14.5805H55.2129L60.7452 22.9353V14.5805H62.5839V25.8063Z" fill="white"/>
<path d="M67.1866 16.0805V19.3708H71.0576V20.8708H67.1866V24.3063H71.5414V25.8063H65.3479V14.5805H71.5414V16.0805H67.1866Z" fill="white"/>
<path fill-rule="evenodd" clip-rule="evenodd" d="M53 68.5481L34.4516 87.0965L29.8896 82.5345L48.438 63.9861L29.6129 45.161L34.1748 40.599L53 59.4241L71.8251 40.599L76.3871 45.161L57.5619 63.9861L76.1103 82.5345L71.5484 87.0965L53 68.5481Z" fill="#FF9900" fill-opacity="0.6"/>
</svg>
