<svg width="179" height="117" viewBox="0 0 179 117" fill="none" xmlns="http://www.w3.org/2000/svg">
<path d="M50.8235 107.395C51.1898 107.395 51.5842 107.433 52.0069 107.508C52.4389 107.574 52.6925 107.612 52.7677 107.621L52.7395 108.682C51.913 108.531 51.2743 108.456 50.8235 108.456C50.1848 108.456 49.7246 108.588 49.4428 108.852C49.161 109.116 49.0201 109.555 49.0201 110.168V114.213C49.0201 114.826 49.1563 115.265 49.4287 115.529C49.7105 115.783 50.1754 115.911 50.8235 115.911C51.2743 115.911 51.913 115.835 52.7395 115.684L52.7677 116.774C52.6925 116.783 52.4389 116.821 52.0069 116.887C51.5842 116.962 51.1898 117 50.8235 117C49.7433 117 48.9732 116.769 48.513 116.307C48.0527 115.845 47.8226 115.123 47.8226 114.143V110.252C47.8226 109.272 48.0527 108.55 48.513 108.088C48.9732 107.626 49.7433 107.395 50.8235 107.395Z" fill="black"/>
<path d="M57.0306 107.395C58.1389 107.395 58.9607 107.621 59.4961 108.074C60.0408 108.517 60.3132 109.154 60.3132 109.984V110.323C60.3132 111.21 60.0502 111.893 59.5243 112.374C58.9983 112.855 58.2046 113.096 57.1433 113.096C56.7207 113.096 56.2698 113.058 55.7908 112.983V116.83H54.5933V107.466C55.3917 107.419 56.2041 107.395 57.0306 107.395ZM57.0024 108.413C56.5892 108.413 56.1853 108.423 55.7908 108.442V111.95C56.3544 112.025 56.7864 112.063 57.087 112.063C58.4394 112.063 59.1157 111.464 59.1157 110.267V110.026C59.1157 109.489 58.9466 109.088 58.6085 108.824C58.2704 108.55 57.735 108.413 57.0024 108.413Z" fill="black"/>
<path d="M63.7488 109.757C64.5565 109.757 65.1435 109.941 65.5098 110.309C65.8855 110.667 66.0734 111.243 66.0734 112.035V116.83H64.9322V115.727C64.3875 116.576 63.7723 117 63.0866 117C62.5419 117 62.1051 116.811 61.7764 116.434C61.4571 116.057 61.2974 115.543 61.2974 114.892V114.496C61.2974 113.93 61.4899 113.464 61.875 113.096C62.2601 112.719 62.7767 112.53 63.4248 112.53C63.7817 112.53 64.2654 112.591 64.8759 112.714V111.936C64.8759 111.53 64.7819 111.238 64.5941 111.059C64.4156 110.88 64.1339 110.79 63.7488 110.79C63.298 110.79 62.664 110.861 61.8469 111.002V109.969C62.7297 109.828 63.3637 109.757 63.7488 109.757ZM63.7206 113.464C63.3261 113.464 63.0256 113.567 62.819 113.775C62.6123 113.982 62.509 114.275 62.509 114.652V114.807C62.509 115.156 62.5888 115.43 62.7485 115.628C62.9082 115.826 63.1101 115.925 63.3543 115.925C63.6079 115.925 63.8662 115.816 64.1292 115.6C64.4015 115.373 64.6504 115.057 64.8759 114.652V113.563C64.5189 113.497 64.1339 113.464 63.7206 113.464Z" fill="black"/>
<path d="M70.0776 109.757C70.8853 109.757 71.4723 109.941 71.8386 110.309C72.2143 110.667 72.4021 111.243 72.4021 112.035V116.83H71.261V115.727C70.7162 116.576 70.101 117 69.4154 117C68.8706 117 68.4339 116.811 68.1052 116.434C67.7858 116.057 67.6262 115.543 67.6262 114.892V114.496C67.6262 113.93 67.8187 113.464 68.2038 113.096C68.5889 112.719 69.1055 112.53 69.7535 112.53C70.1104 112.53 70.5941 112.591 71.2046 112.714V111.936C71.2046 111.53 71.1107 111.238 70.9229 111.059C70.7444 110.88 70.4626 110.79 70.0776 110.79C69.6267 110.79 68.9927 110.861 68.1756 111.002V109.969C69.0585 109.828 69.6925 109.757 70.0776 109.757ZM70.0494 113.464C69.6549 113.464 69.3543 113.567 69.1477 113.775C68.9411 113.982 68.8378 114.275 68.8378 114.652V114.807C68.8378 115.156 68.9176 115.43 69.0773 115.628C69.2369 115.826 69.4389 115.925 69.6831 115.925C69.9367 115.925 70.195 115.816 70.4579 115.6C70.7303 115.373 70.9792 115.057 71.2046 114.652V113.563C70.8477 113.497 70.4626 113.464 70.0494 113.464Z" fill="black"/>
<path d="M76.6881 107.395C77.1953 107.395 77.8574 107.47 78.6746 107.621L78.6464 108.682C77.8762 108.531 77.2235 108.456 76.6881 108.456C76.1433 108.456 75.7489 108.564 75.5047 108.781C75.2699 108.998 75.1525 109.328 75.1525 109.771V110.139C75.1525 110.375 75.1806 110.564 75.237 110.705C75.3027 110.837 75.4154 110.955 75.5751 111.059C75.7348 111.153 75.9743 111.252 76.2936 111.356L77.6038 111.794C78.2331 112.011 78.6746 112.299 78.9281 112.657C79.1911 113.016 79.3226 113.539 79.3226 114.227V114.496C79.3226 115.336 79.0784 115.963 78.59 116.378C78.111 116.793 77.3221 117 76.2232 117C75.6878 117 75.0022 116.906 74.1663 116.717L74.1944 115.628C74.974 115.816 75.6409 115.911 76.195 115.911C76.8994 115.911 77.3972 115.807 77.6884 115.6C77.9795 115.383 78.1251 115.048 78.1251 114.595V114.128C78.1251 113.798 78.05 113.548 77.8997 113.379C77.7588 113.199 77.5052 113.049 77.1389 112.926L75.6878 112.445C75.0397 112.228 74.5889 111.95 74.3353 111.61C74.0817 111.261 73.9549 110.738 73.9549 110.04V109.885C73.9549 109.064 74.171 108.446 74.603 108.032C75.0444 107.607 75.7395 107.395 76.6881 107.395Z" fill="black"/>
<path d="M88.3718 107.395C89.4801 107.395 90.3019 107.621 90.8372 108.074C91.382 108.517 91.6544 109.154 91.6544 109.984V110.323C91.6544 111.21 91.3914 111.893 90.8654 112.374C90.3394 112.855 89.5458 113.096 88.4845 113.096C88.0618 113.096 87.611 113.058 87.132 112.983V116.83H85.9345V107.466C86.7328 107.419 87.5452 107.395 88.3718 107.395ZM88.3436 108.413C87.9303 108.413 87.5265 108.423 87.132 108.442V111.95C87.6955 112.025 88.1276 112.063 88.4281 112.063C89.7806 112.063 90.4568 111.464 90.4568 110.267V110.026C90.4568 109.489 90.2878 109.088 89.9497 108.824C89.6115 108.55 89.0762 108.413 88.3436 108.413Z" fill="black"/>
<path d="M94.2571 107.169V116.83H93.0596V107.169H94.2571Z" fill="black"/>
<path d="M98.3231 109.757C99.1309 109.757 99.7179 109.941 100.084 110.309C100.46 110.667 100.648 111.243 100.648 112.035V116.83H99.5065V115.727C98.9618 116.576 98.3466 117 97.661 117C97.1162 117 96.6795 116.811 96.3507 116.434C96.0314 116.057 95.8717 115.543 95.8717 114.892V114.496C95.8717 113.93 96.0643 113.464 96.4494 113.096C96.8344 112.719 97.351 112.53 97.9991 112.53C98.356 112.53 98.8397 112.591 99.4502 112.714V111.936C99.4502 111.53 99.3563 111.238 99.1684 111.059C98.99 110.88 98.7082 110.79 98.3231 110.79C97.8723 110.79 97.2383 110.861 96.4212 111.002V109.969C97.3041 109.828 97.938 109.757 98.3231 109.757ZM98.2949 113.464C97.9005 113.464 97.5999 113.567 97.3933 113.775C97.1867 113.982 97.0833 114.275 97.0833 114.652V114.807C97.0833 115.156 97.1632 115.43 97.3228 115.628C97.4825 115.826 97.6845 115.925 97.9286 115.925C98.1822 115.925 98.4405 115.816 98.7035 115.6C98.9759 115.373 99.2248 115.057 99.4502 114.652V113.563C99.0933 113.497 98.7082 113.464 98.2949 113.464Z" fill="black"/>
<path d="M103.962 109.927H105.793V110.917H103.962V114.963C103.962 115.321 104.032 115.581 104.173 115.741C104.323 115.892 104.553 115.967 104.863 115.967C105.258 115.967 105.643 115.92 106.018 115.826L106.047 116.83C105.633 116.943 105.258 117 104.92 117C104.168 117 103.619 116.835 103.271 116.505C102.933 116.165 102.764 115.618 102.764 114.864V110.917H101.778V109.927H102.764L102.989 108.088H103.962V109.927Z" fill="black"/>
<path d="M110.055 106.999C110.365 106.999 110.661 107.032 110.943 107.098V108.06C110.661 108.013 110.37 107.989 110.069 107.989C109.778 107.989 109.548 108.083 109.379 108.272C109.219 108.461 109.14 108.748 109.14 109.135V109.927H110.548V110.917H109.14V116.83H107.942V110.917H106.956V109.927H107.942V109.206C107.951 108.47 108.135 107.918 108.492 107.551C108.848 107.183 109.37 106.999 110.055 106.999Z" fill="black"/>
<path d="M113.986 109.757C114.821 109.757 115.441 109.984 115.845 110.436C116.258 110.88 116.465 111.511 116.465 112.332V114.425C116.465 115.246 116.258 115.882 115.845 116.335C115.441 116.778 114.821 117 113.986 117C113.15 117 112.525 116.778 112.112 116.335C111.708 115.882 111.506 115.246 111.506 114.425V112.332C111.506 111.511 111.708 110.88 112.112 110.436C112.525 109.984 113.15 109.757 113.986 109.757ZM113.986 110.762C113.582 110.762 113.267 110.889 113.042 111.144C112.816 111.398 112.704 111.761 112.704 112.233V114.524C112.704 114.996 112.816 115.359 113.042 115.614C113.267 115.868 113.582 115.996 113.986 115.996C114.389 115.996 114.704 115.868 114.929 115.614C115.155 115.359 115.268 114.996 115.268 114.524V112.219C115.268 111.747 115.155 111.389 114.929 111.144C114.704 110.889 114.389 110.762 113.986 110.762Z" fill="black"/>
<path d="M121.293 109.757C121.424 109.757 121.528 109.767 121.603 109.786V111.144C121.462 111.115 121.279 111.101 121.053 111.101C120.396 111.101 119.875 111.431 119.49 112.091V116.83H118.292V109.927H119.419V110.96C119.673 110.573 119.955 110.276 120.264 110.069C120.584 109.861 120.927 109.757 121.293 109.757Z" fill="black"/>
<path d="M129.481 109.757C130.082 109.757 130.542 109.965 130.862 110.38C131.181 110.785 131.341 111.365 131.341 112.12V116.83H130.143V112.289C130.143 111.346 129.843 110.875 129.242 110.875C128.979 110.875 128.706 110.979 128.424 111.186C128.152 111.394 127.913 111.676 127.706 112.035V116.83H126.508V112.289C126.508 111.346 126.208 110.875 125.607 110.875C125.344 110.875 125.071 110.979 124.79 111.186C124.517 111.394 124.278 111.676 124.071 112.035V116.83H122.874V109.927H124.001V110.96C124.245 110.573 124.527 110.276 124.846 110.069C125.165 109.861 125.499 109.757 125.846 109.757C126.278 109.757 126.64 109.87 126.931 110.097C127.222 110.314 127.434 110.634 127.565 111.059C127.819 110.634 128.11 110.314 128.438 110.097C128.767 109.87 129.115 109.757 129.481 109.757Z" fill="black"/>
<path fill-rule="evenodd" clip-rule="evenodd" d="M137.003 87.0576V96.3261H146.087V87.0576H137.003ZM134.291 96.3261V87.0576C134.291 85.552 135.505 84.3315 137.003 84.3315H146.087C147.584 84.3315 148.798 85.552 148.798 87.0576V96.3261C148.798 97.8316 147.584 99.0521 146.087 99.0521H137.003C135.505 99.0521 134.291 97.8316 134.291 96.3261Z" fill="black"/>
<path d="M116.395 84.4678H113.412L121.818 99.0521H124.123L132.664 84.4678H129.682L122.903 95.9172L116.395 84.4678Z" fill="black"/>
<path fill-rule="evenodd" clip-rule="evenodd" d="M112.942 84.1952H116.552L122.908 95.3761L129.528 84.1952H133.139L124.278 99.3247H121.662L112.942 84.1952ZM113.883 84.7404L121.974 98.7795H123.968L132.19 84.7404H129.836L122.898 96.4582L116.238 84.7404H113.883Z" fill="black"/>
<path fill-rule="evenodd" clip-rule="evenodd" d="M96.3293 87.0575C96.3293 85.3262 97.7254 83.9226 99.4476 83.9226H108.667C110.389 83.9226 111.785 85.3262 111.785 87.0575V99.461H108.26V94.5541H99.7188V99.461H96.3293V87.0575ZM99.4476 84.7404C98.1747 84.7404 97.1428 85.7778 97.1428 87.0575V98.6432H98.9053V93.7363H109.074V98.6432H110.972V87.0575C110.972 85.7778 109.94 84.7404 108.667 84.7404H99.4476ZM99.7188 87.4664V91.0103H108.26V87.4664H99.7188ZM98.9053 87.3301C98.9053 86.9538 99.2088 86.6486 99.5832 86.6486H108.396C108.77 86.6486 109.074 86.9538 109.074 87.3301V91.1466C109.074 91.523 108.77 91.8281 108.396 91.8281H99.5832C99.2088 91.8281 98.9053 91.523 98.9053 91.1466V87.3301Z" fill="#3DB3E5"/>
<path fill-rule="evenodd" clip-rule="evenodd" d="M79.1107 83.9226H91.584C93.3062 83.9226 94.7023 85.3262 94.7023 87.0575V96.1898C94.7023 97.9211 93.3062 99.3247 91.584 99.3247H79.1107V83.9226ZM79.9242 84.7404V98.5069H91.584C92.8569 98.5069 93.8888 97.4695 93.8888 96.1898V87.0575C93.8888 85.7778 92.8569 84.7404 91.584 84.7404H79.9242ZM81.8223 87.3301C81.8223 86.9538 82.1258 86.6486 82.5002 86.6486H91.4484C91.8228 86.6486 92.1263 86.9538 92.1263 87.3301V96.0534C92.1263 96.4298 91.8228 96.735 91.4484 96.735H82.5002C82.1258 96.735 81.8223 96.4298 81.8223 96.0534V87.3301ZM82.6358 87.4664V95.9171H91.3128V87.4664H82.6358Z" fill="#3DB3E5"/>
<path fill-rule="evenodd" clip-rule="evenodd" d="M65.4173 87.0576V96.3261H74.5011V87.0576H65.4173ZM62.7057 96.3261V87.0576C62.7057 85.552 63.9197 84.3315 65.4173 84.3315H74.5011C75.9986 84.3315 77.2126 85.552 77.2126 87.0576V96.3261C77.2126 97.8316 75.9986 99.0521 74.5011 99.0521H65.4173C63.9197 99.0521 62.7057 97.8316 62.7057 96.3261Z" fill="black"/>
<path d="M45.8869 99.0521H44.2669C43.9674 99.0521 43.7246 98.808 43.7246 98.5069V84.8767C43.7246 84.5756 43.9674 84.3315 44.2669 84.3315H46.1788C46.3417 84.3315 46.4959 84.4051 46.5989 84.532L51.8594 91.0103L56.9841 84.5372C57.087 84.4073 57.2432 84.3315 57.4084 84.3315H59.5874C59.8869 84.3315 60.1297 84.5756 60.1297 84.8767V98.5069C60.1297 98.808 59.8869 99.0521 59.5874 99.0521H58.096C57.7965 99.0521 57.5537 98.808 57.5537 98.5069V88.148L51.8594 94.9631L46.3006 88.4206L46.4291 98.4999C46.433 98.8037 46.1891 99.0521 45.8869 99.0521Z" fill="black"/>
<path fill-rule="evenodd" clip-rule="evenodd" d="M46.0199 87.6704L51.8576 94.5413L57.8248 87.3996V98.5069C57.8248 98.6575 57.9462 98.7795 58.096 98.7795H59.5874C59.7371 98.7795 59.8585 98.6575 59.8585 98.5069V84.8767C59.8585 84.7262 59.7371 84.6041 59.5874 84.6041H57.4084C57.3258 84.6041 57.2477 84.642 57.1963 84.707L51.862 91.4447L46.3889 84.7044C46.3374 84.6409 46.2603 84.6041 46.1788 84.6041H44.2669C44.1172 84.6041 43.9958 84.7262 43.9958 84.8767V98.5069C43.9958 98.6575 44.1172 98.7795 44.2669 98.7795H45.8869C46.038 98.7795 46.1599 98.6553 46.158 98.5034L46.0199 87.6704ZM51.8594 94.9631L46.3006 88.4206L46.4291 98.4999C46.433 98.8037 46.1891 99.0521 45.8869 99.0521H44.2669C43.9674 99.0521 43.7246 98.808 43.7246 98.5069V84.8767C43.7246 84.5756 43.9674 84.3315 44.2669 84.3315H46.1788C46.3417 84.3315 46.4959 84.4051 46.5989 84.532L51.8594 91.0103L56.9841 84.5372C57.087 84.4073 57.2432 84.3315 57.4084 84.3315H59.5874C59.8869 84.3315 60.1297 84.5756 60.1297 84.8767V98.5069C60.1297 98.808 59.8869 99.0521 59.5874 99.0521H58.096C57.7965 99.0521 57.5537 98.808 57.5537 98.5069V88.148L51.8594 94.9631Z" fill="black"/>
<path fill-rule="evenodd" clip-rule="evenodd" d="M46.0199 87.6704L51.8576 94.5413L57.8248 87.3996V98.5069C57.8248 98.6575 57.9462 98.7795 58.096 98.7795H59.5874C59.7371 98.7795 59.8585 98.6575 59.8585 98.5069V84.8767C59.8585 84.7262 59.7371 84.6041 59.5874 84.6041H57.4084C57.3258 84.6041 57.2477 84.642 57.1963 84.707L51.862 91.4447L46.3889 84.7044C46.3374 84.6409 46.2603 84.6041 46.1788 84.6041H44.2669C44.1172 84.6041 43.9958 84.7262 43.9958 84.8767V98.5069C43.9958 98.6575 44.1172 98.7795 44.2669 98.7795H45.8869C46.038 98.7795 46.1599 98.6553 46.158 98.5034L46.0199 87.6704ZM51.8594 94.9631L46.3006 88.4206L46.4291 98.4999C46.433 98.8037 46.1891 99.0521 45.8869 99.0521H44.2669C43.9674 99.0521 43.7246 98.808 43.7246 98.5069V84.8767C43.7246 84.5756 43.9674 84.3315 44.2669 84.3315H46.1788C46.3417 84.3315 46.4959 84.4051 46.5989 84.532L51.8594 91.0103L56.9841 84.5372C57.087 84.4073 57.2432 84.3315 57.4084 84.3315H59.5874C59.8869 84.3315 60.1297 84.5756 60.1297 84.8767V98.5069C60.1297 98.808 59.8869 99.0521 59.5874 99.0521H58.096C57.7965 99.0521 57.5537 98.808 57.5537 98.5069V88.148L51.8594 94.9631Z" fill="black" fill-opacity="0.2"/>
<path fill-rule="evenodd" clip-rule="evenodd" d="M42.5044 81.4692C41.7452 80.4878 40.29 80.0608 39.6573 79.9699H35.1832C35.1311 79.9664 35.0715 79.9631 35.0051 79.9593C34.2064 79.9146 32.428 79.815 31.1158 78.7432C28.9465 76.9713 27.7263 74.9397 27.7263 72.0644C27.7263 70.0199 28.3304 68.1858 29.6244 66.8849C31.1158 65.3856 32.6072 64.2952 36.2678 64.5678C39.878 64.8367 42.5044 68.248 42.5044 70.0199V81.4692ZM39.2505 76.6986V70.1784C39.2352 70.1388 39.2083 70.0768 39.1635 69.992C39.0256 69.7307 38.7865 69.3907 38.4452 69.0494C37.7428 68.3469 36.8752 67.8932 36.0274 67.8301C34.5496 67.7201 33.8031 67.906 33.3841 68.0815C32.9579 68.2601 32.5732 68.5467 31.9253 69.198C31.3925 69.7336 30.9802 70.6461 30.9802 72.0644C30.9802 73.7489 31.5844 74.911 33.1677 76.2043C33.326 76.3336 33.6166 76.4742 34.0833 76.5706C34.4702 76.6505 34.7845 76.669 35.1407 76.6899C35.1884 76.6927 35.237 76.6956 35.2866 76.6986H39.2505Z" fill="black"/>
<path fill-rule="evenodd" clip-rule="evenodd" d="M46.0295 72.6096H49.419C51.3658 72.6096 52.944 71.023 52.944 69.0657V68.9976C52.944 67.078 51.3961 65.5219 49.4867 65.5219C47.5774 65.5219 46.0295 67.078 46.0295 68.9976V72.6096ZM46.5718 72.0644V68.9976C46.5718 67.3791 47.8769 66.0671 49.4867 66.0671C51.0966 66.0671 52.4017 67.3791 52.4017 68.9976V69.0657C52.4017 70.7218 51.0663 72.0644 49.419 72.0644H46.5718ZM46.3967 74.3815L46.3575 74.3873C46.0081 74.4388 45.6938 74.5881 45.3156 74.8384C45.1312 74.9604 44.9209 75.1138 44.6737 75.3035V67.5664C44.6737 67.0759 45.0356 66.2072 45.7853 65.409C46.5164 64.6306 47.5367 64.0082 48.7287 63.9171C50.0451 63.8164 50.9216 63.971 51.5852 64.2563C52.2507 64.5425 52.7516 64.9805 53.2969 65.5433C54.1461 66.4198 54.571 67.6844 54.571 69.1629C54.571 70.2319 54.4408 70.9291 54.1548 71.5087C53.8667 72.0926 53.3932 72.6134 52.5966 73.2813C52.1935 73.6194 51.5445 73.9004 50.8973 74.0984C50.2456 74.2978 49.7029 74.3815 49.5545 74.3815H46.3967ZM44.1314 67.5664C44.1314 66.198 45.9716 63.5811 48.6876 63.3734C51.4415 63.1629 52.5634 64.005 53.6853 65.1629C54.6588 66.1675 55.1133 67.584 55.1133 69.1629C55.1133 71.3834 54.5759 72.3316 52.944 73.7C51.9687 74.5178 50.0123 74.9267 49.5545 74.9267H46.4362C46.03 74.9866 45.626 75.242 44.6737 75.9933C44.51 76.1224 44.3302 76.2661 44.1314 76.426V67.5664Z" fill="black"/>
<path fill-rule="evenodd" clip-rule="evenodd" d="M37.8933 42.433C34.9606 42.3996 31.8083 42.5875 28.6222 43.1514C22.2174 44.285 15.563 46.9605 10.3436 52.5223C5.10862 58.1007 1.52769 66.3583 0.873837 78.2494C0.3547 87.6904 2.57666 94.9384 6.33582 100.448C10.0763 105.93 15.2296 109.533 20.337 111.901C25.4406 114.267 30.5758 115.438 34.4101 116.02C36.3335 116.313 37.9455 116.459 39.0842 116.533C39.6539 116.57 40.1062 116.589 40.421 116.598C40.5784 116.603 40.7016 116.606 40.7879 116.607C40.8311 116.608 40.8651 116.608 40.8896 116.608L40.9191 116.608L40.9285 116.608H40.9318C40.933 116.608 40.9342 116.608 40.9342 114.399V116.608C42.1498 116.608 43.1352 115.619 43.1352 114.399C43.1352 113.179 42.1506 112.19 40.9357 112.19H40.9347M40.9342 112.19L40.921 112.19C40.9072 112.189 40.8841 112.189 40.8519 112.189C40.7876 112.188 40.6873 112.186 40.5534 112.182C40.2855 112.174 39.8837 112.157 39.3678 112.124C38.3353 112.057 36.85 111.922 35.069 111.652C31.4945 111.108 26.7926 110.027 22.1829 107.89C17.577 105.754 13.1408 102.602 9.96775 97.9513C6.81339 93.3281 4.79778 87.0658 5.26918 78.4929C5.87932 67.3968 9.17661 60.21 13.5479 55.552C17.9349 50.8773 23.6149 48.5244 29.3866 47.5029C35.1691 46.4795 40.9296 46.8154 45.2848 47.4255C47.4533 47.7292 49.2513 48.0978 50.5007 48.3885C51.1249 48.5338 51.6108 48.6594 51.936 48.7472C52.0986 48.7911 52.2209 48.8255 52.3001 48.8483C52.3397 48.8596 52.3685 48.8681 52.3862 48.8733L52.4055 48.879C52.4059 48.8791 52.4063 48.8793 52.4068 48.8794C53.5701 49.2309 54.7975 48.5697 55.1485 47.402C55.4996 46.2338 54.8408 45.0012 53.677 44.6487L53.0413 46.7639C53.677 44.6487 53.6759 44.6484 53.6746 44.648L53.6711 44.647L53.6609 44.6439L53.6275 44.634C53.5996 44.6257 53.5603 44.6143 53.5101 44.5999C53.4096 44.571 53.2652 44.5304 53.0797 44.4803C52.7087 44.3801 52.1729 44.2419 51.4949 44.0841C50.14 43.7688 48.2119 43.3741 45.8932 43.0493C44.7908 42.8949 43.595 42.7555 42.3264 42.6482C43.5158 36.2164 46.7753 27.3724 52.6555 19.8963C59.1129 11.6864 68.647 5.20932 82.0985 5.20932C95.7347 5.20932 105.428 10.5831 111.735 15.9568C114.896 18.6501 117.203 21.3426 118.715 23.3532C119.47 24.3574 120.024 25.1881 120.384 25.7589C120.564 26.0441 120.696 26.2641 120.779 26.4079C120.821 26.4797 120.851 26.5325 120.869 26.5649C120.879 26.5811 120.885 26.5921 120.888 26.5979L120.889 26.5992C120.889 26.5998 120.889 26.6003 120.889 26.6008C120.89 26.6012 120.89 26.6016 120.89 26.6019C120.89 26.6018 120.89 26.602 120.89 26.6019C121.471 27.672 122.806 28.0683 123.873 27.4866C124.941 26.9044 125.337 25.5631 124.757 24.4908L122.823 25.545C124.757 24.4908 124.757 24.4898 124.756 24.4887L124.755 24.4861L124.751 24.4792L124.74 24.4595C124.731 24.4436 124.719 24.4223 124.705 24.3958C124.675 24.3429 124.633 24.2691 124.578 24.1758C124.47 23.9894 124.311 23.7249 124.102 23.3937C123.684 22.7315 123.063 21.8009 122.228 20.6915C120.562 18.475 118.037 15.5312 114.583 12.5882C107.66 6.68939 96.9914 0.79071 82.0985 0.79071C67.0211 0.79071 56.3032 8.12796 49.2005 17.1583C42.6568 25.478 39.111 35.3047 37.8933 42.433M130.138 38.7566C123.38 37.802 114.537 38.6643 105.983 46.0112C105.059 46.8045 103.67 46.696 102.88 45.7689C102.089 44.8419 102.197 43.4472 103.121 42.6539C112.838 34.3077 123.036 33.2913 130.752 34.3811C134.589 34.9232 137.814 35.9836 140.082 36.9085C141.218 37.3718 142.121 37.8038 142.748 38.1249C143.062 38.2855 143.307 38.4187 143.478 38.5146C143.564 38.5625 143.632 38.6011 143.68 38.6292C143.693 38.637 143.705 38.644 143.716 38.6501C143.722 38.6536 143.729 38.6573 143.736 38.6613C143.776 38.683 143.83 38.7133 143.899 38.7521C144.035 38.8298 144.227 38.9419 144.467 39.0892C144.948 39.3837 145.623 39.8197 146.433 40.4037C148.052 41.5704 150.223 43.3357 152.471 45.7537C156.799 50.4076 161.437 57.5085 162.926 67.3942C165.886 68.9308 169.672 71.6676 172.736 75.5523C176.232 79.987 178.841 85.9986 178.063 93.4113C177.156 102.066 174.809 108.264 168.394 112C162.312 115.542 152.929 116.608 138.893 116.608C137.677 116.608 136.691 115.619 136.691 114.399C136.691 113.179 137.677 112.19 138.893 112.19C153.033 112.19 161.26 111.046 166.185 108.178C170.777 105.504 172.832 101.092 173.686 92.9489C174.317 86.923 172.23 82.0305 169.284 78.2945C166.307 74.5195 162.51 72.0081 160.007 70.8834L158.872 70.3736L158.721 69.1348C157.579 59.7581 153.281 53.1006 149.253 48.7687C147.237 46.6003 145.294 45.0226 143.865 43.9928C143.152 43.4785 142.569 43.1029 142.173 42.8604C141.976 42.7392 141.825 42.6514 141.728 42.5963C141.68 42.5688 141.645 42.5494 141.624 42.5382L141.607 42.5288L141.605 42.5274L141.554 42.5005L141.506 42.4716L141.504 42.4703L141.502 42.4696C141.498 42.4669 141.489 42.4614 141.475 42.4534C141.447 42.4372 141.401 42.4108 141.337 42.3751C141.209 42.3038 141.011 42.1959 140.747 42.0608C140.22 41.7905 139.432 41.4126 138.425 41.0022C136.408 40.1795 133.538 39.2368 130.138 38.7566Z" fill="#3DB3E5"/>
</svg>
