<svg width="126" height="100" viewBox="0 0 126 100" fill="none" xmlns="http://www.w3.org/2000/svg">
<path d="M0.90332 32.2578C0.90332 29.5854 3.06968 27.4191 5.74202 27.4191H94.4515C97.1238 27.4191 99.2902 29.5854 99.2902 32.2578V95.1608C99.2902 97.8332 97.1238 99.9995 94.4515 99.9995H5.74202C3.06968 99.9995 0.90332 97.8332 0.90332 95.1608V32.2578Z" fill="#3D6CB4"/>
<path d="M49.1561 49.9999L94.4515 99.9995H5.74202L49.1561 49.9999Z" fill="#2155A9"/>
<path d="M0.90332 32.2578C0.90332 29.5854 3.06968 27.4191 5.74202 27.4191H94.4515C97.1238 27.4191 99.2902 29.5854 99.2902 32.2578V34.6771L49.2903 71.7738L0.90332 34.6771V32.2578Z" fill="#0D469F"/>
<path d="M125.097 25.8064C125.097 40.0589 113.543 51.6128 99.2902 51.6128C85.0377 51.6128 73.4838 40.0589 73.4838 25.8064C73.4838 11.5539 85.0377 0 99.2902 0C113.543 0 125.097 11.5539 125.097 25.8064Z" fill="#BB0E1B"/>
<path fill-rule="evenodd" clip-rule="evenodd" d="M113.904 14.4183C114.849 15.3631 114.849 16.895 113.904 17.8398L96.1623 35.5817C95.2175 36.5265 93.6856 36.5265 92.7408 35.5817L84.6763 27.5172C83.7315 26.5724 83.7315 25.0405 84.6763 24.0957C85.6211 23.1509 87.153 23.1509 88.0978 24.0957L94.4515 30.4495L110.483 14.4183C111.428 13.4735 112.959 13.4735 113.904 14.4183Z" fill="#FDFDFD"/>
</svg>
