<svg width="1409" height="669" viewBox="0 0 1409 669" fill="none" xmlns="http://www.w3.org/2000/svg">
<path d="M0 42H1389C1400.05 42 1409 50.9543 1409 62V649C1409 660.046 1400.05 669 1389 669H20C8.9543 669 0 660.046 0 649V42Z" fill="#FDFDFD"/>
<path d="M0 20C0 8.9543 8.95431 0 20 0H321.429C326.902 0 332.136 2.2433 335.911 6.2069L370 42H0V20Z" fill="#E3E5FC"/>
<path d="M38 25.5C38 27.9853 35.9853 30 33.5 30C31.0147 30 29 27.9853 29 25.5C29 23.0147 31.0147 21 33.5 21C35.9853 21 38 23.0147 38 25.5Z" fill="#BBC0D0"/>
<path d="M55 25.5C55 27.9853 52.9853 30 50.5 30C48.0147 30 46 27.9853 46 25.5C46 23.0147 48.0147 21 50.5 21C52.9853 21 55 23.0147 55 25.5Z" fill="#BBC0D0"/>
<path d="M72 25.5C72 27.9853 69.9853 30 67.5 30C65.0147 30 63 27.9853 63 25.5C63 23.0147 65.0147 21 67.5 21C69.9853 21 72 23.0147 72 25.5Z" fill="#BBC0D0"/>
</svg>
