<svg width="143" height="100" viewBox="0 0 143 100" fill="none" xmlns="http://www.w3.org/2000/svg">
<path d="M46.0614 96.0526C52.6404 94.7368 55.2719 88.1579 54.6141 82.8947H75.6667C75.0088 88.1579 77.6404 94.7368 84.2193 96.0526V98.6842H46.0614V96.0526Z" fill="#0D469F"/>
<path fill-rule="evenodd" clip-rule="evenodd" d="M53.8688 82.2368H76.4119L76.3195 82.9763C75.6873 88.0343 78.2276 94.1834 84.3483 95.4075L84.8772 95.5133V99.3421H45.4035V95.5133L45.9324 95.4075C52.0531 94.1834 54.5935 88.0343 53.9612 82.9763L53.8688 82.2368ZM55.3379 83.5526C55.6896 88.7527 53.0602 95.0098 46.7193 96.5795V98.0263H83.5614V96.5795C77.2205 95.0098 74.5911 88.7527 74.9429 83.5526H55.3379Z" fill="#0D469F"/>
<path d="M0.00878906 6.57895C0.00878906 2.94549 2.95428 0 6.58774 0H125.009C128.642 0 131.588 2.9455 131.588 6.57895V76.3158C131.588 79.9492 128.642 82.8947 125.009 82.8947H6.58774C2.95429 82.8947 0.00878906 79.9492 0.00878906 76.3158V6.57895Z" fill="#0D469F"/>
<path d="M6.58774 6.57895C6.58774 5.85226 7.17684 5.26316 7.90353 5.26316H123.693C124.42 5.26316 125.009 5.85226 125.009 6.57895V66.4843C125.009 67.211 124.42 67.8001 123.693 67.8001H7.90353C7.17684 67.8001 6.58774 67.211 6.58774 66.4843V6.57895Z" fill="#FDFDFD"/>
<path d="M0.00878906 71.0526H131.588V76.3158C131.588 79.9492 128.642 82.8947 125.009 82.8947H6.58774C2.95429 82.8947 0.00878906 79.9492 0.00878906 76.3158L0.00878906 71.0526Z" fill="#225BB8"/>
<path d="M7.90353 6.57895H123.693V10.5263H7.90353V6.57895Z" fill="#BB0E1B"/>
<path d="M107.904 39.4737C107.904 36.5669 110.26 34.2105 113.167 34.2105H137.728C140.635 34.2105 142.991 36.5669 142.991 39.4737V94.7368C142.991 97.6436 140.635 100 137.728 100H113.167C110.26 100 107.904 97.6436 107.904 94.7368V39.4737Z" fill="#0D469F"/>
<path d="M128.079 95.6139C128.079 97.0673 126.901 98.2455 125.447 98.2455C123.994 98.2455 122.816 97.0673 122.816 95.6139C122.816 94.1605 123.994 92.9823 125.447 92.9823C126.901 92.9823 128.079 94.1605 128.079 95.6139Z" fill="#FDFDFD"/>
<path d="M110.535 46.0527C110.535 45.326 111.124 44.7369 111.851 44.7369H139.044C139.771 44.7369 140.36 45.326 140.36 46.0527V89.9124C140.36 90.639 139.771 91.2281 139.044 91.2281H111.851C111.124 91.2281 110.535 90.639 110.535 89.9124V46.0527Z" fill="#FDFDFD"/>
<path fill-rule="evenodd" clip-rule="evenodd" d="M118.43 39.5616C118.43 39.1256 118.783 38.7722 119.219 38.7722H130.798C131.234 38.7722 131.588 39.1256 131.588 39.5616C131.588 39.9977 131.234 40.3511 130.798 40.3511H119.219C118.783 40.3511 118.43 39.9977 118.43 39.5616Z" fill="#FDFDFD"/>
<path d="M110.535 46.0527C110.535 45.326 111.124 44.7369 111.851 44.7369H139.044C139.771 44.7369 140.36 45.326 140.36 46.0527V49.1229H110.535V46.0527Z" fill="#BB0E1B"/>
<path d="M46.0614 31.5378L63.8245 17.1051L81.5877 31.5378V42.1051H46.0614V31.5378Z" fill="#3C3C3C"/>
<path d="M52.6403 21.0524H75.0087V43.4208H52.6403V21.0524Z" fill="#FFFBFB"/>
<path d="M46.0614 53.9907V32.8945L61.0929 43.5419C61.4631 43.8041 61.4631 44.3534 61.0929 44.6156L47.0995 54.5276C46.6638 54.8362 46.0614 54.5246 46.0614 53.9907Z" fill="#3C6AB3"/>
<path d="M81.5877 32.8948V53.991C81.5877 54.5249 80.9852 54.8365 80.5495 54.5278L66.5561 44.6159C66.186 44.3537 66.186 43.8043 66.5561 43.5421L81.5877 32.8948Z" fill="#3C6AB3"/>
<path d="M63.8243 40.7893L81.0704 53.3065C82.0609 54.0254 81.5524 55.5919 80.3284 55.5919H47.3205C46.0966 55.5919 45.588 54.0254 46.5785 53.3065L63.8243 40.7893Z" fill="#0D469F"/>
<path fill-rule="evenodd" clip-rule="evenodd" d="M71.0614 26.3156H56.5877V24.9998H71.0614V26.3156Z" fill="black"/>
<path fill-rule="evenodd" clip-rule="evenodd" d="M71.0613 30.263H56.5876V28.9472H71.0613V30.263Z" fill="black"/>
<path fill-rule="evenodd" clip-rule="evenodd" d="M63.1666 32.8945H71.0613V34.2103H63.1666V32.8945Z" fill="black"/>
<path d="M115.802 66.612L124.911 59.2105L134.02 66.612V72.031H115.802V66.612Z" fill="#3C3C3C"/>
<path d="M119.175 61.2348H130.646V72.7058H119.175V61.2348Z" fill="#FFFBFB"/>
<path d="M115.802 78.1263V67.3077L123.51 72.7679C123.7 72.9023 123.7 73.184 123.51 73.3185L116.334 78.4016C116.111 78.5598 115.802 78.4001 115.802 78.1263Z" fill="#3C6AB3"/>
<path d="M134.02 67.3077V78.1263C134.02 78.4001 133.711 78.5598 133.488 78.4016L126.312 73.3185C126.122 73.184 126.122 72.9023 126.312 72.7679L134.02 67.3077Z" fill="#3C6AB3"/>
<path d="M124.911 71.3563L133.755 77.7754C134.263 78.144 134.002 78.9474 133.374 78.9474H116.447C115.82 78.9474 115.559 78.144 116.067 77.7754L124.911 71.3563Z" fill="#0D469F"/>
<path fill-rule="evenodd" clip-rule="evenodd" d="M128.622 63.9342H121.2V63.2595H128.622V63.9342ZM128.622 65.9585H121.2V65.2838H128.622V65.9585ZM124.573 67.3081H128.622V67.9828H124.573V67.3081Z" fill="black"/>
</svg>
