<svg width="129" height="113" viewBox="0 0 129 113" fill="none" xmlns="http://www.w3.org/2000/svg">
<mask id="mask0_358_772" style="mask-type:alpha" maskUnits="userSpaceOnUse" x="0" y="11" width="122" height="98">
<path fill-rule="evenodd" clip-rule="evenodd" d="M0.133789 11.6187H121.087V108.858H0.133789V11.6187Z" fill="white"/>
</mask>
<g mask="url(#mask0_358_772)">
<path fill-rule="evenodd" clip-rule="evenodd" d="M84.9942 14.6758C77.9709 14.4437 70.876 14.5176 63.8042 14.58C56.7324 14.6689 49.664 14.8756 42.6153 15.2822C37.47 15.5802 32.3443 16.0676 27.252 16.6566C22.7673 17.1832 18.2896 17.8393 13.9677 18.9088C11.8206 19.4504 9.68051 20.0914 7.80139 21.0304C6.86241 21.4935 6.01813 22.0572 5.38291 22.6808L5.01563 23.1648C4.88512 23.3299 4.88512 23.4616 4.79388 23.6372L4.601 24.3532L4.44624 25.1398C4.05817 27.2764 3.85952 29.5459 3.68281 31.79C3.50725 34.0422 3.39176 36.307 3.30052 38.5731C3.12265 43.1074 3.05682 47.6522 3.07414 52.197C3.11688 60.2632 3.46914 68.3779 4.1575 76.3448C4.59522 81.4636 5.20273 86.5743 5.99388 91.6411C6.78272 96.7045 7.72747 101.742 9.15038 106.583C10.1298 109.529 9.30746 109.499 7.64894 107.156C6.02737 104.804 4.06048 99.9568 3.07068 94.0065C1.3752 83.4663 0.617547 72.8857 0.287229 62.2867C-0.000356097 51.683 0.0539269 41.0689 0.995218 30.374C1.16384 28.7686 1.3163 27.1644 1.58656 25.5186C1.72169 24.6916 1.86375 23.8716 2.12823 22.9627C2.26336 22.5238 2.52207 21.8458 2.84546 21.4878L3.32477 20.856L3.86067 20.3548C5.32054 19.0704 6.91554 18.3555 8.49783 17.7018C10.0894 17.0897 11.6959 16.6011 13.3117 16.1842C19.7748 14.5534 26.335 13.753 32.8374 13.1316C47.1416 11.8589 61.4723 11.6302 75.7753 11.6187C80.1827 11.6256 84.5981 11.6949 89.0158 11.9236C93.4335 12.1673 97.8581 12.5195 102.262 13.3904C103.927 13.7334 105.593 14.1573 107.231 14.8144C108.045 15.1586 108.863 15.534 109.628 16.0999C110.389 16.682 111.103 17.368 111.564 18.1037C112.606 19.5544 113.362 21.1217 113.992 22.712C114.649 24.2966 115.136 25.9217 115.611 27.5455C117.378 34.0699 118.293 40.7074 119.016 47.2999C120.105 57.5571 120.712 67.6445 120.968 77.8278C121.016 80.0696 121.084 82.264 121.087 84.5266C121.08 92.9116 120.739 95.5795 119.899 97.3478C119.705 97.7497 119.507 98.2821 119.318 98.512C118.667 99.2858 118.339 95.8717 118.26 89.7712C118.133 80.721 117.878 71.427 117.313 62.0372C116.727 52.6613 115.931 43.1294 114.099 33.8782C113.395 30.463 112.57 27.0512 111.312 23.9317C110.7 22.3702 109.962 20.8722 109.057 19.6676C108.848 19.3245 108.593 19.1305 108.369 18.881C108.26 18.7909 108.153 18.6962 108.049 18.5981L107.646 18.322C107.063 17.9617 106.368 17.636 105.617 17.3611C102.565 16.2801 99.0477 15.7765 95.5817 15.4011C92.0926 15.0396 88.555 14.8537 85.0092 14.7497L84.9942 14.6758Z" fill="#3DB3E5"/>
</g>
<path fill-rule="evenodd" clip-rule="evenodd" d="M83.3056 74.52C82.3135 74.1123 81.3017 73.7231 80.3073 73.5337C79.6305 73.3835 79.7541 73.3985 79.5785 73.3581C79.4284 73.3177 79.3834 73.484 79.3418 73.5972C79.3256 73.6723 79.3268 73.6237 79.3071 73.842C79.2875 74.0234 79.2806 74.2174 79.2748 74.4126L79.2459 75.6033C79.1662 78.47 79.3256 81.4497 79.5866 84.3914C79.7102 85.6988 79.9262 87.0028 80.1733 88.279L80.7012 90.7275C80.8548 91.5452 80.9541 92.3733 81.0384 93.1922C81.0869 93.6969 80.648 93.7824 80.059 93.4786C79.4792 93.1737 78.7239 92.4761 78.4097 91.5256C77.5551 88.1115 77.0457 84.6709 76.9302 81.1425C76.899 79.029 76.5768 76.8692 76.6426 74.6309C76.6611 74.3179 76.6692 74.013 76.7062 73.6884C76.7258 73.5521 76.7293 73.3338 76.7812 73.0855C76.8297 72.8534 76.8586 72.6132 76.921 72.3902C77.0515 71.9456 77.2109 71.5194 77.5089 71.2076C77.786 70.8495 78.2238 70.7213 78.6834 70.7733L80.0244 70.7802C80.4124 70.8149 80.6642 70.9084 80.9899 70.9696C81.617 71.0863 82.1922 71.3046 82.7824 71.4894C84.1984 72.0114 85.5658 72.5981 86.8652 73.2796C88.8505 74.2878 90.7147 75.4832 92.5834 76.5943C94.0363 77.4571 95.5389 78.187 97.0046 78.9516C97.3268 79.1179 97.6571 79.2519 97.9724 79.4309C98.5603 79.7439 98.9033 80.0084 99.0696 80.3202C99.2429 80.6101 99.2683 80.9219 99.2082 81.3389C99.1805 81.5294 99.1747 81.7281 99.1285 81.9036C98.9911 82.4846 98.2092 82.6856 97.172 82.3726C94.2777 81.2014 91.7518 79.4355 89.1462 77.822C87.2232 76.6232 85.2887 75.4393 83.2836 74.5835L83.3056 74.52Z" fill="#3DB3E5"/>
<path fill-rule="evenodd" clip-rule="evenodd" d="M93.9802 88.2971C95.3603 89.653 96.7809 90.9812 98.2512 92.2552C98.7859 92.7229 99.3796 93.1121 99.9178 93.5741C101.815 95.2061 103.765 96.7826 105.783 98.2586C106.677 98.9123 107.633 99.4817 108.592 99.9922C109.824 100.608 111.102 101.27 112.194 101.709C112.488 101.829 112.553 102.318 112.08 102.777C111.593 103.245 110.602 103.516 109.731 103.257C108.172 102.816 106.833 102.091 105.54 101.31C104.243 100.536 103.035 99.6411 101.914 98.6317C100.565 97.4386 98.9904 96.4523 97.5709 95.3043C96.0117 94.0442 94.5022 92.7241 93.0215 91.3728C92.108 90.5447 91.221 89.6842 90.3316 88.8307C88.9873 87.5302 87.7064 86.1558 86.4094 84.8126C85.4069 83.7616 84.3224 82.8076 83.3569 81.6469C83.1386 81.3997 82.918 81.1468 82.7274 80.8592C82.5391 80.6051 82.4213 80.3579 82.3636 80.1269C82.3024 79.9006 82.2516 79.7216 82.2816 79.5414C82.3832 79.151 82.5518 78.9027 82.7979 78.6752C82.9122 78.5724 83.0115 78.458 83.1201 78.3887C83.3049 78.2709 83.5255 78.2986 83.8142 78.3899C84.0914 78.4892 84.5003 78.6001 84.7544 78.8819C86.3193 80.5046 88.0344 82.3676 89.8581 84.1924C91.206 85.5541 92.5919 86.9216 94.0264 88.2405L93.9802 88.2971Z" fill="#3DB3E5"/>
<path fill-rule="evenodd" clip-rule="evenodd" d="M65.9875 75.5171C66.2797 75.4964 66.349 75.9618 66.0995 76.4873C66.0221 76.6582 65.6341 77.0556 65.544 77.0902C65.3696 77.1583 65.2021 77.2242 65.0809 77.2715C65.0058 77.2854 63.912 77.0787 63.4651 77.0763C63.0678 77.0556 62.6889 76.9632 62.3228 76.85C61.5663 76.6351 60.8179 76.3811 60.0499 76.1766C59.8801 76.1281 59.7218 76.045 59.5694 75.941C59.0497 75.5726 58.4618 75.404 57.8589 75.3127C57.7596 75.2954 57.6626 75.2561 57.5424 75.337C57.3426 75.4594 55.7592 75.1256 55.5732 75.0217C55.102 74.7387 54.6227 74.4915 54.1376 74.2375C54.0672 74.1993 53.9863 74.2259 53.9355 74.0942C53.8165 73.787 53.6514 73.817 53.4955 73.7709C53.2783 73.6785 53.0658 73.6461 52.8533 73.4729C52.7482 73.3943 52.6431 73.2234 52.5322 73.0975C52.4317 72.982 52.486 72.6713 52.5241 72.6298C52.6316 72.5258 52.5461 72.3606 52.5357 72.2244C52.5322 72.1782 52.5288 72.117 52.5345 72.0777C52.5392 72.058 52.9007 71.7578 53.3118 71.5395C53.7126 71.3293 54.1422 71.1803 54.2231 71.1849C54.2427 71.1837 54.789 71.1722 55.3688 71.1606C55.937 71.1664 56.5249 71.2299 56.6473 71.2219C56.7744 71.2195 56.8818 71.3166 56.9938 71.3847C57.0504 71.4043 58.7205 71.5695 58.7829 71.5995C59.1051 71.7243 59.4666 71.7127 59.7242 72.0534C59.775 72.1204 59.8454 72.1273 59.9124 72.1424C60.4864 72.2706 61.0177 72.5408 61.5525 72.7914C61.8262 72.9139 62.1195 72.9843 62.4025 73.0871C62.4522 73.1056 62.4914 73.1599 62.5365 73.1945C62.5931 73.2373 62.645 73.2927 62.7109 73.3135C63.3911 73.5283 63.9813 73.9695 64.6812 74.1855C64.8418 74.2351 65.4412 74.8669 65.6318 74.9397C65.7392 74.9685 65.872 75.5218 65.9875 75.5171" fill="#3DB3E5"/>
<path fill-rule="evenodd" clip-rule="evenodd" d="M73.6476 65.5696C73.9109 65.5881 73.7169 65.811 73.6071 66.452C73.5679 66.6495 73.3484 67.1796 73.2352 67.2108C73.025 67.2755 72.7709 67.3113 72.548 67.2951C72.4152 67.2986 71.1575 66.6241 70.7948 66.4127C70.3987 66.2071 70.0903 65.93 69.7992 65.6389C69.2067 65.0476 68.6177 64.4678 68.0518 63.8637C67.927 63.7298 67.8312 63.5727 67.7596 63.396C67.5055 62.8 67.1451 62.293 66.7132 61.8345C66.6427 61.7571 66.5942 61.6601 66.4441 61.6451C66.1934 61.6277 65.1771 60.2406 65.1286 59.9946C65.0616 59.7001 64.975 59.4241 64.8918 59.1434C64.8294 58.8454 64.7682 58.5567 64.7036 58.2541C64.6862 58.1709 64.6135 58.1051 64.6897 57.9734C64.8687 57.6674 64.7463 57.5357 64.6908 57.3625C64.6158 57.1084 64.5673 56.8289 64.6216 56.5194C64.6654 56.3265 64.7832 56.1359 64.893 55.9835C64.9911 55.8483 65.2348 55.8887 65.288 55.9118C65.4115 55.9915 65.5293 55.8876 65.6356 55.8668C65.6737 55.8587 65.7222 55.8483 65.758 55.8472C65.8204 55.8784 66.1623 55.9326 66.5492 56.0886C66.8587 56.2225 67.2398 56.4166 67.2618 56.4605C67.2618 56.4605 67.5759 56.7977 67.9259 57.1315C68.2574 57.4849 68.5888 57.8672 68.6755 57.933C68.7632 58.0035 68.7655 58.134 68.7921 58.2483C68.7979 58.3049 69.8697 59.3421 69.8997 59.3917C70.0545 59.6574 70.3351 59.8283 70.3028 60.236C70.2982 60.3169 70.3478 60.3561 70.3894 60.4023C70.7371 60.7973 70.9542 61.2986 71.2256 61.7571C71.363 61.9927 71.5525 62.189 71.7153 62.4004C71.7453 62.4397 71.7453 62.502 71.7627 62.5517C71.7834 62.6129 71.795 62.6834 71.8343 62.7296C72.2477 63.21 72.5515 63.7967 73.0412 64.1802C73.1486 64.2807 73.4004 64.9609 73.5401 65.0418C73.6152 65.1019 73.5436 65.5638 73.6476 65.5696" fill="#3DB3E5"/>
<path fill-rule="evenodd" clip-rule="evenodd" d="M85.4533 62.8638C85.6243 62.9643 85.3425 63.0417 84.8297 63.3882C84.668 63.4933 84.1517 63.7127 84.0547 63.6723C83.8676 63.6007 83.6782 63.4979 83.5292 63.3628C83.4668 63.305 83.3421 62.9851 83.2104 62.5809C83.1053 62.2136 83.0071 61.7863 82.9679 61.5911C82.8674 61.1822 82.8974 60.8126 82.939 60.4384C83.0522 59.7016 83.1908 58.9832 83.3779 58.2925C83.4194 58.1377 83.4899 57.9922 83.5915 57.8594C83.9426 57.4055 84.1228 56.9054 84.2568 56.381C84.2776 56.2933 84.3261 56.2136 84.2637 56.0946C84.1471 55.8971 84.7026 54.525 84.8701 54.3899C85.2501 54.0446 85.5734 53.6738 85.943 53.3331C85.9938 53.2846 85.9927 53.1991 86.1348 53.2084C86.4651 53.2315 86.4905 53.0802 86.5887 52.967C86.7376 52.8215 86.9144 52.6863 87.1222 52.5824C87.2262 52.5293 87.4168 52.5408 87.575 52.5362C87.7182 52.5316 88.0093 52.8007 88.03 52.8503C88.0866 52.9947 88.2795 53.0467 88.417 53.1368C88.4643 53.1668 88.5255 53.2072 88.5602 53.2373C88.5983 53.2696 88.6375 53.6138 88.6988 53.9568C88.7831 54.3218 88.7946 54.6405 88.7634 54.6833C88.7634 54.6833 88.6237 55.0425 88.492 55.4074C88.3696 55.7839 88.2449 56.1743 88.2368 56.2632C88.2252 56.3545 88.1259 56.4053 88.0508 56.4665C88.0069 56.4942 87.7471 57.6677 87.7298 57.7093C87.6085 57.9241 87.6166 58.1874 87.2932 58.3283C87.2308 58.3572 87.2262 58.408 87.2135 58.4565C87.1038 58.8654 86.8774 59.2303 86.6914 59.6149C86.5956 59.8101 86.5759 60.0238 86.5124 60.2271C86.502 60.264 86.4558 60.2917 86.4293 60.3252C86.3946 60.3657 86.3507 60.4049 86.3438 60.4511C86.2595 60.9374 85.9881 61.3993 86.0343 61.8636C86.0262 61.9757 85.7132 62.4273 85.7455 62.5462C85.7663 62.5913 85.3852 62.8095 85.4533 62.8638" fill="#3DB3E5"/>
<path fill-rule="evenodd" clip-rule="evenodd" d="M21.0474 31.9058C21.7935 32.0871 22.4691 32.5849 22.7763 33.4061C24.1161 36.9945 18.0549 37.2059 18.0895 34.0055C18.1091 32.2892 19.6926 31.5766 21.0474 31.9058" fill="#3DB3E5"/>
<path fill-rule="evenodd" clip-rule="evenodd" d="M30.2602 30.919C31.0063 31.1003 31.682 31.5981 31.9892 32.4193C33.329 36.0089 27.2677 36.2202 27.3024 33.0187C27.322 31.3024 28.9055 30.5898 30.2602 30.919" fill="#3DB3E5"/>
<path fill-rule="evenodd" clip-rule="evenodd" d="M39.4736 29.9325C40.2197 30.1139 40.8965 30.6117 41.2026 31.4328C42.5423 35.0213 36.4811 35.2327 36.5158 32.0323C36.5354 30.316 38.12 29.6022 39.4736 29.9325" fill="#3DB3E5"/>
<path fill-rule="evenodd" clip-rule="evenodd" d="M68.1237 110.897C63.3514 111.052 58.578 111.16 53.8057 111.238C52.064 111.265 50.3246 111.361 48.5841 111.368C42.4455 111.398 36.308 111.296 30.1764 111.167C27.4564 111.112 24.7192 111.108 22.0224 111.115C20.2934 111.134 18.5586 111.15 16.8262 111.167C15.1215 111.196 13.3313 111.132 11.7917 111.217C11.5931 111.243 11.4164 111.219 11.3736 111.166C11.2951 111.109 11.2015 111.027 11.1403 110.923C10.996 110.735 11.0687 110.306 11.533 109.905C12.4177 109.117 14.1883 108.471 16.1991 108.46C23.3228 108.468 30.3415 108.704 37.4711 108.98C41.7294 109.153 46.1621 108.974 50.5175 108.906C55.3083 108.834 60.1013 108.731 64.8933 108.574C67.8419 108.48 70.7928 108.37 73.7379 108.225C78.2019 108.015 82.6866 107.78 87.1089 107.43C90.5461 107.144 93.9024 106.71 97.2887 106.314C98.0337 106.223 98.7647 106.133 99.5155 106.04C102.306 105.751 103.209 105.838 103.87 106.44C104.02 106.577 104.214 106.71 104.307 106.853C104.622 107.336 103.519 107.855 101.481 108.185C95.4373 109.166 89.0169 109.748 82.5618 110.189C77.7687 110.512 72.9456 110.748 68.1329 110.958L68.1237 110.897Z" fill="#3DB3E5"/>
<path fill-rule="evenodd" clip-rule="evenodd" d="M66.2185 112.403C62.0976 112.544 57.9756 112.661 53.8547 112.745L49.3446 112.858C44.0445 112.911 38.7432 112.884 33.4466 112.809C31.0951 112.796 28.7332 112.784 26.4002 112.772C23.4054 112.776 20.3944 112.817 17.4227 112.692C15.554 112.63 17.8962 111.125 21.3738 111.152C27.4985 111.203 33.5886 111.33 39.7503 111.477C43.4324 111.573 47.2657 111.438 51.0331 111.367C55.1748 111.292 59.3188 111.189 63.4616 111.039C66.0118 110.964 68.5608 110.839 71.1075 110.724C74.9662 110.534 78.8434 110.338 82.6675 110.046C85.6392 109.809 88.5473 109.516 91.4786 109.197C92.1231 109.128 92.756 109.058 93.4063 108.988C95.8201 108.765 96.5974 108.801 97.1518 109.152C97.2777 109.232 97.4405 109.308 97.5179 109.392C97.7766 109.677 96.8111 110.009 95.0463 110.245C89.812 110.955 84.2636 111.412 78.6875 111.777C74.5469 112.054 70.381 112.246 66.2255 112.439L66.2185 112.403Z" fill="#3DB3E5"/>
<path fill-rule="evenodd" clip-rule="evenodd" d="M108.294 2.58562C108.237 2.94597 108.123 3.30631 108.054 3.66204C108.027 3.7914 108.071 3.91844 108.035 4.04895C107.912 4.50632 107.753 4.96137 107.648 5.4118C107.602 5.61161 107.622 5.81142 107.655 6.01007C107.698 6.26301 107.849 6.51825 107.604 6.77234C107.454 6.93057 105.334 6.72961 105.286 6.44434C105.217 5.93615 105.275 5.43144 105.568 4.91402C105.745 4.60449 105.623 4.28803 105.65 3.97503C105.693 3.63432 105.736 3.28321 105.778 2.93788C105.811 2.72537 105.849 2.51055 105.864 2.29803C105.888 1.9758 105.944 1.64779 105.886 1.33364C105.834 1.08995 105.677 0.86011 105.572 0.625654C105.549 0.573681 105.501 0.526327 105.511 0.470889C105.505 0.371563 105.574 0.298801 105.732 0.235278C105.871 0.17522 106.044 0.130177 106.28 0.0828233L106.587 0.0216104C106.903 -0.0315177 107.253 0.0158357 107.583 0.135951C108.19 0.533257 108.345 1.01257 108.375 1.49649C108.406 1.85684 108.368 2.22181 108.356 2.58215L108.294 2.58562Z" fill="#3DB3E5"/>
<path fill-rule="evenodd" clip-rule="evenodd" d="M124.846 11.3847C124.205 11.6215 123.562 11.8571 122.924 12.0916C122.689 12.1759 122.482 12.3191 122.242 12.3953C121.392 12.6598 120.528 12.9277 119.683 13.1899C119.31 13.3147 118.951 13.4787 118.603 13.6519C118.155 13.8725 117.722 14.1543 117.181 14.1474C116.853 14.152 116.66 12.527 117.119 12.2532C117.966 11.7901 118.828 11.3685 119.81 11.1225C120.402 10.9816 120.893 10.5797 121.435 10.3014C122.03 9.98953 122.66 9.73082 123.28 9.44554C123.663 9.27114 124.048 9.09674 124.428 8.9235C125.003 8.64977 125.597 8.39915 126.151 8.085C126.589 7.85632 126.928 7.444 127.365 7.20377C127.457 7.14602 127.549 7.08827 127.655 7.05362C128.049 6.93351 128.24 7.04323 128.53 7.4902C128.597 7.59183 128.668 7.68885 128.724 7.79164C128.916 8.13582 128.908 8.51811 128.736 8.82071C128.259 9.78741 127.506 10.1986 126.719 10.6259C126.125 10.9146 125.495 11.1595 124.876 11.4378L124.846 11.3847Z" fill="#3DB3E5"/>
<path fill-rule="evenodd" clip-rule="evenodd" d="M81.6725 20.9837C75.6147 20.7839 69.4969 20.8498 63.3976 20.9052C57.2983 20.9837 51.2024 21.1628 45.1227 21.515C40.6853 21.7737 36.2641 22.1918 31.8718 22.7012C28.0027 23.1562 24.1405 23.7233 20.4112 24.6473C18.5586 25.115 16.7107 25.6694 15.0868 26.4825C14.2737 26.8821 13.5426 27.3707 12.9906 27.9135L12.6695 28.3374C12.5563 28.4817 12.5528 28.5995 12.4731 28.7543C12.3588 29.1574 12.2526 29.5824 12.174 30.0536C11.5492 33.7888 11.3621 37.7526 11.1888 41.6436C11.0364 45.5543 10.9798 49.4743 10.996 53.3942C11.0341 60.3494 11.3378 67.3484 11.9292 74.2193C12.3057 78.6347 12.8289 83.0431 13.5103 87.4135C14.1906 91.7816 15.006 96.1277 16.2383 100.303C17.0872 102.846 16.3965 102.809 14.9875 100.782C13.6108 98.7483 11.9349 94.5662 11.0826 89.4381C9.62156 80.3532 8.96785 71.2302 8.68026 62.0922C8.43079 52.9495 8.47468 43.7976 9.27969 34.5776C9.42406 33.194 9.55572 31.8115 9.78672 30.3932C9.90221 29.6817 10.0258 28.9749 10.2522 28.1953C10.3688 27.8188 10.5871 27.2413 10.8643 26.9341L11.2743 26.3947L11.734 25.9651C12.9848 24.8632 14.358 24.2465 15.7197 23.684C17.0895 23.1562 18.4743 22.737 19.8649 22.3766C25.4364 20.9699 31.0922 20.2815 36.6984 19.7445C49.0299 18.645 61.388 18.4451 73.7218 18.4336C77.5227 18.4394 81.3295 18.4983 85.1385 18.6946C88.9464 18.9037 92.7624 19.2063 96.5565 19.957C97.9921 20.2515 99.4277 20.6165 100.837 21.1824C101.538 21.4792 102.241 21.8015 102.898 22.2877C103.552 22.7878 104.165 23.3757 104.563 24.0097C105.459 25.2571 106.111 26.6072 106.653 27.977C107.219 29.3422 107.639 30.7431 108.048 32.1418C109.573 37.7653 110.362 43.4893 110.984 49.1728C111.922 58.0175 112.441 66.7166 112.657 75.4966C112.698 77.43 112.755 79.3219 112.756 81.2726C112.75 88.5026 112.461 90.8033 111.76 92.3279C111.597 92.6755 111.432 93.1352 111.274 93.3338C110.731 94.0014 110.462 91.0574 110.4 85.7966C110.298 77.9902 110.083 69.9759 109.598 61.8762C109.094 53.7892 108.409 45.5682 106.828 37.5851C106.22 34.6377 105.509 31.6925 104.422 28.9968C103.892 27.6479 103.255 26.352 102.469 25.3068C102.287 25.0099 102.064 24.8401 101.87 24.6219L101.589 24.3735L101.238 24.1322C100.729 23.8192 100.125 23.535 99.4762 23.2971C96.8336 22.3628 93.7996 21.9297 90.8082 21.6063C87.7961 21.2944 84.7435 21.135 81.6864 21.045L81.6725 20.9837Z" fill="#3DB3E5"/>
<path fill-rule="evenodd" clip-rule="evenodd" d="M66.7336 104.503L54.6008 104.559L50.1762 104.629C44.9754 104.64 39.7723 104.506 34.5715 104.44C32.2628 104.385 29.9436 104.411 27.651 104.384C24.707 104.394 21.7411 104.367 18.8017 103.941C16.9803 103.707 19.4 102.68 22.7471 102.574C28.7147 102.599 34.7032 102.579 40.7482 102.713C44.3644 102.787 48.1273 102.621 51.8254 102.577L64.0345 102.416C66.5396 102.372 69.0447 102.328 71.5475 102.285C75.3404 102.199 79.1518 102.141 82.9135 101.983C85.839 101.856 88.7021 101.617 91.593 101.429C92.2294 101.388 92.8519 101.325 93.4952 101.316C95.879 101.289 96.6459 101.518 97.1691 101.972C97.2881 102.079 97.444 102.183 97.5144 102.286C97.7512 102.628 96.788 102.979 95.0555 103.276C89.9067 103.992 84.4519 104.153 78.9762 104.322C74.9073 104.4 70.8199 104.479 66.7394 104.556L66.7336 104.503Z" fill="#3DB3E5"/>
<path fill-rule="evenodd" clip-rule="evenodd" d="M8.21854 72.3092C7.98292 68.6827 7.81199 65.0561 7.66762 61.4295C7.61218 60.1059 7.47474 58.787 7.44471 57.4645C7.3477 52.7962 7.37426 48.1244 7.5221 43.4514C7.59948 41.3771 7.59255 39.2924 7.64799 37.2216C7.745 34.5617 7.63413 31.8649 8.69091 29.1496C9.05011 28.288 9.73962 28.7442 10.3102 29.5942C10.8565 30.4223 11.4339 31.6859 11.2919 33.1007C10.868 38.2241 10.8934 43.5716 10.525 48.9398C10.324 52.161 10.6058 55.5069 10.7213 58.7997C10.8449 62.4216 10.9939 66.0494 11.211 69.6713C11.3392 71.9004 11.4928 74.1306 11.6857 76.3527C11.986 79.7194 12.2378 83.1116 12.7402 86.424C13.1317 88.9972 13.7023 91.4931 14.341 93.9485C14.4773 94.4937 14.6493 95.0076 14.8018 95.5401C15.0755 96.5241 15.2499 97.1686 15.295 97.6132C15.3169 98.0983 15.1922 98.4078 15.0386 98.7474C14.9704 98.9022 14.9369 99.0893 14.8815 99.2071C14.7845 99.4046 14.572 99.3734 14.1192 99.1112C13.8617 98.983 13.6665 98.7659 13.4609 98.5025C13.2322 98.2381 13.0555 97.8904 12.8938 97.5162C11.9086 95.2559 11.2907 92.9125 10.7213 90.5264C10.1716 88.1391 9.72807 85.7056 9.35386 83.264C8.76252 79.6409 8.43567 75.9751 8.14 72.3208L8.21854 72.3092Z" fill="#3DB3E5"/>
</svg>
