<svg width="100" height="30" viewBox="0 0 100 31" fill="none" xmlns="http://www.w3.org/2000/svg">
<g clip-path="url(#clip0_501_420)">
<path fill-rule="evenodd" clip-rule="evenodd" d="M62.0379 23.703C56.2379 27.986 47.8039 30.273 40.5519 30.273C30.3839 30.273 21.2289 26.513 14.3039 20.257C13.7599 19.765 14.2469 19.095 14.8999 19.477C22.3739 23.827 31.6149 26.442 41.1599 26.442C47.5979 26.442 54.6799 25.11 61.1919 22.346C62.1759 21.928 62.9979 22.99 62.0359 23.704L62.0379 23.703ZM64.4539 20.94C63.7139 19.99 59.5539 20.492 57.6719 20.714C57.1019 20.784 57.0149 20.287 57.5279 19.93C60.8479 17.592 66.2979 18.267 66.9349 19.05C67.5719 19.833 66.7699 25.3 63.6489 27.908C63.1689 28.308 62.7129 28.095 62.9259 27.564C63.6259 25.814 65.1979 21.892 64.4539 20.939" fill="#FDFDFD"/>
<path fill-rule="evenodd" clip-rule="evenodd" d="M57.803 3.42698V1.15498C57.8009 1.07891 57.8144 1.00321 57.8426 0.932512C57.8707 0.861816 57.913 0.797603 57.9668 0.743792C58.0206 0.68998 58.0848 0.6477 58.1555 0.619535C58.2262 0.59137 58.3019 0.577911 58.378 0.579977H68.55C68.876 0.579977 69.138 0.814978 69.138 1.15498V3.09998C69.134 3.42598 68.858 3.85298 68.372 4.52798L63.102 12.054C65.062 12.006 67.128 12.298 68.904 13.299C69.304 13.525 69.404 13.856 69.444 14.183V16.608C69.444 16.938 69.078 17.326 68.694 17.126C65.564 15.486 61.407 15.306 57.947 17.143C57.594 17.335 57.224 16.951 57.224 16.621V14.318C57.224 13.948 57.228 13.318 57.598 12.755L63.705 3.99698H58.4C58.074 3.99698 57.812 3.76698 57.812 3.42698H57.803ZM20.694 17.605H17.6C17.304 17.583 17.07 17.361 17.047 17.078V1.19398C17.047 0.875977 17.313 0.623978 17.643 0.623978H20.529C20.829 0.636978 21.069 0.867976 21.091 1.15398V3.22998H21.148C21.901 1.22298 23.316 0.286978 25.222 0.286978C27.159 0.286978 28.369 1.22298 29.24 3.22998C29.99 1.22298 31.69 0.286978 33.515 0.286978C34.812 0.286978 36.231 0.821977 37.097 2.02398C38.077 3.35998 37.877 5.30198 37.877 7.00398L37.87 17.03C37.87 17.348 37.604 17.605 37.274 17.605H34.174C33.874 17.583 33.617 17.335 33.617 17.03V8.59998C33.617 7.92998 33.677 6.25798 33.53 5.62298C33.3 4.55698 32.607 4.25598 31.71 4.25598C30.96 4.25598 30.178 4.75598 29.86 5.55798C29.542 6.35998 29.573 7.69998 29.573 8.60098V17.021C29.573 17.339 29.307 17.596 28.977 17.596H25.877C25.564 17.574 25.32 17.326 25.32 17.021L25.316 8.60098C25.316 6.82898 25.608 4.22098 23.409 4.22098C21.185 4.22098 21.272 6.76298 21.272 8.60098V17.021C21.272 17.339 21.006 17.596 20.676 17.596L20.694 17.605ZM77.896 0.299976C82.488 0.299976 84.974 4.24398 84.974 9.25798C84.974 14.103 82.227 17.946 77.896 17.946C73.396 17.946 70.931 14.002 70.931 9.08798C70.931 4.14298 73.417 0.287977 77.896 0.287977V0.299976ZM77.922 3.53098C75.642 3.53098 75.497 6.63898 75.497 8.57598C75.497 10.513 75.467 14.661 77.895 14.661C80.293 14.661 80.407 11.318 80.407 9.28098C80.407 7.94098 80.35 6.33798 79.947 5.06698C79.599 3.96098 78.907 3.52998 77.923 3.52998L77.922 3.53098ZM90.93 17.605H87.848C87.548 17.583 87.291 17.335 87.291 17.03L87.287 1.14198C87.313 0.849977 87.57 0.623978 87.883 0.623978H90.753C91.023 0.636978 91.245 0.819978 91.306 1.06798V3.49798H91.363C92.229 1.32598 93.443 0.289978 95.581 0.289978C96.981 0.289978 98.323 0.789978 99.194 2.16198C99.994 3.43198 99.994 5.56998 99.994 7.10698V17.107C99.959 17.387 99.702 17.607 99.398 17.607H96.3C96.017 17.585 95.782 17.377 95.752 17.107V8.47998C95.752 6.74298 95.952 4.19998 93.815 4.19998C93.062 4.19998 92.37 4.70498 92.015 5.46998C91.58 6.43998 91.523 7.40698 91.523 8.47798V17.032C91.519 17.35 91.249 17.607 90.918 17.607L90.93 17.605ZM49.693 10.007C49.693 11.213 49.723 12.207 49.113 13.289C48.621 14.159 47.838 14.695 46.971 14.695C45.783 14.695 45.086 13.79 45.086 12.453C45.086 9.81498 47.45 9.33598 49.691 9.33598V10.006L49.693 10.007ZM52.811 17.55C52.606 17.733 52.311 17.746 52.081 17.624C51.054 16.771 50.867 16.374 50.305 15.561C48.607 17.293 47.402 17.811 45.203 17.811C42.596 17.811 40.571 16.205 40.571 12.988C40.571 10.476 41.929 8.76598 43.871 7.92998C45.551 7.18998 47.897 7.05998 49.691 6.85498V6.45498C49.691 5.71898 49.748 4.84898 49.311 4.21298C48.937 3.64298 48.214 3.40798 47.574 3.40798C46.394 3.40798 45.344 4.01298 45.088 5.26798C45.036 5.54798 44.831 5.82098 44.548 5.83398L41.548 5.51198C41.296 5.45498 41.013 5.25198 41.088 4.86198C41.776 1.22198 45.068 0.125977 48.008 0.125977C49.514 0.125977 51.482 0.525977 52.67 1.66598C54.176 3.07198 54.032 4.94798 54.032 6.98998V11.813C54.032 13.263 54.632 13.898 55.199 14.683C55.395 14.963 55.439 15.297 55.186 15.506L52.82 17.57L52.816 17.56L52.811 17.55ZM9.12 10.017C9.12 11.223 9.15 12.217 8.54 13.299C8.048 14.169 7.27 14.705 6.398 14.705C5.21 14.705 4.518 13.8 4.518 12.463C4.518 9.82498 6.882 9.34598 9.118 9.34598V10.016L9.12 10.017ZM12.238 17.56C12.033 17.743 11.738 17.756 11.508 17.634C10.481 16.781 10.308 16.384 9.732 15.571C8.034 17.303 6.832 17.821 4.63 17.821C2.028 17.822 0 16.216 0 13C0 10.488 1.362 8.77798 3.3 7.94198C4.98 7.20198 7.326 7.07198 9.12 6.86698V6.46698C9.12 5.73098 9.177 4.86098 8.746 4.22498C8.366 3.65498 7.646 3.41998 7.009 3.41998C5.829 3.41998 4.776 4.02498 4.509 5.27998C4.457 5.55998 4.252 5.83298 3.974 5.84598L0.97 5.52398C0.718 5.46698 0.44 5.26398 0.51 4.87398C1.202 1.23398 4.49 0.137978 7.43 0.137978C8.936 0.137978 10.904 0.537977 12.092 1.67798C13.598 3.08398 13.454 4.95998 13.454 7.00198V11.825C13.454 13.275 14.054 13.91 14.621 14.695C14.821 14.975 14.865 15.309 14.611 15.518L12.251 17.57L12.241 17.56" fill="#FDFDFD"/>
</g>
<defs>
<clipPath id="clip0_501_420">
<rect width="99.994" height="30.147" fill="white" transform="translate(0 0.125977)"/>
</clipPath>
</defs>
</svg>
