<svg width="56" height="28" viewBox="0 0 56 28" fill="none" xmlns="http://www.w3.org/2000/svg">
<path d="M51.8239 10.8791C50.862 10.3354 40.7132 5.26109 35.9874 0.535225C35.2485 -0.203627 34.1751 0.507343 34.2587 1.4553C34.3703 2.7936 34.6491 4.63372 34.9976 6.15324L35.2764 7.35217C27.4975 6.20905 29.3238 6.78057 11.6193 5.21919C-1.19207 4.09001 0.327457 3.40692 0.383216 10.182C0.397158 13.235 0.341395 15.8559 0.243809 16.0371C0.00681924 16.4693 0.313526 18.6998 3.77079 18.6719C20.0952 18.6021 29.9371 19.4666 34.3842 18.4489C34.412 18.4489 35.6529 26.0464 35.6529 26.0743C35.6529 26.1022 35.8341 28.9879 40.2672 25.2239C42.0656 23.7044 54.1102 14.7825 54.4448 14.6988C56.1037 14.183 55.086 12.6914 51.8239 10.8791ZM2.87861 7.74247C2.90649 7.49154 3.43618 7.4636 5.26239 7.61695C8.06445 7.85394 8.03645 7.63104 5.65261 10.6004C4.59312 11.9108 3.58944 13.2213 3.39427 13.5001C3.10152 13.9601 2.71132 9.58263 2.87861 7.74247ZM6.40538 15.5353C4.18883 15.605 4.21688 15.6328 5.0812 14.5455C6.22432 13.0956 9.76509 8.10504 10.0578 8.03533C10.3227 7.96563 13.9473 8.35597 14.3097 8.38385C9.91844 13.1655 9.9604 13.2072 8.21783 15.4516L6.40538 15.5353ZM12.2604 15.7026C11.1034 15.6608 10.1137 15.591 10.0719 15.5492C9.80706 15.3122 16.15 8.66253 16.164 8.64859L18.1574 8.77421C20.6388 8.9415 20.6388 8.9136 19.2726 10.2798C17.9482 11.6041 15.6342 14.3084 14.3795 15.7861L12.2604 15.7026ZM16.6937 15.7583C19.3424 12.8307 19.5235 12.5939 22.9668 9.09479C23.9984 9.17843 26.4241 9.34572 26.5495 9.47119C26.7029 9.62453 21.6982 14.4062 21.2242 15.2984C20.82 16.0372 20.9595 15.9255 16.6937 15.7583ZM26.0896 16.0371C22.8694 16.051 23.3711 16.553 28.0412 10.684C29.045 9.42931 28.8498 9.48503 31.3313 9.70808L33.4223 9.90327L28.2363 16.0372L26.0896 16.0371ZM32.9064 15.5493C32.3349 15.619 31.9168 15.591 31.9447 15.5073C32.098 15.2425 35.36 10.9767 35.5413 10.5446C35.5691 10.4888 35.7643 10.4609 36.0152 10.4609C36.9632 10.433 37.7439 9.736 37.8694 8.80198C37.8833 8.59287 37.1305 7.00362 36.8517 4.52219C36.8099 4.1458 36.8239 3.82515 36.8796 3.82515C37.1584 3.82515 41.2569 7.19883 41.2708 7.21277C40.0162 8.77412 37.3675 11.9247 36.6147 12.8169C34.454 15.34 34.0635 15.4238 32.9064 15.5493ZM36.6984 17.3336L36.3777 16.3996L38.65 13.6254C41.7867 9.79176 42.7486 8.27224 42.9019 8.2583C42.9995 8.24436 44.8675 9.47113 45.2858 9.8057C45.5227 9.98693 44.77 10.5724 40.5599 14.894C36.796 18.7415 37.1027 18.5464 36.6984 17.3336ZM39.9605 21.0417C37.9949 22.6728 37.6323 22.8681 37.1583 23.1748C37.005 21.8783 36.9075 21.8921 37.6603 21.4739C39.3611 20.5259 46.2476 12.1617 47.4047 10.9767C49.5237 12.0083 51.6566 12.9981 51.3917 13.263C51.3638 13.2909 43.4456 18.1422 39.9605 21.0417Z" fill="#BB0E1B"/>
</svg>
