<svg width="177" height="30" viewBox="0 0 177 30" fill="none" xmlns="http://www.w3.org/2000/svg">
<g clip-path="url(#clip0_501_423)">
<path d="M69.2713 3.05552C69.2713 1.57229 70.4657 0.372605 71.936 0.372605C73.4112 0.372605 74.6103 1.57229 74.6103 3.05552C74.6103 4.53684 73.4112 5.73779 71.936 5.73779C70.4657 5.73779 69.2713 4.53684 69.2713 3.05552Z" fill="#FDFDFD"/>
<path d="M111.394 20.9007C111.394 19.4169 112.588 18.2159 114.058 18.2159C115.533 18.2159 116.732 19.4169 116.732 20.9007C116.732 22.3808 115.533 23.583 114.058 23.583C112.588 23.583 111.394 22.3808 111.394 20.9007Z" fill="#FDFDFD"/>
<path d="M25.4556 19.7412C23.1563 19.7412 21.5585 17.9108 21.5585 15.2953C21.5585 12.6804 23.1563 10.8513 25.4556 10.8513C27.7681 10.8513 29.3835 12.6804 29.3835 15.2953C29.3835 17.9521 27.8017 19.7412 25.4556 19.7412ZM25.4556 6.94391C20.5912 6.94391 17.0609 10.4571 17.0609 15.2953C17.0609 20.1334 20.5912 23.646 25.4556 23.646C30.3382 23.646 33.8831 20.1334 33.8831 15.2953C33.8831 10.4571 30.3382 6.94391 25.4556 6.94391" fill="#FDFDFD"/>
<path d="M64.1007 15.7129C63.9116 15.3562 63.6948 15.0542 63.4638 14.8146L63.3168 14.6582L63.4716 14.5094C63.6948 14.2735 63.9231 13.9938 64.1432 13.6696L68.4359 7.27317H63.2247L59.9994 12.2766C59.8168 12.5449 59.4482 12.6803 58.8964 12.6803H58.1613V3.22082C58.1613 1.32879 56.9854 1.07131 55.715 1.07131H53.5401L53.5437 23.3999H58.1613V16.7021H58.5939C59.1202 16.7021 59.4787 16.7632 59.6431 17.0499L62.1903 21.869C62.9018 23.1767 63.611 23.3999 64.9449 23.3999H68.4836L65.8481 19.0303L64.1007 15.7129" fill="#FDFDFD"/>
<path d="M86.5172 6.90834C84.1684 6.90834 82.6698 7.95416 81.83 8.83851L81.5496 9.1227L81.4507 8.73617C81.2039 7.78887 80.3724 7.26754 79.121 7.26754H77.0515L77.0644 23.3943H81.6506V15.9616C81.6506 15.2349 81.7449 14.6042 81.9366 14.0289C82.4471 12.2875 83.8711 11.2048 85.6509 11.2048C87.0825 11.2048 87.6418 11.962 87.6418 13.9189V20.9428C87.6418 22.6129 88.4125 23.3943 90.08 23.3943H92.2625L92.2551 13.1375C92.2551 9.0623 90.2722 6.90834 86.5185 6.90834" fill="#FDFDFD"/>
<path d="M71.9968 7.27441H69.8231L69.8379 19.7436H69.8364V23.398H72.1567C72.1859 23.398 72.2093 23.4011 72.2385 23.4011L73.3193 23.398H74.395V23.3916H74.4025L74.4118 9.72275C74.4118 8.07358 73.6252 7.27443 71.9984 7.27443" fill="#FDFDFD"/>
<path d="M43.4695 19.7412C41.1704 19.7412 39.5694 17.9108 39.5694 15.2953C39.5694 12.6804 41.1704 10.8513 43.4695 10.8513C45.7772 10.8513 47.397 12.6804 47.397 15.2953C47.397 17.9521 45.8158 19.7412 43.4695 19.7412ZM43.4695 6.94391C38.6003 6.94391 35.0693 10.4571 35.0693 15.2953C35.0693 20.1334 38.6003 23.646 43.4695 23.646C48.3471 23.646 51.8979 20.1334 51.8979 15.2953C51.8979 10.4571 48.3471 6.94391 43.4695 6.94391" fill="#FDFDFD"/>
<path d="M141.774 19.7409C139.476 19.7409 137.873 17.9106 137.873 15.295C137.873 12.6801 139.476 10.851 141.774 10.851C144.082 10.851 145.702 12.6801 145.702 15.295C145.702 17.9519 144.12 19.7409 141.774 19.7409ZM141.774 6.94366C136.906 6.94366 133.375 10.4569 133.375 15.295C133.375 20.1332 136.906 23.6458 141.774 23.6458C146.652 23.6458 150.202 20.1332 150.202 15.295C150.202 10.4569 146.652 6.94366 141.774 6.94366" fill="#FDFDFD"/>
<path d="M101.925 19.0314C99.4178 19.0314 98.5254 16.8387 98.5254 14.7839C98.5254 13.8786 98.7537 10.928 101.684 10.928C103.141 10.928 105.081 11.3463 105.081 14.9359C105.081 18.3213 103.364 19.0314 101.925 19.0314V19.0314ZM107.462 7.23105C106.592 7.23105 105.922 7.57881 105.587 8.21395L105.46 8.46061L105.247 8.27561C104.507 7.63348 103.18 6.87185 101.025 6.87185C96.7361 6.87185 93.849 10.1002 93.849 14.9047C93.849 19.7034 96.8363 23.0571 101.111 23.0571C102.571 23.0571 103.725 22.7157 104.639 22.0214L104.993 21.755V22.2032C104.993 24.3572 103.603 25.5454 101.084 25.5454C99.86 25.5454 98.7456 25.2466 98.0004 24.9758C97.0273 24.6814 96.4571 24.9249 96.0626 25.9034L95.6986 26.8062L95.1835 28.1247L95.5026 28.2951C97.1149 29.1528 99.2137 29.6646 101.111 29.6646C105.017 29.6646 109.577 27.6606 109.577 22.0214L109.594 7.23105H107.463" fill="#FDFDFD"/>
<path d="M8.37566 19.5561L4.6424 19.5524V15.0785C4.6424 14.1224 5.01221 13.6252 5.8297 13.5108H8.37566C10.1928 13.5108 11.367 14.6596 11.3683 16.5179C11.367 18.4252 10.222 19.5549 8.37566 19.5562V19.5561ZM4.6424 7.48744V6.31001C4.6424 5.27945 5.07745 4.78928 6.03215 4.72633H7.94241C9.58073 4.72633 10.562 5.70922 10.562 7.3533C10.562 8.60702 9.89031 10.0699 8.00266 10.0699H4.6424V7.48744V7.48744ZM13.1436 11.9524L12.4686 11.5722L13.0578 11.0674C13.7429 10.4768 14.8916 9.14934 14.8916 6.85551C14.8916 3.34609 12.1757 1.08087 7.97225 1.08087H3.17526V1.0796H2.6291C1.38288 1.12539 0.38577 2.14132 0.371826 3.39823V23.3186H2.57327C2.57885 23.3198 2.58072 23.3186 2.58257 23.3198L8.06701 23.3186C12.7397 23.3186 15.7557 20.7691 15.7557 16.8204C15.7557 14.6944 14.7809 12.8768 13.1426 11.9524" fill="#FDFDFD"/>
<path d="M170.689 6.96035C168.786 6.96035 166.946 7.85358 165.765 9.35143L165.433 9.77358L165.172 9.30121C164.323 7.74869 162.861 6.96035 160.828 6.96035C158.696 6.96035 157.266 8.15239 156.602 8.86126L156.168 9.333L156.001 8.7125C155.758 7.81926 154.965 7.32717 153.763 7.32717H151.835L151.817 23.3916H156.196V16.3003C156.196 15.6792 156.273 15.0644 156.428 14.4216C156.847 12.7083 157.996 10.8652 159.927 11.0496C161.118 11.164 161.7 12.0865 161.7 13.8685V23.3916H166.111V16.3003C166.111 15.5241 166.183 14.943 166.357 14.36C166.713 12.7242 167.912 11.047 169.775 11.047C171.124 11.047 171.623 11.8125 171.623 13.8685V21.0431C171.623 22.6662 172.345 23.3916 173.963 23.3916H176.024L176.028 13.1361C176.028 9.03929 174.229 6.96035 170.688 6.96035" fill="#FDFDFD"/>
<path d="M130.839 17.8141C130.826 17.8299 128.941 19.8218 126.46 19.8218C124.199 19.8218 121.915 18.4314 121.915 15.3276C121.915 12.6479 123.686 10.7749 126.221 10.7749C127.044 10.7749 127.98 11.0706 128.127 11.5677L128.148 11.6517C128.486 12.7789 129.508 12.8393 129.708 12.8393L132.108 12.8419V10.7394C132.108 7.96624 128.589 6.96046 126.221 6.96046C121.156 6.96046 117.482 10.4947 117.482 15.3614C117.482 20.2263 121.117 23.7554 126.128 23.7554C130.476 23.7554 132.84 20.8906 132.863 20.862L132.989 20.7069L131.089 17.5472L130.839 17.8142" fill="#FDFDFD"/>
</g>
<defs>
<clipPath id="clip0_501_423">
<rect width="176.4" height="30" fill="white"/>
</clipPath>
</defs>
</svg>
