<svg width="114.08" height="23" viewBox="0 0 149 30" fill="none" xmlns="http://www.w3.org/2000/svg">
<path d="M42.7908 8.92527C40.615 8.88256 38.7165 9.13879 36.8393 9.58719C36.4767 10.8256 36.5194 12.6619 36.8393 13.9431C39.1431 13.4093 40.4443 13.3665 41.8949 13.3665C44.7319 13.3665 46.1185 14.5196 46.1185 16.8683V17.0818C45.2652 16.9964 44.2627 16.911 43.5374 16.911C38.8231 16.911 34.7915 18.5979 34.7915 23.1246C34.7915 28.2278 38.4392 29.9573 43.708 29.9573C46.2038 29.9573 48.8916 29.5089 51.3874 28.7616V17.2527C51.3874 11.7651 48.4223 9.05338 42.7908 8.92527V8.92527ZM46.1185 25.452C45.7985 25.5374 44.4333 25.6655 43.772 25.6655C41.2336 25.6655 39.8684 24.9181 39.8684 23.1246C39.8684 21.331 41.2336 20.6263 43.772 20.6263C44.6253 20.6263 45.5852 20.7117 46.1185 20.7544V25.452Z" fill="#FDFDFD"/>
<path d="M32.6158 9.1814C29.992 9.1814 28.4989 10.2063 27.0696 12.0213C26.9417 11.0818 26.7497 10.3344 26.451 9.39492C25.9177 9.2241 24.9792 9.1814 24.1899 9.1814C23.4433 9.1814 22.4621 9.26681 21.9714 9.39492V29.5301C22.6327 29.701 23.7419 29.7437 24.7232 29.7437C25.6618 29.7437 26.899 29.6583 27.4749 29.5301V19.7081C27.4749 15.8006 29.5228 13.7081 32.2745 13.7081C32.7651 13.7081 33.5971 13.7081 34.0877 13.7935C34.4077 12.5124 34.4503 10.6334 34.173 9.35222C33.853 9.28816 33.0638 9.1814 32.6158 9.1814V9.1814Z" fill="#FDFDFD"/>
<path d="M9.62047 9.01068C8.02061 9.01068 6.46342 9.37366 5.50351 9.86477V0C3.94631 0.576512 2.30379 1.36655 0.938583 2.49822C0.234646 3.07473 0 3.65124 0 4.50534V28.847C1.47187 29.4662 4.43694 30 7.27401 30C14.4627 30 18.601 25.6014 18.601 19.2384C18.601 12.9181 15.6573 9.01068 9.62047 9.01068V9.01068ZM7.59399 25.4947C7.01804 25.4947 6.12212 25.4947 5.50351 25.2811V14.2206C6.25011 13.815 7.31668 13.6014 8.70322 13.6014C11.455 13.6014 12.9268 15.5018 12.9268 19.1103C12.9055 22.8683 11.1777 25.4947 7.59399 25.4947Z" fill="#FDFDFD"/>
<path d="M67.4073 4.48399V9.33096C66.4261 9.07473 65.4022 9.01068 64.5276 9.01068C58.4481 9.01068 54.3098 13.089 54.3098 19.6228C54.3098 26.2847 58.3415 29.9786 64.6556 29.9786C67.5353 29.9786 70.3724 29.573 72.9108 28.7402V0C71.3536 0.576512 69.7111 1.36656 68.3459 2.49823C67.642 3.05339 67.4073 3.6299 67.4073 4.48399V4.48399ZM67.4073 25.1744C66.4687 25.4306 65.8075 25.4947 65.0609 25.4947C61.4132 25.4947 60.0053 23.1032 60.0053 19.6228C60.0053 15.758 61.4345 13.4093 65.0182 13.4093C66.0848 13.4093 66.746 13.5374 67.4073 13.7295V25.1744V25.1744Z" fill="#FDFDFD"/>
<path d="M106.785 17.5942L104.567 16.6547C103.287 16.1209 102.519 15.6725 102.519 14.8398C102.519 13.5586 103.671 13.281 105.185 13.281C106.7 13.281 108.257 13.4519 110.369 14.1351C110.625 12.6618 110.625 11.2953 110.369 10.0141C109.046 9.30952 106.551 8.94653 104.375 8.94653C100.109 8.94653 96.8662 11.2526 96.8662 14.7117C96.8662 17.8291 98.1887 19.3665 101.922 20.8825L103.65 21.5871C105.292 22.249 105.783 22.6547 105.783 23.7223C105.783 25.3237 104.183 25.58 102.86 25.58C100.642 25.58 98.9566 25.1316 96.8235 24.3842C96.4609 25.6654 96.4609 27.3522 96.8235 28.6974C98.6367 29.6796 101.132 29.9786 103.756 29.9786C107.98 29.9786 111.35 27.7579 111.35 23.765C111.35 20.4768 109.942 18.9181 106.785 17.5942V17.5942Z" fill="#FDFDFD"/>
<path d="M123.914 25.452C121.162 25.452 119.349 23.274 119.349 19.452C119.349 15.8007 120.821 13.452 123.957 13.452C125.279 13.452 126.218 13.6655 127.455 14.1566C127.818 12.9182 128.479 11.4876 129.418 10.2918C127.69 9.39504 126.005 8.92529 123.253 8.92529C117.173 8.92529 113.675 13.2385 113.675 19.452C113.675 25.9004 117.28 29.9787 123.488 29.9787C125.749 29.9787 127.839 29.573 129.524 28.6548C128.778 27.6726 127.924 26.3488 127.434 24.7901C125.877 25.4093 125.194 25.452 123.914 25.452V25.452Z" fill="#FDFDFD"/>
<path d="M139.316 8.92529C133.151 8.92529 129.695 13.1531 129.695 19.4947C129.695 25.9431 133.343 29.9787 139.316 29.9787C145.523 29.9787 149 25.8577 149 19.4947C149 13.089 145.523 8.92529 139.316 8.92529ZM139.316 25.5374C136.244 25.5374 135.327 23.0392 135.327 19.4947C135.327 16.0356 136.265 13.3666 139.316 13.3666C142.473 13.3666 143.347 15.9502 143.347 19.4947C143.347 23.2313 142.345 25.5374 139.316 25.5374V25.5374Z" fill="#FDFDFD"/>
<path d="M85.603 8.92529C79.6515 8.92529 76.0251 12.9182 76.0251 19.5801C76.0251 26.242 79.8861 29.9787 86.4989 29.9787C88.76 29.9787 91.2131 29.573 92.749 28.8256C93.0689 27.5445 93.0689 25.8577 92.749 24.5552C90.7012 25.1317 88.9733 25.4947 87.0748 25.4947C84.0031 25.4947 81.8913 24.3417 81.4433 21.0961H93.9649C94.1355 20.605 94.1782 18.9609 94.1782 18.299C94.1782 12.299 90.8078 8.92529 85.603 8.92529V8.92529ZM81.4433 17.0605C81.8486 14.6264 83.2992 13.153 85.5176 13.153C88.0134 13.153 88.9733 14.8399 89.0586 17.0605H81.4433V17.0605Z" fill="#FDFDFD"/>
</svg>
