<svg width="142" height="140" viewBox="0 0 142 140" fill="none" xmlns="http://www.w3.org/2000/svg">
<g filter="url(#filter0_d_360_501)">
<path d="M8.66235 35.1689H109.961V100.623H8.66235V35.1689Z" fill="#0D469A"/>
<path d="M8.66235 11.7924H109.961V35.1689H8.66235V11.7924Z" fill="#FDFDFD"/>
<path d="M22.6882 4H32.0389V21.1429H22.6882V4Z" fill="#0D469A"/>
<path d="M86.5844 4H95.9351V21.1429H86.5844V4Z" fill="#0D469A"/>
<path d="M72.7516 55.5593H55.2472V63.3017C55.9953 62.4788 57.0426 61.8056 58.389 61.2819C59.7355 60.7583 61.1942 60.4965 62.7652 60.4965C65.5703 60.4965 67.8893 61.1323 69.722 62.404C71.5922 63.6757 72.9574 65.3214 73.8176 67.3411C74.6779 69.3609 75.108 71.5489 75.108 73.9053C75.108 78.2814 73.8737 81.7599 71.4052 84.3406C68.9366 86.884 65.4581 88.1557 60.9698 88.1557C57.9776 88.1557 55.3781 87.6508 53.1714 86.6409C50.9646 85.5936 49.2628 84.1536 48.0659 82.3209C46.869 80.4882 46.2145 78.3749 46.1023 75.9811H55.4716C55.6961 77.1406 56.2384 78.1131 57.0987 78.8986C57.9589 79.6466 59.1371 80.0206 60.6332 80.0206C62.3911 80.0206 63.7002 79.4596 64.5605 78.3375C65.4207 77.2154 65.8509 75.7193 65.8509 73.8492C65.8509 72.0165 65.402 70.6139 64.5044 69.6414C63.6067 68.6689 62.2976 68.1827 60.5771 68.1827C59.3054 68.1827 58.2581 68.5006 57.4353 69.1365C56.6124 69.7349 56.0701 70.5391 55.8083 71.5489H46.5511V47.1437H72.7516V55.5593Z" fill="#FDFDFD"/>
<path d="M45.3479 18.1039V25.9117C45.3479 26.8779 45.0518 27.6415 44.4595 28.2026C43.8777 28.7636 43.1089 29.0441 42.1531 29.0441C41.1972 29.0441 40.4232 28.7636 39.831 28.2026C39.2492 27.6415 38.9583 26.8779 38.9583 25.9117H40.7505C40.7609 26.3896 40.8803 26.7688 41.1089 27.0493C41.3479 27.3298 41.6959 27.4701 42.1531 27.4701C42.6102 27.4701 42.9583 27.3298 43.1972 27.0493C43.4362 26.7584 43.5557 26.3792 43.5557 25.9117V18.1039H45.3479Z" fill="#0D4598"/>
<path d="M50.3367 18.1039V25.0078C50.3367 25.8285 50.5497 26.4467 50.9756 26.8623C51.412 27.2779 52.0146 27.4857 52.7834 27.4857C53.5627 27.4857 54.1653 27.2779 54.5912 26.8623C55.0276 26.4467 55.2458 25.8285 55.2458 25.0078V18.1039H57.0224V24.9766C57.0224 25.8597 56.8302 26.6078 56.4458 27.2207C56.0614 27.8337 55.5471 28.2909 54.9029 28.5922C54.2588 28.8935 53.5471 29.0441 52.7679 29.0441C51.9886 29.0441 51.2769 28.8935 50.6328 28.5922C49.999 28.2909 49.4951 27.8337 49.1211 27.2207C48.7471 26.6078 48.5601 25.8597 48.5601 24.9766V18.1039H50.3367Z" fill="#0D4598"/>
<path d="M68.5719 28.935H66.7953L61.4498 20.8467V28.935H59.6732V18.0883H61.4498L66.7953 26.161V18.0883H68.5719V28.935Z" fill="#0D4598"/>
<path d="M73.0191 19.5376V22.7169H76.7594V24.1662H73.0191V27.4857H77.2269V28.935H71.2425V18.0883H77.2269V19.5376H73.0191Z" fill="#0D4598"/>
<path d="M133.338 100.623C133.338 115.255 121.476 127.117 106.844 127.117C92.2122 127.117 80.3506 115.255 80.3506 100.623C80.3506 85.9915 92.2122 74.13 106.844 74.13C121.476 74.13 133.338 85.9915 133.338 100.623Z" fill="#FDFDFD"/>
<path fill-rule="evenodd" clip-rule="evenodd" d="M106.844 78.4157C94.5791 78.4157 84.6364 88.3585 84.6364 100.623C84.6364 112.889 94.5791 122.831 106.844 122.831C119.109 122.831 129.052 112.889 129.052 100.623C129.052 88.3585 119.109 78.4157 106.844 78.4157ZM82.2987 100.623C82.2987 87.0674 93.2881 76.078 106.844 76.078C120.4 76.078 131.39 87.0674 131.39 100.623C131.39 114.18 120.4 125.169 106.844 125.169C93.2881 125.169 82.2987 114.18 82.2987 100.623ZM106.844 85.4287C107.49 85.4287 108.013 85.952 108.013 86.5975V99.9011L116.718 104.253C117.295 104.542 117.529 105.244 117.24 105.822C116.952 106.399 116.249 106.633 115.672 106.344L106.321 101.669C105.925 101.471 105.675 101.066 105.675 100.623V86.5975C105.675 85.952 106.199 85.4287 106.844 85.4287Z" fill="#0D469A"/>
<path d="M107.623 81.5326C107.623 82.1781 107.1 82.7014 106.455 82.7014C105.809 82.7014 105.286 82.1781 105.286 81.5326C105.286 80.8871 105.809 80.3638 106.455 80.3638C107.1 80.3638 107.623 80.8871 107.623 81.5326Z" fill="#0D469A"/>
<path d="M107.623 118.935C107.623 119.581 107.1 120.104 106.455 120.104C105.809 120.104 105.286 119.581 105.286 118.935C105.286 118.29 105.809 117.766 106.455 117.766C107.1 117.766 107.623 118.29 107.623 118.935Z" fill="#0D469A"/>
<path d="M95.1558 114.26C95.1558 114.905 94.6325 115.429 93.987 115.429C93.3415 115.429 92.8182 114.905 92.8182 114.26C92.8182 113.614 93.3415 113.091 93.987 113.091C94.6325 113.091 95.1558 113.614 95.1558 114.26Z" fill="#0D469A"/>
<path d="M121.649 114.26C121.649 114.905 121.126 115.429 120.481 115.429C119.835 115.429 119.312 114.905 119.312 114.26C119.312 113.614 119.835 113.091 120.481 113.091C121.126 113.091 121.649 113.614 121.649 114.26Z" fill="#0D469A"/>
<path d="M126.325 100.234C126.325 100.879 125.801 101.403 125.156 101.403C124.51 101.403 123.987 100.879 123.987 100.234C123.987 99.5884 124.51 99.0651 125.156 99.0651C125.801 99.0651 126.325 99.5884 126.325 100.234Z" fill="#0D469A"/>
<path d="M88.9221 100.234C88.9221 100.879 88.3988 101.403 87.7532 101.403C87.1077 101.403 86.5844 100.879 86.5844 100.234C86.5844 99.5884 87.1077 99.0651 87.7532 99.0651C88.3988 99.0651 88.9221 99.5884 88.9221 100.234Z" fill="#0D469A"/>
<path d="M95.1558 87.7663C95.1558 88.4119 94.6325 88.9352 93.987 88.9352C93.3415 88.9352 92.8182 88.4119 92.8182 87.7663C92.8182 87.1208 93.3415 86.5975 93.987 86.5975C94.6325 86.5975 95.1558 87.1208 95.1558 87.7663Z" fill="#0D469A"/>
<path d="M121.649 87.7663C121.649 88.4119 121.126 88.9352 120.481 88.9352C119.835 88.9352 119.312 88.4119 119.312 87.7663C119.312 87.1208 119.835 86.5975 120.481 86.5975C121.126 86.5975 121.649 87.1208 121.649 87.7663Z" fill="#0D469A"/>
</g>
<defs>
<filter id="filter0_d_360_501" x="0.662354" y="0" width="140.675" height="139.117" filterUnits="userSpaceOnUse" color-interpolation-filters="sRGB">
<feFlood flood-opacity="0" result="BackgroundImageFix"/>
<feColorMatrix in="SourceAlpha" type="matrix" values="0 0 0 0 0 0 0 0 0 0 0 0 0 0 0 0 0 0 127 0" result="hardAlpha"/>
<feOffset dy="4"/>
<feGaussianBlur stdDeviation="4"/>
<feComposite in2="hardAlpha" operator="out"/>
<feColorMatrix type="matrix" values="0 0 0 0 0 0 0 0 0 0 0 0 0 0 0 0 0 0 0.1 0"/>
<feBlend mode="normal" in2="BackgroundImageFix" result="effect1_dropShadow_360_501"/>
<feBlend mode="normal" in="SourceGraphic" in2="effect1_dropShadow_360_501" result="shape"/>
</filter>
</defs>
</svg>
