<svg width="122" height="116" viewBox="0 0 122 116" fill="none" xmlns="http://www.w3.org/2000/svg">
<g filter="url(#filter0_d_360_485)">
<path d="M8.58057 36.2578H113.419V104H8.58057V36.2578Z" fill="#FDFDFD"/>
<path d="M8.58057 12.0645H113.419V36.258H8.58057V12.0645Z" fill="#0D469A"/>
<g filter="url(#filter1_d_360_485)">
<path d="M23.0967 4H32.7741V21.7419H23.0967V4Z" fill="#FDFDFD"/>
</g>
<g filter="url(#filter2_d_360_485)">
<path d="M89.2258 4H98.9032V21.7419H89.2258V4Z" fill="#FDFDFD"/>
</g>
<path d="M74.9095 57.3615H56.7934V65.3744C57.5676 64.5228 58.6514 63.826 60.045 63.2841C61.4385 62.7422 62.9482 62.4712 64.574 62.4712C67.4772 62.4712 69.8772 63.1293 71.774 64.4454C73.7095 65.7615 75.1224 67.4648 76.0127 69.5551C76.9031 71.6454 77.3482 73.9099 77.3482 76.3486C77.3482 80.8777 76.0708 84.4777 73.516 87.1486C70.9611 89.7809 67.3611 91.097 62.716 91.097C59.6192 91.097 56.9289 90.5744 54.645 89.5293C52.3611 88.4454 50.5998 86.9551 49.3611 85.0583C48.1224 83.1615 47.445 80.9744 47.3289 78.497H57.0256C57.2579 79.697 57.8192 80.7035 58.7095 81.5164C59.5998 82.2906 60.8192 82.6777 62.3676 82.6777C64.1869 82.6777 65.5418 82.097 66.4321 80.9357C67.3224 79.7744 67.7676 78.2261 67.7676 76.2906C67.7676 74.3938 67.3031 72.9422 66.374 71.9357C65.445 70.9293 64.0901 70.4261 62.3095 70.4261C60.9934 70.4261 59.9095 70.7551 59.0579 71.4131C58.2063 72.0325 57.645 72.8648 57.374 73.9099H47.7934V48.6519H74.9095V57.3615Z" fill="#0D4699"/>
<path d="M46.5482 18.5967V26.6773C46.5482 27.6773 46.2418 28.4677 45.6289 29.0483C45.0267 29.629 44.231 29.9193 43.2418 29.9193C42.2525 29.9193 41.4514 29.629 40.8385 29.0483C40.2364 28.4677 39.9353 27.6773 39.9353 26.6773H41.7901C41.8009 27.172 41.9246 27.5644 42.1611 27.8548C42.4084 28.1451 42.7686 28.2902 43.2418 28.2902C43.7149 28.2902 44.0751 28.1451 44.3224 27.8548C44.5697 27.5537 44.6934 27.1612 44.6934 26.6773V18.5967H46.5482Z" fill="white"/>
<path d="M51.7114 18.5967V25.7419C51.7114 26.5913 51.9318 27.2311 52.3727 27.6612C52.8243 28.0913 53.4479 28.3064 54.2436 28.3064C55.0501 28.3064 55.6737 28.0913 56.1146 27.6612C56.5662 27.2311 56.792 26.5913 56.792 25.7419V18.5967H58.6307V25.7096C58.6307 26.6236 58.4318 27.3978 58.0339 28.0322C57.6361 28.6666 57.1038 29.1397 56.4372 29.4515C55.7705 29.7634 55.0339 29.9193 54.2275 29.9193C53.421 29.9193 52.6845 29.7634 52.0178 29.4515C51.3619 29.1397 50.8404 28.6666 50.4533 28.0322C50.0662 27.3978 49.8727 26.6236 49.8727 25.7096V18.5967H51.7114Z" fill="white"/>
<path d="M70.5838 29.8064H68.7451L63.2129 21.4354V29.8064H61.3742V18.5806H63.2129L68.7451 26.9354V18.5806H70.5838V29.8064Z" fill="white"/>
<path d="M75.1865 20.0806V23.3709H79.0575V24.8709H75.1865V28.3064H79.5413V29.8064H73.3478V18.5806H79.5413V20.0806H75.1865Z" fill="white"/>
<path fill-rule="evenodd" clip-rule="evenodd" d="M60.9999 72.5482L42.4515 91.0966L37.8895 86.5346L56.4379 67.9862L37.6128 49.1611L42.1748 44.5991L60.9999 63.4242L79.825 44.5991L84.387 49.1611L65.5619 67.9862L84.1103 86.5346L79.5483 91.0966L60.9999 72.5482Z" fill="#FF9900" fill-opacity="0.6"/>
</g>
<defs>
<filter id="filter0_d_360_485" x="0.580566" y="0" width="120.839" height="116" filterUnits="userSpaceOnUse" color-interpolation-filters="sRGB">
<feFlood flood-opacity="0" result="BackgroundImageFix"/>
<feColorMatrix in="SourceAlpha" type="matrix" values="0 0 0 0 0 0 0 0 0 0 0 0 0 0 0 0 0 0 127 0" result="hardAlpha"/>
<feOffset dy="4"/>
<feGaussianBlur stdDeviation="4"/>
<feComposite in2="hardAlpha" operator="out"/>
<feColorMatrix type="matrix" values="0 0 0 0 0 0 0 0 0 0 0 0 0 0 0 0 0 0 0.1 0"/>
<feBlend mode="normal" in2="BackgroundImageFix" result="effect1_dropShadow_360_485"/>
<feBlend mode="normal" in="SourceGraphic" in2="effect1_dropShadow_360_485" result="shape"/>
</filter>
<filter id="filter1_d_360_485" x="19.0967" y="4" width="17.6775" height="25.7417" filterUnits="userSpaceOnUse" color-interpolation-filters="sRGB">
<feFlood flood-opacity="0" result="BackgroundImageFix"/>
<feColorMatrix in="SourceAlpha" type="matrix" values="0 0 0 0 0 0 0 0 0 0 0 0 0 0 0 0 0 0 127 0" result="hardAlpha"/>
<feOffset dy="4"/>
<feGaussianBlur stdDeviation="2"/>
<feComposite in2="hardAlpha" operator="out"/>
<feColorMatrix type="matrix" values="0 0 0 0 0 0 0 0 0 0 0 0 0 0 0 0 0 0 0.1 0"/>
<feBlend mode="normal" in2="BackgroundImageFix" result="effect1_dropShadow_360_485"/>
<feBlend mode="normal" in="SourceGraphic" in2="effect1_dropShadow_360_485" result="shape"/>
</filter>
<filter id="filter2_d_360_485" x="85.2258" y="4" width="17.6775" height="25.7417" filterUnits="userSpaceOnUse" color-interpolation-filters="sRGB">
<feFlood flood-opacity="0" result="BackgroundImageFix"/>
<feColorMatrix in="SourceAlpha" type="matrix" values="0 0 0 0 0 0 0 0 0 0 0 0 0 0 0 0 0 0 127 0" result="hardAlpha"/>
<feOffset dy="4"/>
<feGaussianBlur stdDeviation="2"/>
<feComposite in2="hardAlpha" operator="out"/>
<feColorMatrix type="matrix" values="0 0 0 0 0 0 0 0 0 0 0 0 0 0 0 0 0 0 0.1 0"/>
<feBlend mode="normal" in2="BackgroundImageFix" result="effect1_dropShadow_360_485"/>
<feBlend mode="normal" in="SourceGraphic" in2="effect1_dropShadow_360_485" result="shape"/>
</filter>
</defs>
</svg>
