<svg width="126" height="124" viewBox="0 0 126 124" fill="none" xmlns="http://www.w3.org/2000/svg">
<path d="M0.662354 31.1689H101.961V96.6235H0.662354V31.1689Z" fill="#0D469A"/>
<path d="M0.662354 7.79238H101.961V31.1689H0.662354V7.79238Z" fill="#FDFDFD"/>
<path d="M14.6882 0H24.0389V17.1429H14.6882V0Z" fill="#0D469A"/>
<path d="M78.5844 0H87.9351V17.1429H78.5844V0Z" fill="#0D469A"/>
<path d="M64.7516 51.5593H47.2472V59.3017C47.9953 58.4788 49.0426 57.8056 50.389 57.2819C51.7355 56.7583 53.1942 56.4965 54.7652 56.4965C57.5703 56.4965 59.8893 57.1323 61.722 58.404C63.5922 59.6757 64.9574 61.3214 65.8176 63.3411C66.6779 65.3609 67.108 67.5489 67.108 69.9053C67.108 74.2814 65.8737 77.7599 63.4052 80.3406C60.9366 82.884 57.4581 84.1557 52.9698 84.1557C49.9776 84.1557 47.3781 83.6508 45.1714 82.6409C42.9646 81.5936 41.2628 80.1536 40.0659 78.3209C38.869 76.4882 38.2145 74.3749 38.1023 71.9811H47.4716C47.6961 73.1406 48.2384 74.1131 49.0987 74.8986C49.9589 75.6466 51.1371 76.0206 52.6332 76.0206C54.3911 76.0206 55.7002 75.4596 56.5605 74.3375C57.4207 73.2154 57.8509 71.7193 57.8509 69.8492C57.8509 68.0165 57.402 66.6139 56.5044 65.6414C55.6067 64.6689 54.2976 64.1827 52.5771 64.1827C51.3054 64.1827 50.2581 64.5006 49.4353 65.1365C48.6124 65.7349 48.0701 66.5391 47.8083 67.5489H38.5511V43.1437H64.7516V51.5593Z" fill="#FDFDFD"/>
<path d="M37.3479 14.1039V21.9117C37.3479 22.8779 37.0518 23.6415 36.4595 24.2026C35.8777 24.7636 35.1089 25.0441 34.1531 25.0441C33.1972 25.0441 32.4232 24.7636 31.831 24.2026C31.2492 23.6415 30.9583 22.8779 30.9583 21.9117H32.7505C32.7609 22.3896 32.8803 22.7688 33.1089 23.0493C33.3479 23.3298 33.6959 23.4701 34.1531 23.4701C34.6102 23.4701 34.9583 23.3298 35.1972 23.0493C35.4362 22.7584 35.5557 22.3792 35.5557 21.9117V14.1039H37.3479Z" fill="#0D4598"/>
<path d="M42.3367 14.1039V21.0078C42.3367 21.8285 42.5497 22.4467 42.9756 22.8623C43.412 23.2779 44.0146 23.4857 44.7834 23.4857C45.5627 23.4857 46.1653 23.2779 46.5912 22.8623C47.0276 22.4467 47.2458 21.8285 47.2458 21.0078V14.1039H49.0224V20.9766C49.0224 21.8597 48.8302 22.6078 48.4458 23.2207C48.0614 23.8337 47.5471 24.2909 46.9029 24.5922C46.2588 24.8935 45.5471 25.0441 44.7679 25.0441C43.9886 25.0441 43.2769 24.8935 42.6328 24.5922C41.999 24.2909 41.4951 23.8337 41.1211 23.2207C40.7471 22.6078 40.5601 21.8597 40.5601 20.9766V14.1039H42.3367Z" fill="#0D4598"/>
<path d="M60.5719 24.935H58.7953L53.4498 16.8467V24.935H51.6732V14.0883H53.4498L58.7953 22.161V14.0883H60.5719V24.935Z" fill="#0D4598"/>
<path d="M65.0191 15.5376V18.7169H68.7594V20.1662H65.0191V23.4857H69.2269V24.935H63.2425V14.0883H69.2269V15.5376H65.0191Z" fill="#0D4598"/>
<path d="M125.338 96.6235C125.338 111.255 113.476 123.117 98.8442 123.117C84.2122 123.117 72.3506 111.255 72.3506 96.6235C72.3506 81.9915 84.2122 70.13 98.8442 70.13C113.476 70.13 125.338 81.9915 125.338 96.6235Z" fill="#FDFDFD"/>
<path fill-rule="evenodd" clip-rule="evenodd" d="M98.8442 74.4157C86.5791 74.4157 76.6364 84.3585 76.6364 96.6235C76.6364 108.889 86.5791 118.831 98.8442 118.831C111.109 118.831 121.052 108.889 121.052 96.6235C121.052 84.3585 111.109 74.4157 98.8442 74.4157ZM74.2987 96.6235C74.2987 83.0674 85.2881 72.078 98.8442 72.078C112.4 72.078 123.39 83.0674 123.39 96.6235C123.39 110.18 112.4 121.169 98.8442 121.169C85.2881 121.169 74.2987 110.18 74.2987 96.6235ZM98.8442 81.4287C99.4897 81.4287 100.013 81.952 100.013 82.5975V95.9011L108.718 100.253C109.295 100.542 109.529 101.244 109.24 101.822C108.952 102.399 108.249 102.633 107.672 102.344L98.3214 97.6689C97.9255 97.4709 97.6753 97.0662 97.6753 96.6235V82.5975C97.6753 81.952 98.1986 81.4287 98.8442 81.4287Z" fill="#0D469A"/>
<path d="M99.6234 77.5326C99.6234 78.1781 99.1001 78.7014 98.4545 78.7014C97.809 78.7014 97.2857 78.1781 97.2857 77.5326C97.2857 76.8871 97.809 76.3638 98.4545 76.3638C99.1001 76.3638 99.6234 76.8871 99.6234 77.5326Z" fill="#0D469A"/>
<path d="M99.6234 114.935C99.6234 115.581 99.1001 116.104 98.4545 116.104C97.809 116.104 97.2857 115.581 97.2857 114.935C97.2857 114.29 97.809 113.766 98.4545 113.766C99.1001 113.766 99.6234 114.29 99.6234 114.935Z" fill="#0D469A"/>
<path d="M87.1558 110.26C87.1558 110.905 86.6325 111.429 85.987 111.429C85.3415 111.429 84.8182 110.905 84.8182 110.26C84.8182 109.614 85.3415 109.091 85.987 109.091C86.6325 109.091 87.1558 109.614 87.1558 110.26Z" fill="#0D469A"/>
<path d="M113.649 110.26C113.649 110.905 113.126 111.429 112.481 111.429C111.835 111.429 111.312 110.905 111.312 110.26C111.312 109.614 111.835 109.091 112.481 109.091C113.126 109.091 113.649 109.614 113.649 110.26Z" fill="#0D469A"/>
<path d="M118.325 96.2339C118.325 96.8794 117.801 97.4027 117.156 97.4027C116.51 97.4027 115.987 96.8794 115.987 96.2339C115.987 95.5884 116.51 95.0651 117.156 95.0651C117.801 95.0651 118.325 95.5884 118.325 96.2339Z" fill="#0D469A"/>
<path d="M80.9221 96.2339C80.9221 96.8794 80.3988 97.4027 79.7532 97.4027C79.1077 97.4027 78.5844 96.8794 78.5844 96.2339C78.5844 95.5884 79.1077 95.0651 79.7532 95.0651C80.3988 95.0651 80.9221 95.5884 80.9221 96.2339Z" fill="#0D469A"/>
<path d="M87.1558 83.7663C87.1558 84.4119 86.6325 84.9352 85.987 84.9352C85.3415 84.9352 84.8182 84.4119 84.8182 83.7663C84.8182 83.1208 85.3415 82.5975 85.987 82.5975C86.6325 82.5975 87.1558 83.1208 87.1558 83.7663Z" fill="#0D469A"/>
<path d="M113.649 83.7663C113.649 84.4119 113.126 84.9352 112.481 84.9352C111.835 84.9352 111.312 84.4119 111.312 83.7663C111.312 83.1208 111.835 82.5975 112.481 82.5975C113.126 82.5975 113.649 83.1208 113.649 83.7663Z" fill="#0D469A"/>
</svg>
