<svg xmlns="http://www.w3.org/2000/svg" viewBox="0 0 500 500"><g id="freepik--background-simple--inject-2"><path d="M27.62,175.94S46.87,94.58,122.73,55s166.33-22.74,240-11.1,120.53,68,115.52,135.61-64.42,74-109.78,141.79-47.71,93-120.78,124.16-166.91-20.11-203-111S27.62,175.94,27.62,175.94Z" style="fill:#90CAF9"></path><path d="M27.62,175.94S46.87,94.58,122.73,55s166.33-22.74,240-11.1,120.53,68,115.52,135.61-64.42,74-109.78,141.79-47.71,93-120.78,124.16-166.91-20.11-203-111S27.62,175.94,27.62,175.94Z" style="fill:#fff;opacity:0.7000000000000001"></path></g><g id="freepik--Graphics--inject-2"><path d="M413.41,147.45a1.51,1.51,0,1,1,1.51-1.51A1.51,1.51,0,0,1,413.41,147.45Z" style="fill:#888e92"></path><path d="M429.29,147.45a1.51,1.51,0,1,1,1.51-1.51A1.51,1.51,0,0,1,429.29,147.45Z" style="fill:#888e92"></path><path d="M444.4,147.45a1.51,1.51,0,1,1,1.51-1.51A1.51,1.51,0,0,1,444.4,147.45Z" style="fill:#888e92"></path><path d="M413.41,162.64a1.52,1.52,0,1,1,1.51-1.52A1.52,1.52,0,0,1,413.41,162.64Z" style="fill:#888e92"></path><path d="M429.29,162.64a1.52,1.52,0,1,1,1.51-1.52A1.52,1.52,0,0,1,429.29,162.64Z" style="fill:#888e92"></path><path d="M444.4,162.64a1.52,1.52,0,1,1,1.51-1.52A1.52,1.52,0,0,1,444.4,162.64Z" style="fill:#888e92"></path><circle cx="413.41" cy="176.3" r="1.51" style="fill:#888e92"></circle><circle cx="429.29" cy="176.3" r="1.51" style="fill:#888e92"></circle><circle cx="444.4" cy="176.3" r="1.51" style="fill:#888e92"></circle><path d="M429.29,193a1.52,1.52,0,1,1,1.51-1.51A1.52,1.52,0,0,1,429.29,193Z" style="fill:#888e92"></path><circle cx="413.41" cy="42.3" r="1.51" style="fill:#888e92"></circle><circle cx="429.29" cy="42.3" r="1.51" style="fill:#888e92"></circle><circle cx="444.4" cy="42.3" r="1.51" style="fill:#888e92"></circle><path d="M413.41,59a1.52,1.52,0,1,1,1.51-1.51A1.52,1.52,0,0,1,413.41,59Z" style="fill:#888e92"></path><path d="M429.29,59a1.52,1.52,0,1,1,1.51-1.51A1.52,1.52,0,0,1,429.29,59Z" style="fill:#888e92"></path><path d="M444.4,59a1.52,1.52,0,1,1,1.51-1.51A1.52,1.52,0,0,1,444.4,59Z" style="fill:#888e92"></path><path d="M413.41,74.18a1.52,1.52,0,1,1,1.51-1.51A1.52,1.52,0,0,1,413.41,74.18Z" style="fill:#888e92"></path><path d="M429.29,74.18a1.52,1.52,0,1,1,1.51-1.51A1.52,1.52,0,0,1,429.29,74.18Z" style="fill:#888e92"></path><path d="M444.4,74.18a1.52,1.52,0,1,1,1.51-1.51A1.52,1.52,0,0,1,444.4,74.18Z" style="fill:#888e92"></path><circle cx="429.29" cy="87.85" r="1.51" style="fill:#888e92"></circle><path d="M32.5,218.33A1.52,1.52,0,1,1,34,216.82,1.52,1.52,0,0,1,32.5,218.33Z" style="fill:#888e92"></path><path d="M48.38,218.33a1.52,1.52,0,1,1,1.51-1.51A1.52,1.52,0,0,1,48.38,218.33Z" style="fill:#888e92"></path><path d="M63.49,218.33A1.52,1.52,0,1,1,65,216.82,1.52,1.52,0,0,1,63.49,218.33Z" style="fill:#888e92"></path><path d="M32.5,233.51A1.51,1.51,0,1,1,34,232,1.52,1.52,0,0,1,32.5,233.51Z" style="fill:#888e92"></path><circle cx="48.38" cy="232" r="1.51" style="fill:#888e92"></circle><path d="M63.49,233.51A1.51,1.51,0,1,1,65,232,1.52,1.52,0,0,1,63.49,233.51Z" style="fill:#888e92"></path><path d="M32.5,248.7A1.52,1.52,0,1,1,34,247.18,1.52,1.52,0,0,1,32.5,248.7Z" style="fill:#888e92"></path><path d="M48.38,248.7a1.52,1.52,0,1,1,1.51-1.52A1.52,1.52,0,0,1,48.38,248.7Z" style="fill:#888e92"></path><path d="M63.49,248.7A1.52,1.52,0,1,1,65,247.18,1.52,1.52,0,0,1,63.49,248.7Z" style="fill:#888e92"></path><path d="M48.38,263.88a1.52,1.52,0,1,1,1.51-1.52A1.52,1.52,0,0,1,48.38,263.88Z" style="fill:#888e92"></path><path d="M136.5,64.33A1.52,1.52,0,1,1,138,62.82,1.52,1.52,0,0,1,136.5,64.33Z" style="fill:#888e92"></path><path d="M152.38,64.33a1.52,1.52,0,1,1,1.51-1.51A1.52,1.52,0,0,1,152.38,64.33Z" style="fill:#888e92"></path><path d="M167.49,64.33A1.52,1.52,0,1,1,169,62.82,1.52,1.52,0,0,1,167.49,64.33Z" style="fill:#888e92"></path><path d="M136.5,79.51A1.51,1.51,0,1,1,138,78,1.52,1.52,0,0,1,136.5,79.51Z" style="fill:#888e92"></path><circle cx="152.38" cy="78" r="1.51" style="fill:#888e92"></circle><path d="M167.49,79.51A1.51,1.51,0,1,1,169,78,1.52,1.52,0,0,1,167.49,79.51Z" style="fill:#888e92"></path><path d="M136.5,94.7A1.52,1.52,0,1,1,138,93.18,1.52,1.52,0,0,1,136.5,94.7Z" style="fill:#888e92"></path><path d="M152.38,94.7a1.52,1.52,0,1,1,1.51-1.52A1.52,1.52,0,0,1,152.38,94.7Z" style="fill:#888e92"></path><path d="M167.49,94.7A1.52,1.52,0,1,1,169,93.18,1.52,1.52,0,0,1,167.49,94.7Z" style="fill:#888e92"></path><circle cx="152.38" cy="108.36" r="1.51" style="fill:#888e92"></circle></g><g id="freepik--Plant--inject-2"><line x1="434.02" y1="379.97" x2="434.02" y2="258.03" style="fill:none;stroke:#90CAF9;stroke-linecap:round;stroke-linejoin:round"></line><path d="M433.11,369s-6.42-9.17-14.67-13.75-22-4.59-22-4.59S403.77,377.22,433.11,369Z" style="fill:#90CAF9"></path><path d="M434,369s6.42-9.17,14.67-13.75,22-4.59,22-4.59S463.36,377.22,434,369Z" style="fill:#90CAF9"></path><path d="M433.11,336s-6.42-9.16-14.67-13.75-22-4.58-22-4.58S403.77,344.22,433.11,336Z" style="fill:#90CAF9"></path><path d="M434,336s6.42-9.16,14.67-13.75,22-4.58,22-4.58S463.36,344.22,434,336Z" style="fill:#90CAF9"></path><path d="M433.11,303s-6.42-9.17-14.67-13.76-22-4.58-22-4.58S403.77,311.21,433.11,303Z" style="fill:#90CAF9"></path><path d="M434,303s6.42-9.17,14.67-13.76,22-4.58,22-4.58S463.36,311.21,434,303Z" style="fill:#90CAF9"></path><path d="M433.11,270s-6.42-9.17-14.67-13.75-22-4.59-22-4.59S403.77,278.2,433.11,270Z" style="fill:#90CAF9"></path><path d="M434,270s6.42-9.17,14.67-13.75,22-4.59,22-4.59S463.36,278.2,434,270Z" style="fill:#90CAF9"></path><path d="M434,258s-7.33-9.87-7.7-19.31,5.83-21.7,5.83-21.7S454.62,235.56,434,258Z" style="fill:#90CAF9"></path><polygon points="415.66 377.69 451.24 377.69 442.34 475 424.56 475 415.66 377.69" style="fill:#263238;stroke:#263238;stroke-linecap:round;stroke-linejoin:round"></polygon></g><g id="freepik--Device--inject-2"><path d="M392.15,166.17a1.44,1.44,0,0,0,1.45-1.44V126a1.45,1.45,0,0,0-1.45-1.44h-3.76v-74a18.61,18.61,0,0,0-18.61-18.61H188.05a18.61,18.61,0,0,0-18.61,18.61V432.55a18.62,18.62,0,0,0,18.61,18.62H369.78a18.62,18.62,0,0,0,18.61-18.62V199.49h3.76a1.45,1.45,0,0,0,1.45-1.44V180.8a1.45,1.45,0,0,0-1.45-1.44h-3.76V166.17Zm-10,251.89a13.46,13.46,0,0,1-13.64,13.28H189.37a13.46,13.46,0,0,1-13.64-13.28V54.51a13.46,13.46,0,0,1,13.64-13.29H260l2.94,5.45a18.32,18.32,0,0,0,32,0l2.94-5.45h70.59A13.46,13.46,0,0,1,382.1,54.51Z" style="fill:#263238;stroke:#263238;stroke-linecap:round;stroke-linejoin:round"></path><path d="M283.77,43.31a4.86,4.86,0,1,0-4.86,4.85A4.85,4.85,0,0,0,283.77,43.31Z" style="fill:#fff;stroke:#263238;stroke-linecap:round;stroke-linejoin:round"></path><path d="M368.46,41.22H297.87l-2.94,5.45a18.32,18.32,0,0,1-32,0L260,41.22H189.37a13.46,13.46,0,0,0-13.64,13.29V418.06a13.46,13.46,0,0,0,13.64,13.28H368.46a13.46,13.46,0,0,0,13.64-13.28V54.51A13.46,13.46,0,0,0,368.46,41.22Z" style="fill:#575757;stroke:#263238;stroke-linecap:round;stroke-linejoin:round"></path><path d="M216.17,376.64a1.1,1.1,0,1,1-1.1-1.11A1.1,1.1,0,0,1,216.17,376.64Z" style="fill:#fff"></path><path d="M220.05,376.64a1.1,1.1,0,1,1-1.1-1.11A1.1,1.1,0,0,1,220.05,376.64Z" style="fill:#fff"></path><path d="M223.75,376.64a1.11,1.11,0,1,1-1.11-1.11A1.11,1.11,0,0,1,223.75,376.64Z" style="fill:#fff"></path><path d="M216.17,380.35a1.1,1.1,0,1,1-1.1-1.11A1.1,1.1,0,0,1,216.17,380.35Z" style="fill:#fff"></path><path d="M220.05,380.35a1.1,1.1,0,1,1-1.1-1.11A1.1,1.1,0,0,1,220.05,380.35Z" style="fill:#fff"></path><path d="M223.75,380.35a1.11,1.11,0,1,1-1.11-1.11A1.11,1.11,0,0,1,223.75,380.35Z" style="fill:#fff"></path><path d="M216.17,384.06a1.1,1.1,0,1,1-1.1-1.11A1.1,1.1,0,0,1,216.17,384.06Z" style="fill:#fff"></path><path d="M220.05,384.06A1.1,1.1,0,1,1,219,383,1.1,1.1,0,0,1,220.05,384.06Z" style="fill:#fff"></path><path d="M223.75,384.06a1.11,1.11,0,1,1-1.11-1.11A1.11,1.11,0,0,1,223.75,384.06Z" style="fill:#fff"></path><path d="M220.05,387.76a1.1,1.1,0,1,1-1.1-1.1A1.11,1.11,0,0,1,220.05,387.76Z" style="fill:#fff"></path><path d="M339.27,376.68l-6.45,3.73h-4.37a.61.61,0,0,0-.61.61v3.66a.61.61,0,0,0,.61.61h4.38l6.44,3.72Z" style="fill:none;stroke:#fff;stroke-linecap:round;stroke-miterlimit:10;stroke-width:2px"></path><path d="M345.18,382.85a6.56,6.56,0,0,1-1.92,4.65l1,1.07a8,8,0,0,0-.26-11.68l-1.09,1A6.58,6.58,0,0,1,345.18,382.85Z" style="fill:#fff"></path><path d="M341.76,382.85a3.14,3.14,0,0,1-.85,2.15l1,1.08a4.63,4.63,0,0,0-.48-6.88l-1.11,1A3.17,3.17,0,0,1,341.76,382.85Z" style="fill:#fff"></path><polygon points="236.69 419.23 243.7 423.27 243.7 415.18 236.69 419.23" style="fill:none;stroke:#fff;stroke-linecap:round;stroke-linejoin:round"></polygon><path d="M281,419.23a3.74,3.74,0,1,0-3.73,3.73A3.74,3.74,0,0,0,281,419.23Z" style="fill:none;stroke:#fff;stroke-linecap:round;stroke-linejoin:round"></path><rect x="310.29" y="415.18" width="8.09" height="8.09" style="fill:none;stroke:#fff;stroke-linecap:round;stroke-linejoin:round"></rect><rect x="353.67" y="46.45" width="14.23" height="7.81" style="fill:none;stroke:#fff;stroke-linecap:round;stroke-linejoin:round;stroke-width:0.821067px"></rect><rect x="353.67" y="46.45" width="11.1" height="7.81" style="fill:#fff;stroke:#fff;stroke-linecap:round;stroke-linejoin:round;stroke-width:0.725073px"></rect><rect x="367.87" y="48.63" width="2.01" height="3.44" style="fill:#fff;stroke:#fff;stroke-linecap:round;stroke-linejoin:round;stroke-width:0.725073px"></rect><rect x="187.48" y="48.87" width="2.61" height="4.47" style="fill:#fff;stroke:#fff;stroke-linecap:round;stroke-linejoin:round;stroke-width:0.8830859999999999px"></rect><rect x="191.58" y="47.3" width="2.61" height="6.05" style="fill:#fff;stroke:#fff;stroke-linecap:round;stroke-linejoin:round;stroke-width:0.8830859999999999px"></rect><rect x="195.69" y="45.44" width="2.61" height="7.9" style="fill:#fff;stroke:#fff;stroke-linecap:round;stroke-linejoin:round;stroke-width:0.8830859999999999px"></rect><line x1="182.04" y1="60.42" x2="375.75" y2="60.42" style="fill:none;stroke:#fff;stroke-linecap:round;stroke-linejoin:round"></line><path d="M344.14,54.1a.94.94,0,1,0-.94.94A.94.94,0,0,0,344.14,54.1Z" style="fill:#fff"></path><path d="M338.21,49.37a6.86,6.86,0,0,1,9.74-.24l.52-.54a7.6,7.6,0,0,0-10.8.27Z" style="fill:#fff"></path><path d="M339.2,50.3l.55.52a4.73,4.73,0,0,1,6.74-.17l.52-.54a5.49,5.49,0,0,0-7.81.19Z" style="fill:#fff"></path><path d="M340.9,51.92l.54.51a2.41,2.41,0,0,1,1.76-.76,2.46,2.46,0,0,1,1.68.67l.52-.54a3.22,3.22,0,0,0-2.2-.88A3.13,3.13,0,0,0,340.9,51.92Z" style="fill:#fff"></path><circle cx="278.85" cy="128.26" r="30.85" transform="translate(107.18 382.7) rotate(-80.69)" style="fill:#949494"></circle><path d="M253.43,145.74a30.85,30.85,0,0,0,50.74.14c-3.77-1.4-18.84-7-18.84-8.13,0-1.25,2.09-4.69,3.58-7.81a25.07,25.07,0,0,0,.89-3.13l1.79-1.87c1.79-1.88.9-4.69.6-5.94s-2.31-.19-2.64,0a45.47,45.47,0,0,0-1.24-9c-1.05-3.31-7-4.8-8.35-4.9v0h-2.69v0c-1.39.1-7.3,1.59-8.35,4.9a45.47,45.47,0,0,0-1.24,9c-.33-.17-2.37-1.13-2.64,0s-1.19,4.06.6,5.94l1.79,1.87a25.07,25.07,0,0,0,.89,3.13c1.49,3.12,3.58,6.56,3.58,7.81C271.9,138.81,257.73,144.14,253.43,145.74Z" style="fill:#fff"></path><path d="M255.24,182.51a6.08,6.08,0,0,0,1.05,0c1.68-.12,2.52-1,2.52-3.22V165.7H260v13.49c0,3.14-1.41,4.29-3.58,4.39a7.61,7.61,0,0,1-1.17,0Z" style="fill:#fff"></path><path d="M263.69,179.62l-.89,4h-1.07l3.91-17.91h1.71l4,17.91h-1.17l-.9-4Zm.18-1h5.21L266.45,167Z" style="fill:#fff"></path><path d="M279.13,183.56H278l-3.78-15.82v15.84h-1.05V165.7h1.69l3.75,15.81,3.73-15.81H284v17.88h-1.12V167.69Z" style="fill:#fff"></path><path d="M292.08,174v1.07H287.2v7.46h5.88v1.07H286V165.7h7.06v1.07H287.2V174Z" style="fill:#fff"></path><path d="M302.53,170v.38H301.4v-.46c0-1.89-.71-3.32-2.65-3.32s-2.66,1.4-2.66,3.29c0,4.35,6.46,4.42,6.46,9.35,0,2.59-1.12,4.48-3.85,4.48s-3.86-1.89-3.86-4.48v-.91H296v1c0,1.92.74,3.3,2.71,3.3s2.71-1.38,2.71-3.3c0-4.29-6.47-4.37-6.47-9.35,0-2.68,1.18-4.42,3.81-4.45S302.53,167.44,302.53,170Z" style="fill:#fff"></path><path d="M266.09,203.23c0-1.7.77-2.91,2.53-2.91s2.52,1.21,2.52,2.91v5.87c0,1.68-.77,2.91-2.52,2.91s-2.53-1.23-2.53-2.91Zm.75,5.9c0,1.27.51,2.19,1.78,2.19s1.77-.92,1.77-2.19v-5.95c0-1.25-.51-2.17-1.77-2.17s-1.78.92-1.78,2.17Z" style="fill:#fff"></path><path d="M272.34,203.23c0-1.7.78-2.91,2.53-2.91s2.53,1.21,2.53,2.91v5.87c0,1.68-.77,2.91-2.53,2.91s-2.53-1.23-2.53-2.91Zm.76,5.9c0,1.27.51,2.19,1.77,2.19s1.77-.92,1.77-2.19v-5.95c0-1.25-.5-2.17-1.77-2.17s-1.77.92-1.77,2.17Z" style="fill:#fff"></path><path d="M279.39,210.46v1.45h-.74v-1.45Z" style="fill:#fff"></path><path d="M285.66,203.24c0,3.32-4.16,4.47-4.21,7.85v.13h4.11v.69H280.7v-.56c0-4,4.2-4.92,4.2-8.08,0-1.32-.44-2.26-1.75-2.26s-1.73,1-1.73,2.22V204h-.72v-.74c0-1.65.71-3,2.48-3S285.66,201.57,285.66,203.24Z" style="fill:#fff"></path><path d="M287.74,205.21a2,2,0,0,1,1.86-.88c1.59,0,2.23,1.21,2.23,2.8v2c0,1.66-.74,2.91-2.5,2.91s-2.47-1.25-2.47-2.91v-.62h.72v.65c0,1.24.49,2.17,1.74,2.17s1.75-.93,1.75-2.17V207.2c0-1.23-.49-2.17-1.75-2.17a1.6,1.6,0,0,0-1.64,1.31v.2H287l.3-6.14h4.31v.71H288Z" style="fill:#fff"></path><rect x="208.79" y="246.39" width="23.18" height="21.89" rx="2" style="fill:none;stroke:#fff;stroke-miterlimit:10;stroke-width:2px"></rect><line x1="209.43" y1="253.47" x2="231.97" y2="253.47" style="fill:none;stroke:#fff;stroke-miterlimit:10;stroke-width:2px"></line><rect x="223.6" y="260.56" width="5.15" height="5.15" style="fill:#fff"></rect><line x1="215.09" y1="246.16" x2="215.09" y2="243.46" style="fill:none;stroke:#fff;stroke-linecap:round;stroke-miterlimit:10;stroke-width:2px"></line><line x1="225.89" y1="246.16" x2="225.89" y2="243.46" style="fill:none;stroke:#fff;stroke-linecap:round;stroke-miterlimit:10;stroke-width:2px"></line><rect x="208.49" y="304.94" width="23.39" height="28.19" rx="1.55" style="fill:none;stroke:#fff;stroke-linecap:round;stroke-miterlimit:10;stroke-width:2px"></rect><line x1="212.69" y1="311.24" x2="227.69" y2="311.24" style="fill:none;stroke:#fff;stroke-linecap:round;stroke-miterlimit:10;stroke-width:2px"></line><line x1="212.69" y1="317.24" x2="227.69" y2="317.24" style="fill:none;stroke:#fff;stroke-linecap:round;stroke-miterlimit:10;stroke-width:2px"></line><line x1="212.69" y1="323.24" x2="221.69" y2="323.24" style="fill:none;stroke:#fff;stroke-linecap:round;stroke-miterlimit:10;stroke-width:2px"></line><path d="M284.27,318.82v1A5.16,5.16,0,0,1,279.1,325h0a5.17,5.17,0,0,1-5.17-5.17v-1" style="fill:none;stroke:#fff;stroke-linecap:round;stroke-miterlimit:10"></path><path d="M279.1,322.09h0a2.37,2.37,0,0,1-2.37-2.37v-6a2.37,2.37,0,0,1,2.37-2.37h0a2.37,2.37,0,0,1,2.37,2.37v6A2.37,2.37,0,0,1,279.1,322.09Z" style="fill:none;stroke:#fff;stroke-linecap:round;stroke-miterlimit:10"></path><line x1="279.1" y1="324.98" x2="279.1" y2="328.74" style="fill:none;stroke:#fff;stroke-linecap:round;stroke-miterlimit:10"></line><path d="M337.62,316.06a3.27,3.27,0,1,1-3.27-3.27A3.26,3.26,0,0,1,337.62,316.06Z" style="fill:none;stroke:#fff;stroke-linecap:round;stroke-miterlimit:10;stroke-width:2px"></path><path d="M330.87,321.93h7a4.87,4.87,0,0,1,4.87,4.87V329a0,0,0,0,1,0,0H326a0,0,0,0,1,0,0V326.8A4.87,4.87,0,0,1,330.87,321.93Z" style="fill:none;stroke:#fff;stroke-linecap:round;stroke-miterlimit:10;stroke-width:2px"></path><line x1="275.43" y1="247.9" x2="275.43" y2="266.44" style="fill:none;stroke:#fff;stroke-linecap:round;stroke-miterlimit:10"></line><line x1="281.95" y1="247.9" x2="281.95" y2="266.44" style="fill:none;stroke:#fff;stroke-linecap:round;stroke-miterlimit:10"></line><line x1="334.3" y1="247.9" x2="334.3" y2="266.44" style="fill:none;stroke:#fff;stroke-linecap:round;stroke-miterlimit:10"></line><line x1="343.57" y1="257.17" x2="325.03" y2="257.17" style="fill:none;stroke:#fff;stroke-linecap:round;stroke-miterlimit:10"></line><path d="M208.88,277.66v.56h-.43v-.59c0-.72-.28-1.27-1-1.27s-1,.55-1,1.27v3.52c0,.72.28,1.26,1,1.26s1-.54,1-1.26v-.81h.43v.78c0,1-.43,1.7-1.46,1.7s-1.46-.73-1.46-1.7v-3.46c0-1,.43-1.71,1.46-1.71S208.88,276.69,208.88,277.66Z" style="fill:#fff"></path><path d="M210.25,281.27l-.34,1.5h-.4L211,276h.65l1.5,6.77h-.44l-.34-1.5Zm.07-.39h2l-1-4.37Z" style="fill:#fff"></path><path d="M213.81,282.77V276h.45v6.35h2.12v.41Z" style="fill:#fff"></path><path d="M219.33,279.14v.4h-1.84v2.82h2.22v.41h-2.66V276h2.66v.41h-2.22v2.72Z" style="fill:#fff"></path><path d="M220.84,282.77h-.4V276H221l2,5.7V276h.41v6.76H223l-2.12-6Z" style="fill:#fff"></path><path d="M225.7,276c1,0,1.49.69,1.49,1.68v3.4c0,1-.45,1.68-1.49,1.68h-1.49V276Zm0,6.35c.75,0,1.06-.51,1.06-1.25v-3.44c0-.74-.32-1.25-1.06-1.25h-1v5.94Z" style="fill:#fff"></path><path d="M228.57,281.27l-.34,1.5h-.41L229.3,276H230l1.5,6.77H231l-.34-1.5Zm.07-.39h2l-1-4.37Z" style="fill:#fff"></path><path d="M233.54,276c1,0,1.45.57,1.45,1.53v.58a1.48,1.48,0,0,0,0,2.78V282a1.57,1.57,0,0,0,.16.81h-.46a1.56,1.56,0,0,1-.15-.81v-1.07c0-.89-.49-1.14-1.26-1.14h-.71v3h-.44V276Zm-.25,3.33c.79,0,1.25-.22,1.25-1.13v-.64c0-.72-.28-1.15-1-1.15h-1v2.92Z" style="fill:#fff"></path><path d="M272.83,279.59v3.18h-.45V276h.45v3.18h2.1V276h.46v6.76h-.46v-3.18Z" style="fill:#fff"></path><path d="M276.13,277.66c0-1,.45-1.71,1.48-1.71s1.49.73,1.49,1.71v3.46c0,1-.45,1.7-1.49,1.7s-1.48-.72-1.48-1.7Zm.44,3.49c0,.73.29,1.27,1,1.27s1.05-.54,1.05-1.27v-3.52c0-.73-.3-1.27-1.05-1.27s-1,.54-1,1.27Z" style="fill:#fff"></path><path d="M279.84,282.77V276h.44v6.35h2.13v.41Z" style="fill:#fff"></path><path d="M284.56,276c1,0,1.5.69,1.5,1.68v3.4c0,1-.46,1.68-1.5,1.68h-1.49V276Zm0,6.35c.75,0,1.06-.51,1.06-1.25v-3.44c0-.74-.32-1.25-1.06-1.25h-1v5.94Z" style="fill:#fff"></path><path d="M321.32,281.27l-.34,1.5h-.4l1.47-6.77h.65l1.5,6.77h-.44l-.34-1.5Zm.07-.39h2l-1-4.37Z" style="fill:#fff"></path><path d="M326.37,276c1,0,1.49.69,1.49,1.68v3.4c0,1-.45,1.68-1.49,1.68h-1.49V276Zm0,6.35c.75,0,1.06-.51,1.06-1.25v-3.44c0-.74-.32-1.25-1.06-1.25h-1v5.94Z" style="fill:#fff"></path><path d="M330.09,276c1,0,1.49.69,1.49,1.68v3.4c0,1-.45,1.68-1.49,1.68H328.6V276Zm0,6.35c.75,0,1.06-.51,1.06-1.25v-3.44c0-.74-.32-1.25-1.06-1.25h-1v5.94Z" style="fill:#fff"></path><path d="M336.7,277.66v.56h-.43v-.59c0-.72-.27-1.27-1-1.27s-1,.55-1,1.27v3.52c0,.72.28,1.26,1,1.26s1-.54,1-1.26v-.81h.43v.78c0,1-.43,1.7-1.46,1.7s-1.45-.73-1.45-1.7v-3.46c0-1,.42-1.71,1.45-1.71S336.7,276.69,336.7,277.66Z" style="fill:#fff"></path><path d="M338.07,281.27l-.34,1.5h-.4l1.48-6.77h.64l1.51,6.77h-.45l-.33-1.5Zm.07-.39h2l-1-4.37Z" style="fill:#fff"></path><path d="M341.64,282.77V276h.44v6.35h2.12v.41Z" style="fill:#fff"></path><path d="M344.87,282.77V276h.44v6.35h2.13v.41Z" style="fill:#fff"></path><path d="M322.72,339v.56h-.43V339c0-.72-.28-1.27-1-1.27s-1,.55-1,1.27v3.51c0,.73.28,1.27,1,1.27s1-.54,1-1.27v-.8h.43v.77c0,1-.43,1.71-1.46,1.71s-1.46-.73-1.46-1.71V339c0-1,.43-1.71,1.46-1.71S322.72,338,322.72,339Z" style="fill:#fff"></path><path d="M323.41,339c0-1,.46-1.71,1.48-1.71s1.5.72,1.5,1.71v3.45c0,1-.46,1.71-1.5,1.71s-1.48-.72-1.48-1.71Zm.45,3.48c0,.74.29,1.28,1,1.28s1.05-.54,1.05-1.28V339c0-.73-.3-1.27-1.05-1.27s-1,.54-1,1.27Z" style="fill:#fff"></path><path d="M327.53,344.08h-.41v-6.75h.58l2,5.7v-5.7h.4v6.75h-.49l-2.11-6Z" style="fill:#fff"></path><path d="M332,344.08v-6.35h-1.37v-.4h3.19v.4h-1.38v6.35Z" style="fill:#fff"></path><path d="M334.69,342.59l-.34,1.49H334l1.48-6.76h.64l1.51,6.76h-.45l-.33-1.49Zm.07-.39h2l-1-4.37Z" style="fill:#fff"></path><path d="M341.13,339v.56h-.42V339c0-.72-.28-1.27-1-1.27s-1,.55-1,1.27v3.51c0,.73.28,1.27,1,1.27s1-.54,1-1.27v-.8h.42v.77c0,1-.42,1.71-1.46,1.71s-1.45-.73-1.45-1.71V339c0-1,.42-1.71,1.45-1.71S341.13,338,341.13,339Z" style="fill:#fff"></path><path d="M343,344.08v-6.35h-1.37v-.4h3.19v.4h-1.38v6.35Z" style="fill:#fff"></path><path d="M348.22,339v.14h-.43v-.17c0-.71-.26-1.25-1-1.25s-1,.53-1,1.24c0,1.64,2.44,1.67,2.44,3.53,0,1-.43,1.69-1.46,1.69s-1.46-.71-1.46-1.69v-.34h.43v.37c0,.73.28,1.25,1,1.25s1-.52,1-1.25c0-1.62-2.45-1.65-2.45-3.53,0-1,.45-1.67,1.44-1.68S348.22,338,348.22,339Z" style="fill:#fff"></path><path d="M274.15,344.08h-.44l-1.43-6v6h-.4v-6.75h.64l1.42,6,1.41-6H276v6.75h-.42v-6Z" style="fill:#fff"></path><path d="M277.18,342.45c0,.73.27,1.29,1,1.29s1-.56,1-1.29v-5.12h.42v5.1c0,1-.41,1.71-1.44,1.71s-1.45-.74-1.45-1.71v-5.1h.44Z" style="fill:#fff"></path><path d="M281.53,344.08v-6.35h-1.37v-.4h3.19v.4H282v6.35Z" style="fill:#fff"></path><path d="M286.19,340.46v.4h-1.84v2.82h2.22v.4H283.9v-6.75h2.67v.4h-2.22v2.73Z" style="fill:#fff"></path><path d="M207,344.08h-.4v-6.75h.58l2,5.7v-5.7h.41v6.75h-.49l-2.12-6Z" style="fill:#fff"></path><path d="M210.38,339c0-1,.46-1.71,1.48-1.71s1.5.72,1.5,1.71v3.45c0,1-.46,1.71-1.5,1.71s-1.48-.72-1.48-1.71Zm.45,3.48c0,.74.29,1.28,1,1.28s1-.54,1-1.28V339c0-.73-.3-1.27-1-1.27s-1,.54-1,1.27Z" style="fill:#fff"></path><path d="M215.23,344.08v-6.35h-1.37v-.4h3.2v.4h-1.38v6.35Z" style="fill:#fff"></path><path d="M219.89,340.46v.4h-1.84v2.82h2.22v.4h-2.66v-6.75h2.66v.4h-2.22v2.73Z" style="fill:#fff"></path><path d="M222.4,337.33c1,0,1.44.66,1.44,1.64v.73c0,1.07-.49,1.6-1.56,1.6h-.84v2.78H221v-6.75Zm-.12,3.57c.78,0,1.12-.35,1.12-1.17v-.79c0-.73-.25-1.21-1-1.21h-1v3.17Z" style="fill:#fff"></path><path d="M225,342.59l-.33,1.49h-.41l1.48-6.76h.64l1.51,6.76h-.45l-.33-1.49Zm.07-.39h2l-1-4.37Z" style="fill:#fff"></path><path d="M230.08,337.33c1,0,1.5.68,1.5,1.68v3.4c0,1-.45,1.67-1.5,1.67H228.6v-6.75Zm0,6.35c.76,0,1.07-.51,1.07-1.25V339c0-.74-.32-1.26-1.07-1.26h-1v5.95Z" style="fill:#fff"></path><circle cx="277.66" cy="381.57" r="21.82" transform="translate(-180.51 494.57) rotate(-67.81)" style="fill:#90CAF9"></circle><path d="M291.38,386.82a13.48,13.48,0,0,0,1.14-1.5,3.49,3.49,0,0,0-.67-4.19,18.94,18.94,0,0,0-9-5.05,19.32,19.32,0,0,0-18.56,5,3.51,3.51,0,0,0-.37,4.86,12.17,12.17,0,0,0,1.56,1.57.79.79,0,0,0,.72,0c1.5-.71,3-1.48,4.46-2.21a.65.65,0,0,0,.41-.86c-.17-.74-.28-1.49-.45-2.23a.61.61,0,0,1,.44-.82,18.33,18.33,0,0,1,13.92,0,.59.59,0,0,1,.43.78c-.16.72-.26,1.45-.45,2.16a.79.79,0,0,0,.52,1c1.2.56,2.38,1.17,3.56,1.76C290.55,387.89,290.15,387.92,291.38,386.82Z" style="fill:#fff"></path><path d="M291.38,386.82c-1.23,1.1-.83,1.07-2.3.33-1.18-.59-2.36-1.2-3.56-1.76a.79.79,0,0,1-.52-1c.19-.71.29-1.44.45-2.16a.59.59,0,0,0-.43-.78,18.33,18.33,0,0,0-13.92,0,.61.61,0,0,0-.44.82c.17.74.28,1.49.45,2.23a.65.65,0,0,1-.41.86c-1.49.73-3,1.5-4.46,2.21a.79.79,0,0,1-.72,0,12.17,12.17,0,0,1-1.56-1.57,3.51,3.51,0,0,1,.37-4.86,19.32,19.32,0,0,1,18.56-5,18.94,18.94,0,0,1,9,5.05,3.49,3.49,0,0,1,.67,4.19A13.48,13.48,0,0,1,291.38,386.82Z" style="fill:#fff"></path><path d="M265.24,79.37c1.29,0,1.85.84,1.85,2.08v4.2c0,1.24-.56,2.08-1.85,2.08H263.4V79.37Zm0,7.86c.94,0,1.32-.63,1.32-1.55V81.42c0-.92-.39-1.55-1.32-1.55H264v7.36Z" style="fill:#fff"></path><path d="M268.55,79.37v8.36H268V79.37Z" style="fill:#fff"></path><path d="M270.31,85.88l-.42,1.85h-.5l1.83-8.38h.8l1.86,8.38h-.55l-.42-1.85Zm.08-.48h2.44L271.6,80Z" style="fill:#fff"></path><path d="M274.72,87.73V79.37h.55v7.86h2.63v.5Z" style="fill:#fff"></path><path d="M279.28,79.37v8.36h-.55V79.37Z" style="fill:#fff"></path><path d="M280.74,87.73h-.51V79.37H281l2.51,7.06V79.37h.5v8.36h-.61l-2.61-7.46Z" style="fill:#fff"></path><path d="M288.48,81.41V82H288v-.66c0-.89-.35-1.57-1.27-1.57s-1.27.68-1.27,1.57v4.36c0,.89.35,1.56,1.27,1.56s1.27-.67,1.27-1.56V83.92h-1.11v-.5h1.63v2.27c0,1.21-.52,2.12-1.8,2.12s-1.81-.91-1.81-2.12V81.41c0-1.21.53-2.12,1.81-2.12S288.48,80.2,288.48,81.41Z" style="fill:#fff"></path><path d="M289.82,86.68v1h-.53v-1Z" style="fill:#fff"></path><path d="M291.32,86.68v1h-.54v-1Z" style="fill:#fff"></path><path d="M292.81,86.68v1h-.53v-1Z" style="fill:#fff"></path><path d="M294.31,86.68v1h-.54v-1Z" style="fill:#fff"></path></g><g id="freepik--Character--inject-2"><path d="M140.6,148.28a78.56,78.56,0,0,0-6.83-4.55c-3.19-1.82-4.33-5.92-4.33-8.43s-.68-5.23-.22-6.83.68-15.93,2.27-16.39,11.18,10.39,15.25,17.3a36.19,36.19,0,0,1,4.78,12.53Z" style="fill:#fff;stroke:#263238;stroke-linecap:round;stroke-linejoin:round"></path><path d="M127.63,122.3l9.11,17.44a1.4,1.4,0,0,0,2.24.32l5-5.17a1.41,1.41,0,0,0,.23-1.62l-9.1-17.61a1.39,1.39,0,0,0-2.26-.31l-5,5.34A1.4,1.4,0,0,0,127.63,122.3Z" style="fill:#263238;stroke:#263238;stroke-linecap:round;stroke-linejoin:round"></path><path d="M145.45,123.81s-1.27-4.67-2.2-5.88-9.29-1.73-10,.21a2.51,2.51,0,0,0,2.08,3.54,44.3,44.3,0,0,0,4.89.36l3.18,2.3Z" style="fill:#fff;stroke:#263238;stroke-linecap:round;stroke-linejoin:round"></path><path d="M149.25,124.6s-3.19-3.64-4.56-4.32-9.1,2.5-8.87,4.55a2.51,2.51,0,0,0,3.41,2.28,44.86,44.86,0,0,0,4.55-1.82l3.87.68Z" style="fill:#fff;stroke:#263238;stroke-linecap:round;stroke-linejoin:round"></path><path d="M146.74,129.38a20.76,20.76,0,0,0-3.18,1.37c-1.14.68-3.65,2.05-4.1-.45s5.69-5.92,5.69-5.92,5.46-1.82,5.69,2.27-2.05,10.47-2.28,11.16" style="fill:#fff;stroke:#263238;stroke-linecap:round;stroke-linejoin:round"></path><path d="M146.33,199.47s13.17,14.37,25.14,12.87,10.78-20.06,7.79-28.44-28.44-47.6-28.44-47.6l-12.88,14.37,8.69,20.66s-7.19-12.58-10.48-15.57a49.65,49.65,0,0,0-4.19-3.59" style="fill:#90CAF9;stroke:#263238;stroke-linecap:round;stroke-linejoin:round"></path><line x1="146.63" y1="171.33" x2="154.11" y2="191.68" style="fill:#fff;stroke:#263238;stroke-linecap:round;stroke-linejoin:round"></line><path d="M141.64,242.45s4.63,17.37,3.76,43.72-4.63,53.86-4.92,56.18-4.92,56.46-4.92,70.36-.62,21.74-.62,21.74l2,18.82-20-1.74s.62-32.74-3.15-47.8-4.63-23.74-2.6-36.48a215.49,215.49,0,0,1,4.92-22.88s.58-25.48-.29-33.3-2.61-15.92-2.61-15.92-9.55,42.56-14.77,59.36S82.45,411,80.42,420s-4,30.69-4,30.69l-16.22-.87s-3.06-27.84.41-54.47a379.16,379.16,0,0,1,13-60.81c3.77-12.16,5.79-41.41,5.79-53.57s-2-17.37.29-26.64a141.7,141.7,0,0,1,5.51-17.08s37.06,2,42.56,1.15a75.91,75.91,0,0,1,12.45-.57Z" style="fill:#263238;stroke:#263238;stroke-linecap:round;stroke-linejoin:round"></path><path d="M101.6,341.19s-10.87-2-18.12,0,6.92,8.24,11.86,8.24S101.28,344.49,101.6,341.19Z" style="fill:#fff;stroke:#263238;stroke-linecap:round;stroke-linejoin:round"></path><path d="M139.83,344.16s-21.42-3.62-17.47,1.65,12.86,8.24,13.85,8.24,3,1.31,3.29-1S139.83,344.16,139.83,344.16Z" style="fill:#fff;stroke:#263238;stroke-linecap:round;stroke-linejoin:round"></path><path d="M101.57,137.38S89.08,142.19,84,146.51,81.39,159,85,173.42s14.42,57.41,14.42,62.7a88.17,88.17,0,0,0,1.2,12.25,54.54,54.54,0,0,0,18,.72c10.57-1.2,24.26-1.92,24.26-1.92a50.79,50.79,0,0,0,1.29-23.26c-5.19-28.3-10.66-53.37-16.67-65.87s-5-15.61-14.41-19.45S101.57,137.38,101.57,137.38Z" style="fill:#fff;stroke:#263238;stroke-linecap:round;stroke-linejoin:round"></path><path d="M114.3,137.14s11.77,14.66,10.09,26.91-18.5,12.73-26.18.24-5.77-22.82-1.44-25.94S109.26,132.34,114.3,137.14Z" style="fill:#fff;stroke:#263238;stroke-linecap:round;stroke-linejoin:round"></path><path d="M130.16,169.53s8.68,37.12,8.08,71.25-1.19,78.44-.59,79.63,37.12-13.47,41-15.56-7.49-40.42-11.68-51.2S149.32,204,149.32,204s-8.68-41-12-45.81-8.09-7.48-11.38-9.87S130.16,169.53,130.16,169.53Z" style="fill:#90CAF9;stroke:#263238;stroke-linecap:round;stroke-linejoin:round"></path><circle cx="169.15" cy="298.62" r="2.03" style="fill:#fff;stroke:#263238;stroke-linecap:round;stroke-linejoin:round"></circle><circle cx="164.51" cy="273.72" r="2.03" style="fill:#fff;stroke:#263238;stroke-linecap:round;stroke-linejoin:round"></circle><path d="M159.3,248.82a2,2,0,1,1-2-2A2,2,0,0,1,159.3,248.82Z" style="fill:#fff;stroke:#263238;stroke-linecap:round;stroke-linejoin:round"></path><path d="M116.69,139.89s15.27,7.49,18,10.78S130.76,171,130.76,171Z" style="fill:#90CAF9;stroke:#263238;stroke-linecap:round;stroke-linejoin:round"></path><path d="M126.56,145.11a124,124,0,0,1,.62,18l3.58,7.92s6.59-17.07,3.89-20.36C133.51,149.27,130.1,147.12,126.56,145.11Z" style="fill:#fff;stroke:#263238;stroke-linecap:round;stroke-linejoin:round"></path><path d="M113.82,158.28s-1.2-3.84,6-14.89,8.64-12.73,8.64-12.73l-31-4.81s-2.17,19.22-2.17,19.94" style="fill:#fff;stroke:#263238;stroke-linecap:round;stroke-linejoin:round"></path><path d="M128.47,130.66l-19.08-3-1.85,2.22a74.36,74.36,0,0,0,15.43,8.7C127.46,131.85,128.47,130.66,128.47,130.66Z" style="fill:#263238;stroke:#263238;stroke-linecap:round;stroke-linejoin:round"></path><path d="M125.59,92.94s5,6.49,4.57,9.61A5.79,5.79,0,0,0,133,108.8c1.68.72,4.56,1.44,3.84,3.12a30.06,30.06,0,0,1-2.4,4.09s3.84,13.45,1.44,15.13-8.65,2.16-12.73,2.16S110,131.62,110,131.62s-9.13-10.57-8.65-19,6.73-14.65,10.81-17S125.59,92.94,125.59,92.94Z" style="fill:#fff;stroke:#263238;stroke-linecap:round;stroke-linejoin:round"></path><path d="M126.92,107.48c.56,1.13.57,2.27,0,2.53s-1.42-.45-2-1.58-.57-2.26,0-2.52S126.37,106.35,126.92,107.48Z" style="fill:#263238"></path><path d="M125.35,118.41s1.44,3.12,6.73,1.44" style="fill:none;stroke:#263238;stroke-linecap:round;stroke-linejoin:round"></path><path d="M122,103.51a5.51,5.51,0,0,1,6.48-1.92" style="fill:none;stroke:#263238;stroke-linecap:round;stroke-linejoin:round"></path><path d="M85.24,146.51s10.81,26.67,14.89,48.77,10.33,54.29,9.85,71.58-3.37,58.14-5.53,59.82-36.75.24-48-3.84-14.9-4.81-14.65-6.73,11.05-75.67,12-84.08,10.57-67.74,10.57-67.74,3.36-6.73,8.64-10.81A62.53,62.53,0,0,1,85.24,146.51Z" style="fill:#90CAF9;stroke:#263238;stroke-linecap:round;stroke-linejoin:round"></path><path d="M73.45,296.11s.66,7.92,1,8.91a63.09,63.09,0,0,1,2,6.93c.33,2-5-1-5.94-2.64l-1-1.65s-3.63,4.29-5.28,4.95-5.28-2-5.94-3.3S54.64,308,54,304.69a31.43,31.43,0,0,1,0-8.25Z" style="fill:#fff;stroke:#263238;stroke-linecap:round;stroke-linejoin:round"></path><path d="M63.05,167.53s-4.94,17.14-5.93,28.67-7.25,99.85-7.25,99.85,1,3.29,11.2,4.61,14.17-1.32,14.83-3.29,14.83-111,14.83-111" style="fill:#90CAF9;stroke:#263238;stroke-linecap:round;stroke-linejoin:round"></path><path d="M96.53,179.9s-8.89-8.16-19.22-10.33-14.42,1.21-14.42,1.21-4.8-3.61-3.12-7.93,7.69-6.25,7.69-6.25,2.16-1.68,7.69-5.52a26.93,26.93,0,0,1,10.09-4.57S95.8,173.18,96.53,179.9Z" style="fill:#90CAF9;stroke:#263238;stroke-linecap:round;stroke-linejoin:round"></path><path d="M59.77,162.85c-1.68,4.32,3.12,7.93,3.12,7.93s4.09-3.37,14.42-1.21S96.53,179.9,96.53,179.9c-8.89-24.74-29.07-23.3-29.07-23.3S61.45,158.52,59.77,162.85Z" style="fill:#fff;stroke:#263238;stroke-linecap:round;stroke-linejoin:round"></path><path d="M75.12,444.43s2.64-7.58-.33-8.57S61,434.54,60,436.85a9.58,9.58,0,0,0-1,4.61c0,1.32-2-1-2,3s.32,11.53.32,11.53-9.88,6.59-11.2,10.22-.33,8.89,2,9.22,32,0,32,0,1.32-1.64,1.32-7.25-1.32-15.48-1.32-15.48,4.29-8.24,2-9.56S75.12,444.43,75.12,444.43Z" style="fill:#fff;stroke:#263238;stroke-linecap:round;stroke-linejoin:round"></path><path d="M81.37,469.14H45.55c-.16,3,.83,6,2.55,6.26,2.3.33,32,0,32,0S81.22,474,81.37,469.14Z" style="fill:#fff;stroke:#263238;stroke-linecap:round;stroke-linejoin:round"></path><polyline points="75.12 444.43 73.47 454.97 59.96 453.66 58.97 441.46" style="fill:#fff;stroke:#263238;stroke-linecap:round;stroke-linejoin:round"></polyline><path d="M129,448.08s-12.2-3.95-13.84-2.64-3,4-2,5.28l2,2.63s-4,14.17-2.31,16.81,11.2,4.28,18.45,4.28,13.84-1.64,16.48-.33,18.45,3.3,21.09,1.32,2.31-10.54-.66-10.54-17.79-6.26-21.42-9.89a21.4,21.4,0,0,1-4.94-7.91s.33-8.24-1-10.87-8.57-3.3-9.89.33S129,448.08,129,448.08Z" style="fill:#fff;stroke:#263238;stroke-linecap:round;stroke-linejoin:round"></path><path d="M168.87,475.43c1.11-.83,1.69-2.84,1.77-4.88-7,2-17.14.88-20.55-.39-10.44-3.87-12.53-1.65-19.78-1.65-5.34,0-13.72-1.61-17.76-2.46-.18,1.87-.14,3.4.3,4.11,1.65,2.64,11.2,4.28,18.45,4.28s13.84-1.64,16.48-.33S166.23,477.41,168.87,475.43Z" style="fill:#fff;stroke:#263238;stroke-linecap:round;stroke-linejoin:round"></path><path d="M129,448.08l8.56,8.57s2.31-5.27,5.28-6.92" style="fill:#fff;stroke:#263238;stroke-linecap:round;stroke-linejoin:round"></path><path d="M111.9,102.31s-3.12,5-.48,6.25,6.24,3.6,5,6.72-7.2,4.57-3.84,7.21,9.13,5.53,6.25,8.65-6,2.88-5.53,5,3.6,4.09,1.2,6.25-6.48-3.12-8.41-1.92,1.93,6.48-2.16,7.92-8.89-5-10.81-3.6-.72,4.33-5.76,5-6.25-3.61-8.17-3.61-7.93,1.92-8.17-1.92S73,135,75.39,135s3.36,1.68,2.88-1-3.36-4.32,0-5.76a21.86,21.86,0,0,1,5.28-1.69s1.2-5,11.77-13.69S111.9,102.31,111.9,102.31Z" style="fill:#263238;stroke:#263238;stroke-linecap:round;stroke-linejoin:round"></path><path d="M92.68,82.13s2.16.48,4.57-3.12S95.32,67,86.92,67,67.7,79.25,71.3,84.06s10.33,2.4,11.29,2.4S92.68,82.13,92.68,82.13Z" style="fill:#fff;stroke:#263238;stroke-linecap:round;stroke-linejoin:round"></path><path d="M119.11,86.7a42.68,42.68,0,0,0-15.86-5.29c-9.37-1.2-16.57.48-21.38,6a28.57,28.57,0,0,0-7.2,20.18c.24,7.92,5.76,13.93,5.76,13.93s15.62-17.06,25-23.06,14.66-10.09,14.66-10.09Z" style="fill:#fff;stroke:#263238;stroke-linecap:round;stroke-linejoin:round"></path><path d="M81.42,128.84a1.13,1.13,0,0,0,1.9.08c2.18-3.14,8.46-10.89,22.57-20.6,18.5-12.73,21.38-13.21,21.38-13.21s-6-8.89-7.92-10.09-19.94,8.64-30.27,18.73-12.73,15.38-11.53,18C78.36,123.56,80.27,126.88,81.42,128.84Z" style="fill:#fff;stroke:#263238;stroke-linecap:round;stroke-linejoin:round"></path><line x1="79.2" y1="116.46" x2="83.81" y2="124.7" style="fill:none;stroke:#263238;stroke-linecap:round;stroke-linejoin:round"></line><line x1="81.5" y1="114.15" x2="85.46" y2="120.74" style="fill:none;stroke:#263238;stroke-linecap:round;stroke-linejoin:round"></line><line x1="83.81" y1="110.53" x2="89.41" y2="118.1" style="fill:none;stroke:#263238;stroke-linecap:round;stroke-linejoin:round"></line><line x1="88.09" y1="108.55" x2="93.04" y2="115.47" style="fill:none;stroke:#263238;stroke-linecap:round;stroke-linejoin:round"></line><line x1="93.04" y1="101.96" x2="100.29" y2="110.86" style="fill:none;stroke:#263238;stroke-linecap:round;stroke-linejoin:round"></line><line x1="103.91" y1="99.65" x2="106.88" y2="103.28" style="fill:none;stroke:#263238;stroke-linecap:round;stroke-linejoin:round"></line><line x1="113.8" y1="89.44" x2="116.76" y2="93.39" style="fill:none;stroke:#263238;stroke-linecap:round;stroke-linejoin:round"></line></g><g id="freepik--Floor--inject-2"><line x1="17" y1="475" x2="474" y2="475" style="fill:none;stroke:#263238;stroke-miterlimit:10"></line></g></svg>