<svg width="150" height="150" viewBox="0 0 150 150" fill="none" xmlns="http://www.w3.org/2000/svg">
<g filter="url(#filter0_d_217_497)">
<path d="M137.5 69.25V75C137.492 88.4776 133.128 101.592 125.058 112.386C116.989 123.181 105.646 131.078 92.721 134.899C79.7964 138.721 65.9829 138.262 53.3404 133.591C40.698 128.92 29.9041 120.288 22.5685 108.982C15.2329 97.6752 11.7487 84.3004 12.6355 70.852C13.5223 57.4035 18.7325 44.602 27.4893 34.3567C36.246 24.1114 48.0799 16.9711 61.2262 14.0009C74.3725 11.0307 88.1267 12.3896 100.438 17.875" stroke="#3DB3E5" stroke-width="5" stroke-linecap="round" stroke-linejoin="round" shape-rendering="crispEdges"/>
</g>
<g filter="url(#filter1_d_217_497)">
<path d="M137.5 25L75 87.5625L56.25 68.8125" stroke="#3DB3E5" stroke-width="5" stroke-linecap="round" stroke-linejoin="round" shape-rendering="crispEdges"/>
</g>
<defs>
<filter id="filter0_d_217_497" x="6" y="9.96423" width="138" height="138" filterUnits="userSpaceOnUse" color-interpolation-filters="sRGB">
<feFlood flood-opacity="0" result="BackgroundImageFix"/>
<feColorMatrix in="SourceAlpha" type="matrix" values="0 0 0 0 0 0 0 0 0 0 0 0 0 0 0 0 0 0 127 0" result="hardAlpha"/>
<feOffset dy="4"/>
<feGaussianBlur stdDeviation="2"/>
<feComposite in2="hardAlpha" operator="out"/>
<feColorMatrix type="matrix" values="0 0 0 0 0 0 0 0 0 0 0 0 0 0 0 0 0 0 0.1 0"/>
<feBlend mode="normal" in2="BackgroundImageFix" result="effect1_dropShadow_217_497"/>
<feBlend mode="normal" in="SourceGraphic" in2="effect1_dropShadow_217_497" result="shape"/>
</filter>
<filter id="filter1_d_217_497" x="49.75" y="22.5" width="94.25" height="75.5625" filterUnits="userSpaceOnUse" color-interpolation-filters="sRGB">
<feFlood flood-opacity="0" result="BackgroundImageFix"/>
<feColorMatrix in="SourceAlpha" type="matrix" values="0 0 0 0 0 0 0 0 0 0 0 0 0 0 0 0 0 0 127 0" result="hardAlpha"/>
<feOffset dy="4"/>
<feGaussianBlur stdDeviation="2"/>
<feComposite in2="hardAlpha" operator="out"/>
<feColorMatrix type="matrix" values="0 0 0 0 0 0 0 0 0 0 0 0 0 0 0 0 0 0 0.1 0"/>
<feBlend mode="normal" in2="BackgroundImageFix" result="effect1_dropShadow_217_497"/>
<feBlend mode="normal" in="SourceGraphic" in2="effect1_dropShadow_217_497" result="shape"/>
</filter>
</defs>
</svg>
