<svg xmlns="http://www.w3.org/2000/svg" viewBox="0 0 500 500"><g id="freepik--Floor--inject-2"><path id="freepik--floor--inject-2" d="M77.66,236c-95.18,55-95.17,144.05,0,199S327.16,490,422.34,435s95.17-144,0-199S172.84,181.06,77.66,236Z" style="fill:#fafafa"></path></g><g id="freepik--Boxes--inject-2"><g id="freepik--boxes--inject-2"><g id="freepik--Box--inject-2"><polygon points="439.95 192.5 401.93 170.55 361.59 193.9 399.61 215.85 439.95 192.5" style="fill:#407BFF"></polygon><g style="opacity:0.8"><polygon points="439.95 192.5 401.93 170.55 361.59 193.9 399.61 215.85 439.95 192.5" style="fill:#fff"></polygon></g><polygon points="399.61 260.26 439.95 236.92 439.95 192.5 399.61 215.85 399.61 260.26" style="fill:#407BFF"></polygon><g style="opacity:0.6000000000000001"><polygon points="399.61 260.26 439.95 236.92 439.95 192.5 399.61 215.85 399.61 260.26" style="fill:#fff"></polygon></g><path d="M404,250.28a1.07,1.07,0,0,1-.53-.13,1.61,1.61,0,0,1-.65-1.45v-4.26h0v-.31l.22,0,3.34-2V247a3.82,3.82,0,0,1-1.65,3.11A1.43,1.43,0,0,1,404,250.28Zm-.64-5.53v3.95a1.1,1.1,0,0,0,.38,1,.76.76,0,0,0,.73-.08,3.38,3.38,0,0,0,1.37-2.65v-.34H404.6l-.25-1.68Zm1.71,1.32h.77v-2.94l-2,1.17,1,.17Z" style="fill:#455a64"></path><path d="M404.59,253.68a.27.27,0,0,1-.27-.27v-3.58a.27.27,0,0,1,.54,0v3.58A.27.27,0,0,1,404.59,253.68Z" style="fill:#455a64"></path><path d="M403,254.58a.27.27,0,0,1-.13-.5l3.11-1.8a.27.27,0,1,1,.27.47l-3.11,1.79A.25.25,0,0,1,403,254.58Z" style="fill:#455a64"></path><path d="M414.12,248.41a.57.57,0,0,1-.29-.07.7.7,0,0,1-.32-.65V247a.27.27,0,1,1,.53,0v.73c0,.11,0,.17,0,.18a.24.24,0,0,0,.18,0,1.6,1.6,0,0,0,.5-1.21v-4.76a.27.27,0,1,1,.53,0v4.76a2.06,2.06,0,0,1-.76,1.67A.87.87,0,0,1,414.12,248.41Z" style="fill:#455a64"></path><path d="M411.3,244.25v-.46a7.57,7.57,0,0,1,3.42-5.94,2.27,2.27,0,0,1,3.7,2.13v.16Zm5-6.35a2.7,2.7,0,0,0-1.34.42,7.08,7.08,0,0,0-3.13,5l6-3.48a2,2,0,0,0-.83-1.75A1.45,1.45,0,0,0,416.33,237.9Z" style="fill:#455a64"></path><path d="M423.74,242.93a.27.27,0,0,1-.27-.27v-9.12a.27.27,0,0,1,.54,0v9.12A.27.27,0,0,1,423.74,242.93Z" style="fill:#455a64"></path><path d="M423,235.62a.22.22,0,0,1-.11,0,.26.26,0,0,1-.14-.35l1-2.2,1.07,1.22a.27.27,0,0,1,0,.38.26.26,0,0,1-.38,0l-.5-.58-.62,1.42A.26.26,0,0,1,423,235.62Z" style="fill:#455a64"></path><path d="M426.22,241.52a.27.27,0,0,1-.27-.27v-9.12a.27.27,0,1,1,.54,0v9.12A.27.27,0,0,1,426.22,241.52Z" style="fill:#455a64"></path><path d="M425.43,234.21l-.1,0a.27.27,0,0,1-.14-.36l.95-2.2,1.06,1.23a.27.27,0,0,1,0,.38.28.28,0,0,1-.38,0l-.5-.58-.62,1.42A.26.26,0,0,1,425.43,234.21Z" style="fill:#455a64"></path><polygon points="399.61 260.26 361.59 238.32 361.59 193.9 399.61 215.85 399.61 260.26" style="fill:#407BFF"></polygon><g style="opacity:0.30000000000000004"><polygon points="399.61 260.26 361.59 238.32 361.59 193.9 399.61 215.85 399.61 260.26" style="fill:#fff"></polygon></g><polygon points="377.44 203.04 417.82 179.72 424.15 183.38 383.77 206.7 377.44 203.04" style="fill:#455a64"></polygon><polygon points="377.44 203.04 377.44 210.36 378.32 209.85 379.5 211.56 380.24 210.93 381.53 212.73 382.36 212.07 383.76 214.02 383.77 206.7 377.44 203.04" style="fill:#37474f"></polygon><path d="M365,226.84l11.62,6.71a1.17,1.17,0,0,1,.52.91v8.07c0,.67-.47.94-1,.61l-11.62-6.71a1.18,1.18,0,0,1-.53-.91v-8.07C364,226.78,364.47,226.51,365,226.84Z" style="fill:#fafafa"></path><polygon points="365.48 228.93 365.82 229.13 365.82 235.37 365.48 235.17 365.48 228.93" style="fill:#455a64"></polygon><polygon points="366.89 229.74 367.48 230.09 367.48 236.33 366.89 235.98 366.89 229.74" style="fill:#455a64"></polygon><polygon points="368.3 230.55 368.64 230.75 368.64 236.99 368.3 236.79 368.3 230.55" style="fill:#455a64"></polygon><polygon points="369.36 231.16 370.05 231.56 370.05 237.8 369.36 237.39 369.36 231.16" style="fill:#455a64"></polygon><polygon points="371.11 232.18 371.46 232.38 371.46 238.62 371.11 238.42 371.11 232.18" style="fill:#455a64"></polygon><polygon points="372.13 232.75 372.87 233.19 372.87 239.43 372.13 238.99 372.13 232.75" style="fill:#455a64"></polygon><polygon points="373.93 233.8 374.27 234 374.27 240.24 373.93 240.04 373.93 233.8" style="fill:#455a64"></polygon><polygon points="374.73 234.26 374.9 234.36 374.9 240.6 374.73 240.5 374.73 234.26" style="fill:#455a64"></polygon><polygon points="373.29 233.46 373.46 233.56 373.46 239.8 373.29 239.7 373.29 233.46" style="fill:#455a64"></polygon><polygon points="370.45 231.8 370.62 231.9 370.62 238.14 370.45 238.04 370.45 231.8" style="fill:#455a64"></polygon><polygon points="368.9 230.91 369.07 231.01 369.07 237.25 368.9 237.15 368.9 230.91" style="fill:#455a64"></polygon><polygon points="367.78 230.29 367.95 230.39 367.95 236.63 367.78 236.53 367.78 230.29" style="fill:#455a64"></polygon><polygon points="366.27 229.38 366.44 229.48 366.44 235.71 366.27 235.61 366.27 229.38" style="fill:#455a64"></polygon><polygon points="375.34 234.62 375.68 234.81 375.68 241.05 375.34 240.85 375.34 234.62" style="fill:#455a64"></polygon></g><g id="freepik--box--inject-2"><polygon points="429.81 164.96 397.67 146.4 363.55 166.14 395.7 184.7 429.81 164.96" style="fill:#407BFF"></polygon><g style="opacity:0.8"><polygon points="429.81 164.96 397.67 146.4 363.55 166.14 395.7 184.7 429.81 164.96" style="fill:#fff"></polygon></g><polygon points="395.7 209.44 429.81 189.7 429.81 164.96 395.7 184.7 395.7 209.44" style="fill:#407BFF"></polygon><g style="opacity:0.6000000000000001"><polygon points="395.7 209.44 429.81 189.7 429.81 164.96 395.7 184.7 395.7 209.44" style="fill:#fff"></polygon></g><path d="M399.4,201a.86.86,0,0,1-.44-.12,1.34,1.34,0,0,1-.55-1.22v-3.61h0v-.27l.18,0,2.83-1.66v4a3.26,3.26,0,0,1-1.39,2.63A1.34,1.34,0,0,1,399.4,201Zm-.54-4.68v3.34a.93.93,0,0,0,.33.83.66.66,0,0,0,.61-.07,2.86,2.86,0,0,0,1.16-2.24v-.29h-1l-.21-1.42Zm1.45,1.11H401V195l-1.68,1,.83.15Z" style="fill:#455a64"></path><path d="M399.91,203.88a.22.22,0,0,1-.22-.23v-3a.22.22,0,0,1,.22-.22.22.22,0,0,1,.23.22v3A.23.23,0,0,1,399.91,203.88Z" style="fill:#455a64"></path><path d="M398.6,204.64a.22.22,0,0,1-.2-.12.23.23,0,0,1,.08-.31l2.63-1.51a.23.23,0,1,1,.23.39l-2.63,1.52A.23.23,0,0,1,398.6,204.64Z" style="fill:#455a64"></path><path d="M408,199.42a.54.54,0,0,1-.25-.06.6.6,0,0,1-.27-.54v-.63a.22.22,0,0,1,.23-.22.22.22,0,0,1,.22.22v.63c0,.09,0,.14.05.15s.07,0,.15,0a1.38,1.38,0,0,0,.42-1v-4a.23.23,0,1,1,.45,0v4a1.76,1.76,0,0,1-.64,1.42A.73.73,0,0,1,408,199.42Z" style="fill:#455a64"></path><path d="M405.58,195.91v-.4a6.43,6.43,0,0,1,2.9-5,1.92,1.92,0,0,1,3.13,1.81v.13Zm4.26-5.38a2.25,2.25,0,0,0-1.13.36,6,6,0,0,0-2.65,4.22l5.09-2.94a1.69,1.69,0,0,0-.7-1.48A1.26,1.26,0,0,0,409.84,190.53Z" style="fill:#455a64"></path><path d="M416.11,194.79a.23.23,0,0,1-.23-.23v-7.71a.23.23,0,1,1,.45,0v7.71A.23.23,0,0,1,416.11,194.79Z" style="fill:#455a64"></path><path d="M415.44,188.61l-.09,0a.23.23,0,0,1-.11-.3l.8-1.86.9,1a.23.23,0,0,1,0,.32.22.22,0,0,1-.32,0l-.43-.49-.52,1.2A.23.23,0,0,1,415.44,188.61Z" style="fill:#455a64"></path><path d="M418.2,193.59a.23.23,0,0,1-.23-.23v-7.7a.23.23,0,0,1,.23-.23.23.23,0,0,1,.23.23v7.7A.23.23,0,0,1,418.2,193.59Z" style="fill:#455a64"></path><path d="M417.54,187.41a.15.15,0,0,1-.09,0,.21.21,0,0,1-.12-.29l.81-1.87.9,1a.22.22,0,0,1,0,.32.23.23,0,0,1-.32,0l-.42-.49-.52,1.2A.23.23,0,0,1,417.54,187.41Z" style="fill:#455a64"></path><polygon points="395.7 209.44 363.55 190.89 363.55 166.14 395.7 184.7 395.7 209.44" style="fill:#407BFF"></polygon><g style="opacity:0.30000000000000004"><polygon points="395.7 209.44 363.55 190.89 363.55 166.14 395.7 184.7 395.7 209.44" style="fill:#fff"></polygon></g><polygon points="376.96 173.87 411.1 154.15 416.45 157.24 382.31 176.97 376.96 173.87" style="fill:#455a64"></polygon><polygon points="376.96 173.87 376.96 180.06 377.7 179.63 378.7 181.07 379.32 180.54 380.41 182.06 381.11 181.5 382.3 183.15 382.31 176.97 376.96 173.87" style="fill:#37474f"></polygon><path d="M366.07,182.57l9.26,5.35a.93.93,0,0,1,.42.72v6.45c0,.53-.38.74-.83.48l-9.27-5.35a.94.94,0,0,1-.42-.73v-6.44C365.23,182.52,365.61,182.3,366.07,182.57Z" style="fill:#fafafa"></path><polygon points="366.42 184.23 366.69 184.39 366.69 189.37 366.42 189.21 366.42 184.23" style="fill:#455a64"></polygon><polygon points="367.54 184.88 368.01 185.16 368.01 190.13 367.54 189.85 367.54 184.88" style="fill:#455a64"></polygon><polygon points="368.66 185.53 368.94 185.69 368.94 190.66 368.66 190.5 368.66 185.53" style="fill:#455a64"></polygon><polygon points="369.51 186.01 370.06 186.34 370.06 191.31 369.51 190.98 369.51 186.01" style="fill:#455a64"></polygon><polygon points="370.91 186.82 371.18 186.98 371.18 191.96 370.91 191.8 370.91 186.82" style="fill:#455a64"></polygon><polygon points="371.72 187.28 372.31 187.63 372.31 192.61 371.72 192.26 371.72 187.28" style="fill:#455a64"></polygon><polygon points="373.15 188.12 373.43 188.28 373.43 193.26 373.15 193.1 373.15 188.12" style="fill:#455a64"></polygon><polygon points="373.8 188.49 373.93 188.56 373.93 193.54 373.8 193.46 373.8 188.49" style="fill:#455a64"></polygon><polygon points="372.64 187.85 372.78 187.93 372.78 192.91 372.64 192.82 372.64 187.85" style="fill:#455a64"></polygon><polygon points="370.38 186.52 370.52 186.6 370.52 191.58 370.38 191.5 370.38 186.52" style="fill:#455a64"></polygon><polygon points="369.14 185.81 369.28 185.89 369.28 190.87 369.14 190.79 369.14 185.81" style="fill:#455a64"></polygon><polygon points="368.25 185.32 368.39 185.4 368.39 190.38 368.25 190.3 368.25 185.32" style="fill:#455a64"></polygon><polygon points="367.04 184.59 367.18 184.67 367.18 189.65 367.04 189.56 367.04 184.59" style="fill:#455a64"></polygon><polygon points="374.28 188.77 374.55 188.93 374.55 193.9 374.28 193.75 374.28 188.77" style="fill:#455a64"></polygon></g><g id="freepik--box--inject-2"><polygon points="464.31 232.04 443.49 220.02 421.39 232.81 442.21 244.83 464.31 232.04" style="fill:#407BFF"></polygon><g style="opacity:0.8"><polygon points="464.31 232.04 443.49 220.02 421.39 232.81 442.21 244.83 464.31 232.04" style="fill:#fff"></polygon></g><polygon points="442.21 275 464.31 262.21 464.31 232.04 442.21 244.83 442.21 275" style="fill:#407BFF"></polygon><g style="opacity:0.6000000000000001"><polygon points="442.21 275 464.31 262.21 464.31 232.04 442.21 244.83 442.21 275" style="fill:#fff"></polygon></g><path d="M444.61,269.54a.6.6,0,0,1-.29-.08.88.88,0,0,1-.35-.79v-2.34h0v-.17l.12,0,1.83-1.08v2.61a2.12,2.12,0,0,1-.91,1.71A.88.88,0,0,1,444.61,269.54Zm-.35-3v2.16a.62.62,0,0,0,.21.54.44.44,0,0,0,.4,0,1.85,1.85,0,0,0,.75-1.45v-.19h-.68l-.13-.91Zm.94.72h.42v-1.61l-1.09.64.54.09Z" style="fill:#455a64"></path><path d="M444.94,271.4a.15.15,0,0,1-.15-.15v-2a.15.15,0,1,1,.3,0v2A.15.15,0,0,1,444.94,271.4Z" style="fill:#455a64"></path><path d="M444.09,271.89a.16.16,0,0,1-.13-.08.15.15,0,0,1,.05-.2l1.71-1a.15.15,0,1,1,.15.25l-1.71,1Z" style="fill:#455a64"></path><path d="M450.16,268.51a.29.29,0,0,1-.16,0,.38.38,0,0,1-.18-.35v-.41a.15.15,0,0,1,.3,0v.41c0,.06,0,.09,0,.1a.17.17,0,0,0,.09,0,.87.87,0,0,0,.27-.66v-2.61a.15.15,0,1,1,.3,0v2.61a1.1,1.1,0,0,1-.42.91A.43.43,0,0,1,450.16,268.51Z" style="fill:#455a64"></path><path d="M448.61,266.23V266a4.15,4.15,0,0,1,1.88-3.25,1.24,1.24,0,0,1,2,1.16V264Zm2.76-3.48a1.51,1.51,0,0,0-.73.23,3.89,3.89,0,0,0-1.72,2.73l3.3-1.9a1.11,1.11,0,0,0-.45-1A.88.88,0,0,0,451.37,262.75Z" style="fill:#455a64"></path><path d="M455.43,265.51a.15.15,0,0,1-.15-.15v-5a.15.15,0,1,1,.3,0v5A.15.15,0,0,1,455.43,265.51Z" style="fill:#455a64"></path><path d="M455,261.5h-.06a.14.14,0,0,1-.07-.19l.52-1.21.58.68a.14.14,0,0,1,0,.2.14.14,0,0,1-.21,0l-.28-.32-.33.78A.16.16,0,0,1,455,261.5Z" style="fill:#455a64"></path><path d="M456.79,264.73a.15.15,0,0,1-.15-.14v-5a.15.15,0,0,1,.15-.15.15.15,0,0,1,.14.15v5A.14.14,0,0,1,456.79,264.73Z" style="fill:#455a64"></path><path d="M456.36,260.73h-.06a.15.15,0,0,1-.08-.19l.53-1.21.58.67a.16.16,0,0,1,0,.21.13.13,0,0,1-.2,0l-.28-.32-.34.78A.14.14,0,0,1,456.36,260.73Z" style="fill:#455a64"></path><polygon points="442.21 275 421.39 262.98 421.39 232.81 442.21 244.83 442.21 275" style="fill:#407BFF"></polygon><g style="opacity:0.30000000000000004"><polygon points="442.21 275 421.39 262.98 421.39 232.81 442.21 244.83 442.21 275" style="fill:#fff"></polygon></g><polygon points="430.07 237.82 452.19 225.04 455.65 227.04 433.54 239.82 430.07 237.82" style="fill:#455a64"></polygon><polygon points="430.07 237.82 430.07 241.82 430.55 241.54 431.2 242.48 431.6 242.13 432.31 243.12 432.76 242.76 433.53 243.83 433.54 239.82 430.07 237.82" style="fill:#37474f"></polygon><path d="M424.11,256.5l6.28,3.63a.63.63,0,0,1,.28.5V265c0,.36-.26.51-.57.33l-6.29-3.63a.64.64,0,0,1-.28-.49v-4.37C423.54,256.47,423.79,256.32,424.11,256.5Z" style="fill:#fafafa"></path><polygon points="424.34 257.63 424.53 257.74 424.53 261.12 424.34 261.01 424.34 257.63" style="fill:#455a64"></polygon><polygon points="425.11 258.07 425.43 258.26 425.43 261.64 425.11 261.45 425.11 258.07" style="fill:#455a64"></polygon><polygon points="425.87 258.51 426.06 258.62 426.05 262 425.87 261.89 425.87 258.51" style="fill:#455a64"></polygon><polygon points="426.44 258.84 426.82 259.06 426.82 262.43 426.44 262.21 426.44 258.84" style="fill:#455a64"></polygon><polygon points="427.39 259.39 427.58 259.5 427.58 262.87 427.39 262.77 427.39 259.39" style="fill:#455a64"></polygon><polygon points="427.94 259.7 428.34 259.94 428.34 263.31 427.94 263.08 427.94 259.7" style="fill:#455a64"></polygon><polygon points="428.92 260.27 429.1 260.38 429.1 263.75 428.92 263.64 428.92 260.27" style="fill:#455a64"></polygon><polygon points="429.35 260.52 429.44 260.57 429.44 263.95 429.35 263.89 429.35 260.52" style="fill:#455a64"></polygon><polygon points="428.57 260.09 428.66 260.14 428.66 263.51 428.57 263.46 428.57 260.09" style="fill:#455a64"></polygon><polygon points="427.03 259.19 427.13 259.24 427.13 262.62 427.03 262.56 427.03 259.19" style="fill:#455a64"></polygon><polygon points="426.19 258.7 426.29 258.76 426.29 262.13 426.19 262.08 426.19 258.7" style="fill:#455a64"></polygon><polygon points="425.59 258.37 425.68 258.43 425.68 261.8 425.59 261.75 425.59 258.37" style="fill:#455a64"></polygon><polygon points="424.77 257.88 424.86 257.93 424.86 261.3 424.77 261.25 424.77 257.88" style="fill:#455a64"></polygon><polygon points="429.68 260.71 429.86 260.82 429.86 264.19 429.68 264.08 429.68 260.71" style="fill:#455a64"></polygon></g></g></g><g id="freepik--Device--inject-2"><g id="freepik--Laptop--inject-2"><g id="freepik--down-laptop--inject-2"><path d="M304.88,218.09l145.54,84a8.6,8.6,0,0,1,0,15.21L236.12,441.06a10.13,10.13,0,0,1-9.16,0L81.42,357a8.6,8.6,0,0,1,0-15.21l214.3-123.73A10.13,10.13,0,0,1,304.88,218.09Z" style="fill:#f0f0f0"></path><path d="M231.55,432.23v9.92a9.3,9.3,0,0,1-4.59-1.09L81.42,357A8.58,8.58,0,0,1,81,342.11c-2,1.48-1.89,3.63.47,5l145.54,84A9.49,9.49,0,0,0,231.55,432.23Z" style="fill:#e6e6e6"></path><path d="M231.55,432.23v9.92a9.3,9.3,0,0,1-4.59-1.09L81.42,357A8.58,8.58,0,0,1,81,342.11c-2,1.48-1.89,3.63.47,5l145.54,84A9.49,9.49,0,0,0,231.55,432.23Z" style="opacity:0.1"></path><polygon points="192.25 419.67 118.98 377.37 118.98 370.98 192.25 413.28 192.25 419.67" style="fill:#455a64"></polygon><path d="M236.12,431.14l214.3-123.73c2.53-1.46,2.53-3.83,0-5.29l-145.54-84a10.13,10.13,0,0,0-9.16,0L81.42,341.82c-2.53,1.46-2.53,3.83,0,5.29l145.54,84A10.13,10.13,0,0,0,236.12,431.14Z" style="fill:#fafafa"></path><path d="M231.54,432.76a9.86,9.86,0,0,1-4.85-1.16l-145.54-84a3.31,3.31,0,0,1,0-6.22l214.3-123.73a10.76,10.76,0,0,1,9.7,0l145.54,84a3.32,3.32,0,0,1,0,6.23L236.39,431.6A9.8,9.8,0,0,1,231.54,432.76ZM300.3,217.53a8.78,8.78,0,0,0-4.31,1L81.69,342.28a2.27,2.27,0,0,0,0,4.36l145.54,84a9.55,9.55,0,0,0,8.62,0l214.3-123.73a2.27,2.27,0,0,0,0-4.35l-145.54-84A8.78,8.78,0,0,0,300.3,217.53Z" style="fill:#e0e0e0"></path><polygon points="254.9 360.71 329.45 317.67 364.53 337.93 289.98 380.96 254.9 360.71" style="fill:#e0e0e0"></polygon><polygon points="256.78 361.79 289.98 380.96 362.65 339.01 329.45 319.84 256.78 361.79" style="fill:#ebebeb"></polygon></g><g id="freepik--top-laptop--inject-2"><path d="M299.85,210.39,275.28,38.54a10.15,10.15,0,0,0-5.65-7,12,12,0,0,0-9.54.55L45.79,155.82a8.17,8.17,0,0,0-3.88,7.53L66.48,335.21a10.18,10.18,0,0,0,5.65,7,12,12,0,0,0,9.54-.54L296,217.93A8.2,8.2,0,0,0,299.85,210.39Z" style="fill:#e6e6e6"></path><path d="M299.85,210.39,275.28,38.54a10.15,10.15,0,0,0-5.65-7,12,12,0,0,0-9.54.55L45.79,155.82a8.17,8.17,0,0,0-3.88,7.53L66.48,335.21a10.18,10.18,0,0,0,5.65,7,12,12,0,0,0,9.54-.54L296,217.93A8.2,8.2,0,0,0,299.85,210.39Z" style="opacity:0.1"></path><path d="M275,37.56c-.76-1.94-2.83-2.53-5-1.26L55.7,160a8.23,8.23,0,0,0-3,3.27l-9.92-4.19a8.13,8.13,0,0,1,3-3.29L260.09,32.1a12,12,0,0,1,9.54-.54A10.36,10.36,0,0,1,275,37.56Z" style="fill:#f0f0f0"></path><path d="M55.7,160,270,36.3c2.53-1.46,4.9-.46,5.28,2.24l24.57,171.85a8.2,8.2,0,0,1-3.88,7.54L81.67,341.65c-2.53,1.46-4.9.46-5.28-2.24L51.82,167.56A8.15,8.15,0,0,1,55.7,160Z" style="fill:#fafafa"></path><path d="M79.4,342.86a3.47,3.47,0,0,1-1.54-.34,3.82,3.82,0,0,1-2-3L51.29,167.63a8.74,8.74,0,0,1,4.14-8.07L269.73,35.83a4.39,4.39,0,0,1,4.08-.4,3.82,3.82,0,0,1,2,3l24.56,171.86a8.74,8.74,0,0,1-4.14,8.07L81.94,342.12A5.15,5.15,0,0,1,79.4,342.86ZM56,160.49h0a7.62,7.62,0,0,0-3.62,7L76.92,339.33a2.76,2.76,0,0,0,1.41,2.22,3.32,3.32,0,0,0,3.07-.37L295.7,217.46a7.59,7.59,0,0,0,3.61-7L274.75,38.62a2.73,2.73,0,0,0-1.41-2.21,3.31,3.31,0,0,0-3.07.36Z" style="fill:#e0e0e0"></path><polygon points="267.3 47.78 61.03 166.88 84.37 330.17 290.64 211.08 267.3 47.78" style="fill:#37474f"></polygon><polygon points="287.28 209.65 264.39 49.47 61.03 166.88 83.92 327.06 287.28 209.65" style="fill:#455a64"></polygon><path d="M165.06,106.81,80.54,303.38l3.83,26.79,52.37-30.24L237.85,64.79ZM87,151.89,65.9,200.94l6.59,46.14,49.66-115.5Zm197.85,18.57L259.69,229l30.95-17.87ZM267.78,51.12l-99,230.34,49.41-28.53L277,116Z" style="fill:#fff;opacity:0.05"></path></g><path d="M114,340.4l183.52-106a6,6,0,0,1,5.49,0l63.2,36.48c1.52.88,1.52,2.3,0,3.18l-183.52,106a6.06,6.06,0,0,1-5.5,0L114,343.57C112.52,342.69,112.52,341.27,114,340.4Z" style="fill:#e0e0e0"></path><path d="M190.12,371.25l-8.53-4.93a4,4,0,0,0-3.67,0l-8.27,4.78a1.11,1.11,0,0,0,0,2.11l8.53,4.93a4.09,4.09,0,0,0,3.67,0l8.27-4.78A1.11,1.11,0,0,0,190.12,371.25Z" style="fill:#fafafa"></path><path d="M208,361,199.42,356a4.07,4.07,0,0,0-3.66,0l-11.69,6.75a1.12,1.12,0,0,0,0,2.12l8.53,4.92a4,4,0,0,0,3.67,0L208,363.07A1.12,1.12,0,0,0,208,361Z" style="fill:#fafafa"></path><path d="M225.79,350.65l-8.54-4.92a4,4,0,0,0-3.66,0l-11.69,6.74a1.12,1.12,0,0,0,0,2.12l8.54,4.93a4.07,4.07,0,0,0,3.66,0l11.69-6.75A1.12,1.12,0,0,0,225.79,350.65Z" style="fill:#fafafa"></path><path d="M176.81,352.11l8.54,4.93a4.07,4.07,0,0,0,3.66,0l11.69-6.75a1.12,1.12,0,0,0,0-2.12l-8.54-4.93a4.07,4.07,0,0,0-3.66,0L176.81,350A1.12,1.12,0,0,0,176.81,352.11Z" style="fill:#fafafa"></path><path d="M291.38,312.79l-8.53-4.93a4,4,0,0,0-3.67,0l-59.44,34.32a1.11,1.11,0,0,0,0,2.11l8.53,4.93a4,4,0,0,0,3.67,0l6.22-3.61L241,344l50.35-29.07A1.11,1.11,0,0,0,291.38,312.79Z" style="fill:#fafafa"></path><path d="M182.87,358.47l-8.54-4.93a4.09,4.09,0,0,0-3.67,0L155,362.61a1.12,1.12,0,0,0,0,2.12l8.54,4.93a4.07,4.07,0,0,0,3.66,0l15.72-9.08A1.11,1.11,0,0,0,182.87,358.47Z" style="fill:#fafafa"></path><path d="M164.45,352.13l-8.53-4.93a4.09,4.09,0,0,0-3.67,0l-12,6.93a1.11,1.11,0,0,0,0,2.11l8.53,4.93a4,4,0,0,0,3.67,0l12-6.92A1.12,1.12,0,0,0,164.45,352.13Z" style="fill:#fafafa"></path><path d="M143.62,347.19l-8.54-4.93a4.07,4.07,0,0,0-3.66,0l-5.86,3.38a1.12,1.12,0,0,0,0,2.12l8.54,4.93a4.07,4.07,0,0,0,3.66,0l5.86-3.38A1.12,1.12,0,0,0,143.62,347.19Z" style="fill:#fafafa"></path><path d="M131.33,337.32l-2-1.16a4,4,0,0,0-3.66,0l-8.26,4.76a1.12,1.12,0,0,0,0,2.12l2,1.16a4,4,0,0,0,3.67,0l8.26-4.76A1.12,1.12,0,0,0,131.33,337.32Z" style="fill:#fafafa"></path><path d="M131.85,334.69l2,1.16a4,4,0,0,0,3.66,0l8.26-4.76a1.12,1.12,0,0,0,0-2.12l-2-1.16a4,4,0,0,0-3.66,0l-8.26,4.76A1.12,1.12,0,0,0,131.85,334.69Z" style="fill:#fafafa"></path><path d="M146.25,326.38l2,1.16a4.07,4.07,0,0,0,3.66,0l8.26-4.77a1.11,1.11,0,0,0,0-2.11l-2-1.17a4.07,4.07,0,0,0-3.66,0l-8.26,4.77A1.12,1.12,0,0,0,146.25,326.38Z" style="fill:#fafafa"></path><path d="M160.65,318.06l2,1.17a4.07,4.07,0,0,0,3.66,0l8.26-4.77a1.12,1.12,0,0,0,0-2.12l-2-1.16a4,4,0,0,0-3.66,0L160.65,316A1.11,1.11,0,0,0,160.65,318.06Z" style="fill:#fafafa"></path><path d="M175.05,309.75l2,1.16a4,4,0,0,0,3.66,0l8.26-4.77a1.11,1.11,0,0,0,0-2.11l-2-1.16a4,4,0,0,0-3.66,0l-8.26,4.76A1.12,1.12,0,0,0,175.05,309.75Z" style="fill:#fafafa"></path><path d="M189.45,301.43l2,1.17a4.07,4.07,0,0,0,3.66,0l8.26-4.77a1.11,1.11,0,0,0,0-2.11l-2-1.17a4.07,4.07,0,0,0-3.66,0l-8.26,4.77A1.11,1.11,0,0,0,189.45,301.43Z" style="fill:#fafafa"></path><path d="M203.85,293.12l2,1.16a4,4,0,0,0,3.66,0l8.26-4.76a1.12,1.12,0,0,0,0-2.12l-2-1.16a4,4,0,0,0-3.66,0L203.85,291A1.12,1.12,0,0,0,203.85,293.12Z" style="fill:#fafafa"></path><path d="M218.25,284.81l2,1.16a4.07,4.07,0,0,0,3.66,0l8.26-4.77a1.11,1.11,0,0,0,0-2.11l-2-1.17a4.07,4.07,0,0,0-3.66,0l-8.26,4.77A1.12,1.12,0,0,0,218.25,284.81Z" style="fill:#fafafa"></path><path d="M232.65,276.49l2,1.17a4.07,4.07,0,0,0,3.66,0l8.26-4.77a1.12,1.12,0,0,0,0-2.12l-2-1.16a4.07,4.07,0,0,0-3.66,0l-8.26,4.77A1.11,1.11,0,0,0,232.65,276.49Z" style="fill:#fafafa"></path><path d="M247.05,268.18l2,1.16a4,4,0,0,0,3.66,0l8.26-4.76a1.12,1.12,0,0,0,0-2.12l-2-1.16a4,4,0,0,0-3.66,0l-8.26,4.76A1.12,1.12,0,0,0,247.05,268.18Z" style="fill:#fafafa"></path><path d="M261.45,259.86l2,1.17a4.07,4.07,0,0,0,3.66,0l8.26-4.77a1.11,1.11,0,0,0,0-2.11l-2-1.17a4.07,4.07,0,0,0-3.66,0l-8.26,4.77A1.11,1.11,0,0,0,261.45,259.86Z" style="fill:#fafafa"></path><path d="M275.85,251.55l2,1.16a4,4,0,0,0,3.66,0l8.26-4.76a1.12,1.12,0,0,0,0-2.12l-2-1.16a4,4,0,0,0-3.66,0l-8.26,4.76A1.12,1.12,0,0,0,275.85,251.55Z" style="fill:#fafafa"></path><path d="M290.25,243.24l2,1.16a4,4,0,0,0,3.66,0l8.26-4.77a1.11,1.11,0,0,0,0-2.11l-2-1.17a4.07,4.07,0,0,0-3.66,0l-8.26,4.77A1.12,1.12,0,0,0,290.25,243.24Z" style="fill:#fafafa"></path><path d="M206.93,346.69l8.66-5a1.12,1.12,0,0,0,0-2.12l-8.53-4.92a4,4,0,0,0-3.67,0l-8.66,5a1.11,1.11,0,0,0,0,2.11l8.53,4.93A4,4,0,0,0,206.93,346.69Z" style="fill:#fafafa"></path><path d="M158.4,345.77l8.54,4.93a4.07,4.07,0,0,0,3.66,0l8.67-5a1.11,1.11,0,0,0,0-2.11l-8.54-4.93a4.07,4.07,0,0,0-3.66,0l-8.67,5A1.12,1.12,0,0,0,158.4,345.77Z" style="fill:#fafafa"></path><path d="M146.23,333.71l-8.66,5a1.12,1.12,0,0,0,0,2.12l8.53,4.93a4.09,4.09,0,0,0,3.67,0l8.66-5a1.12,1.12,0,0,0,0-2.12l-8.54-4.93A4.07,4.07,0,0,0,146.23,333.71Z" style="fill:#fafafa"></path><path d="M161,325.16l-8.66,5a1.12,1.12,0,0,0,0,2.12l8.53,4.93a4.09,4.09,0,0,0,3.67,0l8.66-5a1.11,1.11,0,0,0,0-2.11l-8.53-4.93A4.09,4.09,0,0,0,161,325.16Z" style="fill:#fafafa"></path><path d="M175.85,316.61l-8.66,5a1.12,1.12,0,0,0,0,2.12l8.53,4.93a4.09,4.09,0,0,0,3.67,0l8.66-5a1.11,1.11,0,0,0,0-2.11l-8.53-4.93A4.09,4.09,0,0,0,175.85,316.61Z" style="fill:#fafafa"></path><path d="M190.66,308.06l-8.66,5a1.12,1.12,0,0,0,0,2.12l8.53,4.93a4.09,4.09,0,0,0,3.67,0l8.66-5a1.11,1.11,0,0,0,0-2.11l-8.53-4.93A4,4,0,0,0,190.66,308.06Z" style="fill:#fafafa"></path><path d="M205.47,299.51l-8.66,5a1.12,1.12,0,0,0,0,2.12l8.54,4.92a4,4,0,0,0,3.66,0l8.66-5a1.11,1.11,0,0,0,0-2.11l-8.53-4.93A4,4,0,0,0,205.47,299.51Z" style="fill:#fafafa"></path><path d="M220.29,291l-8.67,5a1.11,1.11,0,0,0,0,2.11l8.54,4.93a4,4,0,0,0,3.66,0l8.67-5a1.12,1.12,0,0,0,0-2.12L224,291A4,4,0,0,0,220.29,291Z" style="fill:#fafafa"></path><path d="M235.1,282.41l-8.67,5a1.11,1.11,0,0,0,0,2.11l8.54,4.93a4,4,0,0,0,3.66,0l8.67-5a1.12,1.12,0,0,0,0-2.12l-8.54-4.92A4,4,0,0,0,235.1,282.41Z" style="fill:#fafafa"></path><path d="M249.91,273.85l-8.67,5a1.11,1.11,0,0,0,0,2.11l8.54,4.93a4.07,4.07,0,0,0,3.66,0l8.67-5a1.12,1.12,0,0,0,0-2.12l-8.54-4.93A4.07,4.07,0,0,0,249.91,273.85Z" style="fill:#fafafa"></path><path d="M264.72,265.3l-8.67,5a1.11,1.11,0,0,0,0,2.11l8.54,4.93a4.07,4.07,0,0,0,3.66,0l8.67-5a1.12,1.12,0,0,0,0-2.12l-8.54-4.93A4.07,4.07,0,0,0,264.72,265.3Z" style="fill:#fafafa"></path><path d="M279.53,256.75l-8.67,5a1.12,1.12,0,0,0,0,2.12l8.54,4.93a4.09,4.09,0,0,0,3.67,0l8.66-5a1.12,1.12,0,0,0,0-2.12l-8.54-4.93A4.07,4.07,0,0,0,279.53,256.75Z" style="fill:#fafafa"></path><path d="M306.54,253.13,298,248.2a4.09,4.09,0,0,0-3.67,0l-8.66,5a1.12,1.12,0,0,0,0,2.12l8.53,4.93a4.09,4.09,0,0,0,3.67,0l8.66-5A1.11,1.11,0,0,0,306.54,253.13Z" style="fill:#fafafa"></path><path d="M300.49,246.77,309,251.7a4.09,4.09,0,0,0,3.67,0l6.19-3.58a1.12,1.12,0,0,0,0-2.12l-8.53-4.93a4.09,4.09,0,0,0-3.67,0l-6.19,3.58A1.12,1.12,0,0,0,300.49,246.77Z" style="fill:#fafafa"></path><path d="M185.54,330.1a4.07,4.07,0,0,0-3.66,0l-8.67,5a1.12,1.12,0,0,0,0,2.12l8.54,4.93a4.07,4.07,0,0,0,3.66,0l8.67-5a1.11,1.11,0,0,0,0-2.11Z" style="fill:#fafafa"></path><path d="M200.22,333.59l8.67-5a1.11,1.11,0,0,0,0-2.11l-8.54-4.93a4,4,0,0,0-3.66,0l-8.67,5a1.12,1.12,0,0,0,0,2.12l8.54,4.92A4,4,0,0,0,200.22,333.59Z" style="fill:#fafafa"></path><path d="M215,325l8.67-5a1.11,1.11,0,0,0,0-2.11L215.16,313a4,4,0,0,0-3.66,0l-8.67,5a1.12,1.12,0,0,0,0,2.12l8.54,4.92A4,4,0,0,0,215,325Z" style="fill:#fafafa"></path><path d="M229.85,316.49l8.66-5a1.12,1.12,0,0,0,0-2.12L230,304.45a4,4,0,0,0-3.66,0l-8.66,5a1.11,1.11,0,0,0,0,2.11l8.53,4.93A4,4,0,0,0,229.85,316.49Z" style="fill:#fafafa"></path><path d="M244.66,307.94l8.66-5a1.12,1.12,0,0,0,0-2.12l-8.53-4.92a4,4,0,0,0-3.67,0l-8.66,5a1.11,1.11,0,0,0,0,2.11l8.53,4.93A4,4,0,0,0,244.66,307.94Z" style="fill:#fafafa"></path><path d="M259.47,299.39l8.66-5a1.12,1.12,0,0,0,0-2.12l-8.53-4.93a4.09,4.09,0,0,0-3.67,0l-8.66,5a1.11,1.11,0,0,0,0,2.11l8.53,4.93A4.09,4.09,0,0,0,259.47,299.39Z" style="fill:#fafafa"></path><path d="M274.28,290.84l8.66-5a1.12,1.12,0,0,0,0-2.12l-8.53-4.93a4.09,4.09,0,0,0-3.67,0l-8.66,5a1.11,1.11,0,0,0,0,2.11l8.53,4.93A4.09,4.09,0,0,0,274.28,290.84Z" style="fill:#fafafa"></path><path d="M289.09,282.29l8.66-5a1.12,1.12,0,0,0,0-2.12l-8.53-4.93a4.09,4.09,0,0,0-3.67,0l-8.66,5a1.12,1.12,0,0,0,0,2.12l8.53,4.93A4.09,4.09,0,0,0,289.09,282.29Z" style="fill:#fafafa"></path><path d="M303.9,273.74l8.67-5a1.11,1.11,0,0,0,0-2.11L304,261.69a4.09,4.09,0,0,0-3.67,0l-8.66,5a1.12,1.12,0,0,0,0,2.12l8.54,4.93A4.07,4.07,0,0,0,303.9,273.74Z" style="fill:#fafafa"></path><path d="M306.51,260.26l8.54,4.93a4.07,4.07,0,0,0,3.66,0l14.87-8.59a1.11,1.11,0,0,0,0-2.11L325,249.56a4,4,0,0,0-3.66,0l-14.87,8.58A1.12,1.12,0,0,0,306.51,260.26Z" style="fill:#fafafa"></path><path d="M221.78,338.12l8.66-5a1.12,1.12,0,0,0,0-2.12l-8.54-4.93a4.07,4.07,0,0,0-3.66,0l-8.67,5a1.11,1.11,0,0,0,0,2.11l8.54,4.93A4.09,4.09,0,0,0,221.78,338.12Z" style="fill:#fafafa"></path><path d="M236.62,329.55l8.67-5a1.11,1.11,0,0,0,0-2.11l-8.54-4.93a4.07,4.07,0,0,0-3.66,0l-8.67,5a1.12,1.12,0,0,0,0,2.12l8.54,4.93A4.07,4.07,0,0,0,236.62,329.55Z" style="fill:#fafafa"></path><path d="M251.47,321l8.67-5a1.11,1.11,0,0,0,0-2.11l-8.54-4.93a4,4,0,0,0-3.66,0l-8.67,5a1.12,1.12,0,0,0,0,2.12l8.54,4.92A4,4,0,0,0,251.47,321Z" style="fill:#fafafa"></path><path d="M266.32,312.4l8.67-5a1.12,1.12,0,0,0,0-2.12l-8.54-4.93a4.07,4.07,0,0,0-3.66,0l-8.67,5a1.11,1.11,0,0,0,0,2.11l8.54,4.93A4,4,0,0,0,266.32,312.4Z" style="fill:#fafafa"></path><path d="M281.17,303.83l8.66-5a1.12,1.12,0,0,0,0-2.12l-8.53-4.93a4.09,4.09,0,0,0-3.67,0l-8.66,5a1.12,1.12,0,0,0,0,2.12l8.54,4.93A4.07,4.07,0,0,0,281.17,303.83Z" style="fill:#fafafa"></path><path d="M296,295.26l8.66-5a1.11,1.11,0,0,0,0-2.11l-8.53-4.93a4,4,0,0,0-3.67,0l-8.66,5a1.12,1.12,0,0,0,0,2.12l8.53,4.93A4.09,4.09,0,0,0,296,295.26Z" style="fill:#fafafa"></path><path d="M310.87,286.68l8.66-5a1.12,1.12,0,0,0,0-2.12L311,274.64a4,4,0,0,0-3.67,0l-8.66,5a1.11,1.11,0,0,0,0,2.11l8.53,4.93A4,4,0,0,0,310.87,286.68Z" style="fill:#fafafa"></path><path d="M313.52,273.18l8.53,4.93a4.09,4.09,0,0,0,3.67,0l1-.6,2.76-1.59,18.76-10.83a1.12,1.12,0,0,0,0-2.12L339.74,258a4.09,4.09,0,0,0-3.67,0l-22.55,13A1.11,1.11,0,0,0,313.52,273.18Z" style="fill:#fafafa"></path><path d="M309.21,302.49l-8.53-4.93a4.09,4.09,0,0,0-3.67,0l-11.68,6.75a1.11,1.11,0,0,0,0,2.11l8.53,4.93a4,4,0,0,0,3.67,0l11.68-6.75A1.11,1.11,0,0,0,309.21,302.49Z" style="fill:#fafafa"></path><path d="M327.05,292.19l-8.54-4.93a4.07,4.07,0,0,0-3.66,0L303.16,294a1.12,1.12,0,0,0,0,2.12l8.54,4.93a4.07,4.07,0,0,0,3.66,0l11.69-6.75A1.12,1.12,0,0,0,327.05,292.19Z" style="fill:#fafafa"></path><path d="M339,285.28l-1.53-.88a4.07,4.07,0,0,0-3.66,0L328,287.77a1.11,1.11,0,0,0,0,2.11l1.52.88a4.07,4.07,0,0,0,3.66,0L339,287.4A1.12,1.12,0,0,0,339,285.28Z" style="fill:#fafafa"></path><path d="M351,278.37l-1.52-.88a4.07,4.07,0,0,0-3.66,0L340,280.85a1.12,1.12,0,0,0,0,2.12l1.53.88a4.07,4.07,0,0,0,3.66,0l5.82-3.37A1.11,1.11,0,0,0,351,278.37Z" style="fill:#fafafa"></path><path d="M363,271.45l-1.52-.87a4,4,0,0,0-3.67,0L352,273.94a1.11,1.11,0,0,0,0,2.11l1.52.88a4,4,0,0,0,3.67,0l5.82-3.36A1.12,1.12,0,0,0,363,271.45Z" style="fill:#fafafa"></path><path d="M342.46,273.44a4.09,4.09,0,0,0-3.67,0L333,276.8a1.12,1.12,0,0,0,0,2.12l1.52.88a4.09,4.09,0,0,0,3.67,0l5.82-3.37a1.11,1.11,0,0,0,0-2.11Z" style="fill:#fafafa"></path></g><g id="freepik--Awning--inject-2"><polygon points="61.03 166.87 251.42 56.95 294.95 85.08 260.56 104.94 257.51 106.7 104.57 195 61.03 166.87" style="fill:#fff"></polygon><polygon points="61.03 166.87 104.57 195 120.44 185.84 76.9 157.71 61.03 166.87" style="fill:#407BFF"></polygon><polygon points="92.76 148.55 136.3 176.68 152.17 167.52 108.63 139.39 92.76 148.55" style="fill:#407BFF"></polygon><polygon points="124.49 130.23 168.03 158.36 183.9 149.2 140.36 121.07 124.49 130.23" style="fill:#407BFF"></polygon><polygon points="156.22 111.91 199.76 140.04 215.63 130.88 172.09 102.75 156.22 111.91" style="fill:#407BFF"></polygon><polygon points="187.95 93.59 231.49 121.72 247.36 112.56 203.82 84.43 187.95 93.59" style="fill:#407BFF"></polygon><polygon points="219.68 75.27 263.22 103.4 279.09 94.24 235.55 66.11 219.68 75.27" style="fill:#407BFF"></polygon><polygon points="251.42 56.95 294.96 85.08 310.83 75.92 267.29 47.79 251.42 56.95" style="fill:#407BFF"></polygon><path d="M104.57,195c0,5.06,3.55,7.11,7.93,4.58s7.94-8.68,7.94-13.74Z" style="fill:#407BFF"></path><path d="M136.3,176.68c0,5.06,3.55,7.11,7.93,4.58a17.52,17.52,0,0,0,7.94-13.74Z" style="fill:#407BFF"></path><path d="M168,158.36c0,5.06,3.56,7.11,7.94,4.58a17.53,17.53,0,0,0,7.93-13.74Z" style="fill:#407BFF"></path><path d="M199.77,140c0,5.06,3.55,7.11,7.93,4.58a17.53,17.53,0,0,0,7.93-13.74Z" style="fill:#407BFF"></path><path d="M231.5,121.72c0,5.06,3.55,7.11,7.93,4.58a17.53,17.53,0,0,0,7.93-13.74Z" style="fill:#407BFF"></path><path d="M263.23,103.4c0,5.06,3.55,7.11,7.93,4.58s7.94-8.68,7.94-13.74Z" style="fill:#407BFF"></path><path d="M295,85.22c0,5.06,3.55,7.11,7.93,4.58s7.94-8.68,7.94-13.74Z" style="fill:#407BFF"></path><g style="opacity:0.30000000000000004"><path d="M104.57,195c0,5.06,3.55,7.11,7.93,4.58s7.94-8.68,7.94-13.74Z"></path><path d="M136.3,176.68c0,5.06,3.55,7.11,7.93,4.58a17.52,17.52,0,0,0,7.94-13.74Z"></path><path d="M168,158.36c0,5.06,3.56,7.11,7.94,4.58a17.53,17.53,0,0,0,7.93-13.74Z"></path><path d="M199.77,140c0,5.06,3.55,7.11,7.93,4.58a17.53,17.53,0,0,0,7.93-13.74Z"></path><path d="M231.5,121.72c0,5.06,3.55,7.11,7.93,4.58a17.53,17.53,0,0,0,7.93-13.74Z"></path><path d="M263.23,103.4c0,5.06,3.55,7.11,7.93,4.58s7.94-8.68,7.94-13.74Z"></path><path d="M295,85.22c0,5.06,3.55,7.11,7.93,4.58s7.94-8.68,7.94-13.74Z"></path></g><path d="M120.43,185.84c0,5.06,3.56,7.11,7.94,4.58a17.53,17.53,0,0,0,7.93-13.74Z" style="fill:#e0e0e0"></path><path d="M152.17,167.52c0,5.06,3.55,7.11,7.93,4.58A17.53,17.53,0,0,0,168,158.36Z" style="fill:#e0e0e0"></path><path d="M183.9,149.2c0,5.06,3.55,7.11,7.93,4.58A17.53,17.53,0,0,0,199.76,140Z" style="fill:#e0e0e0"></path><path d="M215.63,130.88c0,5.06,3.55,7.11,7.93,4.58s7.94-8.68,7.94-13.74Z" style="fill:#e0e0e0"></path><path d="M247.36,112.56c0,5.06,3.55,7.11,7.94,4.58a17.53,17.53,0,0,0,7.93-13.74Z" style="fill:#e0e0e0"></path><path d="M279.09,94.24c0,5.06,3.56,7.11,7.94,4.58A17.53,17.53,0,0,0,295,85.08Z" style="fill:#e0e0e0"></path></g></g><g id="freepik--Character--inject-2"><g id="freepik--character--inject-2"><g id="freepik--Bottom--inject-2"><path d="M196.11,311.69a13.66,13.66,0,0,1-1.59-4.34,26.49,26.49,0,0,0-1.67-6.3c-.51-1.06-1.22-2-1.8-3a6.42,6.42,0,0,1-1-3.35c.09-2,1.74-3,3.21-4.13a10.67,10.67,0,0,0,3.23-2.91c1-1.5,3.62-9.62,3.62-9.62l9.56,7.63s-5.07,7.05-6.09,9.54a12.35,12.35,0,0,0-1.19,4.11,11.81,11.81,0,0,0,.84,3.84,8.69,8.69,0,0,0,1.33,2.45c.7.75,2,1.07,2.85,1.65a7.4,7.4,0,0,1,2.37,2.45,1.43,1.43,0,0,1,0,1.64c-.19.25-.47.42-.66.67a6,6,0,0,1-.63.89,7.34,7.34,0,0,1-2.49,1.45,9.94,9.94,0,0,1-5.44.57A6.66,6.66,0,0,1,196.11,311.69Z" style="fill:#ffbda7"></path><path d="M189.52,292.39c-1.82.86-1.75,2.46-1.47,4.14s2.25,4,3.11,5.28a6,6,0,0,1,1.44,4.3c.1,2.62.55,5.45,3.26,7.26,2.52,1.68,5.45,2.5,9.76,2,2.84-.33,5.34-1.47,5.55-2.47a7,7,0,0,0-1-3.84c-.44-.48-7-2.59-9.49-4.74S189.52,292.39,189.52,292.39Z" style="fill:#263238"></path><path d="M196.74,287.14c-.5-.23-.79-.15-1.58.68a12.16,12.16,0,0,1-2.43,1.92c-1.53,1-4.07,1.89-3.64,5.42.27,2.14,1.48,3.93,2.63,5.69a12.87,12.87,0,0,1,1.17,2.2,13.54,13.54,0,0,1,.55,3.64,10.35,10.35,0,0,0,.66,2.33,7.32,7.32,0,0,0,1,2,6.11,6.11,0,0,0,1.66,1.46c2.35,1.54,5.46,1.69,8.18,1.48a10.67,10.67,0,0,0,1.49-.2,8.08,8.08,0,0,0,2.21-.87,5.24,5.24,0,0,0,1.79-1.39c.79-1.38-.39-2.87-1.26-3.84a6.5,6.5,0,0,0-3-1.76c-2.52-.74-3.17-6.64-3.15-7.36a5.55,5.55,0,0,1,1-3c.67-1.21.92-1.56-1.08-1.6-1.77,0-5.41-.16-6.31,2.38,0,0,.67-2.65.24-3.55s-1.67-2.8-.85-4.4A3.81,3.81,0,0,0,196.74,287.14Z" style="fill:#37474f"></path><path d="M196.53,312.47c.08-1.65,1.78-4.14,4.55-5.6a7.9,7.9,0,0,1,5.79-1,5.9,5.9,0,0,1,4.31,5.15C210.29,314.1,200.83,316.07,196.53,312.47Z" style="fill:#fafafa"></path><path d="M217.11,245.66s-3.17-5.24-3-10.12,2.59-16.37,2.59-16.37h26.72c1.31,10.11-.8,18.75-1.94,25.86-1.55,8.3-2.33,11.35-4.54,15.11-2.3,3.92-4.59,7-13.79,15.45-8.25,7.62-15.33,14.09-15.33,14.09s-2.89.49-6-3.28a14,14,0,0,1-2.4-5.46s7-14.28,10.76-18.73a61.78,61.78,0,0,1,6.78-7Z" style="fill:#263238"></path><path d="M220.69,312.28l1.67,10.18s1.16,3.66,4.3,4.22,6.78-5.11,6.78-5.11l-.15-10.75Z" style="fill:#ffbda7"></path><path d="M220.69,329.1a3.26,3.26,0,0,0,1.13,2.7,20.92,20.92,0,0,0,4.16,2.36,6.77,6.77,0,0,1,3.13,2.91c.57,1.29,1.54,4.12,6.42,5.55a15.56,15.56,0,0,0,10.35-.4c1.7-.7,3.2-2.18,3-3.64C248.68,337,220.69,329.1,220.69,329.1Z" style="fill:#263238"></path><path d="M223.07,321.47a1.9,1.9,0,0,1-1-.82l-.17-1c-.33-.09-.88.58-.89.93,0,3.13-1.45,6-.2,9.09,1,2.53,5.13,2.75,7,4.55,2.1,2,2.59,6.11,8.8,7.4,5.6,1.15,10.75-1.46,12.26-3.05,0,0,.33-3.82-2.23-4.63-1.79-.57-3.38-1.09-6.27-3.92a30.84,30.84,0,0,1-3.09-3.74,11.66,11.66,0,0,1-2.51-4.89,2,2,0,0,0-.58-1.35,1.82,1.82,0,0,0-1.56.05,17.22,17.22,0,0,1-4.83.82,2,2,0,0,0-1.16.24c-.58.4-.54,1.28-.32,1.95a3.66,3.66,0,0,1,.37,2.06c-1.24-.76-1.56-2.54-2.8-3.3A8.09,8.09,0,0,0,223.07,321.47Z" style="fill:#37474f"></path><path d="M234.06,340.81c-.14-2.68,1-5,4.07-6.85,2.13-1.29,4.93-1.66,6.09-1.3s3.85,1.07,4.35,2.88a8.11,8.11,0,0,1,.32,3s-2.22,2.83-7.76,3.33C236.35,342.35,234.06,340.81,234.06,340.81Z" style="fill:#fafafa"></path><path d="M216.12,276.87c-2.4,6.76.85,19.06,1.79,24.84.5,3.05,2.58,12.49,2.58,12.49s1.91,2,6.84,1.73,6.16-1.61,6.16-1.61.4-19.56.56-29a79.83,79.83,0,0,0-.76-13.84c-.2-4.05-2.6-17.3-4.45-25.25l-1.54-7.66s10.43-2.57,12.59-13.52l-31.64-12.33a35.92,35.92,0,0,0-5,9.06c-1.45,4.15-2.94,7.63-2.71,14.63.16,5.2,2.2,9.59,3.31,13.32C204.86,253.25,214.79,273.84,216.12,276.87Z" style="fill:#37474f"></path><path d="M223.5,248a114.72,114.72,0,0,1,4.29,14.45c.56,2.46,1,4.94,1.37,7.44.18,1.25.32,2.5.44,3.76.05.64.13,1.27.16,1.9s.05,1.28.05,1.91c0,5.05.66,25.92,0,30.9.12-5-1.38-28.4-1.41-30.88,0-.63,0-1.24,0-1.85s-.09-1.24-.14-1.85c-.11-1.24-.25-2.48-.39-3.72-.29-2.47-.69-4.93-1.13-7.39C225.81,257.75,224.69,252.87,223.5,248Z" style="fill:#263238"></path></g><g id="freepik--Top--inject-2"><path d="M228.34,165.37c-.44,4.38-1.49,8.94-4.47,12.18a18.23,18.23,0,0,1-7.34,4.94,15.41,15.41,0,0,1-8.55.25c-1.64-.54-2.17-1.12-2.08-1.74a2.83,2.83,0,0,0,2.19-.8,5.65,5.65,0,0,1-3.43-.21,3.56,3.56,0,0,1-2.15-2.57,5.81,5.81,0,0,0,4.61-1.91,10.42,10.42,0,0,0,2.34-4.55c.87-3.33.73-6.83.67-10.27s0-7,1.19-10.21,3.82-6.12,7.21-6.75a5,5,0,0,1,4.15.89c1.45,1.25,2.81,2.24,3.65,4a21.42,21.42,0,0,1,1.66,6c.3,1.88.42,3.76.64,5.65A23.21,23.21,0,0,1,228.34,165.37Z" style="fill:#263238"></path><g id="freepik--Arm--inject-2"><path d="M238.82,173.37c-1.18,1.5-4.69,7.18-2.27,16.64a163.2,163.2,0,0,0,4.82,16.74c1.95,5.62,2.55,7,6.85,9.37a114.63,114.63,0,0,0,20.6,8.56,6.32,6.32,0,0,0,3.86-.3,9.18,9.18,0,0,0,2.63-1.38c1.06-.78,1.08-2.21,1.44-3.34.64-2,1.35-4.07,2-6.12.28-.93.85-1.91.53-2.9-.06-.2-.28-.47-.47-.48,0,0,.27-.87.4-1.27.24-.72.55-2.11-.23-2.64s-1.71,1.08-1.71,1.08a5.7,5.7,0,0,0,.91-2.32c0-1.06-.64-1.86-1.35-1.44a4.56,4.56,0,0,0-1.22,1.19,1.17,1.17,0,0,0-1-.16,4,4,0,0,0-2.17,2,16.7,16.7,0,0,0-1.57,3,15.13,15.13,0,0,1-1.41,3.12,3.63,3.63,0,0,1-1.79,1.37c-.87.28-9.21-7.05-12.47-9.74,0,0-3.72-14-5.39-19.07C248,179.85,245.37,173.68,238.82,173.37Z" style="fill:#ffbda7"></path><path d="M276.75,219.66l1.48-4.85c.25-.8.5-1.62.79-2.41a3.6,3.6,0,0,0,.23-1.2,1.81,1.81,0,0,0-.12-.58c-.07-.16-.23-.34-.35-.35a.11.11,0,0,1-.1-.12v0a8,8,0,0,0,.61-3c-.06-.47-.43-1-.85-.73a3.55,3.55,0,0,0-1.09,1,.13.13,0,0,1-.19,0,.13.13,0,0,1,0-.18,8.21,8.21,0,0,0,.73-1.45,2.1,2.1,0,0,0,0-1.54,1.2,1.2,0,0,0-.43-.61.56.56,0,0,0-.66,0,4.26,4.26,0,0,0-1.15,1.13.09.09,0,0,1-.13,0h0a1.51,1.51,0,0,0-1.63.16,5.09,5.09,0,0,0-1.24,1.33,16.42,16.42,0,0,0-1.81,3.22,16.35,16.35,0,0,1,1.7-3.3,4.74,4.74,0,0,1,1.26-1.38,1.63,1.63,0,0,1,1.85-.16h-.14a4.53,4.53,0,0,1,1.19-1.2.78.78,0,0,1,.89,0,1.42,1.42,0,0,1,.52.72,2.27,2.27,0,0,1,0,1.7,8,8,0,0,1-.75,1.52l-.22-.16a3.46,3.46,0,0,1,1.19-1.12.72.72,0,0,1,.87.15,1.43,1.43,0,0,1,.36.79,4.12,4.12,0,0,1-.18,1.61l-.48,1.51-.1-.14c.58.17.63.73.66,1.14a3.59,3.59,0,0,1-.25,1.27c-.31.8-.56,1.59-.82,2.4Z" style="fill:#f0997a"></path><path d="M275.68,204.65a1.19,1.19,0,0,1,.25,1.22,4.23,4.23,0,0,1-.47,1.09,17.16,17.16,0,0,0-1.12,2,18.81,18.81,0,0,0-.87,2.14l-.7,2.2.63-2.23a18.88,18.88,0,0,1,.81-2.17,16.67,16.67,0,0,1,1.06-2.06,4.05,4.05,0,0,0,.42-1,.93.93,0,0,0-.2-.94Z" style="fill:#f0997a"></path><path d="M277.37,207.39c-.44,1-.84,2-1.21,3s-.74,2-1,3.09c.23-1.06.56-2.1.88-3.13s.68-2.07,1.09-3.08Z" style="fill:#f0997a"></path><path d="M273.39,217.85a4.57,4.57,0,0,0-2.12-2.07c-.07,0-.07.1,0,.12a5.13,5.13,0,0,1,1.7,2,7,7,0,0,1,.57,2.5c0,.3,0,.62.06.92a.17.17,0,0,0,.14-.16,10,10,0,0,0,.14-1.81A3.68,3.68,0,0,0,273.39,217.85Z" style="fill:#f0997a"></path><path d="M278.92,210.22a37.1,37.1,0,0,0-1.54,3.68,39.38,39.38,0,0,1,1.27-3.8Z" style="fill:#f0997a"></path><path d="M269.67,211.52c.11-1.88-.92-2.82-1.69-2.56s-.72,2.54-1.15,4-2.83,8,.05,10l2.94-7.43C269.4,214.93,269.59,213,269.67,211.52Z" style="fill:#ffbda7"></path><path d="M269.82,215.47a2.72,2.72,0,0,1-.29-1.35c0-.47,0-.93,0-1.4a6.35,6.35,0,0,0-.17-2.72,1.58,1.58,0,0,0-.86-.93.66.66,0,0,0-.57.05,1,1,0,0,0-.32.53c-.26.86-.3,1.8-.49,2.72a38.54,38.54,0,0,0-1.41,5.39,9.39,9.39,0,0,0-.06,2.75,3.42,3.42,0,0,0,1.23,2.39,3.49,3.49,0,0,1-1.37-2.36,9.45,9.45,0,0,1,0-2.81,38.25,38.25,0,0,1,1.32-5.42,27.68,27.68,0,0,1,.55-2.74,1.24,1.24,0,0,1,.41-.64.91.91,0,0,1,.77-.06,1.78,1.78,0,0,1,1,1.06C270.16,211.79,269.18,213.69,269.82,215.47Z" style="fill:#f0997a"></path></g><path d="M228,174a59.88,59.88,0,0,1,10.86-.58c1.44.24,7.54,7.68,10.91,15.89s-5,13-5,13-1.14,9.07-1.16,11,1.2,4.92,0,7c-1.52,2.54-9.14,8.15-20.77,6.25-8.73-1.42-19.25-8.34-16.59-12.87,4.45-7.26,4.6-7.69,4.3-14.37-.21-4.51-.83-8.57,0-12.67,1.14-5.8,3.23-6.39,5.38-8.07C223,175.12,225.08,174.56,228,174Z" style="fill:#407BFF"></path><g id="freepik--Head--inject-2"><path d="M224.34,169.11s-2.75-4-4.26-6.6-5.85-11.41.39-15.07c.21-2.93,3.19-5.7,8.83-6.85a16.06,16.06,0,0,1,13.41,2.88c3.89,3.1,6.52,11.05,1.34,15.41Z" style="fill:#263238"></path><path d="M243.24,148.56s1.9,2.07,1.54,7.88c-.07,1,.61,2.81.57,5.37-.09,5.83-2.52,8.69-5.44,9.74a9.52,9.52,0,0,1-4.26.22l-.25,3.33a30.79,30.79,0,0,1,3.84,14.18,103.74,103.74,0,0,0-15.93-13.47l1.13-9.45s-1.66,1.29-3.64-.71c-2.19-2.19-2.05-5.62-.24-6.81,2.65-1.75,4.42.29,5,1.53s2.74.45,1.51-3.3c1.33-.29,3.23-4.46,3-7.48C234.71,151.58,240.45,151.26,243.24,148.56Z" style="fill:#ffbda7"></path><path d="M233.77,154.08l-2.57,1.15a1.34,1.34,0,0,1,.65-1.84A1.49,1.49,0,0,1,233.77,154.08Z" style="fill:#263238"></path><path d="M240.57,154.63l2.7.77a1.35,1.35,0,0,0-.92-1.73A1.47,1.47,0,0,0,240.57,154.63Z" style="fill:#263238"></path><polygon points="237.02 156.63 237.37 162.98 241.03 161.82 237.02 156.63" style="fill:#f0997a"></polygon><path d="M235.65,171.77a24,24,0,0,1-7.66-2.7,7.23,7.23,0,0,1-2.18-3s.24,2.87,1.81,4.14c2.48,2,7.9,3.31,7.9,3.31Z" style="fill:#f0997a"></path><path d="M240.57,157.68a1.22,1.22,0,0,0,1.29,1.11,1.15,1.15,0,0,0,1.1-1.24,1.23,1.23,0,0,0-1.29-1.11A1.15,1.15,0,0,0,240.57,157.68Z" style="fill:#263238"></path><path d="M231.87,157.51A1.24,1.24,0,0,0,233,158.8a1.15,1.15,0,0,0,1.26-1.07,1.22,1.22,0,0,0-1.11-1.29A1.15,1.15,0,0,0,231.87,157.51Z" style="fill:#263238"></path><path d="M234.41,164.07a2,2,0,0,0,3.73,1.56Z" style="fill:#b16668"></path><path d="M234.27,164.69a2,2,0,0,0,2,2.18,2.23,2.23,0,0,0-2-2.18Z" style="fill:#f28f8f"></path></g><g id="freepik--arm--inject-2"><path d="M215.82,178.55c-3.9,1.7-7.23,6.06-4.72,13.18A164.76,164.76,0,0,0,220.2,212a23,23,0,0,0,7.63,8.77c10.7,7.62,21.06,13.43,22.42,13.94s2.84.17,5.29-.62,3.1-2.61,4.6-4.21,3.78-3.21,3.2-3.82c-.71-.77-1.87-.82-3.77.34s-2.24,1.72-1-1.69a27.86,27.86,0,0,1,2.67-5.39c.64-1.33.33-2.26-.3-2.71s-1.74,1-1.74,1a5.8,5.8,0,0,0,1-2.3c0-1.05-.59-1.88-1.3-1.48a4.48,4.48,0,0,0-1.26,1.16c-.37-.36-1.75-.52-3,1.41,0,0-.64-1-2.58.88-1.59,1.57-2.8,5-3.42,6.61-.47,1.23-15.3-15.9-15.3-15.9L226,190.42S220.75,179.25,215.82,178.55Z" style="fill:#ffbda7"></path><path d="M258.58,224.71a26.33,26.33,0,0,1,1-2.59,24.3,24.3,0,0,1,1.36-2.45,2.62,2.62,0,0,0,.32-2.56,1.26,1.26,0,0,0-.45-.44.61.61,0,0,0-.57.1,4.07,4.07,0,0,0-1,.93.11.11,0,0,1-.16,0,.12.12,0,0,1,0-.15,8,8,0,0,0,.77-1.44,2.07,2.07,0,0,0,.06-1.53c-.14-.5-.6-.91-1-.59a4.3,4.3,0,0,0-1.17,1.08.15.15,0,0,1-.2,0h0a1,1,0,0,0-.77-.18,2,2,0,0,0-.81.29,4.18,4.18,0,0,0-1.24,1.27.1.1,0,0,1-.15,0l0,0h0a.9.9,0,0,0-1.08-.1,4.09,4.09,0,0,0-1.05.72,7.61,7.61,0,0,0-1.6,2,35.44,35.44,0,0,0-2.18,4.77,31.14,31.14,0,0,1,2-4.85,7.84,7.84,0,0,1,1.61-2.1,4.27,4.27,0,0,1,1.1-.77,1.07,1.07,0,0,1,1.34.17h-.18a4.32,4.32,0,0,1,1.3-1.36,2.23,2.23,0,0,1,.9-.33,1.26,1.26,0,0,1,1,.24l-.2,0a4.46,4.46,0,0,1,1.24-1.17.83.83,0,0,1,.93,0,1.45,1.45,0,0,1,.5.76,2.27,2.27,0,0,1-.08,1.7,8.83,8.83,0,0,1-.81,1.48l-.19-.13a3.78,3.78,0,0,1,1.05-1,.81.81,0,0,1,.76-.11,1.55,1.55,0,0,1,.52.53,2.76,2.76,0,0,1-.34,2.74c-.5.79-1,1.58-1.41,2.41A26.27,26.27,0,0,0,258.58,224.71Z" style="fill:#f0997a"></path><path d="M254.77,216.36a2.05,2.05,0,0,1-.14,1.9,4.29,4.29,0,0,1-.55.77,4.61,4.61,0,0,0-.44.79,28.26,28.26,0,0,0-1.25,3.48,29.1,29.1,0,0,1,1.12-3.54,4.76,4.76,0,0,1,.43-.84,4.52,4.52,0,0,0,.5-.76,1.81,1.81,0,0,0,.08-1.66Z" style="fill:#f0997a"></path><path d="M257.73,214.91a1.18,1.18,0,0,1,.22,1.22,4.37,4.37,0,0,1-.5,1.07,16.75,16.75,0,0,0-1.19,2c-.34.69-.67,1.39-.94,2.11l-.77,2.18.7-2.21a21,21,0,0,1,.89-2.14,16.64,16.64,0,0,1,1.12-2,4.08,4.08,0,0,0,.45-1,.91.91,0,0,0-.17-.94Z" style="fill:#f0997a"></path><path d="M259.34,217.7c-.47,1-.9,2-1.31,3s-.8,2-1.11,3.06c.27-1.06.62-2.09,1-3.11s.74-2,1.18-3.05Z" style="fill:#f0997a"></path><path d="M259.57,226.4c-1.23.75-1.8,1.24-1.72.58h0c-.39,1.46-.23,2,.24,1.43a17.87,17.87,0,0,1,1.41-1.7,5.22,5.22,0,0,1,1.45-1A7.15,7.15,0,0,0,259.57,226.4Z" style="fill:#f0997a"></path><path d="M254.51,228.57a4.6,4.6,0,0,0-2.06-2.14c-.06,0-.07.1,0,.13a5,5,0,0,1,1.64,2.06,9.63,9.63,0,0,1,.41,1.36,4.53,4.53,0,0,1,.16.88,2.72,2.72,0,0,0,0,.57s0,0,0,0a1.22,1.22,0,0,0,.16-.6,4.41,4.41,0,0,0,.08-.73A3.61,3.61,0,0,0,254.51,228.57Z" style="fill:#f0997a"></path><path d="M248.58,224c-.34.13-2-1.45-4.16-3.67.91,1.78,3.43,6.64,3.59,6.4a25.93,25.93,0,0,0,.63-2.78A.06.06,0,0,1,248.58,224Z" style="fill:#f0997a"></path></g></g></g></g><g id="freepik--Cart--inject-2"><g id="freepik--cart--inject-2"><path id="freepik--shadow--inject-2" d="M298.29,316.37,249.2,344.8c-1.66,1-1.66,2.52,0,3.48l56.27,32.51a6.63,6.63,0,0,0,6,0l49.09-28.43c1.66-1,1.66-2.52,0-3.48l-56.27-32.51A6.65,6.65,0,0,0,298.29,316.37Z" style="opacity:0.1"></path><path d="M318.33,363.82a11.17,11.17,0,0,1-5.54-1l-49.08-28.27c-3-1.49-6.3-5.37-6.51-9l-1.51-35,2.74-.16,1.51,35c.14,2.5,2.75,5.62,5,6.75L314,360.38a9.4,9.4,0,0,0,8.24-.48L355,341c.79-.51,1.24-1.13,1.21-1.64s-.52-1-1.35-1.46L302.3,307.43c-3-1.49-6.28-5.37-6.49-9l-.73-19.4,2.73-.15.74,19.39c.14,2.5,2.74,5.63,5,6.75l52.55,30.51a4.59,4.59,0,0,1,2.86,3.75,4.71,4.71,0,0,1-2.43,4.09l-32.74,18.86A11.22,11.22,0,0,1,318.33,363.82Z" style="fill:#455a64"></path><path d="M312.8,362.82l.09.05c-3.2,4.15-8.41,5.33-9.58,4.79-.95-.44-1.5-1.56-.79-2.23.33-.31.9-.63,1.44-1.08,1.57-1.3,2.08-3.56,2.23-5.33Z" style="fill:#e0e0e0"></path><path d="M309.51,369.23a11.58,11.58,0,0,0-5.19-9.11c-1.51-.88-2.87-.93-3.83-.29h0l-3.55,2,7.43,12.82,3.52-2h0A3.64,3.64,0,0,0,309.51,369.23Z" style="fill:#37474f"></path><path d="M300.64,362.22a11.54,11.54,0,0,1,5.18,9.11c0,3.34-2.37,4.68-5.26,3a11.6,11.6,0,0,1-5.18-9.11C295.4,361.87,297.76,360.53,300.64,362.22Z" style="fill:#455a64"></path><path d="M298.84,367.23c0-1.31.8-1.9,1.78-1.33a4.26,4.26,0,0,1,1.75,3.4c0,1.31-.81,1.9-1.78,1.33A4.22,4.22,0,0,1,298.84,367.23Z" style="fill:#263238"></path><path d="M303.72,357.6s.35,6.17-2.48,8.53c-.53.44-1.11.76-1.44,1.07-.72.67-.15,1.79.79,2.23,1.37.64,8.39-1.17,11.13-7.23Z" style="fill:#f5f5f5"></path><path d="M300.73,367.6a1.17,1.17,0,0,1,.57.87c0,.34-.21.48-.5.33a1.16,1.16,0,0,1-.58-.87C300.21,367.6,300.43,367.45,300.73,367.6Z" style="fill:#263238"></path><path d="M274,340.5l.09.05c-3.2,4.15-8.4,5.33-9.58,4.78-.94-.43-1.5-1.56-.78-2.23.33-.31.9-.62,1.44-1.07,1.56-1.3,2.08-3.57,2.23-5.33Z" style="fill:#e0e0e0"></path><path d="M270.74,346.91a11.57,11.57,0,0,0-5.18-9.11c-1.51-.89-2.87-.93-3.84-.3h0l-3.54,2,7.43,12.82,3.52-2h0A3.63,3.63,0,0,0,270.74,346.91Z" style="fill:#37474f"></path><path d="M261.88,339.89a11.6,11.6,0,0,1,5.18,9.11c0,3.34-2.37,4.68-5.26,3a11.6,11.6,0,0,1-5.18-9.11C256.64,339.54,259,338.2,261.88,339.89Z" style="fill:#455a64"></path><path d="M260.07,344.91c0-1.31.81-1.91,1.79-1.33a4.25,4.25,0,0,1,1.75,3.4c0,1.3-.81,1.9-1.78,1.33A4.24,4.24,0,0,1,260.07,344.91Z" style="fill:#263238"></path><path d="M265,335.28s.34,6.17-2.48,8.52c-.54.45-1.11.77-1.44,1.08-.72.66-.15,1.79.79,2.23,1.37.63,8.39-1.17,11.12-7.23Z" style="fill:#f5f5f5"></path><path d="M262,345.28a1.17,1.17,0,0,1,.57.87c0,.33-.21.48-.51.33a1.17,1.17,0,0,1-.57-.87C261.44,345.27,261.67,345.13,262,345.28Z" style="fill:#263238"></path><path d="M351.64,336.07c-3.21,4.14-8.41,5.33-9.58,4.78-.94-.43-1.5-1.56-.78-2.23.33-.3.9-.62,1.43-1.07,1.57-1.3,2.09-3.57,2.23-5.33l6.21,3.57.4.23Z" style="fill:#e0e0e0"></path><path d="M348.26,342.43a11.58,11.58,0,0,0-5.19-9.11c-1.51-.88-2.87-.93-3.83-.29h0l-3.55,2,7.44,12.82,3.51-2h0A3.65,3.65,0,0,0,348.26,342.43Z" style="fill:#37474f"></path><path d="M339.39,335.41a11.54,11.54,0,0,1,5.18,9.11c0,3.34-2.37,4.68-5.26,3a11.6,11.6,0,0,1-5.18-9.12C334.15,335.06,336.51,333.72,339.39,335.41Z" style="fill:#455a64"></path><path d="M337.59,340.43c0-1.31.8-1.9,1.78-1.33a4.25,4.25,0,0,1,1.75,3.4c0,1.31-.81,1.9-1.78,1.33A4.24,4.24,0,0,1,337.59,340.43Z" style="fill:#263238"></path><path d="M342.47,330.8s.35,6.17-2.48,8.53c-.53.44-1.11.76-1.44,1.07-.72.67-.15,1.79.79,2.23,1.37.64,8.39-1.17,11.13-7.23Z" style="fill:#f5f5f5"></path><path d="M339.48,340.8a1.17,1.17,0,0,1,.57.87c0,.33-.21.48-.5.33a1.16,1.16,0,0,1-.58-.87C339,340.8,339.18,340.65,339.48,340.8Z" style="fill:#263238"></path><path d="M312.89,313.59l.09.05c-3.2,4.15-8.41,5.33-9.58,4.79-.94-.44-1.5-1.56-.78-2.23.33-.31.9-.63,1.44-1.08,1.56-1.3,2.08-3.56,2.23-5.33Z" style="fill:#e0e0e0"></path><path d="M309.6,320a11.57,11.57,0,0,0-5.18-9.11c-1.51-.89-2.88-.93-3.84-.3h0l-3.54,2,7.43,12.82,3.52-2h0A3.61,3.61,0,0,0,309.6,320Z" style="fill:#37474f"></path><path d="M300.74,313a11.58,11.58,0,0,1,5.18,9.11c0,3.34-2.38,4.68-5.26,3a11.6,11.6,0,0,1-5.18-9.11C295.5,312.64,297.85,311.3,300.74,313Z" style="fill:#455a64"></path><path d="M298.93,318c0-1.3.81-1.9,1.78-1.33a4.27,4.27,0,0,1,1.76,3.4c0,1.31-.81,1.9-1.79,1.33A4.25,4.25,0,0,1,298.93,318Z" style="fill:#263238"></path><path d="M303.82,308.37s.34,6.17-2.48,8.53c-.54.44-1.11.76-1.44,1.07-.72.67-.16,1.79.78,2.23,1.37.64,8.4-1.17,11.13-7.23Z" style="fill:#f5f5f5"></path><path d="M300.82,318.37a1.12,1.12,0,0,1,.57.87c0,.34-.2.48-.5.33a1.15,1.15,0,0,1-.57-.87C300.3,318.37,300.53,318.22,300.82,318.37Z" style="fill:#263238"></path><path d="M295.36,226.54l-1.46.84-1.13-4.58a14.38,14.38,0,0,0-5.83-7.74l-1.34-.78a2.93,2.93,0,0,0-2.55,0l-9.1,5.23a.8.8,0,0,1-1.1-.3.81.81,0,0,1,.29-1.1l9.1-5.23a4.56,4.56,0,0,1,4.16,0l1.35.77a16.1,16.1,0,0,1,6.59,8.76Z" style="fill:#37474f"></path><path d="M254.4,233.22l-2.63-4.56,22-12.67h0a1.25,1.25,0,0,1,1.43.06,4.15,4.15,0,0,1,1.86,3.22,1.26,1.26,0,0,1-.66,1.27h0Z" style="fill:#407BFF"></path><path d="M254.4,233.22l-2.63-4.56,22-12.67h0a1.25,1.25,0,0,1,1.43.06,4.15,4.15,0,0,1,1.86,3.22,1.26,1.26,0,0,1-.66,1.27h0Z" style="opacity:0.25"></path><path d="M251.77,228.66c.69-.4,1.84.3,2.56,1.56s.76,2.6.07,3-1.84-.3-2.57-1.56S251.08,229.06,251.77,228.66Z" style="fill:#407BFF"></path><path d="M253.43,251l-1.46.84-1.13-4.58a14.33,14.33,0,0,0-5.83-7.74l-1.34-.78a1.82,1.82,0,0,1,0-3.34l8.68-5c.22-.13.57.09.79.47s.24.81,0,.93h0l-8.68,5c-.24.13-.29.25-.29.27s.05.13.29.27l1.34.78a16,16,0,0,1,6.59,8.75Z" style="fill:#37474f"></path><polygon points="300.16 279.92 256.33 305.23 320.39 342.22 364.23 316.9 300.16 279.92" style="fill:#407BFF"></polygon><polygon points="300.16 279.92 256.33 305.23 320.39 342.22 364.23 316.9 300.16 279.92" style="opacity:0.4"></polygon><polygon points="251.97 251.88 295.36 226.53 300.16 279.92 256.33 305.23 251.97 251.88" style="fill:#407BFF"></polygon><polygon points="251.97 251.88 295.36 226.53 300.16 279.92 256.33 305.23 251.97 251.88" style="opacity:0.2"></polygon><path d="M295.36,226.53l4.8,53.39,64.07,37,10.11-44.77Zm22.4,51.33a3.68,3.68,0,0,1-4.6-2.38L302.58,248a3.45,3.45,0,1,1,6.4-2.46L319.56,273A3.67,3.67,0,0,1,317.76,277.86Zm20,9.41a3.66,3.66,0,0,1-4.59-2.38l-10.59-27.47A3.46,3.46,0,1,1,329,255l10.59,27.48A3.66,3.66,0,0,1,337.76,287.27Zm20,9.41a3.67,3.67,0,0,1-4.59-2.37l-10.58-27.48a3.46,3.46,0,1,1,6.4-2.47l10.58,27.48A3.66,3.66,0,0,1,357.76,296.68Z" style="fill:#407BFF"></path><path d="M295.36,226.53l4.8,53.39,64.07,37,10.11-44.77Zm22.4,51.33a3.68,3.68,0,0,1-4.6-2.38L302.58,248a3.45,3.45,0,1,1,6.4-2.46L319.56,273A3.67,3.67,0,0,1,317.76,277.86Zm20,9.41a3.66,3.66,0,0,1-4.59-2.38l-10.59-27.47A3.46,3.46,0,1,1,329,255l10.59,27.48A3.66,3.66,0,0,1,337.76,287.27Zm20,9.41a3.67,3.67,0,0,1-4.59-2.37l-10.58-27.48a3.46,3.46,0,1,1,6.4-2.47l10.58,27.48A3.66,3.66,0,0,1,357.76,296.68Z" style="opacity:0.1"></path><g id="freepik--light-bag--inject-2"><path d="M313.54,219.45a5.11,5.11,0,0,0-5.2.31c-4.27,2.47-7.73,9.58-7.73,15.86v14.81a.67.67,0,1,0,1.34,0V235.62c0-5.85,3.17-12.44,7.06-14.69a3.75,3.75,0,0,1,3.86-.31c1.6.93,2.52,3.28,2.52,6.46v14.75a.68.68,0,0,0,.68.67.67.67,0,0,0,.67-.67V227.08C316.74,223.41,315.57,220.63,313.54,219.45Z" style="fill:#263238"></path><polygon points="340.96 300.33 336.82 232.4 328.46 227.6 324.57 290.87 340.96 300.33" style="fill:#407BFF"></polygon><polygon points="340.96 300.33 336.82 232.4 328.46 227.6 324.57 290.87 340.96 300.33" style="fill:#fff;opacity:0.4"></polygon><polygon points="288.88 250.43 284.99 313.7 324.57 290.87 328.46 227.6 288.88 250.43" style="fill:#407BFF"></polygon><polygon points="288.88 250.43 284.99 313.7 324.57 290.87 328.46 227.6 288.88 250.43" style="fill:#fff;opacity:0.30000000000000004"></polygon><polygon points="288.88 250.43 284.99 313.7 324.57 290.87 328.46 227.6 288.88 250.43" style="opacity:0.05"></polygon><polygon points="288.88 250.43 297.24 255.24 301.38 323.17 284.99 313.7 288.88 250.43" style="fill:#407BFF"></polygon><polygon points="288.88 250.43 297.24 255.24 301.38 323.17 284.99 313.7 288.88 250.43" style="fill:#fff;opacity:0.55"></polygon><polygon points="301.38 323.17 294.11 312.39 293.19 282.67 292.45 311.44 284.99 313.7 301.38 323.17" style="fill:#407BFF;opacity:0.5"></polygon><path d="M336.82,232.4l-39.58,22.84,4.14,67.93L341,300.34Zm-27.16,24.5c-.82.47-1.49.08-1.49-.87a3.31,3.31,0,0,1,1.49-2.58c.82-.48,1.49-.08,1.49.87A3.26,3.26,0,0,1,309.66,256.9Zm14.79-8.6c-.83.47-1.49.08-1.49-.87a3.27,3.27,0,0,1,1.49-2.58c.82-.48,1.49-.09,1.49.87A3.28,3.28,0,0,1,324.45,248.3Z" style="fill:#407BFF"></path><path d="M336.82,232.4l-39.58,22.84,4.14,67.93L341,300.34Zm-27.16,24.5c-.82.47-1.49.08-1.49-.87a3.31,3.31,0,0,1,1.49-2.58c.82-.48,1.49-.08,1.49.87A3.26,3.26,0,0,1,309.66,256.9Zm14.79-8.6c-.83.47-1.49.08-1.49-.87a3.27,3.27,0,0,1,1.49-2.58c.82-.48,1.49-.09,1.49.87A3.28,3.28,0,0,1,324.45,248.3Z" style="fill:#fff;opacity:0.7000000000000001"></path><path d="M321.92,224.2a5.06,5.06,0,0,0-5.2.31c-4.27,2.46-7.73,9.57-7.73,15.85v14.81a.67.67,0,1,0,1.34,0V240.36c0-5.85,3.17-12.44,7.06-14.69a3.75,3.75,0,0,1,3.85-.31c1.61.93,2.53,3.29,2.53,6.47v14.74a.68.68,0,0,0,.68.67.67.67,0,0,0,.67-.67V231.83C325.12,228.15,324,225.37,321.92,224.2Z" style="fill:#37474f"></path></g><path d="M252,251.88l4.36,53.35,64.06,37,10.12-44.78Zm25.29,52.52a3.68,3.68,0,0,1-4.59-2.38l-10.59-27.48a3.45,3.45,0,1,1,6.4-2.47l10.59,27.48A3.67,3.67,0,0,1,277.26,304.4Zm20,9.41a3.67,3.67,0,0,1-4.59-2.38L282.09,284a3.45,3.45,0,1,1,6.4-2.46L299.08,309A3.69,3.69,0,0,1,297.27,313.81Zm20,9.41a3.66,3.66,0,0,1-4.59-2.38l-10.59-27.48a3.45,3.45,0,1,1,6.4-2.46l10.59,27.48A3.66,3.66,0,0,1,317.27,323.22Z" style="fill:#407BFF"></path><polygon points="330.51 297.44 374.34 272.13 364.23 316.91 320.39 342.22 330.51 297.44" style="fill:#407BFF"></polygon><polygon points="330.51 297.44 374.34 272.13 364.23 316.91 320.39 342.22 330.51 297.44" style="opacity:0.2"></polygon></g></g><g id="freepik--speech-bubble--inject-2"><g id="freepik--speech-bubble--inject-2"><g id="freepik--speech-bubble--inject-2"><path d="M309.11,181.71a25.36,25.36,0,0,1-18.63,1.34l-2.71-1a25.41,25.41,0,0,1,16.72-47.81l2.77.9a25.4,25.4,0,0,1,1.85,46.6Z" style="fill:#fff"></path><path d="M322.93,146.83a27.58,27.58,0,0,0-51.34,19.63l-5.86,6.26a1.6,1.6,0,0,0,1.3,2.69l8.54-.68a27.58,27.58,0,0,0,47.36-27.9Zm-13.82,34.88a25.36,25.36,0,0,1-18.63,1.34l-2.71-1a25.41,25.41,0,0,1,16.72-47.81l2.77.9a25.4,25.4,0,0,1,1.85,46.6Z" style="fill:#407BFF"></path><path d="M309.11,181.71a25.36,25.36,0,0,1-18.63,1.34l-2.71-1a25.41,25.41,0,0,1,16.72-47.81l2.77.9a25.4,25.4,0,0,1,1.85,46.6Z" style="fill:#fff"></path></g><path d="M286.07,151.9a.61.61,0,1,1,0-1.21l6.11,0h0a.62.62,0,0,1,.61.6.61.61,0,0,1-.61.61l-6.12,0Z" style="fill:#455a64"></path><path d="M307.62,165.63H289.8a.61.61,0,0,1-.59-.45l-4.58-16.88-2.93-1.69a.61.61,0,0,1,.61-1.05l3.14,1.81a.58.58,0,0,1,.28.37l4.53,16.67h16.9l3.56-12.63-5.26,0h0a.61.61,0,0,1,0-1.22l6.07,0a.63.63,0,0,1,.49.24.65.65,0,0,1,.1.54l-3.91,13.84A.6.6,0,0,1,307.62,165.63Z" style="fill:#455a64"></path><path d="M307.43,169.84H290.22a2.72,2.72,0,1,1,0-5.43H298a.61.61,0,0,1,.61.61.61.61,0,0,1-.61.61h-7.76a1.5,1.5,0,1,0,0,3h17.21a.61.61,0,1,1,0,1.21Z" style="fill:#455a64"></path><path d="M292.2,176.21a2.74,2.74,0,1,1,2.74-2.74A2.74,2.74,0,0,1,292.2,176.21Zm0-4.27a1.53,1.53,0,1,0,1.52,1.53A1.53,1.53,0,0,0,292.2,171.94Z" style="fill:#455a64"></path><path d="M304.4,176.21a2.74,2.74,0,1,1,2.74-2.74A2.74,2.74,0,0,1,304.4,176.21Zm0-4.27a1.53,1.53,0,1,0,0,3.05,1.53,1.53,0,0,0,0-3.05Z" style="fill:#455a64"></path><path d="M298.82,158.47a7.24,7.24,0,1,1,7.24-7.24A7.24,7.24,0,0,1,298.82,158.47Zm0-13.26a6,6,0,1,0,6,6A6,6,0,0,0,298.82,145.21Z" style="fill:#455a64"></path><path d="M298,154.53a.6.6,0,0,1-.43-.18l-2.62-2.6a.61.61,0,0,1,0-.86.6.6,0,0,1,.86,0L297.9,153l3.7-4.94a.61.61,0,0,1,.85-.13.6.6,0,0,1,.12.85l-4.11,5.51a.61.61,0,0,1-.45.24Z" style="fill:#455a64"></path><path d="M300.25,174.07h-3.9a.61.61,0,1,1,0-1.21h3.9a.61.61,0,1,1,0,1.21Z" style="fill:#455a64"></path></g></g></svg>