<svg width="150" height="116" viewBox="0 0 150 116" fill="none" xmlns="http://www.w3.org/2000/svg">
<g filter="url(#filter0_d_360_509)">
<g filter="url(#filter1_i_360_509)">
<path d="M55.1326 100.689C61.7551 99.3644 64.4041 92.7419 63.7418 87.4438H84.9339C84.2716 92.7419 86.9206 99.3644 93.5432 100.689V103.338H55.1326V100.689Z" fill="#0D469F"/>
</g>
<g filter="url(#filter2_i_360_509)">
<path fill-rule="evenodd" clip-rule="evenodd" d="M62.9916 86.7812H85.684L85.5909 87.5256C84.9545 92.6171 87.5117 98.8069 93.6729 100.039L94.2053 100.146V104H54.4702V100.146L55.0026 100.039C61.1638 98.8069 63.721 92.6171 63.0846 87.5256L62.9916 86.7812ZM64.4703 88.1058C64.8244 93.3402 62.1776 99.6388 55.7947 101.219V102.675H92.8808V101.219C86.4979 99.6388 83.8511 93.3402 84.2052 88.1058H64.4703Z" fill="#0D469F"/>
</g>
<path d="M8.7749 10.6225C8.7749 6.965 11.7399 4 15.3974 4H134.603C138.26 4 141.225 6.965 141.225 10.6225V80.8212C141.225 84.4787 138.26 87.4437 134.603 87.4437H15.3974C11.7399 87.4437 8.7749 84.4787 8.7749 80.8212V10.6225Z" fill="#0D469F"/>
<path d="M15.3975 10.6224C15.3975 9.89085 15.9905 9.29785 16.722 9.29785H133.278C134.01 9.29785 134.603 9.89085 134.603 10.6224V70.9245C134.603 71.656 134.01 72.249 133.278 72.249H16.722C15.9905 72.249 15.3975 71.656 15.3975 70.9245V10.6224Z" fill="#FDFDFD"/>
<path d="M8.7749 75.5229H141.225V80.821C141.225 84.4785 138.26 87.4435 134.603 87.4435H15.3974C11.7399 87.4435 8.7749 84.4785 8.7749 80.821V75.5229Z" fill="#225BB8"/>
<path d="M16.7219 10.6226H133.278V14.5961H16.7219V10.6226Z" fill="#BB0E1B"/>
<path d="M28.6423 25.1919H121.358V58.3045H28.6423V25.1919Z" fill="#90C8F7"/>
<path d="M35.0371 36.0635V38.3522C35.0371 38.603 35.1025 38.7955 35.2332 38.9297C35.3638 39.0604 35.5475 39.1257 35.7842 39.1257C36.0243 39.1257 36.2098 39.0604 36.3404 38.9297C36.4711 38.7955 36.5365 38.603 36.5365 38.3522V36.0635H37.2835V38.3469C37.2835 38.6613 37.2146 38.9279 37.0769 39.1469C36.9427 39.3624 36.7608 39.5248 36.5312 39.6343C36.3051 39.7438 36.0526 39.7986 35.7736 39.7986C35.4981 39.7986 35.2473 39.7438 35.0212 39.6343C34.7987 39.5248 34.6221 39.3624 34.4914 39.1469C34.3608 38.9279 34.2954 38.6613 34.2954 38.3469V36.0635H35.0371Z" fill="#0D469F"/>
<path d="M39.4102 39.8092C39.1701 39.8092 38.9546 39.7668 38.7639 39.682C38.5731 39.5937 38.4213 39.4754 38.3082 39.3271C38.1988 39.1787 38.1387 39.0145 38.1281 38.8343H38.8751C38.8893 38.9474 38.944 39.041 39.0394 39.1151C39.1383 39.1893 39.2601 39.2264 39.4049 39.2264C39.5462 39.2264 39.6557 39.1981 39.7334 39.1416C39.8146 39.0851 39.8553 39.0127 39.8553 38.9244C39.8553 38.829 39.8058 38.7584 39.7069 38.7125C39.6116 38.663 39.4579 38.6101 39.246 38.5535C39.027 38.5006 38.8469 38.4458 38.7056 38.3893C38.5678 38.3328 38.4478 38.2463 38.3453 38.1297C38.2464 38.0131 38.197 37.856 38.197 37.6582C38.197 37.4957 38.2429 37.3474 38.3347 37.2131C38.4301 37.0789 38.5643 36.973 38.7374 36.8953C38.914 36.8176 39.1206 36.7787 39.3573 36.7787C39.7069 36.7787 39.9859 36.867 40.1943 37.0436C40.4027 37.2167 40.5175 37.4516 40.5387 37.7482H39.8288C39.8182 37.6317 39.7687 37.5399 39.6804 37.4727C39.5957 37.4021 39.4809 37.3668 39.3361 37.3668C39.2018 37.3668 39.0976 37.3915 39.0235 37.441C38.9528 37.4904 38.9175 37.5593 38.9175 37.6476C38.9175 37.7465 38.967 37.8224 39.0659 37.8754C39.1648 37.9248 39.3184 37.9761 39.5268 38.029C39.7387 38.082 39.9135 38.1368 40.0513 38.1933C40.189 38.2498 40.3074 38.3381 40.4063 38.4582C40.5087 38.5747 40.5617 38.7301 40.5652 38.9244C40.5652 39.0939 40.5175 39.2458 40.4222 39.38C40.3303 39.5142 40.1961 39.6202 40.0195 39.6979C39.8464 39.7721 39.6433 39.8092 39.4102 39.8092Z" fill="#0D469F"/>
<path d="M44.1895 38.2304C44.1895 38.3363 44.1824 38.4317 44.1683 38.5165H42.0226C42.0402 38.7284 42.1144 38.8944 42.2451 39.0145C42.3758 39.1346 42.5365 39.1946 42.7272 39.1946C43.0027 39.1946 43.1987 39.0763 43.3153 38.8396H44.1153C44.0305 39.1222 43.868 39.3553 43.6279 39.539C43.3877 39.7191 43.0928 39.8092 42.7431 39.8092C42.4605 39.8092 42.2062 39.7474 41.9802 39.6237C41.7577 39.4966 41.5828 39.3182 41.4557 39.0886C41.3321 38.8591 41.2703 38.5942 41.2703 38.2939C41.2703 37.9902 41.3321 37.7235 41.4557 37.4939C41.5793 37.2644 41.7524 37.0878 41.9749 36.9641C42.1974 36.8405 42.4535 36.7787 42.7431 36.7787C43.0221 36.7787 43.2711 36.8388 43.4901 36.9588C43.7126 37.0789 43.8839 37.2502 44.004 37.4727C44.1276 37.6917 44.1895 37.9443 44.1895 38.2304ZM43.4212 38.0184C43.4177 37.8277 43.3488 37.6758 43.2146 37.5628C43.0804 37.4463 42.9162 37.388 42.7219 37.388C42.5382 37.388 42.3828 37.4445 42.2557 37.5575C42.1321 37.667 42.0561 37.8207 42.0279 38.0184H43.4212Z" fill="#0D469F"/>
<path d="M45.7595 37.282C45.8549 37.1266 45.9785 37.0048 46.1304 36.9165C46.2858 36.8282 46.4624 36.784 46.6602 36.784V37.5628H46.4641C46.231 37.5628 46.0544 37.6176 45.9343 37.7271C45.8178 37.8365 45.7595 38.0273 45.7595 38.2992V39.7615H45.0178V36.8264H45.7595V37.282Z" fill="#0D469F"/>
<path d="M47.7751 39.7986C47.6409 39.7986 47.5297 39.758 47.4414 39.6767C47.3566 39.592 47.3142 39.4878 47.3142 39.3641C47.3142 39.2405 47.3566 39.1381 47.4414 39.0569C47.5297 38.9721 47.6409 38.9297 47.7751 38.9297C47.9058 38.9297 48.0136 38.9721 48.0983 39.0569C48.1831 39.1381 48.2255 39.2405 48.2255 39.3641C48.2255 39.4878 48.1831 39.592 48.0983 39.6767C48.0136 39.758 47.9058 39.7986 47.7751 39.7986ZM47.7751 37.6052C47.6409 37.6052 47.5297 37.5646 47.4414 37.4833C47.3566 37.3986 47.3142 37.2944 47.3142 37.1708C47.3142 37.0471 47.3566 36.9447 47.4414 36.8635C47.5297 36.7787 47.6409 36.7363 47.7751 36.7363C47.9058 36.7363 48.0136 36.7787 48.0983 36.8635C48.1831 36.9447 48.2255 37.0471 48.2255 37.1708C48.2255 37.2944 48.1831 37.3986 48.0983 37.4833C48.0136 37.5646 47.9058 37.6052 47.7751 37.6052Z" fill="#0D469F"/>
<path d="M37.0026 47.8039C37.0026 48.0017 36.9549 48.1871 36.8596 48.3602C36.7677 48.5333 36.6211 48.6728 36.4198 48.7787C36.222 48.8847 35.9713 48.9377 35.6675 48.9377H35.0476V50.3575H34.3059V46.6595H35.6675C35.9536 46.6595 36.1973 46.709 36.3986 46.8079C36.5999 46.9068 36.7501 47.0428 36.849 47.2158C36.9514 47.3889 37.0026 47.5849 37.0026 47.8039ZM35.6357 48.339C35.8406 48.339 35.9924 48.2931 36.0913 48.2013C36.1902 48.1059 36.2397 47.9734 36.2397 47.8039C36.2397 47.4436 36.0384 47.2635 35.6357 47.2635H35.0476V48.339H35.6357Z" fill="#0D469F"/>
<path d="M37.6254 48.8794C37.6254 48.5827 37.6837 48.3196 37.8002 48.09C37.9203 47.8604 38.081 47.6838 38.2824 47.5602C38.4872 47.4366 38.715 47.3748 38.9658 47.3748C39.1848 47.3748 39.3755 47.4189 39.538 47.5072C39.704 47.5955 39.8364 47.7068 39.9353 47.841V47.4224H40.6824V50.3575H39.9353V49.9284C39.84 50.0662 39.7075 50.1809 39.538 50.2728C39.372 50.3611 39.1795 50.4052 38.9605 50.4052C38.7133 50.4052 38.4872 50.3416 38.2824 50.2145C38.081 50.0873 37.9203 49.909 37.8002 49.6794C37.6837 49.4463 37.6254 49.1796 37.6254 48.8794ZM39.9353 48.89C39.9353 48.7099 39.9 48.5562 39.8294 48.4291C39.7587 48.2984 39.6634 48.1995 39.5433 48.1324C39.4232 48.0617 39.2943 48.0264 39.1565 48.0264C39.0188 48.0264 38.8916 48.06 38.7751 48.1271C38.6585 48.1942 38.5632 48.2931 38.489 48.4238C38.4183 48.5509 38.383 48.7028 38.383 48.8794C38.383 49.056 38.4183 49.2114 38.489 49.3456C38.5632 49.4763 38.6585 49.577 38.7751 49.6476C38.8952 49.7182 39.0223 49.7536 39.1565 49.7536C39.2943 49.7536 39.4232 49.72 39.5433 49.6529C39.6634 49.5823 39.7587 49.4834 39.8294 49.3562C39.9 49.2255 39.9353 49.0701 39.9353 48.89Z" fill="#0D469F"/>
<path d="M42.8169 50.4052C42.5767 50.4052 42.3613 50.3628 42.1705 50.2781C41.9798 50.1898 41.8279 50.0714 41.7149 49.9231C41.6054 49.7748 41.5454 49.6105 41.5348 49.4304H42.2818C42.2959 49.5434 42.3507 49.637 42.446 49.7112C42.5449 49.7854 42.6668 49.8224 42.8116 49.8224C42.9529 49.8224 43.0624 49.7942 43.1401 49.7377C43.2213 49.6812 43.2619 49.6088 43.2619 49.5205C43.2619 49.4251 43.2125 49.3545 43.1136 49.3085C43.0182 49.2591 42.8646 49.2061 42.6526 49.1496C42.4337 49.0966 42.2535 49.0419 42.1122 48.9854C41.9745 48.9288 41.8544 48.8423 41.752 48.7258C41.6531 48.6092 41.6036 48.452 41.6036 48.2542C41.6036 48.0918 41.6496 47.9434 41.7414 47.8092C41.8368 47.675 41.971 47.569 42.144 47.4913C42.3206 47.4136 42.5273 47.3748 42.7639 47.3748C43.1136 47.3748 43.3926 47.4631 43.601 47.6397C43.8094 47.8127 43.9242 48.0476 43.9454 48.3443H43.2354C43.2248 48.2277 43.1754 48.1359 43.0871 48.0688C43.0023 47.9982 42.8875 47.9628 42.7427 47.9628C42.6085 47.9628 42.5043 47.9876 42.4301 48.037C42.3595 48.0865 42.3242 48.1553 42.3242 48.2436C42.3242 48.3425 42.3736 48.4185 42.4725 48.4714C42.5714 48.5209 42.7251 48.5721 42.9334 48.6251C43.1454 48.6781 43.3202 48.7328 43.4579 48.7893C43.5957 48.8458 43.714 48.9341 43.8129 49.0542C43.9153 49.1708 43.9683 49.3262 43.9719 49.5205C43.9719 49.69 43.9242 49.8419 43.8288 49.9761C43.737 50.1103 43.6028 50.2163 43.4262 50.294C43.2531 50.3681 43.05 50.4052 42.8169 50.4052Z" fill="#0D469F"/>
<path d="M45.9908 50.4052C45.7506 50.4052 45.5352 50.3628 45.3445 50.2781C45.1537 50.1898 45.0019 50.0714 44.8888 49.9231C44.7793 49.7748 44.7193 49.6105 44.7087 49.4304H45.4557C45.4698 49.5434 45.5246 49.637 45.62 49.7112C45.7188 49.7854 45.8407 49.8224 45.9855 49.8224C46.1268 49.8224 46.2363 49.7942 46.314 49.7377C46.3952 49.6812 46.4358 49.6088 46.4358 49.5205C46.4358 49.4251 46.3864 49.3545 46.2875 49.3085C46.1921 49.2591 46.0385 49.2061 45.8266 49.1496C45.6076 49.0966 45.4275 49.0419 45.2862 48.9854C45.1484 48.9288 45.0283 48.8423 44.9259 48.7258C44.827 48.6092 44.7776 48.452 44.7776 48.2542C44.7776 48.0918 44.8235 47.9434 44.9153 47.8092C45.0107 47.675 45.1449 47.569 45.318 47.4913C45.4946 47.4136 45.7012 47.3748 45.9378 47.3748C46.2875 47.3748 46.5665 47.4631 46.7749 47.6397C46.9833 47.8127 47.0981 48.0476 47.1193 48.3443H46.4094C46.3988 48.2277 46.3493 48.1359 46.261 48.0688C46.1762 47.9982 46.0615 47.9628 45.9166 47.9628C45.7824 47.9628 45.6782 47.9876 45.6041 48.037C45.5334 48.0865 45.4981 48.1553 45.4981 48.2436C45.4981 48.3425 45.5475 48.4185 45.6464 48.4714C45.7453 48.5209 45.899 48.5721 46.1074 48.6251C46.3193 48.6781 46.4941 48.7328 46.6319 48.7893C46.7696 48.8458 46.8879 48.9341 46.9868 49.0542C47.0893 49.1708 47.1422 49.3262 47.1458 49.5205C47.1458 49.69 47.0981 49.8419 47.0027 49.9761C46.9109 50.1103 46.7767 50.2163 46.6001 50.294C46.427 50.3681 46.2239 50.4052 45.9908 50.4052Z" fill="#0D469F"/>
<path d="M52.1104 47.4224L51.2522 50.3575H50.4522L49.9171 48.3072L49.382 50.3575H48.5767L47.7131 47.4224H48.4654L48.9846 49.6582L49.5462 47.4224H50.3303L50.8813 49.6529L51.4005 47.4224H52.1104Z" fill="#0D469F"/>
<path d="M54.102 50.4052C53.8194 50.4052 53.5651 50.3434 53.3391 50.2198C53.113 50.0926 52.9347 49.9143 52.804 49.6847C52.6768 49.4551 52.6133 49.1902 52.6133 48.89C52.6133 48.5898 52.6786 48.3249 52.8093 48.0953C52.9435 47.8657 53.1254 47.6891 53.355 47.5655C53.5846 47.4383 53.8406 47.3748 54.1232 47.3748C54.4058 47.3748 54.6618 47.4383 54.8914 47.5655C55.121 47.6891 55.3011 47.8657 55.4318 48.0953C55.566 48.3249 55.6331 48.5898 55.6331 48.89C55.6331 49.1902 55.5642 49.4551 55.4265 49.6847C55.2923 49.9143 55.1086 50.0926 54.8755 50.2198C54.6459 50.3434 54.3881 50.4052 54.102 50.4052ZM54.102 49.7589C54.2362 49.7589 54.3616 49.7271 54.4782 49.6635C54.5982 49.5964 54.6936 49.4975 54.7642 49.3668C54.8349 49.2361 54.8702 49.0772 54.8702 48.89C54.8702 48.611 54.796 48.3973 54.6477 48.2489C54.5029 48.0971 54.3245 48.0211 54.1126 48.0211C53.9007 48.0211 53.7223 48.0971 53.5775 48.2489C53.4362 48.3973 53.3656 48.611 53.3656 48.89C53.3656 49.169 53.4344 49.3845 53.5722 49.5363C53.7135 49.6847 53.8901 49.7589 54.102 49.7589Z" fill="#0D469F"/>
<path d="M57.2058 47.8781C57.3012 47.7227 57.4248 47.6008 57.5767 47.5125C57.7321 47.4242 57.9087 47.3801 58.1065 47.3801V48.1589H57.9105C57.6774 48.1589 57.5008 48.2136 57.3807 48.3231C57.2641 48.4326 57.2058 48.6233 57.2058 48.8953V50.3575H56.4641V47.4224H57.2058V47.8781Z" fill="#0D469F"/>
<path d="M58.7023 48.8794C58.7023 48.5827 58.7606 48.3196 58.8771 48.09C58.9972 47.8604 59.1597 47.6838 59.3645 47.5602C59.5694 47.4366 59.7972 47.3748 60.048 47.3748C60.2387 47.3748 60.4206 47.4171 60.5937 47.5019C60.7668 47.5831 60.9045 47.6926 61.0069 47.8304V46.437H61.7592V50.3575H61.0069V49.9231C60.9151 50.0679 60.7862 50.1845 60.6202 50.2728C60.4542 50.3611 60.2617 50.4052 60.0427 50.4052C59.7955 50.4052 59.5694 50.3416 59.3645 50.2145C59.1597 50.0873 58.9972 49.909 58.8771 49.6794C58.7606 49.4463 58.7023 49.1796 58.7023 48.8794ZM61.0122 48.89C61.0122 48.7099 60.9769 48.5562 60.9063 48.4291C60.8356 48.2984 60.7403 48.1995 60.6202 48.1324C60.5001 48.0617 60.3712 48.0264 60.2334 48.0264C60.0957 48.0264 59.9685 48.06 59.852 48.1271C59.7354 48.1942 59.64 48.2931 59.5659 48.4238C59.4952 48.5509 59.4599 48.7028 59.4599 48.8794C59.4599 49.056 59.4952 49.2114 59.5659 49.3456C59.64 49.4763 59.7354 49.577 59.852 49.6476C59.9721 49.7182 60.0992 49.7536 60.2334 49.7536C60.3712 49.7536 60.5001 49.72 60.6202 49.6529C60.7403 49.5823 60.8356 49.4834 60.9063 49.3562C60.9769 49.2255 61.0122 49.0701 61.0122 48.89Z" fill="#0D469F"/>
<path d="M63.0991 50.3946C62.9649 50.3946 62.8536 50.354 62.7653 50.2728C62.6805 50.188 62.6381 50.0838 62.6381 49.9602C62.6381 49.8366 62.6805 49.7341 62.7653 49.6529C62.8536 49.5681 62.9649 49.5258 63.0991 49.5258C63.2298 49.5258 63.3375 49.5681 63.4222 49.6529C63.507 49.7341 63.5494 49.8366 63.5494 49.9602C63.5494 50.0838 63.507 50.188 63.4222 50.2728C63.3375 50.354 63.2298 50.3946 63.0991 50.3946ZM63.0991 48.2013C62.9649 48.2013 62.8536 48.1606 62.7653 48.0794C62.6805 47.9946 62.6381 47.8904 62.6381 47.7668C62.6381 47.6432 62.6805 47.5408 62.7653 47.4595C62.8536 47.3748 62.9649 47.3324 63.0991 47.3324C63.2298 47.3324 63.3375 47.3748 63.4222 47.4595C63.507 47.5408 63.5494 47.6432 63.5494 47.7668C63.5494 47.8904 63.507 47.9946 63.4222 48.0794C63.3375 48.1606 63.2298 48.2013 63.0991 48.2013Z" fill="#0D469F"/>
<path d="M52.4834 34.4634H116.06V41.0859H52.4834V34.4634Z" fill="#DDF2FE"/>
<path d="M67.053 45.0596H116.06V51.6821H67.053V45.0596Z" fill="#DDF2FE"/>
</g>
<defs>
<filter id="filter0_d_360_509" x="0.774902" y="0" width="148.45" height="116" filterUnits="userSpaceOnUse" color-interpolation-filters="sRGB">
<feFlood flood-opacity="0" result="BackgroundImageFix"/>
<feColorMatrix in="SourceAlpha" type="matrix" values="0 0 0 0 0 0 0 0 0 0 0 0 0 0 0 0 0 0 127 0" result="hardAlpha"/>
<feOffset dy="4"/>
<feGaussianBlur stdDeviation="4"/>
<feComposite in2="hardAlpha" operator="out"/>
<feColorMatrix type="matrix" values="0 0 0 0 0 0 0 0 0 0 0 0 0 0 0 0 0 0 0.1 0"/>
<feBlend mode="normal" in2="BackgroundImageFix" result="effect1_dropShadow_360_509"/>
<feBlend mode="normal" in="SourceGraphic" in2="effect1_dropShadow_360_509" result="shape"/>
</filter>
<filter id="filter1_i_360_509" x="55.1326" y="87.4438" width="38.4106" height="17.894" filterUnits="userSpaceOnUse" color-interpolation-filters="sRGB">
<feFlood flood-opacity="0" result="BackgroundImageFix"/>
<feBlend mode="normal" in="SourceGraphic" in2="BackgroundImageFix" result="shape"/>
<feColorMatrix in="SourceAlpha" type="matrix" values="0 0 0 0 0 0 0 0 0 0 0 0 0 0 0 0 0 0 127 0" result="hardAlpha"/>
<feOffset dy="2"/>
<feGaussianBlur stdDeviation="2"/>
<feComposite in2="hardAlpha" operator="arithmetic" k2="-1" k3="1"/>
<feColorMatrix type="matrix" values="0 0 0 0 0 0 0 0 0 0 0 0 0 0 0 0 0 0 0.1 0"/>
<feBlend mode="normal" in2="shape" result="effect1_innerShadow_360_509"/>
</filter>
<filter id="filter2_i_360_509" x="54.4702" y="86.7812" width="39.7351" height="19.2188" filterUnits="userSpaceOnUse" color-interpolation-filters="sRGB">
<feFlood flood-opacity="0" result="BackgroundImageFix"/>
<feBlend mode="normal" in="SourceGraphic" in2="BackgroundImageFix" result="shape"/>
<feColorMatrix in="SourceAlpha" type="matrix" values="0 0 0 0 0 0 0 0 0 0 0 0 0 0 0 0 0 0 127 0" result="hardAlpha"/>
<feOffset dy="2"/>
<feGaussianBlur stdDeviation="2"/>
<feComposite in2="hardAlpha" operator="arithmetic" k2="-1" k3="1"/>
<feColorMatrix type="matrix" values="0 0 0 0 0 0 0 0 0 0 0 0 0 0 0 0 0 0 0.1 0"/>
<feBlend mode="normal" in2="shape" result="effect1_innerShadow_360_509"/>
</filter>
</defs>
</svg>
