<svg width="134" height="100" viewBox="0 0 134 100" fill="none" xmlns="http://www.w3.org/2000/svg">
<path d="M47.1325 96.6887C53.755 95.3642 56.404 88.7417 55.7418 83.4437H76.9338C76.2716 88.7417 78.9206 95.3642 85.5431 96.6887V99.3378H47.1325V96.6887Z" fill="#0D469F"/>
<path fill-rule="evenodd" clip-rule="evenodd" d="M54.9916 82.7815H77.684L77.591 83.5258C76.9546 88.6173 79.5118 94.8071 85.673 96.0393L86.2054 96.1458V100H46.4703V96.1458L47.0026 96.0393C53.1639 94.8071 55.7211 88.6173 55.0847 83.5258L54.9916 82.7815ZM56.4704 84.106C56.8245 89.3404 54.1777 95.639 47.7948 97.2191V98.6755H84.8809V97.2191C78.498 95.639 75.8512 89.3404 76.2052 84.106H56.4704Z" fill="#0D469F"/>
<path d="M0.774902 6.62252C0.774902 2.965 3.7399 0 7.39742 0H126.603C130.26 0 133.225 2.965 133.225 6.62252V76.8212C133.225 80.4787 130.26 83.4437 126.603 83.4437H7.39742C3.73991 83.4437 0.774902 80.4787 0.774902 76.8212V6.62252Z" fill="#0D469F"/>
<path d="M7.39742 6.62252C7.39742 5.89101 7.99042 5.29801 8.72192 5.29801H125.278C126.01 5.29801 126.603 5.89101 126.603 6.62252V66.9246C126.603 67.6561 126.01 68.2491 125.278 68.2491H8.72193C7.99042 68.2491 7.39742 67.6561 7.39742 66.9246V6.62252Z" fill="#FDFDFD"/>
<path d="M0.774902 71.5232H133.225V76.8212C133.225 80.4787 130.26 83.4437 126.603 83.4437H7.39742C3.73991 83.4437 0.774902 80.4787 0.774902 76.8212V71.5232Z" fill="#225BB8"/>
<path d="M8.72192 6.62252H125.278V10.596H8.72192V6.62252Z" fill="#BB0E1B"/>
<path d="M20.6425 21.1921H113.358V54.3046H20.6425V21.1921Z" fill="#90C8F7"/>
<path d="M27.0372 32.0636V34.3523C27.0372 34.6031 27.1026 34.7956 27.2333 34.9298C27.364 35.0605 27.5476 35.1258 27.7843 35.1258C28.0244 35.1258 28.2099 35.0605 28.3406 34.9298C28.4712 34.7956 28.5366 34.6031 28.5366 34.3523V32.0636H29.2836V34.347C29.2836 34.6614 29.2147 34.928 29.077 35.147C28.9428 35.3625 28.7609 35.525 28.5313 35.6344C28.3052 35.7439 28.0527 35.7987 27.7737 35.7987C27.4982 35.7987 27.2474 35.7439 27.0213 35.6344C26.7988 35.525 26.6222 35.3625 26.4915 35.147C26.3609 34.928 26.2955 34.6614 26.2955 34.347V32.0636H27.0372Z" fill="#0D469F"/>
<path d="M31.4103 35.8093C31.1702 35.8093 30.9547 35.7669 30.764 35.6821C30.5733 35.5938 30.4214 35.4755 30.3084 35.3272C30.1989 35.1788 30.1388 35.0146 30.1282 34.8344H30.8752C30.8894 34.9475 30.9441 35.0411 31.0395 35.1152C31.1384 35.1894 31.2602 35.2265 31.405 35.2265C31.5463 35.2265 31.6558 35.1982 31.7335 35.1417C31.8148 35.0852 31.8554 35.0128 31.8554 34.9245C31.8554 34.8292 31.8059 34.7585 31.707 34.7126C31.6117 34.6631 31.458 34.6102 31.2461 34.5537C31.0271 34.5007 30.847 34.4459 30.7057 34.3894C30.568 34.3329 30.4479 34.2464 30.3454 34.1298C30.2465 34.0133 30.1971 33.8561 30.1971 33.6583C30.1971 33.4958 30.243 33.3475 30.3348 33.2133C30.4302 33.079 30.5644 32.9731 30.7375 32.8954C30.9141 32.8177 31.1207 32.7788 31.3574 32.7788C31.707 32.7788 31.9861 32.8671 32.1944 33.0437C32.4028 33.2168 32.5176 33.4517 32.5388 33.7484H31.8289C31.8183 33.6318 31.7688 33.54 31.6805 33.4729C31.5958 33.4022 31.481 33.3669 31.3362 33.3669C31.202 33.3669 31.0978 33.3916 31.0236 33.4411C30.9529 33.4905 30.9176 33.5594 30.9176 33.6477C30.9176 33.7466 30.9671 33.8225 31.066 33.8755C31.1649 33.925 31.3185 33.9762 31.5269 34.0292C31.7388 34.0821 31.9137 34.1369 32.0514 34.1934C32.1891 34.2499 32.3075 34.3382 32.4064 34.4583C32.5088 34.5748 32.5618 34.7303 32.5653 34.9245C32.5653 35.0941 32.5176 35.2459 32.4223 35.3801C32.3304 35.5144 32.1962 35.6203 32.0196 35.698C31.8465 35.7722 31.6435 35.8093 31.4103 35.8093Z" fill="#0D469F"/>
<path d="M36.1896 34.2305C36.1896 34.3364 36.1825 34.4318 36.1684 34.5166H34.0227C34.0403 34.7285 34.1145 34.8945 34.2452 35.0146C34.3759 35.1347 34.5366 35.1947 34.7273 35.1947C35.0028 35.1947 35.1988 35.0764 35.3154 34.8397H36.1154C36.0306 35.1223 35.8682 35.3554 35.628 35.5391C35.3878 35.7192 35.0929 35.8093 34.7432 35.8093C34.4606 35.8093 34.2063 35.7475 33.9803 35.6239C33.7578 35.4967 33.5829 35.3183 33.4558 35.0888C33.3322 34.8592 33.2704 34.5943 33.2704 34.2941C33.2704 33.9903 33.3322 33.7236 33.4558 33.494C33.5794 33.2645 33.7525 33.0879 33.975 32.9642C34.1975 32.8406 34.4536 32.7788 34.7432 32.7788C35.0222 32.7788 35.2712 32.8389 35.4902 32.959C35.7127 33.079 35.8841 33.2503 36.0041 33.4729C36.1278 33.6918 36.1896 33.9444 36.1896 34.2305ZM35.4214 34.0186C35.4178 33.8278 35.3489 33.6759 35.2147 33.5629C35.0805 33.4464 34.9163 33.3881 34.722 33.3881C34.5384 33.3881 34.3829 33.4446 34.2558 33.5576C34.1322 33.6671 34.0562 33.8208 34.028 34.0186H35.4214Z" fill="#0D469F"/>
<path d="M37.7596 33.2821C37.855 33.1267 37.9786 33.0049 38.1305 32.9166C38.2859 32.8283 38.4625 32.7841 38.6603 32.7841V33.5629H38.4642C38.2311 33.5629 38.0545 33.6177 37.9344 33.7272C37.8179 33.8367 37.7596 34.0274 37.7596 34.2993V35.7616H37.0179V32.8265H37.7596V33.2821Z" fill="#0D469F"/>
<path d="M39.7753 35.7987C39.641 35.7987 39.5298 35.7581 39.4415 35.6768C39.3567 35.5921 39.3143 35.4879 39.3143 35.3643C39.3143 35.2406 39.3567 35.1382 39.4415 35.057C39.5298 34.9722 39.641 34.9298 39.7753 34.9298C39.9059 34.9298 40.0137 34.9722 40.0984 35.057C40.1832 35.1382 40.2256 35.2406 40.2256 35.3643C40.2256 35.4879 40.1832 35.5921 40.0984 35.6768C40.0137 35.7581 39.9059 35.7987 39.7753 35.7987ZM39.7753 33.6053C39.641 33.6053 39.5298 33.5647 39.4415 33.4835C39.3567 33.3987 39.3143 33.2945 39.3143 33.1709C39.3143 33.0473 39.3567 32.9448 39.4415 32.8636C39.5298 32.7788 39.641 32.7364 39.7753 32.7364C39.9059 32.7364 40.0137 32.7788 40.0984 32.8636C40.1832 32.9448 40.2256 33.0473 40.2256 33.1709C40.2256 33.2945 40.1832 33.3987 40.0984 33.4835C40.0137 33.5647 39.9059 33.6053 39.7753 33.6053Z" fill="#0D469F"/>
<path d="M29.0026 43.804C29.0026 44.0018 28.9549 44.1872 28.8595 44.3603C28.7677 44.5334 28.6211 44.6729 28.4198 44.7789C28.222 44.8848 27.9712 44.9378 27.6675 44.9378H27.0476V46.3577H26.3059V42.6597H27.6675C27.9536 42.6597 28.1973 42.7091 28.3986 42.808C28.5999 42.9069 28.75 43.0429 28.8489 43.2159C28.9513 43.389 29.0026 43.585 29.0026 43.804ZM27.6357 44.3391C27.8405 44.3391 27.9924 44.2932 28.0913 44.2014C28.1902 44.106 28.2396 43.9736 28.2396 43.804C28.2396 43.4438 28.0383 43.2636 27.6357 43.2636H27.0476V44.3391H27.6357Z" fill="#0D469F"/>
<path d="M29.6254 44.8795C29.6254 44.5828 29.6836 44.3197 29.8002 44.0901C29.9203 43.8605 30.081 43.6839 30.2823 43.5603C30.4872 43.4367 30.715 43.3749 30.9658 43.3749C31.1847 43.3749 31.3755 43.419 31.538 43.5073C31.704 43.5956 31.8364 43.7069 31.9353 43.8411V43.4226H32.6823V46.3577H31.9353V45.9285C31.8399 46.0663 31.7075 46.1811 31.538 46.2729C31.3719 46.3612 31.1795 46.4053 30.9605 46.4053C30.7132 46.4053 30.4872 46.3418 30.2823 46.2146C30.081 46.0875 29.9203 45.9091 29.8002 45.6795C29.6836 45.4464 29.6254 45.1797 29.6254 44.8795ZM31.9353 44.8901C31.9353 44.71 31.9 44.5563 31.8293 44.4292C31.7587 44.2985 31.6633 44.1996 31.5432 44.1325C31.4232 44.0619 31.2942 44.0265 31.1565 44.0265C31.0187 44.0265 30.8916 44.0601 30.775 44.1272C30.6585 44.1943 30.5631 44.2932 30.4889 44.4239C30.4183 44.551 30.383 44.7029 30.383 44.8795C30.383 45.0561 30.4183 45.2115 30.4889 45.3457C30.5631 45.4764 30.6585 45.5771 30.775 45.6477C30.8951 45.7184 31.0223 45.7537 31.1565 45.7537C31.2942 45.7537 31.4232 45.7201 31.5432 45.653C31.6633 45.5824 31.7587 45.4835 31.8293 45.3563C31.9 45.2257 31.9353 45.0703 31.9353 44.8901Z" fill="#0D469F"/>
<path d="M34.8168 46.4053C34.5767 46.4053 34.3612 46.363 34.1705 46.2782C33.9798 46.1899 33.8279 46.0716 33.7149 45.9232C33.6054 45.7749 33.5453 45.6106 33.5347 45.4305H34.2817C34.2959 45.5435 34.3506 45.6371 34.446 45.7113C34.5449 45.7855 34.6667 45.8226 34.8115 45.8226C34.9528 45.8226 35.0623 45.7943 35.14 45.7378C35.2213 45.6813 35.2619 45.6089 35.2619 45.5206C35.2619 45.4252 35.2124 45.3546 35.1135 45.3087C35.0182 45.2592 34.8645 45.2062 34.6526 45.1497C34.4336 45.0967 34.2535 45.042 34.1122 44.9855C33.9745 44.929 33.8544 44.8424 33.7519 44.7259C33.653 44.6093 33.6036 44.4521 33.6036 44.2544C33.6036 44.0919 33.6495 43.9435 33.7413 43.8093C33.8367 43.6751 33.9709 43.5691 34.144 43.4914C34.3206 43.4137 34.5272 43.3749 34.7639 43.3749C35.1135 43.3749 35.3926 43.4632 35.601 43.6398C35.8093 43.8129 35.9241 44.0477 35.9453 44.3444H35.2354C35.2248 44.2279 35.1753 44.136 35.087 44.0689C35.0023 43.9983 34.8875 43.963 34.7427 43.963C34.6085 43.963 34.5043 43.9877 34.4301 44.0371C34.3594 44.0866 34.3241 44.1555 34.3241 44.2438C34.3241 44.3427 34.3736 44.4186 34.4725 44.4716C34.5714 44.521 34.725 44.5722 34.9334 44.6252C35.1453 44.6782 35.3202 44.7329 35.4579 44.7895C35.5957 44.846 35.714 44.9343 35.8129 45.0544C35.9153 45.1709 35.9683 45.3263 35.9718 45.5206C35.9718 45.6901 35.9241 45.842 35.8288 45.9762C35.7369 46.1104 35.6027 46.2164 35.4261 46.2941C35.253 46.3683 35.05 46.4053 34.8168 46.4053Z" fill="#0D469F"/>
<path d="M37.9908 46.4053C37.7506 46.4053 37.5351 46.363 37.3444 46.2782C37.1537 46.1899 37.0018 46.0716 36.8888 45.9232C36.7793 45.7749 36.7192 45.6106 36.7087 45.4305H37.4557C37.4698 45.5435 37.5245 45.6371 37.6199 45.7113C37.7188 45.7855 37.8407 45.8226 37.9855 45.8226C38.1268 45.8226 38.2362 45.7943 38.314 45.7378C38.3952 45.6813 38.4358 45.6089 38.4358 45.5206C38.4358 45.4252 38.3864 45.3546 38.2875 45.3087C38.1921 45.2592 38.0385 45.2062 37.8265 45.1497C37.6075 45.0967 37.4274 45.042 37.2861 44.9855C37.1484 44.929 37.0283 44.8424 36.9259 44.7259C36.827 44.6093 36.7775 44.4521 36.7775 44.2544C36.7775 44.0919 36.8234 43.9435 36.9153 43.8093C37.0106 43.6751 37.1449 43.5691 37.3179 43.4914C37.4945 43.4137 37.7011 43.3749 37.9378 43.3749C38.2875 43.3749 38.5665 43.4632 38.7749 43.6398C38.9833 43.8129 39.0981 44.0477 39.1193 44.3444H38.4093C38.3987 44.2279 38.3493 44.136 38.261 44.0689C38.1762 43.9983 38.0614 43.963 37.9166 43.963C37.7824 43.963 37.6782 43.9877 37.604 44.0371C37.5334 44.0866 37.4981 44.1555 37.4981 44.2438C37.4981 44.3427 37.5475 44.4186 37.6464 44.4716C37.7453 44.521 37.8989 44.5722 38.1073 44.6252C38.3193 44.6782 38.4941 44.7329 38.6318 44.7895C38.7696 44.846 38.8879 44.9343 38.9868 45.0544C39.0892 45.1709 39.1422 45.3263 39.1457 45.5206C39.1457 45.6901 39.0981 45.842 39.0027 45.9762C38.9109 46.1104 38.7766 46.2164 38.6 46.2941C38.427 46.3683 38.2239 46.4053 37.9908 46.4053Z" fill="#0D469F"/>
<path d="M44.1104 43.4226L43.2521 46.3577H42.4521L41.917 44.3073L41.3819 46.3577H40.5766L39.713 43.4226H40.4654L40.9846 45.6583L41.5462 43.4226H42.3303L42.8813 45.653L43.4005 43.4226H44.1104Z" fill="#0D469F"/>
<path d="M46.102 46.4053C45.8194 46.4053 45.5651 46.3435 45.339 46.2199C45.113 46.0928 44.9346 45.9144 44.8039 45.6848C44.6768 45.4552 44.6132 45.1903 44.6132 44.8901C44.6132 44.5899 44.6786 44.325 44.8092 44.0954C44.9435 43.8658 45.1254 43.6892 45.3549 43.5656C45.5845 43.4385 45.8406 43.3749 46.1231 43.3749C46.4057 43.3749 46.6618 43.4385 46.8914 43.5656C47.1209 43.6892 47.3011 43.8658 47.4318 44.0954C47.566 44.325 47.6331 44.5899 47.6331 44.8901C47.6331 45.1903 47.5642 45.4552 47.4265 45.6848C47.2922 45.9144 47.1086 46.0928 46.8755 46.2199C46.6459 46.3435 46.3881 46.4053 46.102 46.4053ZM46.102 45.759C46.2362 45.759 46.3616 45.7272 46.4781 45.6636C46.5982 45.5965 46.6936 45.4976 46.7642 45.3669C46.8348 45.2363 46.8702 45.0773 46.8702 44.8901C46.8702 44.6111 46.796 44.3974 46.6477 44.2491C46.5028 44.0972 46.3245 44.0212 46.1126 44.0212C45.9006 44.0212 45.7223 44.0972 45.5775 44.2491C45.4362 44.3974 45.3655 44.6111 45.3655 44.8901C45.3655 45.1691 45.4344 45.3846 45.5722 45.5365C45.7134 45.6848 45.89 45.759 46.102 45.759Z" fill="#0D469F"/>
<path d="M49.2058 43.8782C49.3012 43.7228 49.4248 43.6009 49.5767 43.5126C49.7321 43.4243 49.9087 43.3802 50.1065 43.3802V44.159H49.9104C49.6773 44.159 49.5007 44.2137 49.3806 44.3232C49.2641 44.4327 49.2058 44.6235 49.2058 44.8954V46.3577H48.4641V43.4226H49.2058V43.8782Z" fill="#0D469F"/>
<path d="M50.7023 44.8795C50.7023 44.5828 50.7605 44.3197 50.8771 44.0901C50.9972 43.8605 51.1597 43.6839 51.3645 43.5603C51.5694 43.4367 51.7972 43.3749 52.048 43.3749C52.2387 43.3749 52.4206 43.4173 52.5936 43.502C52.7667 43.5833 52.9045 43.6928 53.0069 43.8305V42.4371H53.7592V46.3577H53.0069V45.9232C52.9151 46.068 52.7861 46.1846 52.6201 46.2729C52.4541 46.3612 52.2616 46.4053 52.0427 46.4053C51.7954 46.4053 51.5694 46.3418 51.3645 46.2146C51.1597 46.0875 50.9972 45.9091 50.8771 45.6795C50.7605 45.4464 50.7023 45.1797 50.7023 44.8795ZM53.0122 44.8901C53.0122 44.71 52.9769 44.5563 52.9062 44.4292C52.8356 44.2985 52.7402 44.1996 52.6201 44.1325C52.5 44.0619 52.3711 44.0265 52.2334 44.0265C52.0956 44.0265 51.9685 44.0601 51.8519 44.1272C51.7354 44.1943 51.64 44.2932 51.5658 44.4239C51.4952 44.551 51.4599 44.7029 51.4599 44.8795C51.4599 45.0561 51.4952 45.2115 51.5658 45.3457C51.64 45.4764 51.7354 45.5771 51.8519 45.6477C51.972 45.7184 52.0992 45.7537 52.2334 45.7537C52.3711 45.7537 52.5 45.7201 52.6201 45.653C52.7402 45.5824 52.8356 45.4835 52.9062 45.3563C52.9769 45.2257 53.0122 45.0703 53.0122 44.8901Z" fill="#0D469F"/>
<path d="M55.099 46.3948C54.9648 46.3948 54.8536 46.3541 54.7653 46.2729C54.6805 46.1881 54.6381 46.0839 54.6381 45.9603C54.6381 45.8367 54.6805 45.7343 54.7653 45.653C54.8536 45.5683 54.9648 45.5259 55.099 45.5259C55.2297 45.5259 55.3374 45.5683 55.4222 45.653C55.507 45.7343 55.5494 45.8367 55.5494 45.9603C55.5494 46.0839 55.507 46.1881 55.4222 46.2729C55.3374 46.3541 55.2297 46.3948 55.099 46.3948ZM55.099 44.2014C54.9648 44.2014 54.8536 44.1608 54.7653 44.0795C54.6805 43.9948 54.6381 43.8906 54.6381 43.7669C54.6381 43.6433 54.6805 43.5409 54.7653 43.4597C54.8536 43.3749 54.9648 43.3325 55.099 43.3325C55.2297 43.3325 55.3374 43.3749 55.4222 43.4597C55.507 43.5409 55.5494 43.6433 55.5494 43.7669C55.5494 43.8906 55.507 43.9948 55.4222 44.0795C55.3374 44.1608 55.2297 44.2014 55.099 44.2014Z" fill="#0D469F"/>
<path d="M44.4835 30.4636H108.06V37.0861H44.4835V30.4636Z" fill="#DDF2FE"/>
<path d="M59.053 41.0596H108.06V47.6821H59.053V41.0596Z" fill="#DDF2FE"/>
</svg>
