<svg xmlns="http://www.w3.org/2000/svg" viewBox="0 0 500 500"><g id="freepik--envelope-1--inject-136"><g id="freepik--message--inject-136"><path d="M457.57,130.63a3.85,3.85,0,0,0-1.73-3L367.35,76.54a3.83,3.83,0,0,0-3.46,0l-1.95,1.13a3.8,3.8,0,0,0-1.73,3v67.83a3.85,3.85,0,0,0,1.73,3l88.49,51.09a3.83,3.83,0,0,0,3.46,0l1.95-1.13a3.83,3.83,0,0,0,1.73-3Z" style="fill:#407BFF"></path><path d="M457.57,130.63a3.85,3.85,0,0,0-1.73-3L367.35,76.54a3.83,3.83,0,0,0-3.46,0l-1.95,1.13a3.8,3.8,0,0,0-1.73,3v67.83a3.85,3.85,0,0,0,1.73,3l88.49,51.09a3.83,3.83,0,0,0,3.46,0l1.95-1.13a3.83,3.83,0,0,0,1.73-3Z" style="fill:#fff;opacity:0.5"></path><path d="M449.45,133.32l7.61-4.39a3.55,3.55,0,0,1,.51,1.7v67.83a3.83,3.83,0,0,1-1.73,3l-1.95,1.13a3.83,3.83,0,0,1-3.46,0l-1-.56Z" style="fill:#407BFF"></path><path d="M360.21,80.67V148.5a3.5,3.5,0,0,0,.54,1.75,3.57,3.57,0,0,0,1,1.13l.06,0,.12.07,88.49,51.09h0a1.24,1.24,0,0,0,1.18.14,1.21,1.21,0,0,0,.54-1.14V133.75a1.5,1.5,0,0,0-2-1.53L413,141.07l-4.87,1.15a3.19,3.19,0,0,1-3.11-1.16l-5.65-7.86-38-52.91C360.73,79.4,360.21,79.56,360.21,80.67Z" style="fill:#407BFF"></path><path d="M360.21,80.67V148.5a3.5,3.5,0,0,0,.54,1.75,3.57,3.57,0,0,0,1,1.13l.06,0,.12.07,88.49,51.09h0a1.24,1.24,0,0,0,1.18.14,1.21,1.21,0,0,0,.54-1.14V133.75a1.5,1.5,0,0,0-2-1.53L413,141.07l-4.87,1.15a3.19,3.19,0,0,1-3.11-1.16l-5.65-7.86-38-52.91C360.73,79.4,360.21,79.56,360.21,80.67Z" style="fill:#fff;opacity:0.2"></path><path d="M361.94,151.49l-.12-.07-.06,0a3.93,3.93,0,0,1-1.55-2.86l39.16-15.32L373.15,158Z" style="fill:#407BFF"></path><path d="M361.94,151.49l-.12-.07-.06,0a3.93,3.93,0,0,1-1.55-2.86l39.16-15.32L373.15,158Z" style="fill:#407BFF"></path><path d="M361.94,151.49l-.12-.07-.06,0a3.93,3.93,0,0,1-1.55-2.86l39.16-15.32L373.15,158Z" style="opacity:0.2"></path><path d="M452.16,201.58a1.21,1.21,0,0,1-.54,1.14,1.24,1.24,0,0,1-1.18-.14h0L420,185l-7-43.92,39.16,59.38Z" style="fill:#407BFF"></path><path d="M452.16,201.58a1.21,1.21,0,0,1-.54,1.14,1.24,1.24,0,0,1-1.18-.14h0L420,185l-7-43.92,39.16,59.38Z" style="fill:#407BFF"></path><path d="M452.16,201.58a1.21,1.21,0,0,1-.54,1.14,1.24,1.24,0,0,1-1.18-.14h0L420,185l-7-43.92,39.16,59.38Z" style="opacity:0.2"></path><path d="M360.75,150.25a3.57,3.57,0,0,0,1,1.13l.06,0,88.61,51.16h0a1.24,1.24,0,0,0,1.18.14l-42.38-67.65a6.67,6.67,0,0,0-8.33-2.56Z" style="fill:#407BFF"></path><path d="M360.75,150.25a3.57,3.57,0,0,0,1,1.13l.06,0,88.61,51.16h0a1.24,1.24,0,0,0,1.18.14l-42.38-67.65a6.67,6.67,0,0,0-8.33-2.56Z" style="fill:#fff;opacity:0.2"></path><path d="M451.44,132.13,411.18,149.9a6.58,6.58,0,0,1-8.25-2.53L360.65,79.71Z" style="fill:#407BFF"></path><path d="M451.44,132.13,411.18,149.9a6.58,6.58,0,0,1-8.25-2.53L360.65,79.71Z" style="opacity:0.2"></path><path d="M451.44,132.13l-40.55,15.15a6.6,6.6,0,0,1-7.82-2.57l-42.42-65Z" style="fill:#407BFF"></path><path d="M451.44,132.13l-40.55,15.15a6.6,6.6,0,0,1-7.82-2.57l-42.42-65Z" style="fill:#fff;opacity:0.2"></path></g></g><g id="freepik--Device--inject-136"><g id="freepik--device--inject-136"><g id="freepik--Mobile--inject-136"><path d="M177.74,385.89,262.79,435a9.14,9.14,0,0,0,8.87.17l171.22-98.86c1.89-1.09,4.84-3.54,4.82-6.55,0-1.63.07-3.3.07-4.13,0-2.74-2.19-6.22-4.88-7.78l-84.74-48.92a10.84,10.84,0,0,0-9.77,0L177.74,367.44c-2.7,1.55-4.88,5-4.88,7.78,0,.21,0,2.87,0,3.13C172.9,382.14,175.26,384.46,177.74,385.89Z" style="fill:#37474f"></path><path d="M262.79,435l-85.05-49.09c-2.2-1.27-4.84-3.32-4.84-7.54,0-.71,0-2.63,0-3.13,0-2.74,2.18-6.23,4.88-7.78l89.68-51.78V436.2A9,9,0,0,1,262.79,435Z" style="fill:#263238"></path><path d="M264.81,423.34a9.53,9.53,0,0,0,8.61,0l169.49-97.85c3.64-2.1,3.64-5.54,0-7.65l-84.75-48.93a10.85,10.85,0,0,0-9.77,0L177.75,367.44c-2.69,1.55-2.69,4.09,0,5.64Z" style="fill:#455a64"></path><path d="M273,413.49a10.25,10.25,0,0,0,9.28,0l145.84-84.2c2.56-1.48,2.56-3.88,0-5.36l-79.72-46a10.34,10.34,0,0,0-9.29,0l-145.83,84.2c-2.55,1.47-2.55,3.88,0,5.36Z" style="fill:#37474f"></path><path d="M344.08,276.82a9.35,9.35,0,0,1,4.36,1.09l79.72,46c2.56,1.48,2.56,3.88,0,5.36l-15.8,9.13-68.28-43.61Z" style="fill:#263238"></path><path d="M399,302.41l-14.13-8.16c-.84-.49-.89-1.25-.1-1.71a3.26,3.26,0,0,1,3,.06l14.13,8.15c.84.49.89,1.25.1,1.71A3.29,3.29,0,0,1,399,302.41Z" style="fill:#263238"></path><path d="M374.76,288.42a.87.87,0,0,1,0-1.65,3.14,3.14,0,0,1,2.86,0,.87.87,0,0,1,0,1.65A3.14,3.14,0,0,1,374.76,288.42Z" style="fill:#263238"></path><path d="M369,285.11a.88.88,0,0,1,0-1.66,3.2,3.2,0,0,1,2.86,0,.88.88,0,0,1,0,1.66A3.2,3.2,0,0,1,369,285.11Z" style="fill:#263238"></path><path d="M414.85,311.56a.87.87,0,0,1,0-1.65,3.14,3.14,0,0,1,2.86,0,.87.87,0,0,1,0,1.65A3.14,3.14,0,0,1,414.85,311.56Z" style="fill:#263238"></path><path d="M409.12,308.25a.87.87,0,0,1,0-1.65,3.16,3.16,0,0,1,2.87,0,.87.87,0,0,1,0,1.65A3.16,3.16,0,0,1,409.12,308.25Z" style="fill:#263238"></path></g><g id="freepik--window--inject-136"><path d="M339.1,281.39a10.32,10.32,0,0,1,9.28,0l79.72,46a4.74,4.74,0,0,1,1.22,1,5,5,0,0,1-1.16.9l-145.84,84.2a10.25,10.25,0,0,1-9.28,0l-79.72-46a5.07,5.07,0,0,1-1.21-1,5,5,0,0,1,1.15-.92Z" style="fill:#fafafa"></path><g id="freepik--window--inject-136"><path d="M336.78,291a.66.66,0,0,1-.15-.33l-.24-1.92a.36.36,0,0,1,.39-.43l3.32.14a.79.79,0,0,1,.68.56.36.36,0,0,1-.37.51l-2.87-.11.18,1.47c0,.29-.18.47-.48.41A.75.75,0,0,1,336.78,291Z" style="fill:#455a64"></path><path d="M404.38,327.76a2,2,0,0,1-1.83-.08c-.54-.31-.6-.78-.13-1.05a2,2,0,0,1,1.83.07C404.79,327,404.85,327.49,404.38,327.76Z" style="fill:#455a64"></path><path d="M408.52,330.15a2,2,0,0,1-1.83-.08c-.54-.31-.6-.78-.13-1.05a2,2,0,0,1,1.83.07C408.93,329.41,409,329.88,408.52,330.15Z" style="fill:#455a64"></path><path d="M412.66,332.54a2,2,0,0,1-1.83-.08c-.54-.31-.6-.78-.13-1a2,2,0,0,1,1.83.07C413.07,331.8,413.13,332.27,412.66,332.54Z" style="fill:#455a64"></path></g><path d="M397,333.9l-62.68-36.19a4.9,4.9,0,0,0-4.4-.18l-4.1,2.4a3.12,3.12,0,0,1-1.22-3.54,6.86,6.86,0,0,0-2.06,5.45l-11,6.43c-1.12.65-1,1.78.32,2.54L374.5,347a4.88,4.88,0,0,0,4.39.18l18.4-10.74C398.41,335.79,398.27,334.66,397,333.9Z" style="fill:#e0e0e0"></path><path d="M272.82,399.7l-62.69-36.19a4.88,4.88,0,0,0-4.39-.18l-3.45,2c-1.12.65-1,1.79.32,2.54l62.68,36.19a4.88,4.88,0,0,0,4.39.18l3.45-2C274.26,401.59,274.12,400.45,272.82,399.7Z" style="fill:#e0e0e0"></path><path d="M283.81,406.05l-2.87-1.67a4.88,4.88,0,0,0-4.39-.18l-3.45,2c-1.12.65-1,1.78.32,2.53l2.87,1.68a4.88,4.88,0,0,0,4.39.18l3.45-2C285.25,407.93,285.11,406.8,283.81,406.05Z" style="fill:#e0e0e0"></path></g></g></g><g id="freepik--speech-bubble--inject-136"><g id="freepik--speech-bubble--inject-136"><g id="freepik--speech-bubble--inject-136"><path d="M400.31,246.44l-2.1-6.54c-1.12-5.28,20.42,7.16,21.55,12.44L412.81,271a2.9,2.9,0,0,1-1.16,1.36c-1.52.93-7.14,4.1-7.63,4.4a3,3,0,0,1-4.43-1.65l-9-30.84C390,241.69,395,243.41,400.31,246.44Z" style="fill:#407BFF"></path><path d="M372.89,177.64l81.91,47.25a6.11,6.11,0,0,1,2.77,4.79V271a6.06,6.06,0,0,1-2.79,4.77l-5.06,2.86a6.18,6.18,0,0,1-5.56,0l-81.9-47.24a6.13,6.13,0,0,1-2.77-4.8V185.25a6,6,0,0,1,2.79-4.77l5.06-2.87A6.23,6.23,0,0,1,372.89,177.64Z" style="fill:#407BFF"></path><path d="M362.26,183.65l81.91,47.25a6.13,6.13,0,0,1,2.76,4.79V277c0,1.76-1.24,2.48-2.76,1.59L411,259.46l-5.75,16a3,3,0,0,1-5.61-.28l-7.8-26.74-29.53-17a6.13,6.13,0,0,1-2.77-4.8V185.25C359.49,183.48,360.73,182.77,362.26,183.65Z" style="fill:#fafafa"></path><path d="M361,184.47h0a1.28,1.28,0,0,1,.64.21l81.91,47.25a5,5,0,0,1,2.17,3.76V277c0,.18,0,.78-.34.78a1.34,1.34,0,0,1-.64-.22l-33.21-19.16-1.24-.71-.48,1.34L404.08,275a1.8,1.8,0,0,1-3.34-.17l-7.8-26.74-.14-.47-.41-.24-29.53-17a4.94,4.94,0,0,1-2.17-3.76V185.25c0-.19,0-.78.33-.78m0-1.2c-.9,0-1.53.72-1.53,2v41.32a6.13,6.13,0,0,0,2.77,4.8l29.53,17,7.8,26.74a3,3,0,0,0,5.61.28l5.75-16,33.22,19.15a2.45,2.45,0,0,0,1.23.38c.91,0,1.53-.72,1.53-2V235.69a6.13,6.13,0,0,0-2.76-4.79l-81.91-47.25a2.46,2.46,0,0,0-1.24-.38Z" style="fill:#e0e0e0"></path><path d="M359.53,184.74c.22-1.39,1.35-1.89,2.74-1.1l81.89,47.26a5.6,5.6,0,0,1,2,2.07l10.58-6.11a5.48,5.48,0,0,0-1.91-2l-81.9-47.25a6.16,6.16,0,0,0-5.55,0l-5.06,2.86A6.1,6.1,0,0,0,359.53,184.74Z" style="fill:#fff;opacity:0.2"></path></g><path d="M367.25,206.64a1.33,1.33,0,0,1-.09-.54.44.44,0,0,1,.17-.34l3.44-2.18a1.26,1.26,0,0,1,.26-.13.31.31,0,0,1,.29,0l1.24.71a.9.9,0,0,1,.3.37,1.34,1.34,0,0,1,.13.54v15.76a.55.55,0,0,1-.13.39.23.23,0,0,1-.3,0l-1.29-.74a.9.9,0,0,1-.3-.37,1.32,1.32,0,0,1-.12-.54V207.57L368.6,209a.26.26,0,0,1-.31,0,1,1,0,0,1-.29-.43Z" style="fill:#455a64"></path><path d="M381.11,216.65a1.38,1.38,0,0,0,.61-.85,4.19,4.19,0,0,0,.14-1,4.77,4.77,0,0,0-.4-1.93,3,3,0,0,0-1.31-1.45c-.58-.33-1-.36-1.28-.08a2.74,2.74,0,0,0-.58,1.35c0,.19-.09.32-.19.37a.26.26,0,0,1-.28,0l-1.25-.72a.87.87,0,0,1-.31-.36,1.08,1.08,0,0,1-.12-.55,5.69,5.69,0,0,1,.36-1.86,3,3,0,0,1,.85-1.22,2,2,0,0,1,1.24-.44,3,3,0,0,1,1.54.46,6.2,6.2,0,0,1,1.73,1.5,9.58,9.58,0,0,1,1.2,2,10.92,10.92,0,0,1,.71,2.16A10.21,10.21,0,0,1,384,216c0,.4,0,.78-.05,1.13a3.72,3.72,0,0,1-.22,1,3.25,3.25,0,0,1-.51.85,3.83,3.83,0,0,1-.89.77l-2.93,2.43,4.41,2.54a.9.9,0,0,1,.3.37,1.32,1.32,0,0,1,.12.54v1.73a.54.54,0,0,1-.12.39.23.23,0,0,1-.3,0l-7.4-4.27a.77.77,0,0,1-.3-.37,1.18,1.18,0,0,1-.13-.53V221.1a1,1,0,0,1,.16-.63.85.85,0,0,1,.27-.27Z" style="fill:#455a64"></path><path d="M394.59,216.92a.79.79,0,0,1,.31.37,1.28,1.28,0,0,1,.12.53v1.73a.74.74,0,0,1-.12.44,2,2,0,0,1-.23.27l-2.31,2.42a7.44,7.44,0,0,1,1.29,1.28,7.78,7.78,0,0,1,1,1.58,8.7,8.7,0,0,1,.64,1.84,9.78,9.78,0,0,1,.22,2,5.47,5.47,0,0,1-.33,2.07,2.19,2.19,0,0,1-.9,1.15,2.12,2.12,0,0,1-1.36.26,4.38,4.38,0,0,1-1.71-.61,8.05,8.05,0,0,1-1.92-1.52,9.91,9.91,0,0,1-1.36-1.82,8.45,8.45,0,0,1-.83-1.92,8,8,0,0,1-.34-1.78.45.45,0,0,1,.12-.4.25.25,0,0,1,.31,0l1.25.72a.73.73,0,0,1,.26.31,5.62,5.62,0,0,1,.22.58,4.78,4.78,0,0,0,.25.69,4.4,4.4,0,0,0,.42.71,4.75,4.75,0,0,0,.66.71,6,6,0,0,0,1,.68,1.81,1.81,0,0,0,1.57.3c.39-.17.59-.62.59-1.35a3.24,3.24,0,0,0-.59-1.92,5,5,0,0,0-1.57-1.37l-1.31-.76a.77.77,0,0,1-.3-.37,1.19,1.19,0,0,1-.13-.54v-1.73a.71.71,0,0,1,.12-.43,2.28,2.28,0,0,1,.23-.27l2.22-2.31L387.66,216a.77.77,0,0,1-.3-.37,1.19,1.19,0,0,1-.13-.54v-1.73a.5.5,0,0,1,.13-.39.23.23,0,0,1,.3,0Z" style="fill:#455a64"></path><path d="M398.82,230.58a.9.9,0,0,1-.3-.37,1.32,1.32,0,0,1-.12-.54v-1.61a.54.54,0,0,1,.12-.39.23.23,0,0,1,.3,0l4.84,2.79a.9.9,0,0,1,.3.37,1.32,1.32,0,0,1,.12.54V233a.54.54,0,0,1-.12.39.24.24,0,0,1-.3,0Z" style="fill:#455a64"></path><path d="M412.51,244.34a.89.89,0,0,1-.3-.37,1.34,1.34,0,0,1-.13-.54v-3l-4.91-2.84a.83.83,0,0,1-.3-.37,1.29,1.29,0,0,1-.13-.53V235a1.15,1.15,0,0,1,.11-.54c.07-.13.15-.27.24-.41l4.85-6.52c.21-.28.43-.36.65-.23l1.2.69a.84.84,0,0,1,.31.37,1.32,1.32,0,0,1,.12.54v9.75l1.37.79a.9.9,0,0,1,.3.37,1.32,1.32,0,0,1,.12.54v1.73a.54.54,0,0,1-.12.39.23.23,0,0,1-.3,0l-1.37-.79v2.95a.54.54,0,0,1-.12.39.24.24,0,0,1-.31,0Zm-.43-6.91v-5.22l-2.7,3.66Z" style="fill:#455a64"></path><path d="M419.28,231.83a.58.58,0,0,1,.12-.4.24.24,0,0,1,.3,0l6,3.44a.77.77,0,0,1,.3.37,1.19,1.19,0,0,1,.13.54v1.73a.5.5,0,0,1-.13.39.23.23,0,0,1-.3,0l-4.45-2.57-.17,3a1.82,1.82,0,0,1,.84.18,7.45,7.45,0,0,1,.69.34,7.84,7.84,0,0,1,1.65,1.32,8.32,8.32,0,0,1,1.31,1.85,10.6,10.6,0,0,1,.88,2.27,10.46,10.46,0,0,1,.31,2.6,7.9,7.9,0,0,1-.32,2.48,2.66,2.66,0,0,1-.89,1.32,1.79,1.79,0,0,1-1.32.28,4.49,4.49,0,0,1-1.62-.6,7.94,7.94,0,0,1-1.87-1.48,8,8,0,0,1-1.3-1.81,8.32,8.32,0,0,1-.78-2,9.38,9.38,0,0,1-.29-2,.47.47,0,0,1,.12-.41.24.24,0,0,1,.3,0l1.29.74a.82.82,0,0,1,.28.32,1.74,1.74,0,0,1,.18.53,4.23,4.23,0,0,0,.3,1.09,3.9,3.9,0,0,0,.47.83,3,3,0,0,0,.6.63,6.22,6.22,0,0,0,.7.48,1.24,1.24,0,0,0,1.46.08,2.15,2.15,0,0,0,.55-1.75,4.55,4.55,0,0,0-.55-2.15,4.06,4.06,0,0,0-1.46-1.6,2.61,2.61,0,0,0-.75-.32,1,1,0,0,0-.45,0l-.32.08a.56.56,0,0,1-.36-.1l-1.46-.85a.69.69,0,0,1-.3-.36,1.19,1.19,0,0,1-.13-.54Z" style="fill:#455a64"></path><path d="M429.26,248.22a6.37,6.37,0,0,1,.33-2.2,8.93,8.93,0,0,1,.73-1.45l3-4.8a1.12,1.12,0,0,1,.16-.22c.07-.08.18-.07.33,0l1.42.83a.79.79,0,0,1,.31.37,1.24,1.24,0,0,1,.12.53.74.74,0,0,1,0,.18.35.35,0,0,1-.06.09l-2,3.21a7.34,7.34,0,0,1,1.72,1.46,10,10,0,0,1,1.35,2,11.14,11.14,0,0,1,1.18,5,7.14,7.14,0,0,1-.32,2.27,3,3,0,0,1-.89,1.39,2,2,0,0,1-1.36.44,3.63,3.63,0,0,1-1.74-.57,6.75,6.75,0,0,1-1.75-1.44,9.53,9.53,0,0,1-1.36-2,11.06,11.06,0,0,1-1.2-5.05Zm6.46,3.73a5.56,5.56,0,0,0-.56-2.41,4.07,4.07,0,0,0-1.59-1.76c-.69-.39-1.22-.42-1.6-.07a2.32,2.32,0,0,0-.56,1.76,5.68,5.68,0,0,0,.56,2.43,4,4,0,0,0,1.6,1.79c.68.39,1.21.41,1.59.05A2.43,2.43,0,0,0,435.72,252Z" style="fill:#455a64"></path></g></g></svg>