<svg width="129" height="25" viewBox="0 0 129 25" fill="none" xmlns="http://www.w3.org/2000/svg">
<g clip-path="url(#clip0_501_465)">
<path d="M8.16203 24.6147H3.3072V12.4813H0V8.53096H3.30707V5.71999C3.30707 2.38898 4.76979 0 9.61148 0C10.6355 0 12.2432 0.206929 12.2432 0.206929V3.87507H10.5546C8.83406 3.87507 8.16229 4.39975 8.16229 5.85032V8.53096H12.1788L11.8211 12.4813H8.16216L8.16203 24.6147ZM19.3016 8.21527C19.2308 8.21527 19.158 8.21786 19.086 8.21966C14.5843 8.21966 12.5247 11.6145 12.5247 16.4335C12.5247 22.5042 15.1963 24.9339 19.1212 24.9339C21.3667 24.9339 22.8421 23.9863 23.7388 22.218V24.6164H28.3564V8.53264H23.7388V11.0061C23.0066 9.41474 21.49 8.23413 19.3016 8.21527V8.21527ZM20.4757 12.0158C22.3664 12.0158 23.5012 13.338 23.5012 15.5869L23.5056 17.884C23.5056 19.3998 22.5683 21.1731 20.4757 21.1731C17.2585 21.1731 17.3445 17.6905 17.3445 16.5305C17.3445 12.6287 19.0586 12.0158 20.4757 12.0158V12.0158ZM30.2213 16.5753C30.2213 14.6209 30.128 8.22574 38.4387 8.22574C41.7748 8.22574 43.1678 9.28918 43.1678 9.28918L42.0482 12.7707C42.0482 12.7707 40.6569 12.0026 38.8442 12.0026C36.5223 12.0026 35.0408 13.3521 35.0408 15.7263L35.0434 17.4288C35.0434 19.7101 36.4729 21.233 38.8489 21.233C40.5004 21.233 42.0225 20.4578 42.0225 20.4578L43.1393 23.8665C43.1393 23.8665 41.8656 24.9367 38.462 24.9367C30.5489 24.9367 30.2214 19.199 30.2214 16.5753H30.2213ZM70.2427 8.21966C74.7445 8.21966 76.8366 11.6145 76.8366 16.4335C76.8366 22.5042 74.1648 24.9339 70.24 24.9339C67.9944 24.9339 66.3344 23.9864 65.4377 22.218V24.6164L60.8782 24.6146V0.489034L65.7192 0.065747V10.7882C66.4179 8.91227 68.7141 8.21966 70.2428 8.21966H70.2427ZM68.8855 12.0158C66.9947 12.0158 65.7192 13.338 65.7192 15.5869L65.7147 17.884C65.7119 19.3998 66.598 21.1731 68.8855 21.1731C72.1026 21.1731 72.0167 17.6905 72.0167 16.5305C72.0167 12.6287 70.3027 12.0158 68.8855 12.0158ZM51.5674 8.23297C46.4615 8.23297 43.7659 11.0239 43.7659 15.9838V16.9052C43.7659 23.3426 47.5513 25 52.0643 25C56.451 25 58.4365 23.7699 58.4365 23.7699L57.5306 20.4942C57.5306 20.4942 55.195 21.4905 52.6448 21.4905C50.001 21.4905 48.8639 20.8149 48.5725 18.2677H58.8236V15.6398C58.8236 10.2596 55.7983 8.23284 51.5673 8.23284L51.5674 8.23297ZM51.6904 11.5131C53.4579 11.5131 54.6031 12.5997 54.5403 15.1196H48.5814C48.6847 12.4674 49.9198 11.5132 51.6904 11.5132V11.5131ZM86.4894 8.21088C81.246 8.21088 78.4856 11.1732 78.4856 16.482C78.4856 23.7658 83.2439 24.9383 86.4982 24.9383C91.2622 24.9383 94.4316 22.3669 94.4316 16.5481C94.4316 10.4917 90.8679 8.21088 86.4894 8.21088V8.21088ZM86.4234 12.029C88.729 12.029 89.6426 13.7589 89.6426 15.7281V17.4211C89.6426 19.8066 88.3643 21.1864 86.4147 21.1864C84.5913 21.1864 83.3099 19.8958 83.3099 17.4211V15.7281C83.3099 13.0889 84.8347 12.029 86.4234 12.029V12.029ZM104.076 8.21088C98.8324 8.21088 96.072 11.1732 96.072 16.482C96.072 23.7658 100.83 24.9383 104.085 24.9383C108.848 24.9383 112.018 22.3669 112.018 16.5481C112.018 10.4917 108.454 8.21088 104.076 8.21088V8.21088ZM104.01 12.029C106.315 12.029 107.229 13.7589 107.229 15.7281V17.4211C107.229 19.8066 105.951 21.1864 104.001 21.1864C102.178 21.1864 100.896 19.8958 100.896 17.4211V15.7281C100.896 13.0889 102.421 12.029 104.01 12.029V12.029ZM113.847 24.6147V0.489034L118.703 0.0658762V16.2364L123.519 8.53109H128.647L123.622 16.5115L128.84 24.6147H123.698L118.703 16.7465V24.6147H113.847Z" fill="#FDFDFD"/>
</g>
<defs>
<clipPath id="clip0_501_465">
<rect width="128.84" height="25" fill="white"/>
</clipPath>
</defs>
</svg>
