<svg width="129" height="119" viewBox="0 0 129 119" fill="none" xmlns="http://www.w3.org/2000/svg">
<path fill-rule="evenodd" clip-rule="evenodd" d="M110.107 47.7825C108.502 40.3876 105.281 33.3231 100.705 27.2914C96.1427 21.2619 90.1922 16.2351 83.2791 13.1513C80.774 11.9906 78.1376 11.117 75.4501 10.4827C72.7614 9.85171 70.0238 9.40768 67.2616 9.23518C57.5141 8.54632 47.6018 10.8744 38.966 15.5919C30.3335 20.2637 22.8172 27.2858 18.2712 36.014C14.3483 43.8052 12.4698 52.7415 12.6211 61.4029C12.7558 66.9828 13.7974 72.536 15.7238 77.7475C17.6224 82.9768 20.5403 87.7855 24.1248 92.0211C26.3828 94.6263 25.5604 94.909 22.9263 93.1929C22.2597 92.7678 21.4806 92.217 20.7083 91.4602C20.311 91.0918 19.8926 90.6934 19.4563 90.2628C19.2393 90.0458 19.0168 89.8221 18.7897 89.5939C18.5861 89.3469 18.3769 89.0943 18.1643 88.8361C17.3419 87.78 16.3682 86.6604 15.6103 85.3005C15.2086 84.635 14.8024 83.9417 14.3962 83.2261C14.0311 82.4905 13.6973 81.7171 13.3523 80.9314C12.1259 78.1426 11.2868 75.2102 10.5735 72.2611C10.3042 70.7699 9.99367 69.282 9.8056 67.7796C9.67205 66.2728 9.42389 64.7715 9.42055 63.2558C9.15457 57.2107 9.85234 51.1456 11.4159 45.3187C12.2684 42.4174 13.2054 39.5685 14.4841 36.7941C15.7194 33.9964 17.3041 31.3723 19.088 28.9128C22.648 23.9784 27.1396 19.7874 32.1218 16.3876C38.0734 12.3011 44.8808 9.24631 52.0777 7.52582C59.2802 5.82982 66.8933 5.61838 74.1436 7.08847C82.1172 8.65204 89.688 12.3412 95.8066 17.6751C101.98 22.9557 106.725 29.7619 109.88 37.1703C111.827 41.7352 113.178 46.5495 113.888 51.455C114.579 56.3649 114.606 61.3673 113.948 66.2772C113.009 73.7312 110.326 80.9192 106.478 87.3382C102.524 93.6904 97.3401 99.3237 91.098 103.41C81.4584 109.923 69.7867 112.526 58.3821 112.024C57.1223 111.96 55.8781 111.859 54.6306 111.767C53.392 111.607 52.1411 111.494 50.8881 111.277C46.2318 110.519 43.2572 109.57 41.2228 108.804C40.2101 108.398 39.4278 108.04 38.8001 107.692C38.1803 107.32 37.7106 106.967 37.3145 106.601C36.955 106.267 36.462 105.885 36.2851 105.619C35.9868 105.168 36.7703 105.148 38.4017 105.503C40.0287 105.89 42.546 106.488 45.7778 107.257C55.3607 109.349 65.6636 109.784 75.4011 107.164C85.1665 104.709 93.9971 98.8274 100.32 90.8326C105.021 84.8977 108.34 77.8577 110.065 70.4571C111.803 63.0488 111.698 55.2577 110.037 47.817L110.107 47.7825Z" fill="#3DB3E5"/>
<path fill-rule="evenodd" clip-rule="evenodd" d="M39.0576 93.371C34.8999 97.532 30.7178 101.687 26.3665 105.697C24.7773 107.159 23.216 108.657 21.5511 110.048C18.6009 112.481 15.5662 114.863 12.0384 116.674C10.2823 117.541 8.31474 118.354 6.09124 118.275C5.05071 118.255 3.9078 118.039 2.87395 117.412C1.82674 116.795 1.08335 115.658 0.835182 114.563C0.395601 112.598 0.75283 110.795 1.17015 109.096C1.63199 107.401 2.25742 105.791 2.95853 104.237C4.7992 100.276 6.98264 96.4313 10.1632 93.3109C11.2082 92.356 11.5187 93.0282 11.2438 94.2779C10.9789 95.5444 10.2389 97.4607 8.93238 99.4327C7.77611 101.184 6.70887 103.007 5.78409 104.877C4.86152 106.743 4.06582 108.673 3.60287 110.577C3.13992 112.46 3.17219 114.402 4.05247 115.024C4.47091 115.411 5.26772 115.656 6.18806 115.694C7.03717 115.763 7.94193 115.596 8.89231 115.293C11.167 114.561 13.4005 113.102 15.5139 111.55C17.635 109.974 19.6659 108.217 21.668 106.459C26.0616 102.571 30.2804 98.4356 34.4592 94.2568L42.1436 86.4935C46.0152 82.5617 49.9436 78.64 53.9088 74.8318C57.0047 71.8827 59.9928 68.9247 63.4938 66.3662C64.274 65.812 65.0441 65.2645 65.911 64.7837C69.145 63.0042 70.9823 63.3626 71.6088 64.1972C71.7624 64.4042 71.9405 64.6201 71.9772 64.7982C72.0351 65.1076 71.6956 65.2433 71.196 65.3735C70.6885 65.5049 69.934 65.7152 68.9068 66.1703C67.3844 66.8503 65.8787 67.8964 64.4131 69.0215C62.943 70.1499 61.4996 71.3875 60.0684 72.6706C57.2062 75.2413 54.3806 77.9878 51.574 80.7778C47.4096 84.9288 43.262 89.1721 39.1099 93.4121L39.0576 93.371Z" fill="#3DB3E5"/>
<path fill-rule="evenodd" clip-rule="evenodd" d="M67.1379 53.1521C67.2903 53.3447 67.4506 53.535 67.6164 53.7219L67.9992 54.1326L68.5334 54.6634C68.5512 55.0095 68.5389 55.4257 68.4688 55.7907C68.4065 55.9744 68.3253 56.1569 68.2452 56.336L67.9091 56.8435C67.5173 57.3254 67.2035 57.5936 66.8752 57.9085C66.6137 58.1522 66.6805 58.0788 66.6081 58.1567C66.5491 58.2068 66.5803 58.2869 66.6437 58.3069C66.7094 58.3403 66.7228 58.3637 66.8607 58.3648C67.0088 58.3893 67.1724 58.3871 67.3471 58.3603C67.5196 58.3392 67.6843 58.3492 67.8668 58.298C68.5768 58.1823 69.3168 57.8963 70.0435 57.6025C71.5014 56.9748 72.9158 56.1302 74.2913 55.2332C75.974 54.1203 77.5676 52.8595 79.1557 51.593C81.9567 49.3573 84.6432 46.9557 87.2284 44.4551C89.7802 41.9423 92.3609 39.3504 94.4275 36.5159C95.2955 35.2996 95.6884 33.8362 94.9316 32.691C94.4097 31.6283 92.7315 32.0723 91.4038 32.7033C89.6388 33.5402 87.9896 34.7432 86.3882 35.9684C84.7868 37.207 83.2254 38.5113 81.6652 39.8089C79.7566 41.4804 80.8038 37.9104 84.5998 34.8789C86.2847 33.5624 88.0218 32.3004 90.0194 31.2788C91.0266 30.7836 92.0916 30.3106 93.4715 30.2004C94.1571 30.1671 95.0563 30.3051 95.7618 30.8938C96.4718 31.5359 96.7111 32.0957 96.947 32.7867C97.3877 34.1967 96.9826 35.6524 96.3984 36.694C95.783 37.7846 95.0985 38.5681 94.4041 39.4072C93.0108 41.0464 91.5329 42.571 90.015 44.0634C86.3692 47.6067 82.5454 51.258 78.3934 54.4264C76.5226 55.8297 74.6063 57.1885 72.5096 58.3169C71.4669 58.8845 70.3785 59.3986 69.1922 59.7559C68.6013 59.9362 67.9792 60.0686 67.3192 60.1075C67.1601 60.1309 66.9865 60.1164 66.8151 60.1042C66.6593 60.0853 66.3789 60.0908 66.1808 60.0352C65.7813 59.8672 65.3461 59.7859 64.9845 59.5411C64.7285 59.3152 64.428 59.1015 64.3857 58.7131C64.3401 58.3514 64.4892 58.0376 64.6862 57.7227C64.8743 57.4111 65.1959 57.1028 65.4508 56.8524L66.0461 56.286C66.2643 56.0723 66.5313 55.783 66.5759 55.7017C66.6515 55.5815 66.7639 55.3934 66.6571 55.2721L66.3744 54.9672L65.8859 54.3997C65.5687 54.0102 65.2671 53.6029 64.9923 53.1655C64.7229 52.7003 64.4803 52.2852 64.3256 51.6231C64.1509 50.9153 64.3813 50.1808 64.8932 49.7245C65.187 49.6144 65.5064 49.5476 65.8358 49.5231C66.1986 49.4908 66.3666 49.5064 66.6293 49.5142C67.1111 49.5398 67.5763 49.6132 68.0326 49.7067C68.3798 49.7791 68.7192 49.8692 69.0564 49.9671L69.5083 50.1096L69.7575 50.2008C69.8521 50.2754 69.8966 50.1296 69.9645 50.0918L70.1904 49.8703L70.9082 49.1636C71.6783 48.4002 72.4473 47.639 73.2119 46.8812L72.1235 46.3347L70.3863 45.4077C69.2389 44.7712 68.1094 44.1057 67.0232 43.3489C66.3856 42.8971 65.7557 42.433 65.1814 41.8365C64.9099 41.5405 64.6016 41.2256 64.3969 40.6703C64.1799 40.1561 64.3256 39.5685 64.684 39.1657C65.7846 37.8881 67.3404 37.6533 68.648 37.6333C69.9879 37.6155 71.2588 37.7713 72.5241 37.9282C73.4144 38.0395 74.2791 38.1474 75.1649 38.2821C78.4468 38.7851 79.465 39.0488 80.1016 39.6264C80.2452 39.7566 80.4421 39.8946 80.52 40.017C80.7838 40.4232 79.396 40.5378 76.97 40.263C74.9735 40.0393 72.9481 39.751 70.9461 39.5452C69.9523 39.4517 68.9507 39.3749 68.0615 39.4517C67.6064 39.4762 67.2235 39.5852 66.8774 39.7076C66.7239 39.7978 66.5514 39.8467 66.4223 39.968C66.3544 40.0237 66.2798 40.0638 66.2142 40.1261L66.1251 40.2184L66.1318 40.2129C66.1218 40.2273 66.1274 40.2452 66.1374 40.2552C66.1418 40.263 66.134 40.2452 66.1585 40.2785C66.183 40.3253 66.2331 40.382 66.2798 40.4388C66.3633 40.5501 66.4924 40.6747 66.6104 40.7949C67.1212 41.2812 67.7644 41.7553 68.431 42.1982C69.7709 43.0885 71.2299 43.8953 72.7055 44.6588L74.2012 45.4055L76.2411 46.3603C74.5217 48.0719 72.7979 49.7868 71.0741 51.5029L70.6033 51.9703C70.4442 52.115 70.3095 52.3653 70.078 52.194L68.8728 51.7778C68.4811 51.652 68.0882 51.5407 67.6998 51.4595C67.3115 51.3782 66.9253 51.3181 66.5569 51.297L66.143 51.2903H66.1174C66.1062 51.297 66.0973 51.3092 66.0973 51.3237C66.0962 51.3326 66.0951 51.3348 66.0996 51.3493C66.1274 51.3983 66.1474 51.5329 66.2108 51.6431C66.4201 52.1116 66.7762 52.6313 67.1679 53.1188L67.1379 53.1521Z" fill="#3DB3E5"/>
<path fill-rule="evenodd" clip-rule="evenodd" d="M87.0031 57.4258C87.19 56.865 87.2935 56.0804 87.367 55.3448C87.4404 54.5958 87.4783 53.8302 87.4983 53.0634C87.5128 52.5036 87.4683 51.9428 87.466 51.383C87.4671 50.4204 87.436 49.3476 87.3803 48.4829C87.3814 48.2981 87.3748 48.0833 87.347 47.8463C87.3303 47.7272 87.3136 47.6015 87.2724 47.4791C87.2546 47.4245 87.2145 47.3422 87.1589 47.36C87.1144 47.3845 87.0854 47.4279 87.052 47.4668C86.943 47.6126 86.8317 47.8029 86.7115 47.9843C86.6425 48.0889 86.6147 48.1368 86.5067 48.2803C86.361 48.4729 86.204 48.6598 86.0338 48.8401C85.8234 49.0682 85.5619 49.303 85.3227 49.4856C85.0934 49.6658 84.8597 49.8406 84.6204 50.0086C84.1397 50.3413 83.6344 50.6407 83.0702 50.8499C82.9122 50.9022 82.7152 50.8777 82.7475 50.6563C82.654 50.624 82.6262 50.5261 82.624 50.4159C82.6151 50.308 82.6173 50.1889 82.6306 50.062C82.6885 49.5546 82.9278 48.9458 83.4441 48.5975C83.8893 48.2915 84.4179 47.9465 84.6928 47.6916C84.8575 47.5425 85.02 47.3733 85.1758 47.1819C85.4963 46.7924 85.8346 46.2349 86.1451 45.7619C86.3053 45.4971 86.4678 45.3379 86.628 45.1754C86.7816 45.0964 86.9274 45.0319 87.0487 45.0041C87.2902 44.9618 87.466 44.7548 87.8322 45.0497C88.1004 45.1443 88.2962 45.3646 88.4643 45.7252C88.6178 46.1147 88.7336 46.5888 88.7881 47.1118C88.9584 48.5463 88.9495 49.0081 89.0151 49.7894C89.0663 50.5194 89.112 51.2517 89.1153 51.9784C89.1164 53.5798 89.0674 55.1723 88.8215 56.8026C88.7269 57.3101 88.659 57.8098 88.3708 58.3874C88.126 58.9193 87.4571 59.587 86.7371 59.4602C86.1862 59.4067 85.7266 59.0718 85.4395 58.8147C85.1212 58.5376 84.8753 58.2304 84.6327 57.9233C84.1653 57.3023 83.7747 56.6524 83.4096 55.9969C82.8521 54.9731 82.2946 53.9737 81.8973 52.8442C81.8138 52.5938 81.7214 52.3467 81.6624 52.0741C81.4376 51.0903 81.7337 50.4404 82.2779 50.4304C82.4036 50.4304 82.5227 50.4471 82.6028 50.5049C82.8254 50.8254 83.0257 50.8121 83.1381 51.3229C83.6155 52.9199 84.5448 54.8696 85.5909 56.4432C85.7889 56.7381 86.0026 57.0063 86.2141 57.2489C86.3988 57.4793 86.7071 57.7085 86.7471 57.7374C86.7705 57.7586 86.7694 57.7619 86.7894 57.7608C86.7716 57.8009 86.8873 57.664 86.963 57.4147L87.0031 57.4258Z" fill="#3DB3E5"/>
<path fill-rule="evenodd" clip-rule="evenodd" d="M69.8835 57.2637C69.6276 57.533 69.3605 57.8479 69.0678 57.9926C68.8552 58.1261 68.6338 58.2196 68.4068 58.2842C67.9527 58.4122 67.4842 58.4133 66.9979 58.3966C66.6885 58.3866 66.2534 57.9358 66.4448 57.6209C66.782 57.0845 67.1114 56.5637 67.4041 56.1007C67.4174 56.0818 67.443 56.0484 67.4797 56.0006C67.4942 55.9772 67.5131 55.9483 67.5354 55.9138C67.5788 55.847 67.6322 55.7613 67.6767 55.6689C67.7836 55.502 67.7635 55.1815 67.4597 55.1348C67.4464 55.098 67.3852 55.0958 67.354 55.0802L67.2961 55.0602L67.0836 54.9144C66.7964 54.7163 66.4982 54.516 66.1833 54.2779C66.0197 54.1521 65.8616 54.0297 65.6647 53.8439C65.5756 53.7626 65.461 53.6446 65.3397 53.4977C65.2941 53.4499 65.1939 53.3063 65.126 53.2006C65.0804 53.1238 65.076 53.1294 65.0003 52.9836C64.9391 52.8579 64.8868 52.7243 64.8467 52.5885L64.7944 52.3849C64.7811 52.3415 64.7421 52.0577 64.7521 51.8908C64.7699 51.4757 64.8478 51.1418 65.0715 50.7579C65.2796 50.3717 65.7537 49.9878 66.0308 49.8676C66.2022 49.783 66.3914 49.7174 66.5806 49.6751C66.6629 49.6561 66.7964 49.6361 66.8365 49.6328L66.9467 49.6239C67.305 49.6083 67.4063 49.635 67.5432 49.6495C67.7513 49.6817 67.867 49.7096 67.9716 49.7329C68.1653 49.7741 68.2944 49.8197 68.4012 49.8787C68.8719 50.1547 69.2904 50.2549 69.6877 50.3795L69.9703 50.4652C70.0994 50.5041 70.0226 50.4719 70.0538 50.4786L70.0805 50.4619C70.095 50.4507 70.1017 50.434 70.1061 50.4229C70.2875 50.2593 70.6525 49.9188 70.9274 49.6439C71.5283 49.0496 72.1193 48.412 72.6623 47.7687C72.9372 47.4504 73.1854 47.1155 73.4325 46.8128C73.4213 46.8306 73.4269 46.8061 73.4269 46.8061C73.4258 46.795 73.4124 46.7883 73.4057 46.7905L73.3957 46.7939C73.4836 46.835 73.2121 46.7093 73.0552 46.6447L72.4887 46.4133L71.9301 46.184L71.328 45.9102C71.0732 45.7867 70.6837 45.6009 70.3042 45.3972C69.6365 45.0411 68.912 44.6828 68.084 44.1341C67.67 43.847 67.206 43.5232 66.6818 42.8955C66.5583 42.7531 66.4103 42.5238 66.2934 42.3324C66.279 42.3112 66.2066 42.1788 66.1454 42.0386C66.0864 41.9062 66.0364 41.7682 65.9952 41.6302C65.9585 41.5222 65.9106 41.2908 65.8973 41.0593C65.8828 40.8323 65.8939 40.6008 65.9273 40.3838C66.1198 39.3521 66.822 38.7479 67.1592 38.5409C67.5677 38.2805 67.7869 38.2204 68.0384 38.1313C68.8397 37.9199 69.2614 37.9132 69.7277 37.9121C70.1751 37.9154 70.5702 37.9455 70.9652 37.9744C71.7453 38.039 72.4865 38.1258 73.2188 38.2226C73.704 38.3049 74.1981 38.3517 74.6811 38.2838C75.0817 38.217 77.2329 38.4418 79.3852 38.8202L80.192 38.966L80.5381 39.0316C80.5414 39.0205 80.5414 39.0383 80.5448 39.0294C80.5303 39.0372 80.5837 39.0405 80.7506 38.9693C81.0667 38.838 81.4829 38.5164 81.6298 38.4185C82.0015 38.1758 82.5368 37.7285 83.0142 37.3534L84.5143 36.1738C85.5337 35.3915 86.5876 34.628 87.7116 33.9303C88.0421 33.7411 88.337 33.4595 88.7232 33.4106C89.6135 33.2982 90.2745 32.8296 91.0724 32.498C92.1452 32.0384 93.415 31.6801 94.8017 31.8893C95.4794 32.0039 96.1237 32.399 96.5611 32.8953C96.9729 33.3115 96.3675 33.5908 96.2117 33.5808C95.7175 33.5163 95.9334 33.9314 95.8299 34.1339C95.801 34.2063 95.7598 34.2986 95.7131 34.3454C95.7008 34.3587 95.6196 34.3565 95.5005 34.3409C95.4393 34.3365 95.3759 34.3142 95.2958 34.3075C95.2123 34.3142 95.1188 34.3231 95.0175 34.332C94.6447 34.3164 94.0939 34.5245 93.5463 34.7816C92.4157 35.3759 91.2839 36.4175 91.0402 36.5778C91.0079 36.5867 90.5872 36.9027 89.9618 37.3924C89.3364 37.8943 88.5162 38.5921 87.6982 39.3655C86.8781 40.1412 86.069 40.9669 85.3712 41.6769C84.6178 42.4626 83.732 43.1036 83.4148 43.2883C82.7571 43.7012 81.8724 43.9772 80.8552 43.985C80.7974 43.9883 80.5392 44.0061 80.1297 43.9839C80.0273 43.9716 79.916 43.9583 79.7958 43.9449C79.7012 43.9305 79.5988 43.9149 79.4898 43.8993C79.3507 43.877 79.1949 43.8526 79.0268 43.827C78.3513 43.7235 77.4677 43.6022 76.5819 43.4953C74.8068 43.2828 73.053 43.1448 72.9228 43.1537C72.2317 43.1103 71.5372 43.127 70.8973 43.1426C70.6002 43.1448 70.3053 43.1481 70.0037 43.1503C69.8691 43.147 69.7489 43.1492 69.661 43.1247C69.6131 43.1147 69.5719 43.1025 69.5597 43.088L69.5441 43.0758C69.5319 43.0446 69.5452 43.137 69.5163 42.9612C69.4729 42.7208 69.415 42.4815 69.3393 42.2456C69.2893 42.0809 69.2403 41.9229 69.1924 41.7671C69.1468 41.6279 69.0678 41.4733 69.0122 41.3553C68.9765 41.254 68.922 41.1572 68.8519 41.0693C68.7718 40.9758 68.7796 40.9502 68.7106 40.9024C68.6182 40.8278 68.6193 40.8712 68.7072 40.8501C68.7306 40.8412 68.8619 40.8222 68.9165 40.7811L68.9654 40.7488L68.9777 40.7399L68.9832 40.7343L69.5619 40.4082L69.5875 40.396L69.6854 40.3426C69.9136 40.1924 70.2452 39.9253 70.5657 39.568C70.5924 39.5402 70.6036 39.5803 70.6625 39.6103C70.776 39.6804 70.9407 39.7828 71.1511 39.8863C71.5673 40.0989 72.0792 40.3181 72.6534 40.5607C72.9472 40.6842 73.2366 40.8111 73.6272 41.0025L74.4084 41.3853L75.3377 41.845L75.873 42.1298C76.14 42.2723 76.3737 42.4281 76.623 42.5783C77.6135 43.2138 78.4292 44.0017 78.8777 44.9788C79.088 45.4762 79.1804 46.0271 79.1526 46.5579C79.137 46.8206 79.1081 47.0821 79.0012 47.3347C78.9311 47.5918 78.8243 47.8455 78.6907 48.097C78.5416 48.4698 78.23 48.7914 77.9607 49.1186C77.796 49.329 77.6168 49.5226 77.4287 49.7196C77.2774 49.8821 77.1294 50.039 76.9814 50.197C75.8184 51.4156 74.6076 52.4205 73.2766 53.4065L72.7581 53.776C72.6891 53.8461 72.5099 53.9262 72.3752 54.0208L71.9501 54.2934C71.6552 54.4381 71.3503 54.5572 71.0398 54.6607C70.7204 54.7386 70.3921 54.7397 70.0638 54.7074C68.5136 54.4659 67.9894 54.0954 67.2227 53.9997C67.1626 53.9941 67.0813 53.9852 66.9812 53.9741C66.9344 53.9663 66.8888 53.9729 66.851 53.9507L66.8042 53.934L66.7953 53.9295L66.792 53.9273L66.8632 53.6202C67.058 52.8289 67.1648 52.1156 67.0624 51.9486C67.0468 51.9219 67.0546 51.9531 67.127 51.9286C67.1681 51.9208 67.206 51.9052 67.2394 51.8819L67.6189 51.6816C67.8192 51.5825 67.8915 51.4846 68.1586 51.301C68.2721 51.2142 68.3812 51.124 68.4869 51.0272C68.5837 50.9415 68.7351 50.7857 68.695 50.8369L68.7117 50.8647C68.744 50.9026 68.7696 50.937 68.823 50.9905C69.0133 51.1908 69.3137 51.4568 69.6098 51.7216L69.8579 51.9397C69.9881 52.0388 70.0872 52.1668 70.1996 52.2747C70.4311 52.485 70.6024 52.7121 70.7872 52.9013C70.9641 53.1784 71.1333 53.3987 71.2179 53.6202C71.3291 53.8249 71.4059 53.9997 71.4549 54.1365C71.6363 54.4659 71.4682 55.305 71.091 55.9249C70.6614 56.5603 70.1039 57.0556 69.8835 57.2637" fill="#3DB3E5"/>
<path fill-rule="evenodd" clip-rule="evenodd" d="M117.618 40.5071C118.589 41.3963 119.542 42.8675 120.058 44.2185C120.781 46.1126 120.885 48.1469 120.099 50.0388C119.6 51.2407 121.869 51.2541 122.261 50.3104C123.873 46.4276 122.371 41.955 119.355 39.1917C118.605 38.5051 116.649 39.6202 117.618 40.5071" fill="#3DB3E5"/>
<path fill-rule="evenodd" clip-rule="evenodd" d="M42.4395 5.24281C43.0227 4.65076 43.5691 4.17001 44.2535 3.68369C44.4316 3.55682 44.6118 3.43552 44.7955 3.31867C44.8756 3.26747 44.9579 3.2174 45.0392 3.16732C45.2428 3.0449 44.9001 3.2441 45.106 3.12948C45.4777 2.9236 45.8594 2.73664 46.25 2.57193C46.3368 2.53521 46.4247 2.50182 46.5115 2.46621C46.733 2.37607 46.3257 2.52853 46.5516 2.44952C46.7508 2.37941 46.9522 2.31598 47.1558 2.25811C47.3372 2.20692 47.5198 2.16018 47.7034 2.11789C47.7957 2.09674 47.8892 2.07782 47.9816 2.0589C48.4234 1.96431 47.8447 2.0756 48.1018 2.03665C48.5102 1.97433 48.9209 1.93204 49.3337 1.91312C49.7733 1.89198 50.0014 1.89977 50.4944 1.93204C51.1354 1.97544 51.9768 1.73506 52.285 1.11297C52.5777 0.520928 52.028 0.0713308 51.4693 0.0346063C49.3159 -0.110066 47.1981 0.195972 45.195 1.00725C43.282 1.78291 41.606 3.04824 40.1671 4.51166C39.7253 4.96014 39.9356 5.57333 40.5009 5.76251C41.1586 5.98175 41.9655 5.72468 42.4395 5.24281" fill="#3DB3E5"/>
<path fill-rule="evenodd" clip-rule="evenodd" d="M122.972 36.3466C123.957 36.9787 124.921 37.8545 125.448 38.8717C125.985 39.9144 126.158 41.0874 126.077 42.2459C126.04 42.7567 126.679 42.8513 127.069 42.7979C127.45 42.7467 128.306 42.5018 128.341 41.9921C128.434 40.6856 128.283 39.3669 127.667 38.1962C126.997 36.9208 125.955 35.9693 124.752 35.197C124.316 34.9166 123.543 35.1124 123.149 35.3884C122.803 35.6299 122.514 36.0528 122.972 36.3466" fill="#3DB3E5"/>
<path fill-rule="evenodd" clip-rule="evenodd" d="M39.2988 33.072C39.5225 36.0356 33.8636 36.2248 34.3677 32.7293C34.7205 30.2899 38.5076 30.1274 39.1987 32.5312C39.2532 32.7204 39.2855 32.9007 39.2988 33.072" fill="#3DB3E5"/>
<path fill-rule="evenodd" clip-rule="evenodd" d="M28.1037 43.7136C28.2384 45.4919 24.8419 45.6054 25.1457 43.5077C25.3572 42.0443 27.6296 41.9474 28.0436 43.3886C28.077 43.5032 28.0959 43.6112 28.1037 43.7136" fill="#3DB3E5"/>
<path fill-rule="evenodd" clip-rule="evenodd" d="M83.0766 97.6784C83.2113 99.4568 79.8148 99.5703 80.1175 97.4725C80.3301 96.0091 82.6025 95.9123 83.0165 97.3534C83.0499 97.4681 83.0688 97.576 83.0766 97.6784" fill="#3DB3E5"/>
</svg>
