<svg width="86" height="23" viewBox="0 0 86 23" fill="none" xmlns="http://www.w3.org/2000/svg">
<g clip-path="url(#clip0_501_467)">
<path d="M8.15733 0C9.338 0 10.5992 0 11.7731 0C11.7597 7.17118 11.7463 14.3491 11.7396 21.5202C10.4717 21.6541 9.08308 21.8282 7.82863 21.9688C6.21863 17.476 5.22579 14.6838 3.60908 9.94993C3.60908 14.7575 3.60237 17.717 3.60237 22.5246C2.42842 22.6719 1.17396 22.8326 0 23C0 15.3333 0 7.66667 0 0C1.32154 0 2.14667 0 3.46821 0C5.03125 5.03523 6.58758 8.20233 8.13721 12.9898C8.14392 8.08181 8.15063 4.90801 8.15733 0ZM25.2971 3.55546C25.2971 2.51761 25.277 1.03115 25.277 0C21.9228 0 18.6156 0 15.2615 0C15.248 7.07074 15.2346 14.1482 15.2212 21.2189C18.5687 20.9176 21.9228 20.6699 25.277 20.4757C25.2837 19.4378 25.2837 17.9514 25.2837 16.9202C23.1035 17.0541 21.0172 17.1881 18.837 17.3354C18.8437 15.4405 18.8437 13.867 18.8504 11.9654C20.4403 11.9386 22.1174 11.9587 23.7408 11.9319C23.7408 10.894 23.7475 9.40087 23.7475 8.36303C22.1375 8.38981 20.4403 8.39651 18.8571 8.42329C18.8571 6.52169 18.8638 5.47715 18.8705 3.57555C19.8634 3.56215 24.4653 3.56215 25.2971 3.55546ZM27.6182 3.54876C27.7792 3.54876 31.2541 3.56885 31.3749 3.56885C31.3682 9.27365 31.3615 14.4763 31.3547 20.1811C32.5354 20.1342 33.7966 20.1007 34.9772 20.0739C34.9772 14.4026 34.984 9.22678 34.9907 3.55546C36.2384 3.54876 37.5264 3.54207 38.7675 3.54207C38.7675 2.53101 38.7742 1.03115 38.7742 0.0200873C35.098 0.0200873 31.2944 0.0200873 27.6249 0.0200873C27.6249 1.04454 27.6182 2.52431 27.6182 3.54876ZM51.1779 0C47.8237 0 44.4695 0 41.1221 0C41.1154 6.6556 41.1154 13.3179 41.1154 19.9735C41.5045 19.9735 41.9003 19.9735 42.296 19.9735C43.0943 19.9735 43.906 19.9735 44.6976 19.9802C44.6976 17.1546 44.6976 14.5767 44.6976 11.7511C44.8922 11.7511 49.1184 11.7444 49.5947 11.7511C49.5947 10.74 49.5947 9.23348 49.588 8.22242C49.1385 8.21572 44.8788 8.22242 44.6976 8.22242C44.6976 6.40116 44.6909 5.37671 44.6909 3.56215C45.0867 3.56215 50.1985 3.56215 51.1779 3.56885C51.1779 2.55109 51.1779 1.01776 51.1779 0ZM57.1215 16.7528C57.1147 10.9945 57.1483 5.77176 57.1349 0.0133916C55.9609 0.0133916 54.6997 0.0133916 53.5191 0.0133916C53.5325 6.73595 53.499 13.4585 53.5057 20.1811C56.719 20.3016 60.1 20.4288 63.3132 20.6565C63.3065 19.6186 63.3065 18.1322 63.3065 17.101C61.2739 16.9805 59.1541 16.8332 57.1215 16.7528ZM66.3186 20.8707C67.4992 20.9645 68.7135 21.0582 69.8941 21.1654C69.8941 14.1214 69.9075 7.06405 69.8941 0.0200873C68.7135 0.0200873 67.4523 0.0200873 66.2783 0.0200873C66.2918 6.9703 66.3052 13.9205 66.3186 20.8707ZM81.1373 10.8472C82.6668 7.23814 84.2231 3.79651 85.813 0.0200873C84.5116 0.0200873 83.1699 0.0200873 81.8618 0.0200873C80.8824 2.35022 80.2115 3.85007 79.2724 6.07307C78.4003 3.76303 77.8167 2.26317 76.9379 0.0200873C75.6365 0.0200873 74.2948 0.0200873 72.9934 0.0200873C74.4357 3.53537 75.7572 7.05735 77.2263 10.7936C75.7035 14.3758 74.1472 17.938 72.6244 21.3796C73.8856 21.5001 75.1937 21.6809 76.4549 21.8215C77.3605 19.6119 78.1789 17.9045 79.0912 15.6279C79.9902 18.0518 80.8153 19.9266 81.7209 22.4242C82.9754 22.5916 84.6122 22.8259 85.8667 23C84.3439 18.9357 82.6735 14.6972 81.1373 10.8472Z" fill="#FDFDFD"/>
</g>
<defs>
<clipPath id="clip0_501_467">
<rect width="85.8667" height="23" fill="white"/>
</clipPath>
</defs>
</svg>
