<svg width="124" height="35" viewBox="0 0 124 35" fill="none" xmlns="http://www.w3.org/2000/svg">
<g clip-path="url(#clip0_501_418)">
<path d="M6.36474 0.122719C3.83359 1.17976 1.05103 4.16604 0.172201 7.91446C-0.940763 12.6639 3.6908 14.6722 4.07068 14.0137C4.5178 13.2399 3.24076 12.9783 2.97789 10.5141C2.63815 7.33134 4.12124 3.775 5.98776 2.21458C6.33471 1.92466 6.31821 2.32817 6.31821 3.07454C6.31821 4.40922 6.24429 16.3907 6.24429 18.8913C6.24429 22.2748 6.10421 23.3433 5.85263 24.399C5.59772 25.469 5.18792 26.1919 5.49845 26.4704C5.84538 26.7819 7.32668 26.0409 8.18422 24.8469C9.21254 23.4147 9.5725 21.6948 9.63713 19.8271C9.71518 17.5755 9.71186 14.0028 9.71518 11.9649C9.7183 10.0959 9.74674 4.62298 9.68235 1.33286C9.66656 0.525867 7.42327 -0.320792 6.36461 0.121738L6.36474 0.122719ZM96.2454 15.9575C96.1638 17.7165 95.7735 19.0914 95.2892 20.0613C94.3514 21.9387 92.4056 22.5217 91.5795 19.8228C91.1292 18.3516 91.1082 15.8945 91.4319 13.8415C91.7614 11.75 92.6814 10.1705 94.2049 10.313C95.7076 10.4538 96.4109 12.3855 96.2454 15.9574V15.9575ZM70.9133 26.8709C70.8929 29.7937 70.4319 32.3563 69.4431 33.1006C68.0408 34.156 66.156 33.3643 66.5463 31.2316C66.8916 29.3443 68.5248 27.4169 70.9173 25.0619C70.9173 25.0619 70.9223 25.599 70.9134 26.8709H70.9133ZM70.5303 15.9405C70.4446 17.5426 70.0283 19.1521 69.5741 20.0615C68.6365 21.9389 66.6766 22.5259 65.8644 19.823C65.309 17.9763 65.442 15.5861 65.7168 14.0801C66.0734 12.1261 66.9376 10.3134 68.4898 10.3134C69.9989 10.3134 70.743 11.9652 70.5303 15.9406V15.9405ZM55.8554 15.916C55.7634 17.6128 55.4316 19.0312 54.8991 20.0615C53.9358 21.926 52.03 22.5174 51.1895 19.823C50.5835 17.8801 50.7898 15.231 51.0419 13.7999C51.4159 11.6763 52.3526 10.1707 53.8149 10.3134C55.3169 10.4598 56.0471 12.3857 55.8554 15.9161V15.916ZM123.107 17.8979C122.74 17.8979 122.572 18.2755 122.434 18.9111C121.953 21.1211 121.448 21.6202 120.796 21.6202C120.068 21.6202 119.414 20.5259 119.245 18.3353C119.113 16.6127 119.134 13.4415 119.303 10.287C119.338 9.63889 119.159 8.99762 117.416 8.36609C116.667 8.09445 115.577 7.69448 115.034 9.00135C113.501 12.6935 112.901 15.6248 112.76 16.8155C112.752 16.8772 112.677 16.8897 112.663 16.7458C112.573 15.792 112.372 14.0589 112.347 10.4177C112.343 9.70722 112.192 9.10249 111.406 8.6074C110.896 8.28614 109.347 7.71796 108.789 8.39391C108.306 8.94674 107.747 10.4345 107.165 12.198C106.693 13.6313 106.364 14.601 106.364 14.601C106.364 14.601 106.37 10.7335 106.376 9.26654C106.378 8.71311 105.998 8.5287 105.883 8.49527C105.367 8.34573 104.349 8.09592 103.917 8.09592C103.384 8.09592 103.254 8.39309 103.254 8.82608C103.254 8.88277 103.17 13.9179 103.17 17.4387C103.17 17.5917 103.17 17.7585 103.171 17.9358C102.877 19.554 101.921 21.7507 100.881 21.7507C99.8405 21.7507 99.3495 20.8323 99.3495 16.6349C99.3495 14.1863 99.4232 13.1216 99.4594 11.3506C99.4804 10.3305 99.521 9.54718 99.5187 9.36942C99.5111 8.82429 98.5662 8.54954 98.1266 8.448C97.6849 8.34561 97.3011 8.30594 97.0013 8.32297C96.5771 8.34685 96.277 8.62452 96.277 9.00642C96.277 9.21118 96.2793 9.60055 96.2793 9.60055C95.7329 8.74393 94.8541 8.1477 94.2694 7.97492C92.6945 7.5083 91.0512 7.92176 89.8116 9.65227C88.8264 11.0273 88.2326 12.5846 87.9988 14.822C87.8279 16.4577 87.8837 18.1165 88.1874 19.5193C87.8204 21.1022 87.1392 21.7507 86.3931 21.7507C85.3101 21.7507 84.525 19.987 84.6161 16.9369C84.6763 14.9307 85.0787 13.5228 85.5185 11.486C85.706 10.6177 85.5537 10.1631 85.1715 9.72744C84.821 9.32789 84.0741 9.12375 83.0005 9.37483C82.2357 9.55383 81.1423 9.74634 80.1419 9.8942C80.1419 9.8942 80.2023 9.65393 80.2518 9.23029C80.512 7.00864 78.0922 7.1889 77.3202 7.8985C76.8594 8.32215 76.5457 8.8218 76.4266 9.72018C76.2378 11.1458 77.4032 11.8183 77.4032 11.8183C77.0209 13.5646 76.0836 15.8458 75.1159 17.4951C74.5976 18.3788 74.2011 19.0336 73.6892 19.7296C73.6873 19.4704 73.6859 19.2113 73.685 18.9533C73.6733 15.2819 73.7222 12.3924 73.7439 11.3509C73.7649 10.3309 73.8059 9.56831 73.8036 9.39054C73.7978 8.99182 73.5644 8.84126 73.079 8.65061C72.6498 8.48199 72.1424 8.36528 71.6159 8.32458C70.9515 8.27287 70.5512 8.62446 70.5616 9.04021C70.5637 9.11871 70.5637 9.60071 70.5637 9.60071C70.0173 8.74407 69.1384 8.14786 68.5538 7.97506C66.9789 7.50864 65.3355 7.92211 64.096 9.65241C63.111 11.0274 62.4659 12.9568 62.2832 14.8051C62.1129 16.5277 62.1443 17.9916 62.3764 19.2247C62.126 20.4595 61.406 21.7508 60.5919 21.7508C59.5512 21.7508 58.959 20.8324 58.959 16.6351C58.959 14.1865 59.0327 13.1217 59.0689 11.3509C59.0899 10.3309 59.1305 9.54734 59.1282 9.36978C59.1206 8.82465 58.1757 8.5499 57.7361 8.44814C57.2761 8.34202 56.8789 8.30298 56.574 8.3254C56.1716 8.35531 55.8887 8.71479 55.8887 8.98289V9.60071C55.3423 8.74407 54.4635 8.14786 53.8788 7.97506C52.3039 7.50864 50.6697 7.92877 49.421 9.65241C48.6067 10.7763 47.9475 12.0223 47.6082 14.7806C47.5102 15.5777 47.4669 16.3241 47.4725 17.0218C47.1478 19.003 45.7136 21.2865 44.5405 21.2865C43.854 21.2865 43.2002 19.958 43.2002 17.1269C43.2002 13.3556 43.4342 7.98608 43.4737 7.46857C43.4737 7.46857 44.956 7.44344 45.243 7.44011C45.9824 7.43201 46.652 7.44946 47.6367 7.3992C48.1307 7.37407 48.6065 5.60556 48.0968 5.38668C47.8657 5.28762 46.2328 5.20082 45.5854 5.18711C45.0411 5.17481 43.5258 5.06292 43.5258 5.06292C43.5258 5.06292 43.6617 1.4989 43.6933 1.1224C43.7202 0.808611 43.3132 0.64705 43.0799 0.549017C42.5125 0.30958 42.0048 0.19494 41.403 0.0711708C40.5717 -0.0999401 40.1945 0.0674324 40.1208 0.767485C40.0099 1.82993 39.9524 4.94185 39.9524 4.94185C39.3423 4.94185 37.2583 4.82286 36.648 4.82286C36.081 4.82286 35.469 7.25571 36.2529 7.2856C37.1548 7.3205 38.7266 7.35061 39.7686 7.38197C39.7686 7.38197 39.7222 12.8399 39.7222 14.525C39.7222 14.7042 39.7238 14.8769 39.7241 15.0444C39.1506 18.0265 37.1307 19.6374 37.1307 19.6374C37.5645 17.6645 36.6784 16.183 35.0823 14.9289C34.4942 14.4668 33.3334 13.5919 32.0345 12.6331C32.0345 12.6331 32.7868 11.8934 33.4539 10.4053C33.9266 9.35113 33.947 8.14477 32.7868 7.87876C30.8697 7.43891 29.289 8.84358 28.8175 10.3432C28.4522 11.5049 28.647 12.3669 29.3627 13.2624C29.4149 13.3278 29.4715 13.3947 29.53 13.4619C29.0973 14.2941 28.5028 15.4145 27.9993 16.2833C26.6017 18.6956 25.546 20.6037 24.7481 20.6037C24.1104 20.6037 24.1189 18.6665 24.1189 16.8528C24.1189 15.2892 24.2346 12.9384 24.3271 10.5045C24.3576 9.6996 23.9542 9.24106 23.278 8.82573C22.8671 8.57341 21.9901 8.07729 21.4822 8.07729C20.722 8.07729 18.5288 8.18049 16.4564 14.1612C16.1952 14.915 15.6822 16.2885 15.6822 16.2885L15.7263 9.09652C15.7263 8.9279 15.6363 8.76488 15.4302 8.65335C15.081 8.46417 14.1483 8.07729 13.3189 8.07729C12.9238 8.07729 12.7266 8.26066 12.7266 8.62615L12.6542 19.8781C12.6542 20.733 12.6766 21.7304 12.7613 22.1666C12.8457 22.6034 12.9825 22.9587 13.1518 23.1701C13.3209 23.3811 13.5166 23.542 13.8391 23.6085C14.1393 23.6701 15.7832 23.8807 15.8686 23.254C15.971 22.5029 15.9749 21.6905 16.8381 18.6605C18.1819 13.9433 19.9339 11.6417 20.7576 10.8243C20.9016 10.6815 21.066 10.6729 21.0581 10.9068C21.0229 11.941 20.8993 14.5252 20.816 16.7207C20.5929 22.5961 21.6643 23.6851 23.1952 23.6851C24.3665 23.6851 26.0176 22.524 27.7875 19.5849C28.8909 17.7532 29.9622 15.9573 30.732 14.6629C31.2684 15.1583 31.8704 15.6915 32.4719 16.2611C33.8699 17.5849 34.3289 18.8427 34.0243 20.0359C33.7914 20.9481 32.9143 21.8882 31.3531 20.9745C30.8981 20.7079 30.7039 20.502 30.2464 20.2014C30.0006 20.04 29.6252 19.9917 29.4002 20.1609C28.8157 20.6005 28.4815 21.1598 28.2906 21.8522C28.1049 22.5259 28.7812 22.882 29.4822 23.1935C30.0859 23.4616 31.3833 23.7045 32.2107 23.7322C35.4346 23.8398 38.0171 22.1792 39.8149 17.8959C40.1367 21.5951 41.5064 23.6884 43.886 23.6884C45.4769 23.6884 47.0719 21.6368 47.7695 19.6185C47.9697 20.4412 48.2661 21.1566 48.6489 21.7616C50.4825 24.6601 54.0396 24.0362 55.8264 21.575C56.3788 20.8145 56.4629 20.5412 56.4629 20.5412C56.7235 22.8652 58.5994 23.6772 59.6735 23.6772C60.8764 23.6772 62.1184 23.1098 62.9889 21.1546C63.0909 21.3668 63.2023 21.5695 63.3238 21.7616C65.1574 24.66 68.7145 24.0362 70.5013 21.5749C70.5856 21.4595 70.6587 21.3547 70.7226 21.2607L70.775 22.7873C70.775 22.7873 69.7557 23.7202 69.13 24.2925C66.3762 26.8132 64.2822 28.7256 64.1281 30.9526C63.9304 33.7923 66.2388 34.8477 67.9852 34.986C69.8398 35.1328 71.428 34.1107 72.4043 32.6802C73.2629 31.4211 73.8249 28.7112 73.7837 26.0348C73.7672 24.963 73.7402 23.6003 73.7189 22.1396C74.6868 21.0181 75.7774 19.6008 76.7815 17.9417C77.8757 16.1337 79.0485 13.7057 79.649 11.8161C79.649 11.8161 80.6679 11.8248 81.7553 11.7538C82.1031 11.7312 82.203 11.802 82.1387 12.0564C82.061 12.3637 80.7649 17.3515 81.9478 20.6742C82.7575 22.9488 84.5828 23.6807 85.665 23.6807C86.9318 23.6807 88.1437 22.7262 88.7931 21.3089C88.8714 21.4669 88.9532 21.6198 89.0425 21.7609C90.8761 24.6594 94.4207 24.0318 96.22 21.5743C96.6261 21.0198 96.8565 20.5405 96.8565 20.5405C97.2426 22.9457 99.1174 23.6888 100.191 23.6888C101.31 23.6888 102.371 23.2312 103.233 21.198C103.269 22.0932 103.325 22.8253 103.415 23.0561C103.469 23.1972 103.787 23.3744 104.019 23.4599C105.042 23.8385 106.086 23.6595 106.472 23.5816C106.739 23.5276 106.948 23.3135 106.976 22.7607C107.051 21.3091 107.005 18.8702 107.446 17.0577C108.187 14.0157 108.877 12.8358 109.205 12.2516C109.388 11.9243 109.595 11.8703 109.603 12.2167C109.618 12.9176 109.653 14.9758 109.94 17.7411C110.151 19.7749 110.432 20.977 110.648 21.3575C111.265 22.4454 112.028 22.497 112.648 22.497C113.043 22.497 113.869 22.3881 113.795 21.6957C113.759 21.3583 113.822 19.2727 114.552 16.2758C115.029 14.3187 115.824 12.5504 116.11 11.9039C116.216 11.6655 116.265 11.8535 116.263 11.8901C116.203 13.2378 116.067 17.6463 116.618 20.0573C117.364 23.3235 119.522 23.689 120.274 23.689C121.879 23.689 123.193 22.4706 123.635 19.2646C123.741 18.4931 123.584 17.8973 123.111 17.8973" fill="#FDFDFD"/>
</g>
<defs>
<clipPath id="clip0_501_418">
<rect width="123.667" height="35" fill="white"/>
</clipPath>
</defs>
</svg>
