<svg width="72" height="100" viewBox="0 0 72 100" fill="none" xmlns="http://www.w3.org/2000/svg">
<path d="M0.0844727 7.04226C0.0844727 5.48652 1.34564 4.22535 2.90137 4.22535H69.0986C70.6543 4.22535 71.9155 5.48652 71.9155 7.04225V97.1831C71.9155 98.7388 70.6543 100 69.0986 100H2.90137C1.34564 100 0.0844727 98.7388 0.0844727 97.1831V7.04226Z" fill="#0D469F"/>
<path d="M5.71828 12.6761C5.71828 11.8982 6.34886 11.2676 7.12673 11.2676H64.8732C65.6511 11.2676 66.2817 11.8982 66.2817 12.6761V91.5493C66.2817 92.3272 65.6511 92.9577 64.8732 92.9577H7.12673C6.34886 92.9577 5.71828 92.3272 5.71828 91.5493V12.6761Z" fill="#FEFEFE"/>
<path d="M16.9859 1.40845C16.9859 0.630584 17.6165 0 18.3943 0H55.014C55.7919 0 56.4225 0.630585 56.4225 1.40845V14.0845C56.4225 14.8624 55.7919 15.493 55.014 15.493H18.3943C17.6165 15.493 16.9859 14.8624 16.9859 14.0845V1.40845Z" fill="#444444"/>
<path fill-rule="evenodd" clip-rule="evenodd" d="M57.1292 78.4402C57.5628 78.8305 57.598 79.4984 57.2077 79.932L51.4247 86.3576C50.6979 87.1652 49.4201 87.1281 48.7413 86.2796L46.4427 83.4064C46.0783 82.9508 46.1522 82.2861 46.6077 81.9216C47.0633 81.5572 47.728 81.631 48.0925 82.0866L50.1319 84.6359L55.6374 78.5187C56.0276 78.0851 56.6956 78.0499 57.1292 78.4402Z" fill="#BB0E1B"/>
<path fill-rule="evenodd" clip-rule="evenodd" d="M60.6479 26.4085H12.7605V24.2958H60.6479V26.4085ZM60.6479 34.8592H12.7605V32.7465H60.6479V34.8592ZM60.6479 43.3099H12.7605V41.1972H60.6479V43.3099ZM60.6479 50.3521H12.7605V48.2394H60.6479V50.3521ZM60.6479 58.8028H12.7605V56.6901H60.6479V58.8028ZM60.6479 67.2535H12.7605V65.1408H60.6479V67.2535ZM60.6479 75.7042H12.7605V73.5916H60.6479V75.7042ZM36.7042 85.5634H12.7605V83.4507H36.7042V85.5634Z" fill="#0D469F"/>
</svg>
