<svg width="361" height="145" viewBox="0 0 361 145" fill="none" xmlns="http://www.w3.org/2000/svg">
<path d="M130.623 125.659C131.19 125.659 131.799 125.717 132.453 125.833C133.121 125.935 133.513 125.993 133.629 126.007L133.585 127.639C132.308 127.407 131.32 127.291 130.623 127.291C129.636 127.291 128.924 127.494 128.489 127.9C128.053 128.306 127.835 128.98 127.835 129.922V136.143C127.835 137.085 128.046 137.76 128.467 138.166C128.902 138.557 129.621 138.753 130.623 138.753C131.32 138.753 132.308 138.637 133.585 138.405L133.629 140.08C133.513 140.094 133.121 140.152 132.453 140.254C131.799 140.37 131.19 140.428 130.623 140.428C128.953 140.428 127.763 140.072 127.051 139.362C126.34 138.651 125.984 137.542 125.984 136.034V130.053C125.984 128.545 126.34 127.436 127.051 126.725C127.763 126.015 128.953 125.659 130.623 125.659Z" fill="black"/>
<path d="M140.22 125.659C141.933 125.659 143.204 126.007 144.031 126.703C144.874 127.385 145.295 128.364 145.295 129.64V130.162C145.295 131.525 144.888 132.576 144.075 133.315C143.262 134.055 142.035 134.425 140.394 134.425C139.741 134.425 139.044 134.367 138.303 134.251V140.167H136.452V125.768C137.686 125.696 138.942 125.659 140.22 125.659ZM140.176 127.225C139.537 127.225 138.913 127.24 138.303 127.269V132.663C139.174 132.779 139.842 132.837 140.307 132.837C142.398 132.837 143.443 131.916 143.443 130.075V129.705C143.443 128.878 143.182 128.262 142.659 127.856C142.136 127.436 141.309 127.225 140.176 127.225Z" fill="black"/>
<path d="M150.606 129.292C151.855 129.292 152.763 129.574 153.329 130.14C153.91 130.691 154.2 131.575 154.2 132.793V140.167H152.436V138.47C151.594 139.775 150.643 140.428 149.583 140.428C148.74 140.428 148.065 140.138 147.557 139.558C147.063 138.978 146.816 138.187 146.816 137.187V136.578C146.816 135.708 147.114 134.99 147.709 134.425C148.305 133.845 149.103 133.555 150.105 133.555C150.657 133.555 151.405 133.649 152.349 133.837V132.641C152.349 132.018 152.204 131.568 151.913 131.293C151.637 131.017 151.202 130.879 150.606 130.879C149.909 130.879 148.929 130.988 147.666 131.206V129.618C149.031 129.4 150.011 129.292 150.606 129.292ZM150.563 134.99C149.953 134.99 149.488 135.15 149.169 135.469C148.849 135.788 148.69 136.237 148.69 136.817V137.056C148.69 137.593 148.813 138.013 149.06 138.318C149.307 138.622 149.619 138.775 149.996 138.775C150.389 138.775 150.788 138.608 151.194 138.274C151.616 137.926 152 137.441 152.349 136.817V135.142C151.797 135.041 151.202 134.99 150.563 134.99Z" fill="black"/>
<path d="M160.391 129.292C161.64 129.292 162.547 129.574 163.114 130.14C163.694 130.691 163.985 131.575 163.985 132.793V140.167H162.221V138.47C161.378 139.775 160.427 140.428 159.367 140.428C158.525 140.428 157.85 140.138 157.342 139.558C156.848 138.978 156.601 138.187 156.601 137.187V136.578C156.601 135.708 156.899 134.99 157.494 134.425C158.089 133.845 158.888 133.555 159.89 133.555C160.442 133.555 161.19 133.649 162.133 133.837V132.641C162.133 132.018 161.988 131.568 161.698 131.293C161.422 131.017 160.986 130.879 160.391 130.879C159.694 130.879 158.714 130.988 157.45 131.206V129.618C158.815 129.4 159.796 129.292 160.391 129.292ZM160.347 134.99C159.738 134.99 159.273 135.15 158.953 135.469C158.634 135.788 158.474 136.237 158.474 136.817V137.056C158.474 137.593 158.598 138.013 158.844 138.318C159.091 138.622 159.404 138.775 159.781 138.775C160.173 138.775 160.572 138.608 160.979 138.274C161.4 137.926 161.785 137.441 162.133 136.817V135.142C161.582 135.041 160.986 134.99 160.347 134.99Z" fill="black"/>
<path d="M170.611 125.659C171.395 125.659 172.419 125.775 173.682 126.007L173.639 127.639C172.448 127.407 171.439 127.291 170.611 127.291C169.769 127.291 169.159 127.457 168.782 127.791C168.418 128.124 168.237 128.632 168.237 129.313V129.879C168.237 130.241 168.281 130.531 168.368 130.749C168.469 130.952 168.644 131.133 168.89 131.293C169.137 131.438 169.508 131.59 170.001 131.749L172.027 132.424C173 132.757 173.682 133.199 174.074 133.75C174.481 134.301 174.684 135.106 174.684 136.165V136.578C174.684 137.868 174.307 138.833 173.552 139.471C172.811 140.109 171.591 140.428 169.892 140.428C169.065 140.428 168.005 140.283 166.712 139.993L166.756 138.318C167.961 138.608 168.992 138.753 169.849 138.753C170.938 138.753 171.707 138.593 172.158 138.274C172.608 137.941 172.833 137.426 172.833 136.73V136.012C172.833 135.505 172.717 135.121 172.484 134.86C172.267 134.584 171.874 134.352 171.308 134.164L169.065 133.424C168.063 133.091 167.366 132.663 166.974 132.141C166.582 131.604 166.386 130.8 166.386 129.727V129.487C166.386 128.226 166.72 127.276 167.388 126.638C168.07 125.986 169.145 125.659 170.611 125.659Z" fill="black"/>
<path d="M188.675 125.659C190.388 125.659 191.659 126.007 192.486 126.703C193.329 127.385 193.75 128.364 193.75 129.64V130.162C193.75 131.525 193.343 132.576 192.53 133.315C191.717 134.055 190.49 134.425 188.849 134.425C188.195 134.425 187.498 134.367 186.758 134.251V140.167H184.906V125.768C186.141 125.696 187.397 125.659 188.675 125.659ZM188.631 127.225C187.992 127.225 187.368 127.24 186.758 127.269V132.663C187.629 132.779 188.297 132.837 188.762 132.837C190.853 132.837 191.898 131.916 191.898 130.075V129.705C191.898 128.878 191.637 128.262 191.114 127.856C190.591 127.436 189.764 127.225 188.631 127.225Z" fill="black"/>
<path d="M197.883 125.92V138.535H203.546V140.167H196.031V125.92H197.883Z" fill="black"/>
<path d="M211.151 125.92L215.529 140.167H213.525L212.589 136.861H207.339L206.403 140.167H204.508L208.864 125.92H211.151ZM209.975 127.617L207.797 135.208H212.131L209.975 127.617Z" fill="black"/>
<path d="M225.301 125.92V127.595H221.163V140.167H219.312V127.595H215.173V125.92H225.301Z" fill="black"/>
<path d="M235.112 125.92V127.595H229.448V132.097H233.718V133.75H229.448V140.167H227.597V125.92H235.112Z" fill="black"/>
<path d="M241.596 125.659C243.222 125.659 244.42 126.065 245.19 126.877C245.959 127.689 246.344 128.842 246.344 130.336V135.751C246.344 137.245 245.959 138.398 245.19 139.21C244.42 140.022 243.222 140.428 241.596 140.428C239.969 140.428 238.771 140.022 238.002 139.21C237.232 138.398 236.847 137.245 236.847 135.751V130.336C236.847 128.842 237.232 127.689 238.002 126.877C238.771 126.065 239.969 125.659 241.596 125.659ZM241.596 127.291C240.637 127.291 239.911 127.53 239.417 128.008C238.938 128.487 238.699 129.19 238.699 130.118V135.947C238.699 136.875 238.938 137.586 239.417 138.079C239.911 138.557 240.637 138.796 241.596 138.796C242.554 138.796 243.273 138.557 243.752 138.079C244.246 137.586 244.493 136.875 244.493 135.947V130.14C244.493 129.212 244.246 128.509 243.752 128.03C243.273 127.537 242.554 127.291 241.596 127.291Z" fill="black"/>
<path d="M253.296 125.659C255.009 125.659 256.273 125.993 257.086 126.66C257.899 127.327 258.306 128.262 258.306 129.466V130.009C258.306 130.85 258.073 131.597 257.609 132.25C257.144 132.888 256.476 133.337 255.605 133.598L259.308 140.167H257.238L253.775 133.99C253.659 134.004 253.427 134.011 253.078 134.011C252.497 134.011 251.924 133.99 251.357 133.946V140.167H249.506V125.746C251.132 125.688 252.396 125.659 253.296 125.659ZM253.252 127.225C252.773 127.225 252.142 127.24 251.357 127.269V132.402C252.142 132.474 252.795 132.511 253.318 132.511C255.409 132.511 256.454 131.662 256.454 129.966V129.531C256.454 128.748 256.2 128.168 255.692 127.791C255.184 127.414 254.37 127.225 253.252 127.225Z" fill="black"/>
<path d="M271.528 140.167L271.419 128.465L268.391 138.688H266.104L263.077 128.465L262.968 140.167H261.16L261.29 125.92H264.035L267.259 137.035L270.46 125.92H273.205L273.336 140.167H271.528Z" fill="black"/>
<path fill-rule="evenodd" clip-rule="evenodd" d="M325.106 70.0833V97.4722H352.131V70.0833H325.106ZM317.039 97.4722V70.0833C317.039 65.6344 320.651 62.0278 325.106 62.0278H352.131C356.587 62.0278 360.198 65.6344 360.198 70.0833V97.4722C360.198 101.921 356.587 105.528 352.131 105.528H325.106C320.651 105.528 317.039 101.921 317.039 97.4722Z" fill="black"/>
<path d="M263.796 62.4305H254.922L279.93 105.528H286.787L312.199 62.4305H303.325L283.157 96.2639L263.796 62.4305Z" fill="black"/>
<path fill-rule="evenodd" clip-rule="evenodd" d="M253.522 61.625H264.264L283.171 94.6651L302.866 61.625H313.61L287.249 106.333H279.465L253.522 61.625ZM256.322 63.2361L280.395 104.722H286.326L310.788 63.2361H303.784L283.143 97.8627L263.328 63.2361H256.322Z" fill="black"/>
<path fill-rule="evenodd" clip-rule="evenodd" d="M204.099 70.0833C204.099 64.967 208.253 60.8194 213.376 60.8194H240.805C245.928 60.8194 250.082 64.967 250.082 70.0833V106.736H239.594V92.2361H214.183V106.736H204.099V70.0833ZM213.376 63.2361C209.589 63.2361 206.519 66.3017 206.519 70.0833V104.319H211.763V89.8194H242.015V104.319H247.662V70.0833C247.662 66.3017 244.592 63.2361 240.805 63.2361H213.376ZM214.183 71.2916V81.7638H239.594V71.2916H214.183ZM211.763 70.8888C211.763 69.7766 212.666 68.875 213.78 68.875H239.998C241.112 68.875 242.015 69.7766 242.015 70.8888V82.1666C242.015 83.2789 241.112 84.1805 239.998 84.1805H213.78C212.666 84.1805 211.763 83.2789 211.763 82.1666V70.8888Z" fill="#3DB3E5"/>
<path fill-rule="evenodd" clip-rule="evenodd" d="M152.873 60.8194H189.981C195.105 60.8194 199.259 64.967 199.259 70.0833V97.0694C199.259 102.186 195.105 106.333 189.981 106.333H152.873V60.8194ZM155.293 63.2361V103.917H189.981C193.769 103.917 196.839 100.851 196.839 97.0694V70.0833C196.839 66.3017 193.769 63.2361 189.981 63.2361H155.293ZM160.94 70.8888C160.94 69.7766 161.843 68.875 162.957 68.875H189.578C190.692 68.875 191.595 69.7766 191.595 70.8888V96.6666C191.595 97.7789 190.692 98.6805 189.578 98.6805H162.957C161.843 98.6805 160.94 97.7789 160.94 96.6666V70.8888ZM163.36 71.2916V96.2638H189.175V71.2916H163.36Z" fill="#3DB3E5"/>
<path fill-rule="evenodd" clip-rule="evenodd" d="M112.133 70.0833V97.4722H139.158V70.0833H112.133ZM104.066 97.4722V70.0833C104.066 65.6344 107.678 62.0278 112.133 62.0278H139.158C143.614 62.0278 147.226 65.6344 147.226 70.0833V97.4722C147.226 101.921 143.614 105.528 139.158 105.528H112.133C107.678 105.528 104.066 101.921 104.066 97.4722Z" fill="black"/>
<path d="M54.0291 105.528H49.2097C48.3186 105.528 47.5962 104.806 47.5962 103.917V63.6389C47.5962 62.7491 48.3186 62.0278 49.2097 62.0278H54.8977C55.3823 62.0278 55.8412 62.2452 56.1476 62.6201L71.7977 81.7639L87.0442 62.6356C87.3503 62.2515 87.815 62.0278 88.3066 62.0278H94.7891C95.6801 62.0278 96.4025 62.7491 96.4025 63.6389V103.917C96.4025 104.806 95.6801 105.528 94.7891 105.528H90.3521C89.4611 105.528 88.7387 104.806 88.7387 103.917V73.3055L71.7977 93.4444L55.26 74.1111L55.6424 103.896C55.654 104.794 54.9283 105.528 54.0291 105.528Z" fill="black"/>
<path fill-rule="evenodd" clip-rule="evenodd" d="M54.4248 71.8944L71.7925 92.1981L89.5454 71.0941V103.917C89.5454 104.362 89.9066 104.722 90.3521 104.722H94.7891C95.2346 104.722 95.5958 104.362 95.5958 103.917V63.6389C95.5958 63.194 95.2346 62.8333 94.7891 62.8333H88.3066C88.0608 62.8333 87.8284 62.9452 87.6754 63.1372L71.8056 83.0475L55.5226 63.1295C55.3694 62.9421 55.14 62.8333 54.8977 62.8333H49.2097C48.7641 62.8333 48.4029 63.194 48.4029 63.6389V103.917C48.4029 104.362 48.7641 104.722 49.2097 104.722H54.0291C54.4787 104.722 54.8415 104.355 54.8358 103.906L54.4248 71.8944ZM71.7977 93.4444L55.26 74.1111L55.6424 103.896C55.654 104.794 54.9283 105.528 54.0291 105.528H49.2097C48.3186 105.528 47.5962 104.806 47.5962 103.917V63.6389C47.5962 62.7491 48.3186 62.0278 49.2097 62.0278H54.8977C55.3823 62.0278 55.8412 62.2452 56.1476 62.6201L71.7977 81.7639L87.0442 62.6356C87.3503 62.2515 87.815 62.0278 88.3066 62.0278H94.7891C95.6801 62.0278 96.4025 62.7491 96.4025 63.6389V103.917C96.4025 104.806 95.6801 105.528 94.7891 105.528H90.3521C89.4611 105.528 88.7387 104.806 88.7387 103.917V73.3055L71.7977 93.4444Z" fill="black"/>
<path fill-rule="evenodd" clip-rule="evenodd" d="M54.4248 71.8944L71.7925 92.1981L89.5454 71.0941V103.917C89.5454 104.362 89.9066 104.722 90.3521 104.722H94.7891C95.2346 104.722 95.5958 104.362 95.5958 103.917V63.6389C95.5958 63.194 95.2346 62.8333 94.7891 62.8333H88.3066C88.0608 62.8333 87.8284 62.9452 87.6754 63.1372L71.8056 83.0475L55.5226 63.1295C55.3694 62.9421 55.14 62.8333 54.8977 62.8333H49.2097C48.7641 62.8333 48.4029 63.194 48.4029 63.6389V103.917C48.4029 104.362 48.7641 104.722 49.2097 104.722H54.0291C54.4787 104.722 54.8415 104.355 54.8358 103.906L54.4248 71.8944ZM71.7977 93.4444L55.26 74.1111L55.6424 103.896C55.654 104.794 54.9283 105.528 54.0291 105.528H49.2097C48.3186 105.528 47.5962 104.806 47.5962 103.917V63.6389C47.5962 62.7491 48.3186 62.0278 49.2097 62.0278H54.8977C55.3823 62.0278 55.8412 62.2452 56.1476 62.6201L71.7977 81.7639L87.0442 62.6356C87.3503 62.2515 87.815 62.0278 88.3066 62.0278H94.7891C95.6801 62.0278 96.4025 62.7491 96.4025 63.6389V103.917C96.4025 104.806 95.6801 105.528 94.7891 105.528H90.3521C89.4611 105.528 88.7387 104.806 88.7387 103.917V73.3055L71.7977 93.4444Z" fill="black" fill-opacity="0.2"/>
<path fill-rule="evenodd" clip-rule="evenodd" d="M43.966 53.5695C41.7072 50.6695 37.3778 49.4074 35.4955 49.1389H22.1847C22.0299 49.1286 21.8525 49.1188 21.6549 49.1078C19.2786 48.9756 13.9879 48.6813 10.0839 45.5139C3.63022 40.2778 0 34.2744 0 25.7778C0 19.7361 1.79732 14.3164 5.64701 10.4723C10.0839 6.04169 14.5209 2.81947 25.4115 3.62503C36.1523 4.41951 43.966 14.5 43.966 19.7361V53.5695ZM34.2854 39.4723V20.2047C34.2397 20.0877 34.1598 19.9043 34.0266 19.6537C33.6162 18.8816 32.9049 17.8771 31.8894 16.8684C29.7996 14.7926 27.2185 13.4518 24.6964 13.2653C20.2997 12.9401 18.0788 13.4896 16.8324 14.0082C15.5643 14.5358 14.4198 15.3828 12.4922 17.3076C10.9073 18.8903 9.68058 21.5868 9.68058 25.7778C9.68058 30.7555 11.478 34.1898 16.1884 38.0115C16.6594 38.3936 17.524 38.8089 18.9125 39.0938C20.0634 39.33 20.9987 39.3846 22.0582 39.4465C22.2004 39.4548 22.3448 39.4632 22.4923 39.4723H34.2854Z" fill="black"/>
<path fill-rule="evenodd" clip-rule="evenodd" d="M54.4533 27.3889H64.5372C70.3292 27.3889 75.0245 22.7003 75.0245 16.9167V16.7153C75.0245 11.0429 70.4195 6.44444 64.7389 6.44444C59.0583 6.44444 54.4533 11.0429 54.4533 16.7153V27.3889ZM56.0667 25.7778V16.7153C56.0667 11.9326 59.9494 8.05556 64.7389 8.05556C69.5284 8.05556 73.4111 11.9326 73.4111 16.7153V16.9167C73.4111 21.8105 69.4381 25.7778 64.5372 25.7778H56.0667ZM55.5457 32.625L55.4292 32.642C54.3896 32.7943 53.4545 33.2356 52.3294 33.975C51.7807 34.3356 51.1553 34.7889 50.4197 35.3495V12.4861C50.4197 11.0366 51.4963 8.4694 53.7268 6.11068C55.9018 3.81062 58.9375 1.97136 62.4836 1.70209C66.4001 1.4047 69.0078 1.86136 70.9818 2.70449C72.9619 3.55022 74.4519 4.84471 76.0743 6.50778C78.6009 9.09778 79.8648 12.8348 79.8648 17.2037C79.8648 20.3627 79.4776 22.4229 78.6267 24.1357C77.7695 25.8612 76.3609 27.4001 73.9911 29.3739C72.7917 30.3728 70.8609 31.2034 68.9354 31.7885C66.9966 32.3777 65.382 32.625 64.9406 32.625H55.5457ZM48.8063 12.4861C48.8063 8.44238 54.2811 0.709173 62.3613 0.0956187C70.5543 -0.526499 73.8922 1.96195 77.23 5.38359C80.1261 8.35235 81.4782 12.5379 81.4782 17.2037C81.4782 23.7655 79.8796 26.5674 75.0245 30.6111C72.123 33.0278 66.3024 34.2361 64.9406 34.2361H55.6633C54.4549 34.4131 53.2528 35.1679 50.4197 37.3879C49.9328 37.7694 49.3978 38.1941 48.8063 38.6667V12.4861Z" fill="black"/>
</svg>
