<svg width="162" height="66" viewBox="0 0 162 66" fill="none" xmlns="http://www.w3.org/2000/svg">
<g clip-path="url(#clip0_142_323)">
<path d="M58.4424 56.8301C58.6958 56.8301 58.9687 56.8561 59.261 56.9081C59.5599 56.9536 59.7353 56.9796 59.7873 56.9861L59.7678 57.7173C59.1961 57.6133 58.7543 57.5613 58.4424 57.5613C58.0006 57.5613 57.6823 57.6523 57.4874 57.8343C57.2925 58.0163 57.195 58.3186 57.195 58.7411V61.5296C57.195 61.9521 57.2892 62.2543 57.4777 62.4363C57.6726 62.6118 57.9942 62.6996 58.4424 62.6996C58.7543 62.6996 59.1961 62.6476 59.7678 62.5436L59.7873 63.2943C59.7353 63.3008 59.5599 63.3268 59.261 63.3723C58.9687 63.4243 58.6958 63.4503 58.4424 63.4503C57.6953 63.4503 57.1626 63.2911 56.8442 62.9726C56.5259 62.6541 56.3667 62.1568 56.3667 61.4808V58.7996C56.3667 58.1236 56.5259 57.6263 56.8442 57.3078C57.1626 56.9893 57.6953 56.8301 58.4424 56.8301Z" fill="black"/>
<path d="M62.736 56.8301C63.5027 56.8301 64.0711 56.9861 64.4415 57.2981C64.8183 57.6036 65.0067 58.0423 65.0067 58.6143V58.8483C65.0067 59.4593 64.8248 59.9306 64.4609 60.2621C64.0971 60.5936 63.5481 60.7593 62.814 60.7593C62.5216 60.7593 62.2098 60.7333 61.8785 60.6813V63.3333H61.0501V56.8788C61.6023 56.8463 62.1643 56.8301 62.736 56.8301ZM62.7165 57.5321C62.4307 57.5321 62.1513 57.5386 61.8785 57.5516V59.9696C62.2683 60.0216 62.5671 60.0476 62.775 60.0476C63.7106 60.0476 64.1783 59.6348 64.1783 58.8093V58.6436C64.1783 58.2731 64.0614 57.9968 63.8275 57.8148C63.5936 57.6263 63.2233 57.5321 62.7165 57.5321Z" fill="black"/>
<path d="M67.3831 58.4583C67.9419 58.4583 68.3479 58.5851 68.6013 58.8386C68.8612 59.0856 68.9911 59.4821 68.9911 60.0281V63.3333H68.2017V62.5728C67.8249 63.1578 67.3994 63.4503 66.9251 63.4503C66.5483 63.4503 66.2462 63.3203 66.0188 63.0603C65.7979 62.8003 65.6875 62.4461 65.6875 61.9976V61.7246C65.6875 61.3346 65.8207 61.0128 66.087 60.7593C66.3534 60.4993 66.7107 60.3693 67.159 60.3693C67.4059 60.3693 67.7405 60.4116 68.1628 60.4961V59.9598C68.1628 59.6803 68.0978 59.4788 67.9679 59.3553C67.8444 59.2318 67.6495 59.1701 67.3831 59.1701C67.0713 59.1701 66.6328 59.2188 66.0675 59.3163V58.6046C66.6782 58.5071 67.1168 58.4583 67.3831 58.4583ZM67.3636 61.0128C67.0908 61.0128 66.8829 61.0843 66.74 61.2273C66.597 61.3703 66.5256 61.5718 66.5256 61.8318V61.9391C66.5256 62.1796 66.5808 62.3681 66.6912 62.5046C66.8017 62.6411 66.9414 62.7093 67.1103 62.7093C67.2857 62.7093 67.4643 62.6346 67.6463 62.4851C67.8347 62.3291 68.0068 62.1113 68.1628 61.8318V61.0811C67.9159 61.0356 67.6495 61.0128 67.3636 61.0128Z" fill="black"/>
<path d="M71.7609 58.4583C72.3196 58.4583 72.7256 58.5851 72.979 58.8386C73.2389 59.0856 73.3688 59.4821 73.3688 60.0281V63.3333H72.5795V62.5728C72.2027 63.1578 71.7771 63.4503 71.3028 63.4503C70.926 63.4503 70.6239 63.3203 70.3965 63.0603C70.1756 62.8003 70.0652 62.4461 70.0652 61.9976V61.7246C70.0652 61.3346 70.1984 61.0128 70.4648 60.7593C70.7311 60.4993 71.0885 60.3693 71.5367 60.3693C71.7836 60.3693 72.1182 60.4116 72.5405 60.4961V59.9598C72.5405 59.6803 72.4755 59.4788 72.3456 59.3553C72.2221 59.2318 72.0272 59.1701 71.7609 59.1701C71.449 59.1701 71.0105 59.2188 70.4453 59.3163V58.6046C71.056 58.5071 71.4945 58.4583 71.7609 58.4583ZM71.7414 61.0128C71.4685 61.0128 71.2606 61.0843 71.1177 61.2273C70.9748 61.3703 70.9033 61.5718 70.9033 61.8318V61.9391C70.9033 62.1796 70.9585 62.3681 71.069 62.5046C71.1794 62.6411 71.3191 62.7093 71.488 62.7093C71.6634 62.7093 71.8421 62.6346 72.024 62.4851C72.2124 62.3291 72.3846 62.1113 72.5405 61.8318V61.0811C72.2936 61.0356 72.0272 61.0128 71.7414 61.0128Z" fill="black"/>
<path d="M76.3335 56.8301C76.6843 56.8301 77.1424 56.8821 77.7076 56.9861L77.6881 57.7173C77.1554 57.6133 76.7038 57.5613 76.3335 57.5613C75.9567 57.5613 75.6838 57.6361 75.5149 57.7856C75.3525 57.9351 75.2713 58.1626 75.2713 58.4681V58.7216C75.2713 58.8841 75.2908 59.0141 75.3298 59.1116C75.3752 59.2026 75.4532 59.2838 75.5636 59.3553C75.6741 59.4203 75.8398 59.4886 76.0606 59.5601L76.967 59.8623C77.4022 60.0118 77.7076 60.2101 77.883 60.4571C78.0649 60.7041 78.1559 61.0648 78.1559 61.5393V61.7246C78.1559 62.3031 77.987 62.7353 77.6491 63.0213C77.3178 63.3073 76.772 63.4503 76.0119 63.4503C75.6416 63.4503 75.1673 63.3853 74.5891 63.2553L74.6086 62.5046C75.1478 62.6346 75.6091 62.6996 75.9924 62.6996C76.4797 62.6996 76.824 62.6281 77.0254 62.4851C77.2268 62.3356 77.3275 62.1048 77.3275 61.7928V61.4711C77.3275 61.2436 77.2756 61.0713 77.1716 60.9543C77.0741 60.8308 76.8987 60.7268 76.6454 60.6423L75.6416 60.3108C75.1933 60.1613 74.8815 59.9696 74.7061 59.7356C74.5306 59.4951 74.4429 59.1343 74.4429 58.6533V58.5461C74.4429 57.9806 74.5924 57.5548 74.8912 57.2688C75.1966 56.9763 75.6773 56.8301 76.3335 56.8301Z" fill="black"/>
<path d="M84.4153 56.8301C85.182 56.8301 85.7504 56.9861 86.1208 57.2981C86.4976 57.6036 86.686 58.0423 86.686 58.6143V58.8483C86.686 59.4593 86.5041 59.9306 86.1402 60.2621C85.7764 60.5936 85.2274 60.7593 84.4933 60.7593C84.201 60.7593 83.8891 60.7333 83.5578 60.6813V63.3333H82.7294V56.8788C83.2817 56.8463 83.8436 56.8301 84.4153 56.8301ZM84.3959 57.5321C84.11 57.5321 83.8306 57.5386 83.5578 57.5516V59.9696C83.9476 60.0216 84.2464 60.0476 84.4543 60.0476C85.3899 60.0476 85.8576 59.6348 85.8576 58.8093V58.6436C85.8576 58.2731 85.7407 57.9968 85.5068 57.8148C85.2729 57.6263 84.9026 57.5321 84.3959 57.5321Z" fill="black"/>
<path d="M88.5351 56.9471V62.6021H91.0688V63.3333H87.7067V56.9471H88.5351Z" fill="black"/>
<path d="M94.4716 56.9471L96.4304 63.3333H95.5338L95.1148 61.8513H92.7662L92.3471 63.3333H91.4993L93.4483 56.9471H94.4716ZM93.9453 57.7076L92.9708 61.1103H94.9101L93.9453 57.7076Z" fill="black"/>
<path d="M100.803 56.9471V57.6978H98.951V63.3333H98.1227V57.6978H96.2711V56.9471H100.803Z" fill="black"/>
<path d="M105.192 56.9471V57.6978H102.658V59.7161H104.568V60.4571H102.658V63.3333H101.83V56.9471H105.192Z" fill="black"/>
<path d="M108.093 56.8301C108.82 56.8301 109.356 57.0121 109.701 57.3761C110.045 57.7401 110.217 58.2568 110.217 58.9263V61.3541C110.217 62.0236 110.045 62.5403 109.701 62.9043C109.356 63.2683 108.82 63.4503 108.093 63.4503C107.365 63.4503 106.829 63.2683 106.485 62.9043C106.141 62.5403 105.968 62.0236 105.968 61.3541V58.9263C105.968 58.2568 106.141 57.7401 106.485 57.3761C106.829 57.0121 107.365 56.8301 108.093 56.8301ZM108.093 57.5613C107.664 57.5613 107.339 57.6686 107.118 57.8831C106.904 58.0976 106.797 58.4128 106.797 58.8288V61.4418C106.797 61.8578 106.904 62.1763 107.118 62.3973C107.339 62.6118 107.664 62.7191 108.093 62.7191C108.522 62.7191 108.843 62.6118 109.058 62.3973C109.278 62.1763 109.389 61.8578 109.389 61.4418V58.8386C109.389 58.4226 109.278 58.1073 109.058 57.8928C108.843 57.6718 108.522 57.5613 108.093 57.5613Z" fill="black"/>
<path d="M113.328 56.8301C114.094 56.8301 114.66 56.9796 115.023 57.2786C115.387 57.5776 115.569 57.9968 115.569 58.5363V58.7801C115.569 59.1571 115.465 59.4918 115.257 59.7843C115.049 60.0703 114.75 60.2718 114.361 60.3888L116.017 63.3333H115.092L113.542 60.5643C113.49 60.5708 113.386 60.5741 113.23 60.5741C112.97 60.5741 112.714 60.5643 112.46 60.5448V63.3333H111.632V56.8691C112.36 56.8431 112.925 56.8301 113.328 56.8301ZM113.308 57.5321C113.094 57.5321 112.811 57.5386 112.46 57.5516V59.8526C112.811 59.8851 113.104 59.9013 113.337 59.9013C114.273 59.9013 114.741 59.5211 114.741 58.7606V58.5656C114.741 58.2146 114.627 57.9546 114.4 57.7856C114.172 57.6166 113.808 57.5321 113.308 57.5321Z" fill="black"/>
<path d="M121.485 63.3333L121.436 58.0878L120.081 62.6703H119.058L117.704 58.0878L117.655 63.3333H116.846L116.905 56.9471H118.132L119.575 61.9293L121.007 56.9471H122.235L122.294 63.3333H121.485Z" fill="black"/>
<path fill-rule="evenodd" clip-rule="evenodd" d="M145.457 31.9167V44.1944H157.548V31.9167H145.457ZM141.847 44.1944V31.9167C141.847 29.9223 143.463 28.3055 145.457 28.3055H157.548C159.541 28.3055 161.157 29.9223 161.157 31.9167V44.1944C161.157 46.1888 159.541 47.8055 157.548 47.8055H145.457C143.463 47.8055 141.847 46.1888 141.847 44.1944Z" fill="black"/>
<path d="M118.025 28.4861H114.055L125.244 47.8055H128.312L139.681 28.4861H135.711L126.688 43.6528L118.025 28.4861Z" fill="black"/>
<path fill-rule="evenodd" clip-rule="evenodd" d="M113.429 28.125H118.235L126.694 42.9361L135.506 28.125H140.313L128.518 48.1667H125.036L113.429 28.125ZM114.682 28.8472L125.452 47.4444H128.106L139.05 28.8472H135.916L126.682 44.3695L117.816 28.8472H114.682Z" fill="black"/>
<path fill-rule="evenodd" clip-rule="evenodd" d="M91.3164 31.9167C91.3164 29.6232 93.1748 27.7639 95.4671 27.7639H107.739C110.031 27.7639 111.89 29.6232 111.89 31.9167V48.3472H107.198V41.8472H95.8281V48.3472H91.3164V31.9167ZM95.4671 28.8472C93.7728 28.8472 92.3992 30.2215 92.3992 31.9167V47.2639H94.7453V40.7639H108.28V47.2639H110.807V31.9167C110.807 30.2215 109.433 28.8472 107.739 28.8472H95.4671ZM95.8281 32.4584V37.1528H107.198V32.4584H95.8281ZM94.7453 32.2778C94.7453 31.7792 95.1493 31.375 95.6476 31.375H107.378C107.876 31.375 108.28 31.7792 108.28 32.2778V37.3334C108.28 37.8319 107.876 38.2361 107.378 38.2361H95.6476C95.1493 38.2361 94.7453 37.832 94.7453 37.3334V32.2778Z" fill="#3DB3E5"/>
<path fill-rule="evenodd" clip-rule="evenodd" d="M68.397 27.7639H84.9999C87.2923 27.7639 89.1507 29.6232 89.1507 31.9167V44.0139C89.1507 46.3074 87.2923 48.1667 84.9999 48.1667H68.397V27.7639ZM69.4798 28.8472V47.0834H84.9999C86.6943 47.0834 88.0679 45.7091 88.0679 44.0139V31.9167C88.0679 30.2215 86.6943 28.8472 84.9999 28.8472H69.4798ZM72.0063 32.2778C72.0063 31.7792 72.4103 31.375 72.9086 31.375H84.8195C85.3178 31.375 85.7218 31.7792 85.7218 32.2778V43.8334C85.7218 44.332 85.3178 44.7361 84.8195 44.7361H72.9086C72.4103 44.7361 72.0063 44.332 72.0063 43.8334V32.2778ZM73.0891 32.4584V43.6528H84.639V32.4584H73.0891Z" fill="#3DB3E5"/>
<path fill-rule="evenodd" clip-rule="evenodd" d="M50.1699 31.9167V44.1944H62.2612V31.9167H50.1699ZM46.5605 44.1944V31.9167C46.5605 29.9223 48.1765 28.3055 50.1699 28.3055H62.2612C64.2546 28.3055 65.8705 29.9223 65.8705 31.9167V44.1944C65.8705 46.1888 64.2546 47.8055 62.2612 47.8055H50.1699C48.1765 47.8055 46.5605 46.1888 46.5605 44.1944Z" fill="black"/>
<path d="M24.1733 47.8055H22.017C21.6184 47.8055 21.2952 47.4822 21.2952 47.0833V29.0278C21.2952 28.6289 21.6184 28.3055 22.017 28.3055H24.5619C24.7787 28.3055 24.984 28.403 25.1211 28.571L32.1232 37.1528L38.9446 28.578C39.0816 28.4058 39.2895 28.3055 39.5095 28.3055H42.4098C42.8085 28.3055 43.1317 28.6289 43.1317 29.0278V47.0833C43.1317 47.4822 42.8085 47.8055 42.4098 47.8055H40.4247C40.026 47.8055 39.7028 47.4822 39.7028 47.0833V33.3611L32.1232 42.3889L24.724 33.7222L24.8951 47.0741C24.9003 47.4765 24.5756 47.8055 24.1733 47.8055Z" fill="black"/>
<path fill-rule="evenodd" clip-rule="evenodd" d="M24.3503 32.7285L32.1209 41.8302L40.0637 32.3698V47.0833C40.0637 47.2828 40.2253 47.4444 40.4247 47.4444H42.4098C42.6091 47.4444 42.7707 47.2828 42.7707 47.0833V29.0278C42.7707 28.8283 42.6091 28.6667 42.4098 28.6667H39.5095C39.3995 28.6667 39.2955 28.7168 39.227 28.8029L32.1267 37.7282L24.8415 28.7994C24.773 28.7154 24.6703 28.6667 24.5619 28.6667H22.017C21.8177 28.6667 21.6561 28.8283 21.6561 29.0278V47.0833C21.6561 47.2828 21.8177 47.4444 22.017 47.4444H24.1733C24.3745 47.4444 24.5368 47.2799 24.5342 47.0787L24.3503 32.7285ZM32.1232 42.3889L24.724 33.7222L24.8951 47.0741C24.9003 47.4765 24.5756 47.8055 24.1733 47.8055H22.017C21.6184 47.8055 21.2952 47.4822 21.2952 47.0833V29.0278C21.2952 28.6289 21.6184 28.3055 22.017 28.3055H24.5619C24.7787 28.3055 24.984 28.403 25.1211 28.571L32.1232 37.1528L38.9446 28.578C39.0816 28.4058 39.2895 28.3055 39.5095 28.3055H42.4098C42.8085 28.3055 43.1317 28.6289 43.1317 29.0278V47.0833C43.1317 47.4822 42.8085 47.8055 42.4098 47.8055H40.4247C40.026 47.8055 39.7028 47.4822 39.7028 47.0833V33.3611L32.1232 42.3889Z" fill="black"/>
<path fill-rule="evenodd" clip-rule="evenodd" d="M24.3503 32.7285L32.1209 41.8302L40.0637 32.3698V47.0833C40.0637 47.2828 40.2253 47.4444 40.4247 47.4444H42.4098C42.6091 47.4444 42.7707 47.2828 42.7707 47.0833V29.0278C42.7707 28.8283 42.6091 28.6667 42.4098 28.6667H39.5095C39.3995 28.6667 39.2955 28.7168 39.227 28.8029L32.1267 37.7282L24.8415 28.7994C24.773 28.7154 24.6703 28.6667 24.5619 28.6667H22.017C21.8177 28.6667 21.6561 28.8283 21.6561 29.0278V47.0833C21.6561 47.2828 21.8177 47.4444 22.017 47.4444H24.1733C24.3745 47.4444 24.5368 47.2799 24.5342 47.0787L24.3503 32.7285ZM32.1232 42.3889L24.724 33.7222L24.8951 47.0741C24.9003 47.4765 24.5756 47.8055 24.1733 47.8055H22.017C21.6184 47.8055 21.2952 47.4822 21.2952 47.0833V29.0278C21.2952 28.6289 21.6184 28.3055 22.017 28.3055H24.5619C24.7787 28.3055 24.984 28.403 25.1211 28.571L32.1232 37.1528L38.9446 28.578C39.0816 28.4058 39.2895 28.3055 39.5095 28.3055H42.4098C42.8085 28.3055 43.1317 28.6289 43.1317 29.0278V47.0833C43.1317 47.4822 42.8085 47.8055 42.4098 47.8055H40.4247C40.026 47.8055 39.7028 47.4822 39.7028 47.0833V33.3611L32.1232 42.3889Z" fill="black" fill-opacity="0.2"/>
<path fill-rule="evenodd" clip-rule="evenodd" d="M19.6709 24.5139C18.6603 23.2139 16.7233 22.6482 15.8811 22.5278H9.92568C9.85643 22.5232 9.77705 22.5188 9.68866 22.5138C8.62548 22.4546 6.25835 22.3227 4.51168 20.9028C1.6242 18.5556 0 15.8644 0 12.0556C0 9.34724 0.804143 6.91771 2.52654 5.19447C4.51168 3.20835 6.49681 1.76391 11.3694 2.12502C16.175 2.48116 19.6709 7.00002 19.6709 9.34724V24.5139ZM15.3397 18.1945V9.55728C15.3192 9.50483 15.2835 9.42262 15.2239 9.31028C15.0403 8.96417 14.7221 8.51386 14.2677 8.06168C13.3327 7.13116 12.1779 6.53014 11.0495 6.44652C9.08231 6.30073 8.08868 6.54706 7.53103 6.77953C6.96366 7.01605 6.45158 7.39576 5.58917 8.25859C4.88005 8.96806 4.33121 10.1768 4.33121 12.0556C4.33121 14.2869 5.1354 15.8265 7.2429 17.5396C7.45361 17.7109 7.84044 17.8971 8.46168 18.0248C8.97662 18.1307 9.39506 18.1552 9.8691 18.1829C9.93272 18.1866 9.99734 18.1904 10.0633 18.1945H15.3397Z" fill="black"/>
<path fill-rule="evenodd" clip-rule="evenodd" d="M24.3631 12.7778H28.8747C31.4661 12.7778 33.5669 10.676 33.5669 8.08333V7.99306C33.5669 5.45024 31.5065 3.38889 28.965 3.38889C26.4234 3.38889 24.3631 5.45024 24.3631 7.99306V12.7778ZM25.0849 12.0556V7.99306C25.0849 5.84912 26.8221 4.11111 28.965 4.11111C31.1079 4.11111 32.845 5.84912 32.845 7.99306V8.08333C32.845 10.2771 31.0675 12.0556 28.8747 12.0556H25.0849ZM24.8518 15.125L24.7997 15.1326C24.3345 15.2009 23.9162 15.3987 23.4128 15.7302C23.1673 15.8918 22.8875 16.095 22.5584 16.3463V6.09722C22.5584 5.44745 23.0401 4.29663 24.038 3.23927C25.0112 2.20821 26.3693 1.38372 27.9559 1.26301C29.7082 1.12969 30.8749 1.3344 31.7581 1.71236C32.644 2.09148 33.3107 2.67177 34.0366 3.41728C35.167 4.57832 35.7325 6.25354 35.7325 8.21202C35.7325 9.62809 35.5592 10.5516 35.1785 11.3195C34.795 12.0929 34.1648 12.7828 33.1045 13.6676C32.5679 14.1154 31.704 14.4877 30.8425 14.75C29.9751 15.0142 29.2527 15.125 29.0552 15.125H24.8518ZM21.8365 6.09722C21.8365 4.28451 24.286 0.817905 27.9012 0.542864C31.5668 0.263983 33.0602 1.3795 34.5536 2.91333C35.8494 4.24416 36.4543 6.12043 36.4543 8.21202C36.4543 11.1535 35.7391 12.4095 33.5669 14.2222C32.2687 15.3056 29.6645 15.8472 29.0552 15.8472H24.9045C24.3638 15.9265 23.826 16.2649 22.5584 17.2601C22.3406 17.4311 22.1012 17.6215 21.8365 17.8333V6.09722Z" fill="black"/>
</g>
<defs>
<clipPath id="clip0_142_323">
<rect width="161.157" height="65" fill="white" transform="translate(0 0.5)"/>
</clipPath>
</defs>
</svg>
