<svg width="142" height="116" viewBox="0 0 142 116" fill="none" xmlns="http://www.w3.org/2000/svg">
<g filter="url(#filter0_d_360_479)">
<path d="M8.90332 36.2576C8.90332 33.5853 11.0697 31.4189 13.742 31.4189H102.451C105.124 31.4189 107.29 33.5853 107.29 36.2576V99.1607C107.29 101.833 105.124 103.999 102.451 103.999H13.742C11.0697 103.999 8.90332 101.833 8.90332 99.1607V36.2576Z" fill="#3D6CB4"/>
<path d="M57.1562 54L102.452 104H13.7422L57.1562 54Z" fill="#2155A9"/>
<path d="M8.90332 36.2576C8.90332 33.5853 11.0697 31.4189 13.742 31.4189H102.451C105.124 31.4189 107.29 33.5853 107.29 36.2576V38.677L57.2903 75.7737L8.90332 38.677V36.2576Z" fill="#0D469F"/>
<path d="M133.097 29.8064C133.097 44.0589 121.543 55.6128 107.29 55.6128C93.0378 55.6128 81.4839 44.0589 81.4839 29.8064C81.4839 15.5539 93.0378 4 107.29 4C121.543 4 133.097 15.5539 133.097 29.8064Z" fill="#BB0E1B"/>
<path fill-rule="evenodd" clip-rule="evenodd" d="M121.904 18.4181C122.849 19.3629 122.849 20.8947 121.904 21.8396L104.162 39.5815C103.218 40.5263 101.686 40.5263 100.741 39.5815L92.6764 31.517C91.7316 30.5721 91.7316 29.0403 92.6764 28.0955C93.6212 27.1507 95.153 27.1507 96.0979 28.0955L102.452 34.4492L118.483 18.4181C119.428 17.4733 120.959 17.4733 121.904 18.4181Z" fill="#FDFDFD"/>
</g>
<defs>
<filter id="filter0_d_360_479" x="0.90332" y="0" width="140.193" height="116" filterUnits="userSpaceOnUse" color-interpolation-filters="sRGB">
<feFlood flood-opacity="0" result="BackgroundImageFix"/>
<feColorMatrix in="SourceAlpha" type="matrix" values="0 0 0 0 0 0 0 0 0 0 0 0 0 0 0 0 0 0 127 0" result="hardAlpha"/>
<feOffset dy="4"/>
<feGaussianBlur stdDeviation="4"/>
<feComposite in2="hardAlpha" operator="out"/>
<feColorMatrix type="matrix" values="0 0 0 0 0 0 0 0 0 0 0 0 0 0 0 0 0 0 0.1 0"/>
<feBlend mode="normal" in2="BackgroundImageFix" result="effect1_dropShadow_360_479"/>
<feBlend mode="normal" in="SourceGraphic" in2="effect1_dropShadow_360_479" result="shape"/>
</filter>
</defs>
</svg>
