<svg width="131" height="114" viewBox="0 0 131 114" fill="none" xmlns="http://www.w3.org/2000/svg">
<path fill-rule="evenodd" clip-rule="evenodd" d="M61.6487 52.3026C61.633 51.2118 62.4038 50.3191 63.7697 49.9992C64.2093 49.9287 64.9052 50.6961 65.0081 50.8035C65.0998 51.2197 65.1882 51.8215 65.2262 52.3876C65.1927 52.6561 64.5304 58.2831 64.0818 60.4466C64.0035 60.8359 63.9162 61.2286 63.7943 61.6436C63.7607 61.798 63.6064 62.204 63.4878 62.5094C63.3636 62.8339 63.2081 63.1437 63.0504 63.4503C62.7181 64.0555 62.2807 64.5712 61.7404 64.9694C61.1978 65.3901 60.5333 65.4807 59.8711 65.6295L58.7076 65.7234L58.0801 65.7939C57.1907 65.8991 56.2902 66.0367 55.3986 66.1955C54.9623 66.2749 54.488 66.3656 54.0942 66.4506C54.0707 66.4584 54.0785 66.4606 54.0718 66.4662C54.0573 66.483 54.0819 66.4964 54.0942 66.4953C54.0942 66.4953 54.0181 66.5009 53.9622 66.577C53.9387 66.6094 53.932 66.6452 53.9376 66.6833C53.9398 66.7023 53.9846 66.7437 54.0103 66.7728L54.036 66.7985L54.1456 66.8667L54.366 67.0032C54.9545 67.3657 55.5641 67.7046 56.185 68.0212C56.8059 68.3378 57.4391 68.6331 58.0722 68.8994C58.249 68.9788 59.0388 69.2999 59.6675 69.5012C60.4024 69.6265 61.0043 69.9666 61.3802 70.3358C61.5133 70.4555 61.6129 70.583 61.6878 70.6658C61.7885 70.7922 61.8892 70.9969 61.9574 71.1546C62.1028 71.4914 62.2058 71.8527 62.302 72.2331C62.4094 72.5295 62.3456 73.7231 61.9809 75.4023C61.935 75.6294 61.8869 75.871 61.8366 76.125C61.8176 76.2335 61.8388 76.1675 61.8366 76.1954C61.8444 76.2077 61.8489 76.2145 61.8511 76.2212C61.8612 76.2379 61.8109 76.3039 61.7057 76.4684C61.5927 76.6384 61.4741 76.8342 61.3668 77.0535C61.3008 77.1799 61.2739 77.2459 61.2761 77.3096C61.2806 77.4249 61.3891 77.4517 61.5883 77.4271L61.7158 77.4047C61.7974 77.3846 61.8769 77.2504 61.9708 77.4059C62.2102 77.7504 62.5973 77.3745 63.0269 77.0971C63.9408 76.4796 64.8716 75.8867 65.8437 75.3609C66.3259 75.1014 66.8998 74.9839 67.4479 74.8318C67.9446 74.693 68.0889 75.3587 67.9905 75.5119C67.703 75.9572 68.1997 75.9683 68.3876 76.1552C68.4514 76.2178 68.533 76.3017 68.5554 76.3722C68.58 76.4505 67.4748 77.6173 66.3113 78.8266C66.0194 79.1275 65.7251 79.4329 65.4444 79.7226L65.2352 79.9374C65.1759 80.0012 65.0976 80.0773 64.9767 80.1869C64.7586 80.3871 64.5494 80.5784 64.3525 80.7585C63.5885 81.4521 62.783 82.1726 62.5582 82.3393C62.5358 82.3572 62.3959 82.4679 61.9809 82.7957C61.5547 83.1637 60.8678 83.7063 59.6865 84.7612C59.4191 85.0006 59.0388 85.3407 58.5734 85.7568C58.4649 85.8452 58.3161 86.0074 58.2244 86.0477C58.1304 86.0902 58.0331 86.1349 57.9313 86.1819C57.7288 86.2725 57.5129 86.3699 57.288 86.4717C57.1795 86.5175 57.0464 86.5858 56.9524 86.6149L56.6996 86.6663C56.5284 86.6988 56.3517 86.7312 56.1716 86.7659C55.949 86.729 55.6872 86.6764 55.5932 86.5936C55.5116 86.5466 55.5082 86.5332 55.4791 86.5041C55.403 86.4482 55.2587 86.4113 55.1804 86.3643C54.9958 86.2703 54.8392 86.1305 54.7195 85.9437C54.5942 85.7658 54.5305 85.5163 54.4566 85.3306C54.385 85.1449 54.2877 85.0375 54.2586 84.9447C54.0494 84.5397 54.1613 83.6436 54.4768 82.6033C54.5327 82.3627 55.3382 78.8892 56.1492 75.3945L56.2767 74.7881L56.3383 74.4525C56.3528 74.3641 56.3875 74.1852 56.3852 74.1729L56.3718 74.1572C56.3539 74.1382 56.3349 74.1303 56.317 74.1292C56.2823 74.1259 56.2588 74.1449 56.2588 74.1449C56.2689 74.1382 56.2611 74.1415 56.2611 74.1415L56.2566 74.146C56.2566 74.146 56.2588 74.1471 56.2532 74.146L56.0194 74.0453C55.2744 73.7164 54.5674 73.3383 53.9331 72.8282C53.6836 72.6279 53.3838 72.5038 53.0941 72.3707L52.1689 71.9198L51.7103 71.6804L51.1174 71.3549C50.1217 70.7967 48.984 70.1098 48.1047 69.414C47.1941 68.7114 46.5185 67.9541 46.156 67.2258C45.9994 66.86 45.854 66.5031 45.8081 66.125C45.7824 65.9349 45.7678 65.7369 45.7723 65.5187C45.7745 65.2994 45.9222 65.0612 45.9088 64.8598C46.0531 64.4425 46.2388 64.1371 46.5375 63.844C46.6695 63.6964 46.8171 63.5498 46.9626 63.4022C47.1192 63.2578 47.2187 63.0956 47.4548 62.9771L48.0745 62.5945C48.286 62.4669 48.569 62.3718 48.8129 62.2589C49.2939 62.0251 49.8801 61.8595 50.4517 61.6872C50.8578 61.5519 51.331 61.5138 51.7628 61.4322C52.2562 61.3483 52.7529 61.2655 53.2362 61.1838C54.1703 60.9802 55.1044 60.8258 56.0452 60.7028L57.4648 60.5338L58.183 60.4645L58.4738 60.4466C58.5432 60.4388 58.6215 60.4567 58.683 60.4175C58.7423 60.3761 58.7781 60.3101 58.8061 60.2452C58.8363 60.1792 58.8531 60.1121 58.8676 60.0405C58.9359 59.8179 59.0231 59.5103 59.088 59.2239C59.2603 58.6511 60.4696 55.4472 60.5803 54.5858C60.6441 54.1204 61.6509 52.75 61.6487 52.3026Z" fill="#3DB3E5"/>
<path fill-rule="evenodd" clip-rule="evenodd" d="M56.7803 88.0332C56.5084 88.0467 56.2333 88.0467 55.9648 88.0332C55.6996 88.0097 55.458 87.8945 55.2029 87.8296C54.9546 87.7457 54.7342 87.588 54.4993 87.4717C54.2912 87.3106 54.129 87.0969 53.9612 86.9022C53.6771 86.4637 53.5003 85.9402 53.4231 85.3786C53.3705 85.1034 53.3705 84.8271 53.3415 84.5508L53.3359 84.006C53.3705 82.6367 53.5574 81.4017 53.7632 80.1644C53.9769 78.935 54.2297 77.7279 54.506 76.5298L54.9378 74.7399L55.0307 74.3786L55.0553 74.2991L55.1101 74.1313C55.1 74.0844 55.024 74.0653 54.9781 74.0363L54.8953 73.9982C54.8383 73.9747 54.9076 73.9982 54.732 73.9322L52.9712 73.2655C51.7764 72.8001 50.5738 72.2743 49.4104 71.64C48.3063 71.0482 47.2301 70.3603 46.2378 69.5369C45.7266 69.1465 45.2735 68.6744 44.8092 68.2213L44.1638 67.4729C43.8628 67.134 43.5709 66.6529 43.2766 66.248C43.1156 65.7893 42.8336 65.3564 42.8974 64.8742C42.988 63.9256 43.7275 63.2712 44.6146 62.8103C45.6773 62.2822 46.1114 62.2129 46.7569 62.0115C47.9662 61.6759 49.1542 61.4488 50.3467 61.253C51.537 61.0595 52.7262 60.9074 53.922 60.7888C54.5194 60.7306 55.1179 60.6792 55.7198 60.64L56.3854 60.6064H56.7098L58.8096 54.702C59.6408 52.4758 60.4451 50.2732 61.5202 48.0559L61.7249 47.6621C61.8144 47.4843 61.9251 47.3198 62.0292 47.152C62.2328 46.8052 62.499 46.5423 62.8156 46.3287C63.4365 46.1105 64.1312 45.9662 64.7755 46.2392C65.1022 46.3152 65.4154 46.5021 65.6973 46.6833C65.9546 46.8276 66.1336 46.9976 66.3394 47.161C67.1259 47.8244 67.7602 48.537 68.3631 49.2563C69.5691 50.6949 70.6598 52.1581 71.7684 53.5878C72.4542 54.4783 73.15 55.3553 73.8548 56.2234L74.922 57.5133C75.1278 57.7426 75.2934 57.9429 75.4769 58.1308L75.8975 57.9261L76.8696 57.5122C77.6012 57.2135 78.3429 56.936 79.1048 56.6955C80.6284 56.2268 82.1968 55.8095 83.9957 55.918C84.4946 55.9717 84.8548 56.0937 85.0741 56.2682C85.2844 56.4226 85.3325 56.5602 85.2665 56.6799C85.1199 56.936 84.5953 57.0591 83.9587 57.3768C82.6734 57.9775 80.5993 59.1555 77.882 60.2887L77.3988 60.4923L76.6739 60.8134C76.0071 61.1121 75.337 61.4455 74.6703 61.7654L73.3458 60.1836L72.6835 59.3916L72.3278 58.9508C71.8534 58.3657 71.3903 57.7762 70.9339 57.1833L68.2614 53.6303C67.3854 52.4624 66.514 51.2945 65.6213 50.2787C65.1794 49.7574 64.7196 49.3279 64.318 49.0102C64.1871 48.9341 64.2341 48.9486 64.2251 48.9397L64.1983 48.9207C64.177 48.9084 64.1524 48.9039 64.1256 48.9084C64.1088 48.914 64.0954 48.9274 64.0808 48.9419L64.0596 48.9654L63.9074 49.2518C63.6893 49.6747 63.4756 50.1378 63.2687 50.6043C62.8536 51.5417 62.4576 52.5128 62.0694 53.4894C61.2931 55.4448 60.5469 57.4327 59.8086 59.4274C59.6475 59.8748 59.4841 60.3223 59.3208 60.7754C59.0702 61.5204 58.8163 62.2733 58.559 63.0385C56.0118 63.0776 55.3349 63.1682 54.0104 63.3002C52.7955 63.4334 51.5773 63.6101 50.3725 63.8327C49.1744 64.0598 47.9718 64.3272 46.8755 64.6941L46.4772 64.8373L46.3217 64.9011C46.2289 64.9413 46.1405 64.9906 46.0577 65.0487C45.9783 65.1058 45.8932 65.1875 45.8988 65.2926C45.9089 65.3955 45.9906 65.4705 46.0409 65.5555C46.1282 65.6786 46.108 65.6752 46.3295 65.9258C46.5398 66.1641 46.7244 66.4225 46.9638 66.6373C48.2716 67.9864 49.916 69.0436 51.6981 69.8904C52.5908 70.3133 53.5148 70.6914 54.468 71.0494L56.0408 71.6434C56.8194 71.941 57.5388 72.3079 58.1675 72.733L57.664 74.6269L57.3374 75.9369C57.1495 76.7144 56.9693 77.4941 56.8038 78.2727C56.476 79.831 56.184 81.4017 56.0397 82.9387C55.9905 83.4567 55.9648 84.0518 55.9804 84.4613C55.9983 84.7286 56.0017 85.0128 56.1941 85.2119C56.4089 85.3909 56.7109 85.3529 56.9604 85.2779C57.0286 85.2544 57.0823 85.2522 57.1629 85.2097L57.4772 85.0687C57.6976 84.9815 57.9202 84.8237 58.1428 84.7063C59.9238 83.5999 61.547 82.0293 63.0449 80.4027C63.8437 79.5402 64.5999 78.6296 65.3438 77.71L66.4289 76.3072L67.9302 74.2432L70.0278 75.504L71.4709 76.3475C72.4352 76.9057 73.4062 77.4471 74.3806 77.9774C75.3572 78.4998 76.336 79.0166 77.3261 79.4887C77.8183 79.7326 78.315 79.9519 78.8117 80.1711C79.0611 80.2841 79.3095 80.3725 79.5578 80.4754L79.9225 80.6186L80.1675 80.6969C80.3666 80.7696 80.5512 80.8121 80.7291 80.8435C80.8969 80.858 81.1307 80.924 81.2079 80.7193C81.3846 80.3937 81.3925 79.9944 81.369 79.6666C81.303 78.5076 80.9495 77.2771 80.5233 76.1092C80.0847 74.9334 79.5589 73.779 78.9571 72.658C78.6618 72.0953 78.3429 71.5416 78.0241 70.989C77.91 70.7954 77.5487 70.2126 77.3305 69.7964L77.1504 69.4552C77.1001 69.3411 76.9837 69.2259 77.0934 69.1118L77.4525 68.4294L77.8082 67.8365L78.1226 67.3611C78.3038 67.1094 78.4772 66.8521 78.6707 66.6127C79.0455 66.1204 79.4594 65.6595 79.9035 65.2143C81.5782 63.5877 82.9765 62.8438 83.9867 62.4814C85.0058 62.1245 85.6647 62.1211 86.2319 62.3169C86.4892 62.4031 86.8035 62.4702 86.9635 62.5888C87.524 63.0653 85.9019 63.7466 83.5885 65.4548C82.7327 66.0981 81.9485 66.842 81.2549 67.6642C80.9047 68.0725 80.5859 68.5055 80.2861 68.9451L80.1798 69.1118L80.163 69.1487L80.1373 69.2158C80.1172 69.2595 80.1071 69.2997 80.1552 69.3367L80.2033 69.3926C80.219 69.4094 80.2167 69.3971 80.3241 69.5772C80.4897 69.8412 80.6385 70.1164 80.7917 70.3893C81.105 70.9297 81.3992 71.4868 81.6822 72.0551C82.2449 73.1916 82.7752 74.3629 83.1913 75.6192C83.4016 76.2468 83.5873 76.8934 83.7384 77.5657C83.8122 77.9024 83.8704 78.2515 83.9263 78.6027L83.9856 79.1475C83.9945 79.2393 84.008 79.3265 84.008 79.425L84.0191 79.8098C84.0113 81.0314 83.7719 82.2194 83.0492 82.9645L82.7864 83.2632C82.7416 83.3124 82.6991 83.3694 82.651 83.4119L82.4642 83.4533C82.2113 83.4936 81.9798 83.5954 81.7068 83.5865C81.1587 83.5384 80.606 83.6055 80.0635 83.3885C78.7669 83.0405 78.4067 82.8425 77.7444 82.5763C77.1459 82.3156 76.5575 82.0472 75.9859 81.7675C74.8359 81.2104 73.7149 80.6275 72.6097 80.0257L69.9002 78.5132L68.6764 77.8017L68.6708 77.7928L67.1919 79.6912C66.3361 80.7696 65.4177 81.8078 64.4701 82.8258C63.5002 83.8326 62.4912 84.8103 61.368 85.722C60.8008 86.1751 60.2091 86.6136 59.5479 87.0186C59.2045 87.2166 58.8823 87.4202 58.4785 87.5902C58.3051 87.6585 58.0556 87.814 57.7245 87.871L56.7959 88.0992L56.7803 88.0332Z" fill="#3DB3E5"/>
<path fill-rule="evenodd" clip-rule="evenodd" d="M119.027 40.6534C118.975 40.8637 118.712 40.8167 118.32 40.6333C118.194 40.574 117.913 40.2954 117.911 40.216C117.908 40.0627 117.908 39.9095 117.931 39.7752C117.943 39.6936 118.561 38.774 118.779 38.4608C118.981 38.1475 119.238 37.8947 119.502 37.6497C120.046 37.1609 120.585 36.6642 121.158 36.21C121.284 36.1082 121.424 36.0232 121.578 35.9616C122.104 35.7457 122.556 35.4325 122.991 35.0846C123.064 35.0275 123.149 34.9861 123.182 34.8709C123.224 34.6617 124.508 33.8607 124.72 33.8384C125.224 33.7489 125.678 33.5743 126.184 33.5083C126.254 33.4972 126.311 33.4457 126.41 33.5028C126.638 33.637 126.758 33.5497 126.902 33.5083C127.092 33.4334 127.324 33.4446 127.551 33.4524C127.664 33.4569 127.799 33.5162 127.92 33.5464C128.031 33.5766 128.068 33.7757 128.051 33.8126C127.998 33.9133 128.107 33.976 128.149 34.0509C128.163 34.0766 128.183 34.1091 128.189 34.1337C128.195 34.1605 128.003 34.4313 127.834 34.7646C127.648 35.0678 127.437 35.334 127.389 35.3721C127.379 35.4258 126.037 36.3453 125.906 36.4796C125.836 36.5467 125.728 36.5512 125.629 36.5724C125.584 36.5881 124.553 37.3689 124.511 37.3969C124.268 37.5088 124.086 37.7168 123.758 37.7023C123.694 37.7001 123.653 37.7381 123.61 37.7683C123.241 38.0413 122.817 38.2359 122.414 38.4641C122.205 38.5793 122.034 38.7416 121.841 38.8758C121.807 38.9004 121.755 38.9049 121.714 38.9205C121.661 38.9407 121.605 38.9552 121.564 38.9888C121.133 39.3401 120.633 39.6152 120.262 40.0359C120.172 40.1265 119.581 40.3905 119.492 40.5136C119.438 40.5773 119.046 40.5661 119.027 40.6534Z" fill="#3DB3E5"/>
<path fill-rule="evenodd" clip-rule="evenodd" d="M118.742 64.995C118.532 65.1248 118.394 64.8418 118.242 64.316C118.194 64.1471 118.207 63.647 118.278 63.581C118.413 63.4501 118.556 63.3248 118.704 63.2387C118.791 63.1582 120.188 63.0922 120.662 63.1302C121.133 63.1224 121.554 63.2566 121.986 63.3785C122.832 63.6739 123.672 63.977 124.456 64.3641C124.634 64.4446 124.797 64.5543 124.942 64.6896C125.445 65.1461 126.006 65.4727 126.583 65.7826C126.678 65.8352 126.763 65.9079 126.899 65.8922C127.135 65.8497 128.587 66.8688 128.725 67.0646C129.095 67.5166 129.413 68.0267 129.742 68.5066C129.789 68.5748 129.869 68.6117 129.863 68.7337C129.845 69.0189 129.991 69.1084 130.103 69.2416C130.258 69.4262 130.402 69.6242 130.524 69.8423C130.584 69.9508 130.594 70.113 130.621 70.254C130.644 70.3826 130.422 70.5415 130.375 70.5404C130.239 70.5348 130.215 70.6869 130.147 70.7753C130.123 70.8066 130.093 70.8458 130.069 70.8659C130.031 70.8804 128.617 70.5158 128.496 70.452C128.488 70.4475 128.377 70.3882 128.209 70.2976C128.042 70.2137 127.819 70.0996 127.59 69.9833C127.113 69.7797 126.697 69.4709 126.585 69.4452C126.481 69.3993 126.425 69.2874 126.356 69.1935C126.324 69.1398 124.982 68.4742 124.933 68.4484C124.691 68.2571 124.385 68.1799 124.236 67.8365C124.207 67.7683 124.147 67.7459 124.094 67.7168C123.625 67.483 123.212 67.1519 122.77 66.8722C122.547 66.7201 122.293 66.644 122.054 66.5299C122.012 66.5097 121.982 66.4605 121.944 66.4281C121.895 66.3878 121.853 66.3341 121.797 66.3129C121.216 66.1003 120.671 65.7714 120.062 65.7088C119.928 65.6842 119.334 65.3038 119.167 65.3251C119.081 65.3251 118.831 64.9335 118.742 64.995Z" fill="#3DB3E5"/>
<path fill-rule="evenodd" clip-rule="evenodd" d="M5.15425 96.2091C5.03343 96.4597 4.73363 96.2673 4.29958 95.8164C4.16198 95.6732 3.89349 95.1564 3.91587 95.0535C3.95726 94.8521 4.00536 94.6541 4.07808 94.4942C4.12282 94.3845 5.18334 93.5802 5.53908 93.2949C5.8814 93.0186 6.26399 92.8284 6.65217 92.6584L9.00476 91.6191C9.17928 91.5453 9.36498 91.4972 9.55963 91.4748C10.2286 91.3943 10.8305 91.1582 11.4133 90.8719C11.5106 90.8249 11.618 90.7991 11.6818 90.6783C11.7869 90.4781 13.4135 89.8326 13.6484 89.8125C14.2335 89.7621 14.7951 89.6514 15.3634 89.5619C15.4484 89.5596 15.5211 89.5104 15.6307 89.5854C15.8869 89.7576 16.0368 89.6704 16.2113 89.6391C16.4518 89.5921 16.698 89.5585 16.9553 89.5518C17.0828 89.5484 17.2372 89.61 17.3804 89.6435C17.5101 89.6749 17.5582 89.9243 17.5359 89.968C17.471 90.0877 17.6019 90.166 17.6544 90.2577C17.6712 90.289 17.6947 90.3315 17.7025 90.3606C17.7104 90.3986 16.7125 91.6359 16.5872 91.7377C16.5894 91.8451 14.7582 92.758 14.5736 92.909C14.4718 92.9795 14.3375 92.9739 14.2134 92.9884C14.1541 92.9951 12.7389 93.8196 12.6785 93.8397C12.3586 93.9471 12.0856 94.163 11.6952 94.0892C11.618 94.0746 11.5598 94.1127 11.5005 94.1418C10.9848 94.4013 10.4221 94.5456 9.8751 94.7212C9.59431 94.8096 9.33813 94.955 9.06965 95.0703C9.02154 95.0904 8.9589 95.0803 8.9052 95.0882C8.83696 95.0971 8.76425 95.0949 8.70384 95.124C8.08185 95.426 7.40169 95.5938 6.82333 95.9764C6.69244 96.0659 5.89818 96.1386 5.7561 96.255C5.67668 96.3187 5.20235 96.1073 5.15425 96.2091Z" fill="#3DB3E5"/>
<path fill-rule="evenodd" clip-rule="evenodd" d="M10.1718 63.9524C10.3609 63.873 10.4224 64.1437 10.409 64.6236C10.4045 64.7757 10.2747 65.2087 10.2143 65.2579C10.0946 65.353 9.97605 65.4447 9.8653 65.5029C9.79706 65.5364 8.8954 65.5197 8.59224 65.5465C8.29579 65.5644 8.02171 65.5186 7.74987 65.4604C7.20171 65.3474 6.65244 65.2657 6.11883 65.2076C6.00025 65.1919 5.8839 65.1516 5.77315 65.099C5.38833 64.9022 4.97665 64.8731 4.5784 64.8966C4.5124 64.901 4.44416 64.8843 4.37927 64.9581C4.26629 65.0588 3.23598 65.099 3.09726 65.0722C2.74711 64.9603 2.38801 64.8999 2.01661 64.8596C1.96403 64.8563 1.9204 64.8932 1.85216 64.825C1.69555 64.6672 1.59599 64.7265 1.483 64.7399C1.32526 64.7534 1.17312 64.7892 1.00085 64.7802C0.916945 64.778 0.805076 64.7097 0.698801 64.6639C0.602594 64.6214 0.533236 64.3685 0.54666 64.3327C0.583577 64.2287 0.476183 64.137 0.425842 64.0396C0.409062 64.0061 0.386688 63.9636 0.378857 63.9345C0.343059 63.8774 1.13844 63.0093 1.27045 62.9747C1.27716 62.9333 2.78067 62.3225 2.97532 62.3158C3.06818 62.2833 3.16886 62.3213 3.26506 62.3415C3.30757 62.3236 4.57504 62.0954 4.62762 62.1166C4.89051 62.1334 5.15788 62.0797 5.3984 62.2911C5.44538 62.3325 5.49796 62.3269 5.54942 62.3281C5.99018 62.346 6.41192 62.4824 6.8236 62.6066C7.03503 62.6681 7.25094 62.6905 7.46349 62.7353C7.50152 62.7431 7.53396 62.7789 7.56976 62.799C7.61339 62.8248 7.6559 62.8606 7.704 62.8695C8.20406 62.9635 8.66607 63.185 9.16501 63.2387C9.28247 63.251 9.7456 63.6067 9.87761 63.6145C9.95256 63.619 10.0969 63.9848 10.1718 63.9524Z" fill="#3DB3E5"/>
<path fill-rule="evenodd" clip-rule="evenodd" d="M16.8415 47.6699C17.0977 47.7191 17.0585 48.0424 16.8135 48.5022C16.7352 48.6487 16.3817 48.9832 16.2933 48.9944C16.1199 49.0157 15.9544 49.0358 15.8156 49.0302C15.7496 49.0213 14.773 48.5134 14.4218 48.3691C14.0738 48.2281 13.7863 48.0212 13.4877 47.8097C12.8948 47.3757 12.2661 46.9729 11.6497 46.5557C11.5132 46.4628 11.3879 46.3521 11.2771 46.2212C10.8968 45.7726 10.4258 45.4471 9.92576 45.1663C9.84298 45.1204 9.76915 45.0555 9.64833 45.0701C9.45368 45.0891 8.14706 44.2557 8.02288 44.0767C7.69511 43.665 7.33042 43.307 6.97803 42.9289C6.92769 42.8752 6.84826 42.8573 6.84267 42.7454C6.82925 42.4859 6.68158 42.43 6.56076 42.3315C6.39184 42.195 6.22963 42.0496 6.08644 41.8751C6.01484 41.7878 5.98911 41.6335 5.94996 41.4981C5.91416 41.375 6.12 41.1457 6.16586 41.1357C6.29899 41.1066 6.30906 40.9432 6.36947 40.8314C6.3896 40.7933 6.41645 40.7441 6.43771 40.7173C6.48469 40.6602 7.83494 40.8571 7.95129 40.9298C7.96471 40.9365 8.38198 41.1401 8.8261 41.356C9.26686 41.5675 9.72888 41.789 9.82956 41.8248C9.93471 41.8617 9.99848 41.9624 10.0712 42.0496C10.1059 42.0877 11.4248 42.7432 11.4707 42.7824C11.7089 42.9703 12.0065 43.0743 12.1486 43.4021C12.1766 43.4659 12.2336 43.4916 12.2862 43.5218C12.7348 43.7914 13.123 44.146 13.5235 44.4872C13.7282 44.6606 13.962 44.7915 14.179 44.9504C14.2182 44.9795 14.2394 45.0309 14.2719 45.0689C14.3121 45.1182 14.3457 45.1752 14.396 45.2088C14.9252 45.5612 15.3726 46.0277 15.9353 46.3521C16.0662 46.4315 16.479 47.0479 16.6312 47.1452C16.7184 47.1978 16.7397 47.6553 16.8415 47.6699Z" fill="#3DB3E5"/>
<path fill-rule="evenodd" clip-rule="evenodd" d="M41.9019 4.09662C42.8416 5.75116 43.7992 7.37549 44.8396 8.9629C45.8855 10.5447 47.0266 12.0717 48.2113 13.5596C49.3993 15.0474 50.6388 16.4916 51.8571 17.9482C53.0921 19.3913 54.3629 20.8031 55.6684 22.1623C56.3967 22.9576 56.173 23.941 55.5856 24.5305C55.0028 25.1156 53.9915 25.3136 53.1905 24.4947C51.8492 23.036 50.5807 21.528 49.3714 19.9752C48.1498 18.4326 47.0411 16.8026 45.9885 15.1392C44.9324 13.4779 43.9312 11.7797 43.0318 10.0201C42.1301 8.2682 41.2967 6.4481 40.8604 4.48928C40.7978 3.91875 41.5439 3.66481 41.9019 4.09662Z" fill="#3DB3E5"/>
<path fill-rule="evenodd" clip-rule="evenodd" d="M79.4495 3.08952C78.8219 4.41852 78.191 5.77324 77.7177 7.22306C77.2367 8.66281 76.8217 10.1384 76.4749 11.6318C75.7791 14.6041 75.2365 17.6727 75.015 20.6148C74.93 21.4337 73.8807 21.7525 72.847 21.6966C71.8279 21.6429 70.8177 21.059 70.9654 20.0913C71.5974 16.8225 72.5494 13.7819 73.6916 10.7659C74.2644 9.26466 74.8998 7.78128 75.6471 6.3393C76.4167 4.92081 77.155 3.41953 78.4829 2.29301C78.9248 2.03684 79.53 2.63421 79.4495 3.08952Z" fill="#3DB3E5"/>
<path fill-rule="evenodd" clip-rule="evenodd" d="M99.1187 6.28087C98.4229 8.04727 97.8524 9.90317 97.2762 11.7602L95.5434 17.3726C94.9427 19.2487 94.3173 21.1281 93.5902 23.0018C92.8507 24.8756 92.0486 26.745 90.9076 28.602C90.5932 29.13 90.0294 29.3605 89.5495 29.3582C89.0528 29.3571 88.5718 29.1266 88.1791 28.7843C87.4038 28.0673 86.9195 27.0515 87.4687 26.2718C88.499 24.8779 89.4108 23.22 90.2643 21.5319C91.1156 19.8337 91.9043 18.0696 92.6874 16.2953L95.0254 10.9201C95.8242 9.12345 96.6285 7.32013 97.6007 5.5526C97.8971 5.0671 99.2485 5.75397 99.1187 6.28087Z" fill="#3DB3E5"/>
<path fill-rule="evenodd" clip-rule="evenodd" d="M26.3475 82.1129C31.4174 94.8021 42.7475 105.069 56.0632 108.615C60.9194 109.904 65.9971 110.142 70.9775 109.545C79.7759 108.5 88.2567 104.671 95.0482 98.873C101.845 93.0906 106.945 85.215 108.852 76.4378C110.543 68.6618 110.238 60.3422 107.821 52.8235C106.301 47.9852 103.895 43.44 100.768 39.4765C97.6727 35.4716 93.7248 32.2084 89.4537 29.4978C86.8024 27.8008 87.4893 27.2269 90.3005 27.9283C91.0042 28.105 91.8421 28.3623 92.7918 28.7035C93.7047 29.0996 94.688 29.6466 95.7698 30.2563C96.3 30.5729 96.8817 30.876 97.4232 31.2698C97.9512 31.6781 98.4949 32.1111 99.0486 32.5675C99.6024 33.025 100.166 33.5049 100.736 34.0061C101.276 34.5364 101.774 35.1337 102.298 35.7289C105.992 39.9586 108.81 44.9323 110.628 50.217C112.452 55.505 113.31 61.0906 113.253 66.656C113.187 72.2193 112.229 77.7881 110.22 83.0369C108.192 88.2701 105.143 93.0771 101.324 97.1301C96.7386 101.948 91.2301 106.064 85.0114 108.841C78.853 111.717 71.9854 113.184 65.1816 113.107C61.4329 113.03 57.7211 112.382 54.1211 111.401C50.5481 110.307 47.1182 108.815 43.8863 106.972C40.7092 105.041 37.6888 102.854 34.9927 100.3C32.3426 97.7118 29.8468 94.9409 27.8287 91.8242C25.3049 88.024 23.3181 83.8614 22.0126 79.4851C20.6993 75.1066 20.1042 70.5323 20.206 65.9837C20.2362 62.5303 20.8 59.0937 21.6558 55.7556C22.0652 54.0764 22.6648 52.4577 23.2477 50.8356L24.2802 48.464C24.6147 47.6697 25.0577 46.928 25.4403 46.1573C27.0713 43.1267 29.0201 40.2763 31.2429 37.6664C33.4937 35.0812 35.9984 32.733 38.6989 30.6534C42.9119 27.4473 47.5522 24.8508 52.5214 23.1325C57.4705 21.3773 62.7205 20.4107 68.0253 20.479C68.6092 20.4834 69.1898 20.4879 69.7693 20.4924L71.5021 20.6255C72.0783 20.6781 72.6611 20.7005 73.2383 20.7833C73.8133 20.875 74.3917 20.9678 74.9745 21.0607C76.0597 21.2106 77.0284 21.4656 77.9178 21.6927C78.8094 21.9109 79.616 22.1201 80.3263 22.3942C81.0412 22.6526 81.6855 22.8864 82.2717 23.0989C82.8523 23.3227 83.3445 23.5956 83.7976 23.8171C85.6166 24.702 86.5059 25.5142 87.1235 26.3163C87.4042 26.6832 87.7969 27.1061 87.9121 27.3891C88.1079 27.8679 87.3684 27.8388 85.922 27.3835C85.5607 27.2694 85.1546 27.1284 84.706 26.9617C84.2495 26.8163 83.7461 26.6575 83.198 26.483C82.6554 26.2995 82.0692 26.1015 81.4428 25.89C80.8051 25.7088 80.1261 25.5164 79.4079 25.3128C70.8958 22.8685 61.4933 23.3271 52.923 26.455C48.625 27.9887 44.5732 30.2675 40.8893 33.0295C39.029 34.3943 37.333 35.9683 35.6852 37.5848C34.109 39.2718 32.5753 41.008 31.2642 42.9108C29.2785 45.7053 27.5971 48.7224 26.3375 51.9129C25.0879 55.1056 24.2366 58.4505 23.8093 61.8524C23.3875 65.2532 23.345 68.7178 23.8171 72.1342C24.3071 75.5239 25.0499 78.8978 26.4169 82.0659L26.3475 82.1129Z" fill="#3DB3E5"/>
<path fill-rule="evenodd" clip-rule="evenodd" d="M23.5286 7.16733C24.7468 9.12951 26.1161 10.9999 27.4551 12.8793C28.8009 14.7587 30.2485 16.5654 31.6446 18.4012C34.4715 22.047 37.4137 25.6111 40.4901 28.9918C42.1994 30.9495 38.5626 34.1679 36.8252 32.029C33.967 28.2355 31.3448 24.3257 28.868 20.3219C27.6173 18.3296 26.4852 16.26 25.3632 14.1916C24.2344 12.1265 23.2276 9.98977 22.2544 7.84526C22.0071 7.2311 23.1225 6.64826 23.5286 7.16733Z" fill="#3DB3E5"/>
<path fill-rule="evenodd" clip-rule="evenodd" d="M28.953 20.4514C30.7205 22.3856 32.5216 24.2874 34.4054 26.0225C35.3429 26.8939 36.3318 27.7094 37.3431 28.5865C38.3522 29.4669 39.3355 30.4021 40.2741 31.3597C41.3167 32.5075 39.0815 34.3779 38.1385 33.257C37.3353 32.2569 36.5108 31.2926 35.636 30.3518C34.7601 29.411 33.8215 28.4478 32.9456 27.4275C32.0573 26.4174 31.2765 25.3311 30.4979 24.2594C29.7126 23.1922 29.0044 22.0735 28.2683 20.9817C28.077 20.6651 28.6733 20.2019 28.953 20.4514Z" fill="#3DB3E5"/>
<path fill-rule="evenodd" clip-rule="evenodd" d="M79.2151 3.37666C79.129 3.58586 78.8863 3.56125 78.5171 3.427C78.3996 3.38338 78.1613 3.14398 78.177 3.06567C78.2061 2.91241 78.2408 2.75691 78.2989 2.6182C78.3101 2.51975 79.2543 1.5409 79.6615 1.29703C80.015 1.00393 80.4289 0.823825 80.8451 0.652666C81.6975 0.348384 82.5746 0.103392 83.4561 0.0228467C83.6507 -0.00623908 83.8487 -0.00735776 84.0434 0.018372C84.7146 0.0854931 85.3668 0.0955612 86.0201 0.11346C86.1286 0.115698 86.2382 0.133597 86.3479 0.0866118C86.5358 -0.0219007 88.2888 0.229803 88.4935 0.349503C89.0808 0.595613 89.5451 0.789146 90.0619 1.00617C90.1357 1.03861 90.2208 1.04532 90.2733 1.12699C90.3942 1.31717 90.562 1.34513 90.7208 1.40666C90.9423 1.48944 91.1582 1.59012 91.3663 1.7087C91.4692 1.76799 91.5542 1.87539 91.6437 1.96824C91.7243 2.05102 91.6113 2.21771 91.5699 2.22777C91.4513 2.25574 91.5039 2.36873 91.4882 2.44816C91.4826 2.475 91.4748 2.5108 91.4636 2.52982C91.4379 2.55779 90.072 2.56226 89.9355 2.54772C89.9198 2.54548 89.4466 2.47053 88.9455 2.3911C88.4465 2.32957 87.9308 2.27364 87.8234 2.28035C87.7116 2.27923 87.6075 2.23001 87.5035 2.18974C87.4509 2.14611 85.9754 2.10472 85.9228 2.11255C85.6219 2.06445 85.3232 2.11814 85.0267 1.97831C84.9685 1.95034 84.907 1.95593 84.8477 1.95705C84.3331 1.98502 83.8219 1.95817 83.3129 1.99509C83.0489 1.99733 82.805 2.09018 82.5511 2.13157C82.5063 2.14052 82.456 2.12933 82.4079 2.12933C82.3475 2.12821 82.2871 2.12709 82.2322 2.14611C81.6572 2.32734 81.0487 2.45263 80.562 2.80949C80.439 2.86542 79.808 3.09811 79.6917 3.22005C79.6212 3.27039 79.2487 3.28381 79.2151 3.37666Z" fill="#3DB3E5"/>
<path fill-rule="evenodd" clip-rule="evenodd" d="M41.9768 4.85666C42.1625 4.973 42.1311 5.21352 41.9466 5.47977C41.8884 5.56479 41.6277 5.70462 41.564 5.68896C41.4398 5.6554 41.3212 5.62631 41.2239 5.58716C41.178 5.5357 40.5214 5.02334 40.2339 4.99202C40 4.88798 39.736 4.83093 39.4989 4.73025C38.9832 4.5658 38.397 4.53 37.8052 4.51434C37.6698 4.51993 37.5356 4.50763 37.4002 4.48078C36.936 4.37674 36.4482 4.40359 35.9683 4.48637C35.8889 4.4998 35.805 4.4998 35.7334 4.56021C35.6193 4.65194 34.2992 4.85554 34.1158 4.85554C33.5967 4.83652 33.2052 4.8231 32.7577 4.80744C32.6928 4.80296 32.629 4.82869 32.5597 4.77947C32.3997 4.66648 32.2677 4.70564 32.1279 4.71347C31.9355 4.72689 31.7386 4.72353 31.5394 4.70564C31.4421 4.69669 31.337 4.64523 31.2363 4.60943C31.1457 4.57699 31.1669 4.41701 31.1926 4.39352C31.2698 4.32864 31.1882 4.26599 31.1703 4.20335C31.1636 4.18209 31.1557 4.15412 31.1568 4.13511C31.158 4.11497 31.413 3.9729 31.6748 3.81516C31.9377 3.65967 32.2151 3.49522 32.2722 3.47956C32.2789 3.47732 32.3784 3.44152 32.5284 3.38782C32.6771 3.32853 32.8785 3.26924 33.0843 3.20324C33.4971 3.06788 33.9345 2.94594 34.0263 2.92021C34.1191 2.88889 34.222 2.90567 34.3216 2.90903C34.3619 2.90455 35.6551 2.58125 35.7177 2.59132C35.9974 2.57678 36.2704 2.48505 36.5634 2.60027C36.6205 2.62264 36.6776 2.61146 36.7335 2.60475C37.2168 2.54657 37.7146 2.60139 38.2113 2.68305C38.4652 2.72109 38.7214 2.72668 38.982 2.78485C39.029 2.7938 39.0715 2.82177 39.1163 2.83855C39.1733 2.85981 39.2282 2.88889 39.2863 2.89896C39.8994 3.02761 40.4844 3.30616 41.0594 3.62722C41.1254 3.66526 41.2888 3.81964 41.4465 3.97066C41.5863 4.14965 41.7206 4.32752 41.7877 4.38234C41.8761 4.43939 41.9164 4.80632 41.9768 4.85666Z" fill="#3DB3E5"/>
<path fill-rule="evenodd" clip-rule="evenodd" d="M32.7926 79.6157C37.0526 90.2678 46.5637 98.8839 57.7427 101.858C61.8192 102.94 66.0825 103.141 70.2619 102.639C77.6474 101.76 84.7645 98.5438 90.4631 93.6764C96.165 88.8225 100.445 82.2122 102.044 74.8456C103.461 68.3203 103.206 61.3409 101.179 55.0304C99.9037 50.9695 97.8867 47.1548 95.2622 43.8279C92.6646 40.4662 89.3511 37.7277 85.7646 35.4556C83.5373 34.0338 84.1078 33.5684 86.456 34.1714C87.0444 34.3235 87.7447 34.5428 88.5378 34.8314C89.3019 35.167 90.123 35.6268 91.0269 36.1403C91.471 36.4065 91.9565 36.6627 92.4096 36.9927C92.8492 37.3451 93.3023 37.7086 93.7688 38.0823C94.2319 38.466 94.704 38.8687 95.1806 39.2893C95.6325 39.7335 96.0498 40.2335 96.4883 40.7313C102.725 47.8383 105.787 57.3427 105.665 66.6367C105.611 71.2972 104.809 75.9643 103.128 80.3607C101.431 84.7449 98.8789 88.7732 95.6806 92.1707C91.8402 96.2091 87.2245 99.658 82.0148 101.985C76.8532 104.396 71.0986 105.625 65.3978 105.56C62.2566 105.496 59.1477 104.954 56.1306 104.133C53.137 103.217 50.262 101.966 47.5526 100.422C44.8901 98.8045 42.3596 96.9721 40.0988 94.832C37.8782 92.6629 35.7862 90.3405 34.0937 87.7284C29.8416 81.3855 27.4845 73.7113 27.7037 66.074C27.7284 63.18 28.2004 60.2994 28.9175 57.5027C29.638 54.7015 30.7097 51.992 32.089 49.4571C33.4549 46.9177 35.0893 44.5281 36.9519 42.34C38.838 40.1731 40.9378 38.2042 43.2009 36.4624C46.7326 33.7742 50.6222 31.6006 54.7882 30.1609C58.9363 28.692 63.3372 27.8832 67.7817 27.9414C68.2706 27.9459 68.7572 27.9504 69.2427 27.9548L70.6948 28.0656C71.6669 28.1159 72.629 28.2602 73.6045 28.4325C77.2078 29.1015 79.5 29.9562 80.999 30.7381C82.5238 31.4765 83.2722 32.1521 83.7935 32.8166C84.0306 33.1209 84.3618 33.4722 84.4613 33.706C84.628 34.1009 84.0116 34.0718 82.8001 33.6847C82.1994 33.4811 81.4409 33.2026 80.5169 32.9229C80.0615 32.7685 79.5693 32.6019 79.0435 32.4229C78.5099 32.2707 77.9394 32.1085 77.3376 31.9362C70.1936 29.879 62.2991 30.2604 55.1026 32.8838C51.4937 34.1714 48.0918 36.0832 44.9986 38.4022C41.901 40.7213 39.1479 43.5247 36.9172 46.6984C35.2493 49.0443 33.8375 51.5792 32.7803 54.2574C31.731 56.9388 31.0162 59.7467 30.6582 62.6039C29.9187 68.3237 30.675 74.2404 32.8497 79.5765L32.7926 79.6157Z" fill="#3DB3E5"/>
</svg>
