<svg width="890" height="558" viewBox="0 0 890 558" fill="none" xmlns="http://www.w3.org/2000/svg">
<path d="M366.126 535.813C366.959 535.813 367.856 535.899 368.818 536.07C369.8 536.22 370.377 536.306 370.548 536.327L370.484 538.736C368.604 538.394 367.151 538.222 366.126 538.222C364.673 538.222 363.626 538.522 362.985 539.122C362.345 539.722 362.024 540.718 362.024 542.11V551.298C362.024 552.69 362.334 553.686 362.953 554.286C363.594 554.864 364.652 555.153 366.126 555.153C367.151 555.153 368.604 554.982 370.484 554.639L370.548 557.113C370.377 557.134 369.8 557.22 368.818 557.37C367.856 557.541 366.959 557.627 366.126 557.627C363.669 557.627 361.917 557.102 360.871 556.052C359.824 555.003 359.3 553.365 359.3 551.137V542.302C359.3 540.075 359.824 538.437 360.871 537.387C361.917 536.338 363.669 535.813 366.126 535.813Z" fill="#0F0F0F"/>
<path d="M380.244 535.813C382.765 535.813 384.634 536.327 385.852 537.355C387.091 538.362 387.71 539.807 387.71 541.692V542.463C387.71 544.476 387.112 546.029 385.916 547.121C384.72 548.214 382.914 548.76 380.5 548.76C379.539 548.76 378.514 548.674 377.424 548.503V557.241H374.7V535.974C376.516 535.866 378.364 535.813 380.244 535.813ZM380.18 538.126C379.24 538.126 378.321 538.147 377.424 538.19V546.158C378.706 546.329 379.689 546.415 380.372 546.415C383.448 546.415 384.987 545.055 384.987 542.335V541.788C384.987 540.568 384.602 539.657 383.833 539.058C383.064 538.437 381.846 538.126 380.18 538.126Z" fill="#0F0F0F"/>
<path d="M395.525 541.178C397.362 541.178 398.697 541.596 399.53 542.431C400.385 543.245 400.812 544.551 400.812 546.35V557.241H398.216V554.735C396.977 556.663 395.578 557.627 394.018 557.627C392.779 557.627 391.786 557.198 391.038 556.342C390.312 555.485 389.949 554.318 389.949 552.84V551.94C389.949 550.655 390.387 549.595 391.263 548.76C392.139 547.903 393.314 547.475 394.788 547.475C395.599 547.475 396.7 547.614 398.088 547.892V546.125C398.088 545.205 397.874 544.541 397.447 544.134C397.041 543.727 396.4 543.523 395.525 543.523C394.499 543.523 393.057 543.684 391.199 544.005V541.66C393.207 541.339 394.649 541.178 395.525 541.178ZM395.46 549.595C394.563 549.595 393.88 549.831 393.41 550.302C392.94 550.773 392.705 551.437 392.705 552.294V552.647C392.705 553.44 392.886 554.061 393.249 554.51C393.613 554.96 394.072 555.185 394.627 555.185C395.204 555.185 395.792 554.939 396.39 554.446C397.009 553.932 397.575 553.215 398.088 552.294V549.82C397.276 549.67 396.4 549.595 395.46 549.595Z" fill="#0F0F0F"/>
<path d="M409.919 541.178C411.757 541.178 413.092 541.596 413.925 542.431C414.779 543.245 415.207 544.551 415.207 546.35V557.241H412.611V554.735C411.372 556.663 409.973 557.627 408.413 557.627C407.174 557.627 406.181 557.198 405.433 556.342C404.707 555.485 404.344 554.318 404.344 552.84V551.94C404.344 550.655 404.782 549.595 405.658 548.76C406.533 547.903 407.708 547.475 409.182 547.475C409.994 547.475 411.094 547.614 412.483 547.892V546.125C412.483 545.205 412.269 544.541 411.842 544.134C411.436 543.727 410.795 543.523 409.919 543.523C408.894 543.523 407.452 543.684 405.593 544.005V541.66C407.602 541.339 409.044 541.178 409.919 541.178ZM409.855 549.595C408.958 549.595 408.274 549.831 407.804 550.302C407.334 550.773 407.1 551.437 407.1 552.294V552.647C407.1 553.44 407.281 554.061 407.644 554.51C408.007 554.96 408.467 555.185 409.022 555.185C409.599 555.185 410.186 554.939 410.785 554.446C411.404 553.932 411.97 553.215 412.483 552.294V549.82C411.671 549.67 410.795 549.595 409.855 549.595Z" fill="#0F0F0F"/>
<path d="M424.955 535.813C426.109 535.813 427.615 535.984 429.473 536.327L429.409 538.736C427.657 538.394 426.173 538.222 424.955 538.222C423.716 538.222 422.819 538.469 422.263 538.961C421.729 539.454 421.462 540.204 421.462 541.21V542.045C421.462 542.581 421.526 543.009 421.655 543.331C421.804 543.63 422.06 543.898 422.424 544.134C422.787 544.348 423.332 544.573 424.058 544.808L427.038 545.804C428.469 546.297 429.473 546.95 430.05 547.764C430.648 548.578 430.947 549.766 430.947 551.33V551.94C430.947 553.846 430.392 555.271 429.281 556.213C428.192 557.156 426.397 557.627 423.898 557.627C422.68 557.627 421.12 557.413 419.219 556.984L419.283 554.51C421.056 554.939 422.573 555.153 423.834 555.153C425.436 555.153 426.568 554.917 427.23 554.446C427.893 553.954 428.224 553.193 428.224 552.165V551.105C428.224 550.355 428.053 549.788 427.711 549.402C427.39 548.995 426.814 548.653 425.981 548.374L422.68 547.282C421.206 546.789 420.181 546.158 419.604 545.387C419.027 544.594 418.739 543.405 418.739 541.821V541.467C418.739 539.604 419.23 538.201 420.213 537.259C421.217 536.295 422.797 535.813 424.955 535.813Z" fill="#0F0F0F"/>
<path d="M451.53 535.813C454.051 535.813 455.92 536.327 457.137 537.355C458.376 538.362 458.996 539.807 458.996 541.692V542.463C458.996 544.476 458.398 546.029 457.202 547.121C456.005 548.214 454.2 548.76 451.786 548.76C450.825 548.76 449.799 548.674 448.71 548.503V557.241H445.986V535.974C447.802 535.866 449.65 535.813 451.53 535.813ZM451.466 538.126C450.526 538.126 449.607 538.147 448.71 538.19V546.158C449.992 546.329 450.974 546.415 451.658 546.415C454.734 546.415 456.272 545.055 456.272 542.335V541.788C456.272 540.568 455.888 539.657 455.119 539.058C454.35 538.437 453.132 538.126 451.466 538.126Z" fill="#0F0F0F"/>
<path d="M464.916 535.299V557.241H462.192V535.299H464.916Z" fill="#0F0F0F"/>
<path d="M474.164 541.178C476.001 541.178 477.337 541.596 478.17 542.431C479.024 543.245 479.451 544.551 479.451 546.35V557.241H476.856V554.735C475.617 556.663 474.218 557.627 472.658 557.627C471.419 557.627 470.426 557.198 469.678 556.342C468.952 555.485 468.589 554.318 468.589 552.84V551.94C468.589 550.655 469.026 549.595 469.902 548.76C470.778 547.903 471.953 547.475 473.427 547.475C474.239 547.475 475.339 547.614 476.728 547.892V546.125C476.728 545.205 476.514 544.541 476.087 544.134C475.681 543.727 475.04 543.523 474.164 543.523C473.139 543.523 471.697 543.684 469.838 544.005V541.66C471.846 541.339 473.288 541.178 474.164 541.178ZM474.1 549.595C473.203 549.595 472.519 549.831 472.049 550.302C471.579 550.773 471.344 551.437 471.344 552.294V552.647C471.344 553.44 471.526 554.061 471.889 554.51C472.252 554.96 472.712 555.185 473.267 555.185C473.844 555.185 474.431 554.939 475.029 554.446C475.649 553.932 476.215 553.215 476.728 552.294V549.82C475.916 549.67 475.04 549.595 474.1 549.595Z" fill="#0F0F0F"/>
<path d="M486.989 541.564H491.155V543.812H486.989V553C486.989 553.814 487.149 554.403 487.47 554.767C487.811 555.11 488.335 555.281 489.04 555.281C489.937 555.281 490.813 555.174 491.667 554.96L491.731 557.241C490.791 557.498 489.937 557.627 489.168 557.627C487.459 557.627 486.209 557.252 485.419 556.502C484.65 555.731 484.265 554.489 484.265 552.776V543.812H482.022V541.564H484.265L484.778 537.387H486.989V541.564Z" fill="#0F0F0F"/>
<path d="M500.849 534.913C501.554 534.913 502.227 534.988 502.868 535.138V537.323C502.227 537.216 501.565 537.162 500.881 537.162C500.219 537.162 499.696 537.376 499.311 537.805C498.948 538.233 498.766 538.886 498.766 539.764V541.564H501.971V543.812H498.766V557.241H496.043V543.812H493.799V541.564H496.043V539.925C496.064 538.255 496.48 537.002 497.292 536.166C498.104 535.331 499.29 534.913 500.849 534.913Z" fill="#0F0F0F"/>
<path d="M509.789 541.178C511.69 541.178 513.1 541.692 514.018 542.72C514.958 543.727 515.428 545.162 515.428 547.025V551.78C515.428 553.643 514.958 555.089 514.018 556.117C513.1 557.123 511.69 557.627 509.789 557.627C507.887 557.627 506.467 557.123 505.527 556.117C504.608 555.089 504.149 553.643 504.149 551.78V547.025C504.149 545.162 504.608 543.727 505.527 542.72C506.467 541.692 507.887 541.178 509.789 541.178ZM509.789 543.459C508.87 543.459 508.154 543.748 507.642 544.326C507.129 544.905 506.872 545.729 506.872 546.8V552.005C506.872 553.075 507.129 553.9 507.642 554.478C508.154 555.057 508.87 555.346 509.789 555.346C510.707 555.346 511.423 555.057 511.935 554.478C512.448 553.9 512.705 553.075 512.705 552.005V546.768C512.705 545.697 512.448 544.883 511.935 544.326C511.423 543.748 510.707 543.459 509.789 543.459Z" fill="#0F0F0F"/>
<path d="M526.409 541.178C526.708 541.178 526.943 541.199 527.114 541.242V544.326C526.794 544.262 526.377 544.23 525.864 544.23C524.369 544.23 523.183 544.98 522.307 546.479V557.241H519.584V541.564H522.147V543.909C522.724 543.031 523.365 542.356 524.07 541.885C524.796 541.414 525.576 541.178 526.409 541.178Z" fill="#0F0F0F"/>
<path d="M545.033 541.178C546.4 541.178 547.447 541.649 548.173 542.592C548.9 543.513 549.263 544.83 549.263 546.543V557.241H546.539V546.929C546.539 544.787 545.855 543.716 544.488 543.716C543.89 543.716 543.271 543.952 542.63 544.423C542.01 544.894 541.465 545.536 540.995 546.35V557.241H538.272V546.929C538.272 544.787 537.588 543.716 536.221 543.716C535.623 543.716 535.003 543.952 534.362 544.423C533.743 544.894 533.198 545.536 532.728 546.35V557.241H530.004V541.564H532.568V543.909C533.123 543.031 533.764 542.356 534.491 541.885C535.217 541.414 535.975 541.178 536.766 541.178C537.748 541.178 538.571 541.435 539.233 541.949C539.895 542.442 540.376 543.17 540.675 544.134C541.252 543.17 541.914 542.442 542.662 541.949C543.41 541.435 544.2 541.178 545.033 541.178Z" fill="#0F0F0F"/>
<path fill-rule="evenodd" clip-rule="evenodd" d="M562.142 489.625V510.675H582.803V489.625H562.142ZM555.974 510.675V489.625C555.974 486.206 558.736 483.434 562.142 483.434H582.803C586.209 483.434 588.971 486.206 588.971 489.625V510.675C588.971 514.094 586.209 516.866 582.803 516.866H562.142C558.736 516.866 555.974 514.094 555.974 510.675Z" fill="#0F0F0F"/>
<path d="M515.269 483.744H508.485L527.604 516.866H532.846L552.274 483.744H545.49L530.071 509.746L515.269 483.744Z" fill="#0F0F0F"/>
<path fill-rule="evenodd" clip-rule="evenodd" d="M507.414 483.125H515.627L530.082 508.517L545.139 483.125H553.353L533.199 517.485H527.248L507.414 483.125ZM509.555 484.363L527.959 516.247H532.494L551.195 484.363H545.84L530.06 510.975L514.911 484.363H509.555Z" fill="#0F0F0F"/>
<path fill-rule="evenodd" clip-rule="evenodd" d="M469.629 489.625C469.629 485.693 472.805 482.506 476.722 482.506H497.691C501.609 482.506 504.784 485.693 504.784 489.625V517.794H496.766V506.651H477.339V517.794H469.629V489.625ZM476.722 484.363C473.827 484.363 471.479 486.719 471.479 489.625V515.937H475.488V504.793H498.617V515.937H502.934V489.625C502.934 486.719 500.587 484.363 497.691 484.363H476.722ZM477.339 490.554V498.602H496.766V490.554H477.339ZM475.488 490.244C475.488 489.39 476.179 488.697 477.03 488.697H497.075C497.926 488.697 498.617 489.39 498.617 490.244V498.912C498.617 499.767 497.926 500.46 497.075 500.46H477.03C476.179 500.46 475.488 499.767 475.488 498.912V490.244Z" fill="#3DB3E5"/>
<path fill-rule="evenodd" clip-rule="evenodd" d="M430.466 482.506H458.836C462.753 482.506 465.929 485.693 465.929 489.625V510.365C465.929 514.297 462.753 517.485 458.836 517.485H430.466V482.506ZM432.316 484.363V515.628H458.836C461.731 515.628 464.078 513.271 464.078 510.365V489.625C464.078 486.719 461.731 484.363 458.836 484.363H432.316ZM436.633 490.244C436.633 489.39 437.323 488.697 438.175 488.697H458.528C459.379 488.697 460.07 489.39 460.07 490.244V510.056C460.07 510.91 459.379 511.603 458.528 511.603H438.175C437.323 511.603 436.633 510.91 436.633 510.056V490.244ZM438.483 490.554V509.746H458.219V490.554H438.483Z" fill="#3DB3E5"/>
<path fill-rule="evenodd" clip-rule="evenodd" d="M399.32 489.625V510.675H419.981V489.625H399.32ZM393.152 510.675V489.625C393.152 486.206 395.913 483.434 399.32 483.434H419.981C423.387 483.434 426.148 486.206 426.148 489.625V510.675C426.148 514.094 423.387 516.866 419.981 516.866H399.32C395.913 516.866 393.152 514.094 393.152 510.675Z" fill="#0F0F0F"/>
<path d="M354.898 516.866H351.213C350.532 516.866 349.979 516.311 349.979 515.628V484.673C349.979 483.989 350.532 483.434 351.213 483.434H355.562C355.932 483.434 356.283 483.601 356.517 483.889L368.482 498.602L380.138 483.901C380.372 483.606 380.728 483.434 381.103 483.434H386.059C386.741 483.434 387.293 483.989 387.293 484.673V515.628C387.293 516.311 386.741 516.866 386.059 516.866H382.667C381.986 516.866 381.434 516.311 381.434 515.628V492.102L368.482 507.579L355.839 492.721L356.131 515.612C356.14 516.302 355.585 516.866 354.898 516.866Z" fill="#0F0F0F"/>
<path fill-rule="evenodd" clip-rule="evenodd" d="M355.2 491.017L368.478 506.621L382.051 490.402V515.628C382.051 515.969 382.327 516.247 382.667 516.247H386.059C386.4 516.247 386.676 515.969 386.676 515.628V484.673C386.676 484.331 386.4 484.053 386.059 484.053H381.103C380.916 484.053 380.738 484.139 380.621 484.287L368.488 499.589L356.039 484.281C355.922 484.137 355.747 484.053 355.562 484.053H351.213C350.872 484.053 350.596 484.331 350.596 484.673V515.628C350.596 515.969 350.872 516.247 351.213 516.247H354.898C355.241 516.247 355.519 515.965 355.514 515.62L355.2 491.017ZM368.482 507.579L355.839 492.721L356.131 515.612C356.14 516.302 355.585 516.866 354.898 516.866H351.213C350.532 516.866 349.979 516.311 349.979 515.628V484.673C349.979 483.989 350.532 483.434 351.213 483.434H355.562C355.932 483.434 356.283 483.601 356.517 483.889L368.482 498.602L380.138 483.901C380.372 483.606 380.728 483.434 381.103 483.434H386.059C386.741 483.434 387.293 483.989 387.293 484.673V515.628C387.293 516.311 386.741 516.866 386.059 516.866H382.667C381.986 516.866 381.434 516.311 381.434 515.628V492.102L368.482 507.579Z" fill="#0F0F0F"/>
<path fill-rule="evenodd" clip-rule="evenodd" d="M347.204 476.934C345.477 474.705 342.167 473.735 340.728 473.529H330.552C330.433 473.521 330.298 473.513 330.147 473.505C328.33 473.403 324.285 473.177 321.301 470.743C316.367 466.719 313.591 462.105 313.591 455.575C313.591 450.932 314.965 446.766 317.908 443.812C321.301 440.407 324.693 437.93 333.019 438.549C341.23 439.16 347.204 446.907 347.204 450.932V476.934ZM339.803 466.099V451.292C339.768 451.202 339.707 451.061 339.605 450.868C339.291 450.275 338.748 449.503 337.971 448.728C336.374 447.132 334.4 446.102 332.472 445.958C329.111 445.708 327.413 446.131 326.46 446.529C325.49 446.935 324.615 447.586 323.142 449.065C321.93 450.281 320.992 452.354 320.992 455.575C320.992 459.4 322.366 462.04 325.968 464.977C326.328 465.27 326.989 465.59 328.05 465.809C328.93 465.99 329.645 466.032 330.455 466.08C330.564 466.086 330.674 466.093 330.787 466.099H339.803Z" fill="#0F0F0F"/>
<path fill-rule="evenodd" clip-rule="evenodd" d="M355.222 456.813H362.931C367.359 456.813 370.949 453.21 370.949 448.765V448.61C370.949 444.25 367.428 440.716 363.085 440.716C358.743 440.716 355.222 444.25 355.222 448.61V456.813ZM356.455 455.575V448.61C356.455 444.934 359.424 441.955 363.085 441.955C366.747 441.955 369.716 444.934 369.716 448.61V448.765C369.716 452.526 366.678 455.575 362.931 455.575H356.455ZM356.057 460.837L355.968 460.85C355.173 460.967 354.458 461.306 353.598 461.875C353.179 462.152 352.7 462.5 352.138 462.931V445.36C352.138 444.246 352.961 442.273 354.666 440.46C356.329 438.692 358.65 437.279 361.361 437.072C364.356 436.843 366.349 437.194 367.858 437.842C369.372 438.492 370.511 439.487 371.752 440.765C373.683 442.756 374.65 445.628 374.65 448.985C374.65 451.413 374.354 452.996 373.703 454.313C373.048 455.639 371.971 456.822 370.159 458.339C369.242 459.106 367.766 459.745 366.294 460.194C364.812 460.647 363.577 460.837 363.24 460.837H356.057ZM350.905 445.36C350.905 442.252 355.09 436.309 361.268 435.837C367.531 435.359 370.083 437.271 372.635 439.901C374.849 442.183 375.883 445.399 375.883 448.985C375.883 454.028 374.661 456.182 370.949 459.289C368.731 461.147 364.281 462.075 363.24 462.075H356.147C355.223 462.211 354.304 462.791 352.138 464.498C351.766 464.791 351.357 465.117 350.905 465.48V445.36Z" fill="#0F0F0F"/>
<path fill-rule="evenodd" clip-rule="evenodd" d="M336.716 388.28C330.046 388.204 322.876 388.631 315.629 389.911C301.061 392.486 285.926 398.562 274.054 411.193C262.147 423.862 254.002 442.616 252.515 469.621C251.334 491.062 256.388 507.523 264.938 520.036C273.446 532.487 285.167 540.669 296.784 546.047C308.392 551.421 320.072 554.079 328.793 555.402C333.168 556.066 336.835 556.399 339.425 556.567C340.721 556.651 341.749 556.693 342.465 556.715C342.823 556.725 343.104 556.731 343.3 556.734C343.398 556.735 343.475 556.736 343.531 556.737L343.598 556.737L343.62 556.737H343.627C343.63 556.737 343.633 556.737 343.633 551.719V556.737C346.397 556.737 348.639 554.491 348.639 551.719C348.639 548.95 346.399 546.704 343.636 546.702H343.634M343.633 546.702L343.603 546.702C343.571 546.702 343.519 546.701 343.446 546.7C343.299 546.698 343.071 546.693 342.766 546.684C342.157 546.666 341.243 546.629 340.07 546.553C337.721 546.401 334.343 546.095 330.292 545.48C322.162 544.246 311.467 541.791 300.983 536.937C290.506 532.087 280.416 524.927 273.199 514.366C266.025 503.866 261.44 489.644 262.512 470.174C263.9 444.974 271.4 428.653 281.342 418.074C291.32 407.457 304.24 402.114 317.367 399.794C330.52 397.47 343.622 398.233 353.528 399.618C358.46 400.308 362.55 401.145 365.392 401.805C366.811 402.135 367.917 402.42 368.656 402.62C369.026 402.719 369.304 402.798 369.484 402.849C369.575 402.875 369.64 402.894 369.68 402.906L369.724 402.919C369.725 402.919 369.726 402.92 369.727 402.92C372.373 403.718 375.165 402.217 375.963 399.565C376.762 396.912 375.263 394.112 372.616 393.312L371.17 398.115C372.616 393.312 372.614 393.311 372.611 393.31L372.603 393.308L372.58 393.301L372.504 393.278C372.44 393.26 372.351 393.234 372.237 393.201C372.008 393.135 371.68 393.043 371.258 392.929C370.414 392.702 369.195 392.388 367.653 392.03C364.571 391.313 360.186 390.417 354.912 389.679C352.404 389.329 349.685 389.012 346.799 388.769C349.505 374.161 356.918 354.076 370.293 337.097C384.98 318.452 406.666 303.742 437.261 303.742C468.277 303.742 490.324 315.947 504.669 328.151C511.859 334.267 517.107 340.382 520.545 344.948C522.262 347.229 523.522 349.115 524.342 350.412C524.751 351.059 525.05 351.559 525.241 351.886C525.336 352.049 525.405 352.169 525.446 352.242C525.467 352.279 525.481 352.304 525.488 352.317L525.49 352.32C525.49 352.321 525.491 352.323 525.492 352.324C525.492 352.325 525.492 352.325 525.493 352.326C525.493 352.327 525.493 352.326 525.493 352.326C526.814 354.756 529.85 355.656 532.278 354.335C534.708 353.013 535.608 349.967 534.289 347.532L529.889 349.926C534.289 347.532 534.287 347.53 534.286 347.527L534.283 347.521L534.274 347.506L534.25 347.461C534.23 347.425 534.203 347.376 534.169 347.316C534.101 347.196 534.006 347.028 533.882 346.816C533.635 346.393 533.275 345.792 532.799 345.04C531.848 343.536 530.434 341.423 528.537 338.903C524.747 333.869 519.005 327.184 511.148 320.5C495.402 307.104 471.135 293.707 437.261 293.707C402.967 293.707 378.589 310.371 362.434 330.879C347.551 349.774 339.486 372.091 336.716 388.28M546.528 379.93C531.156 377.762 511.042 379.721 491.587 396.406C489.486 398.208 486.326 397.961 484.528 395.856C482.731 393.75 482.976 390.583 485.077 388.781C507.179 369.827 530.375 367.518 547.923 369.993C556.651 371.225 563.986 373.633 569.145 375.733C571.73 376.785 573.783 377.767 575.209 378.496C575.923 378.861 576.48 379.163 576.87 379.381C577.066 379.49 577.219 379.577 577.329 379.641C577.359 379.659 577.386 379.675 577.41 379.689C577.425 379.696 577.44 379.705 577.457 379.714C577.547 379.763 577.671 379.832 577.826 379.92C578.136 380.097 578.573 380.351 579.12 380.686C580.213 381.355 581.747 382.345 583.59 383.671C587.272 386.321 592.21 390.33 597.324 395.821C607.168 406.391 617.718 422.517 621.105 444.969C627.837 448.458 636.449 454.674 643.416 463.496C651.369 473.567 657.302 487.22 655.534 504.055C653.47 523.711 648.131 537.787 633.541 546.271C619.708 554.314 598.365 556.737 566.44 556.737C563.675 556.737 561.433 554.491 561.433 551.719C561.433 548.948 563.675 546.702 566.44 546.702C598.602 546.702 617.314 544.105 628.516 537.591C638.96 531.518 643.635 521.499 645.577 503.005C647.014 489.32 642.265 478.208 635.565 469.724C628.795 461.151 620.158 455.447 614.464 452.893L611.882 451.735L611.539 448.921C608.943 427.626 599.167 412.507 590.005 402.669C585.418 397.744 581 394.161 577.75 391.822C576.127 390.654 574.802 389.801 573.902 389.25C573.452 388.975 573.109 388.776 572.889 388.651C572.779 388.588 572.7 388.544 572.653 388.519L572.614 388.497L572.493 388.433L572.383 388.367L572.379 388.365L572.376 388.363C572.365 388.357 572.344 388.344 572.313 388.326C572.25 388.289 572.145 388.229 572 388.148C571.71 387.986 571.259 387.741 570.659 387.434C569.458 386.821 567.666 385.962 565.377 385.03C560.788 383.162 554.26 381.021 546.528 379.93Z" fill="#3DB3E5"/>
<path fill-rule="evenodd" clip-rule="evenodd" d="M76.451 351.027C77.2003 350.182 78.4923 350.105 79.3367 350.855C85.6311 356.44 93.195 366.585 95.4124 378.993C97.6577 391.557 94.366 406.165 79.3829 420.304C78.5619 421.078 77.2682 421.041 76.4933 420.22C75.7185 419.399 75.756 418.105 76.5771 417.33C90.6203 404.078 93.3757 390.835 91.388 379.713C89.3725 368.434 82.4232 359.059 76.6233 353.913C75.7789 353.163 75.7018 351.871 76.451 351.027ZM18.6351 350.96C19.4211 351.77 19.4015 353.065 18.5913 353.851C13.1179 359.161 6.54108 368.751 4.63238 380.126C2.74675 391.363 5.37606 404.529 18.5913 417.35C19.4015 418.136 19.4211 419.43 18.6351 420.24C17.849 421.051 16.5549 421.07 15.7446 420.284C1.5688 406.531 -1.50835 392.017 0.60054 379.449C2.68636 367.019 9.805 356.679 15.7446 350.916C16.5549 350.13 17.849 350.15 18.6351 350.96ZM29.3442 361.435C29.99 362.361 29.7628 363.635 28.8368 364.281C13.9512 374.662 14.8299 395.942 28.8517 405.908C29.7719 406.562 29.9877 407.838 29.3337 408.759C28.6796 409.679 27.4035 409.894 26.4833 409.24C10.3074 397.743 9.14206 373.031 26.4983 360.927C27.4242 360.282 28.6984 360.509 29.3442 361.435ZM68.2827 362.26C69.0369 361.42 70.3293 361.351 71.1693 362.105C75.5692 366.056 80.8899 373.127 82.4558 381.6C84.0555 390.257 81.6749 400.091 71.1339 409.126C70.2767 409.861 68.9863 409.762 68.2516 408.905C67.5169 408.047 67.6162 406.757 68.4733 406.022C77.9645 397.887 79.7573 389.495 78.4356 382.343C77.0802 375.009 72.3847 368.691 68.4379 365.147C67.5979 364.393 67.5284 363.1 68.2827 362.26ZM59.0894 372.475C59.8468 371.638 61.1394 371.573 61.9766 372.331C64.0656 374.221 66.4784 377.72 67.1858 382.258C67.907 386.885 66.8231 392.398 62.1953 398.127C61.486 399.005 60.199 399.142 59.3207 398.433C58.4425 397.724 58.3056 396.437 59.0149 395.558C62.9724 390.659 63.6771 386.292 63.1463 382.887C62.6016 379.393 60.7219 376.709 59.2337 375.362C58.3966 374.605 58.3319 373.312 59.0894 372.475ZM37.0692 372.463C37.8335 373.293 37.7796 374.587 36.9488 375.351C35.0464 377.101 32.7917 380.226 32.1469 383.804C31.5329 387.21 32.3239 391.268 36.9152 395.308C37.7627 396.054 37.8452 397.346 37.0994 398.193C36.3536 399.041 35.062 399.123 34.2145 398.377C28.5853 393.424 27.247 387.942 28.1235 383.079C28.9692 378.386 31.8247 374.51 34.1809 372.342C35.0117 371.578 36.3048 371.632 37.0692 372.463ZM40.0552 442.324H55.5023C54.6375 439.891 53.8351 436.881 53.0914 433.561C51.9952 428.669 50.9905 422.935 50.1009 417.039C49.3573 412.112 48.6917 407.054 48.1188 402.255C47.4702 406.766 46.7351 411.525 45.9351 416.21C44.2372 426.153 42.2158 435.962 40.0552 442.324ZM57.3148 446.412H38.4259C36.7137 450.136 34.1913 454.59 31.3593 459.188H65.0599C61.9264 454.381 59.1398 449.863 57.3148 446.412ZM67.7597 463.276C73.5863 471.996 80.0781 481.106 83.9961 486.458C84.663 487.369 85.942 487.566 86.8529 486.9C87.7638 486.233 87.9616 484.954 87.2947 484.043C83.265 478.539 76.4908 469.026 70.5559 460.1C66.2203 453.58 62.3932 447.462 60.3893 443.454C59.283 441.241 58.159 437.48 57.0807 432.668C56.0135 427.905 55.0253 422.275 54.1433 416.43C52.3797 404.741 51.0557 392.292 50.3771 384.403L46.3092 384.35C45.4609 391.9 43.8818 403.946 41.9052 415.522C39.9138 427.184 37.5609 438.099 35.2191 443.563C33.3169 448.001 29.8711 453.957 25.9426 460.135C20.112 469.304 13.3523 478.755 9.40033 484.024C8.72297 484.927 8.90601 486.208 9.80915 486.886C10.7123 487.563 11.9935 487.38 12.6709 486.477C16.5323 481.328 23.0308 472.252 28.7875 463.276H67.7597Z" fill="black"/>
<path fill-rule="evenodd" clip-rule="evenodd" d="M220.813 103.001C214.745 103.001 209.826 107.921 209.826 113.989V124.465H231.8V113.989C231.8 107.921 226.881 103.001 220.813 103.001ZM235.888 124.465V113.989C235.888 105.663 229.138 98.9133 220.813 98.9133C212.487 98.9133 205.737 105.663 205.737 113.989V124.465H205.226C201.275 124.465 198.072 127.668 198.072 131.619V153.593C198.072 157.544 201.275 160.747 205.226 160.747H235.888C239.839 160.747 243.042 157.544 243.042 153.593V131.619C243.042 127.668 239.839 124.465 235.888 124.465ZM132.661 124.465C132.661 117.691 138.152 112.2 144.925 112.2H157.701C158.83 112.2 159.745 113.115 159.745 114.244C159.745 115.373 158.83 116.288 157.701 116.288H144.925C140.41 116.288 136.749 119.949 136.749 124.465V175.567C136.749 180.083 140.41 183.744 144.925 183.744H150.338C151.269 183.744 152.173 184.062 152.899 184.646L175.076 202.474V186.81C175.076 185.116 176.449 183.744 178.142 183.744H211.87C212.999 183.744 213.914 184.659 213.914 185.788C213.914 186.917 212.999 187.832 211.87 187.832H179.164V204.607C179.164 207.181 176.183 208.609 174.177 206.996L150.338 187.832H144.925C138.152 187.832 132.661 182.341 132.661 175.567V124.465ZM172.521 114.244C172.521 113.115 173.436 112.2 174.565 112.2H198.072C199.201 112.2 200.116 113.115 200.116 114.244C200.116 115.373 199.201 116.288 198.072 116.288H174.565C173.436 116.288 172.521 115.373 172.521 114.244ZM205.226 128.553C203.533 128.553 202.16 129.926 202.16 131.619V153.593C202.16 155.286 203.533 156.659 205.226 156.659H235.888C237.581 156.659 238.954 155.286 238.954 153.593V131.619C238.954 129.926 237.581 128.553 235.888 128.553H205.226ZM231.289 164.325C232.418 164.325 233.333 165.24 233.333 166.369V178.122C233.333 180.374 232.273 182.495 230.471 183.846L228.427 185.379C227.524 186.056 226.243 185.873 225.565 184.97C224.888 184.067 225.071 182.786 225.974 182.108L228.018 180.575C228.79 179.996 229.245 179.087 229.245 178.122V166.369C229.245 165.24 230.16 164.325 231.289 164.325Z" fill="black"/>
<path fill-rule="evenodd" clip-rule="evenodd" d="M732.092 98.4026C732.092 96.9914 733.236 95.8474 734.648 95.8474H747.934C749.345 95.8474 750.489 96.9914 750.489 98.4026V107.139L756.731 109.335L762.914 103.151C763.912 102.154 765.53 102.154 766.528 103.151L775.923 112.547C776.921 113.544 776.921 115.162 775.923 116.16L769.882 122.201L772.905 127.531H781.151C782.562 127.531 783.706 128.675 783.706 130.086V143.373C783.706 144.784 782.562 145.928 781.151 145.928H772.874L769.61 151.286L775.769 157.099C776.795 158.067 776.842 159.684 775.873 160.711L766.754 170.373C765.785 171.4 764.168 171.446 763.142 170.478L756.868 164.557L751.511 167.306V176.079C751.511 177.49 750.367 178.634 748.956 178.634H735.67C734.258 178.634 733.114 177.49 733.114 176.079V167.342L726.256 164.114L719.682 170.356C718.683 171.337 717.078 171.332 716.086 170.339L706.691 160.944C705.693 159.947 705.693 158.329 706.691 157.331L712.71 151.312L709.169 145.417H700.92C699.509 145.417 698.365 144.273 698.365 142.862V129.575C698.365 128.164 699.509 127.02 700.92 127.02H709.773L712.736 122.205L706.691 116.16C705.693 115.162 705.693 113.544 706.691 112.547L716.086 103.151C717.084 102.154 718.702 102.154 719.699 103.151L725.882 109.334L732.092 107.14V98.4026ZM715.408 120.541C715.446 120.56 715.484 120.581 715.521 120.604C716.242 121.048 716.467 121.992 716.023 122.713L712.234 128.87C711.769 129.626 710.945 130.086 710.058 130.086H701.431V142.351H709.458C710.355 142.351 711.186 142.821 711.648 143.59L715.544 150.075C716.148 151.081 715.989 152.368 715.16 153.198L709.22 159.138L717.902 167.819L724.398 161.65C725.161 160.925 726.292 160.743 727.245 161.191L734.713 164.706C735.609 165.127 736.181 166.028 736.181 167.018V175.567H748.445V166.993C748.445 166.035 748.981 165.157 749.834 164.72L755.79 161.664C756.753 161.17 757.923 161.337 758.71 162.08L764.875 167.897L773.293 158.978L767.205 153.232C766.327 152.404 766.149 151.075 766.776 150.045L770.404 144.088C770.868 143.326 771.695 142.862 772.587 142.862H780.64V130.597H772.608C771.688 130.597 770.839 130.103 770.385 129.303L767.023 123.375C766.456 122.375 766.627 121.12 767.439 120.307L773.393 114.353L764.721 105.681L758.672 111.73C757.977 112.425 756.944 112.66 756.017 112.334L749.05 109.883C748.935 109.843 748.73 109.764 748.515 109.614C747.835 109.138 747.423 108.358 747.423 107.519V98.9136H735.159V107.519C735.159 108.359 734.746 109.139 734.065 109.615C733.852 109.763 733.648 109.842 733.534 109.883L726.599 112.332C725.671 112.66 724.637 112.426 723.941 111.73L717.893 105.681L709.22 114.353L715.408 120.541ZM740.78 128.553C735.982 128.553 732.092 132.443 732.092 137.241C732.092 142.038 735.982 145.928 740.78 145.928C745.578 145.928 749.467 142.038 749.467 137.241C749.467 132.443 745.578 128.553 740.78 128.553ZM729.026 137.241C729.026 130.749 734.288 125.487 740.78 125.487C747.271 125.487 752.533 130.749 752.533 137.241C752.533 143.732 747.271 148.994 740.78 148.994C734.288 148.994 729.026 143.732 729.026 137.241ZM789.838 136.218C789.838 135.372 790.525 134.685 791.371 134.685H809.768C811.179 134.685 812.323 135.829 812.323 137.241V224.626C812.323 226.037 811.179 227.181 809.768 227.181H688.655C687.244 227.181 686.1 226.037 686.1 224.626V171.479C686.1 170.068 687.244 168.924 688.655 168.924H704.497C705.344 168.924 706.03 169.611 706.03 170.457C706.03 171.304 705.344 171.99 704.497 171.99H689.166V224.115H809.257V137.752H791.371C790.525 137.752 789.838 137.065 789.838 136.218ZM770.315 178.63C770.315 177.503 771.228 176.59 772.355 176.59H778.958C780.085 176.59 780.998 177.503 780.998 178.63V182.425L783.127 183.174L785.856 180.445C786.653 179.648 787.945 179.648 788.742 180.445L793.41 185.113C794.207 185.91 794.207 187.202 793.41 187.999L790.824 190.586L791.815 192.333H795.463C796.59 192.333 797.504 193.247 797.504 194.374V200.976C797.504 202.103 796.59 203.017 795.463 203.017H791.783L790.712 204.776L793.318 207.235C794.137 208.009 794.175 209.301 793.401 210.12L788.87 214.922C788.096 215.741 786.804 215.779 785.985 215.005L783.264 212.437L781.506 213.339V216.713C781.506 218.124 780.362 219.268 778.951 219.268H773.378C771.966 219.268 770.822 218.124 770.822 216.713V213.376L768.334 212.205L765.455 214.939C764.656 215.718 763.378 215.712 762.587 214.921L757.919 210.253C757.122 209.455 757.122 208.163 757.919 207.366L760.483 204.802L759.259 202.763H755.596C754.469 202.763 753.555 201.849 753.555 200.722V194.12C753.555 192.993 754.469 192.079 755.596 192.079H759.564L760.491 190.572L757.919 187.999C757.122 187.202 757.122 185.91 757.919 185.113L762.587 180.445C763.384 179.648 764.676 179.648 765.473 180.445L768.201 183.173L770.315 182.426V178.63ZM770.994 182.186C770.997 182.185 770.998 182.185 770.994 182.186ZM763.269 189.013C763.98 189.46 764.199 190.398 763.758 191.115L761.875 194.174C761.504 194.777 760.846 195.145 760.137 195.145H756.622V199.697H759.548C760.445 199.697 761.276 200.167 761.738 200.936L763.317 203.565C763.921 204.57 763.763 205.858 762.934 206.687L760.812 208.809L764.048 212.046L766.476 209.741C767.24 209.015 768.371 208.833 769.324 209.282L772.421 210.739C773.317 211.161 773.889 212.061 773.889 213.051V216.202H778.44V213.027C778.44 212.069 778.976 211.191 779.829 210.754L782.186 209.545C783.149 209.05 784.319 209.217 785.106 209.96L787.344 212.072L790.468 208.761L788.306 206.722C787.429 205.894 787.25 204.565 787.878 203.534L789.314 201.177C789.778 200.415 790.605 199.951 791.496 199.951H794.438V195.399H791.517C790.597 195.399 789.749 194.905 789.295 194.104L787.965 191.76C787.398 190.76 787.568 189.505 788.381 188.693L790.517 186.556L787.299 183.338L785.067 185.569C784.372 186.265 783.34 186.499 782.413 186.173L779.293 185.076C779.209 185.046 778.926 184.947 778.656 184.719C778.202 184.335 777.932 183.767 777.932 183.16V179.656H773.381V183.16C773.381 183.768 773.11 184.337 772.655 184.721C772.387 184.947 772.106 185.046 772.022 185.075L768.919 186.171C767.991 186.499 766.957 186.265 766.261 185.569L764.03 183.338L760.812 186.556L763.269 189.013ZM699.387 188.854C699.387 188.007 700.073 187.321 700.92 187.321H713.695C714.542 187.321 715.229 188.007 715.229 188.854C715.229 189.701 714.542 190.387 713.695 190.387H700.92C700.073 190.387 699.387 189.701 699.387 188.854ZM724.427 188.854C724.427 188.007 725.113 187.321 725.96 187.321H742.824C743.671 187.321 744.357 188.007 744.357 188.854C744.357 189.701 743.671 190.387 742.824 190.387H725.96C725.113 190.387 724.427 189.701 724.427 188.854ZM775.403 194.383C773.444 194.383 771.857 195.971 771.857 197.929C771.857 199.887 773.444 201.474 775.403 201.474C777.361 201.474 778.948 199.887 778.948 197.929C778.948 195.971 777.361 194.383 775.403 194.383ZM768.791 197.929C768.791 194.277 771.751 191.317 775.403 191.317C779.054 191.317 782.014 194.277 782.014 197.929C782.014 201.58 779.054 204.54 775.403 204.54C771.751 204.54 768.791 201.58 768.791 197.929ZM699.387 197.542C699.387 196.695 700.073 196.009 700.92 196.009H725.96C726.807 196.009 727.493 196.695 727.493 197.542C727.493 198.388 726.807 199.075 725.96 199.075H700.92C700.073 199.075 699.387 198.388 699.387 197.542ZM735.159 197.542C735.159 196.695 735.845 196.009 736.692 196.009H742.824C743.671 196.009 744.357 196.695 744.357 197.542C744.357 198.388 743.671 199.075 742.824 199.075H736.692C735.845 199.075 735.159 198.388 735.159 197.542ZM699.387 206.229C699.387 205.382 700.073 204.696 700.92 204.696H713.695C714.542 204.696 715.229 205.382 715.229 206.229C715.229 207.076 714.542 207.762 713.695 207.762H700.92C700.073 207.762 699.387 207.076 699.387 206.229ZM724.427 206.229C724.427 205.382 725.113 204.696 725.96 204.696H742.824C743.671 204.696 744.357 205.382 744.357 206.229C744.357 207.076 743.671 207.762 742.824 207.762H725.96C725.113 207.762 724.427 207.076 724.427 206.229Z" fill="black"/>
<path fill-rule="evenodd" clip-rule="evenodd" d="M233.256 210.406C234.054 209.608 235.348 209.608 236.146 210.406L265.416 239.675C266.214 240.473 266.214 241.768 265.416 242.566C264.617 243.364 263.323 243.364 262.525 242.566L233.256 213.297C232.457 212.498 232.457 211.204 233.256 210.406ZM227.113 222.33C227.911 221.532 229.205 221.532 230.003 222.33L244.096 236.423C244.894 237.221 244.894 238.516 244.096 239.314C243.298 240.112 242.004 240.112 241.205 239.314L227.113 225.221C226.314 224.423 226.314 223.129 227.113 222.33ZM249.516 244.734C250.315 243.936 251.609 243.936 252.407 244.734L256.382 248.709C257.18 249.507 257.18 250.801 256.382 251.6C255.584 252.398 254.289 252.398 253.491 251.6L249.516 247.625C248.718 246.827 248.718 245.532 249.516 244.734ZM263.248 258.465C264.046 257.667 265.34 257.667 266.138 258.465L306.971 299.298C307.769 300.096 307.769 301.39 306.971 302.189C306.173 302.987 304.878 302.987 304.08 302.189L263.248 261.356C262.449 260.558 262.449 259.264 263.248 258.465ZM272.281 249.432C273.08 248.633 274.374 248.633 275.172 249.432L281.315 255.575C282.113 256.373 282.113 257.667 281.315 258.465C280.517 259.264 279.223 259.264 278.424 258.465L272.281 252.322C271.483 251.524 271.483 250.23 272.281 249.432ZM286.735 263.886C287.534 263.087 288.828 263.087 289.626 263.886L292.517 266.776C293.315 267.575 293.315 268.869 292.517 269.667C291.719 270.466 290.424 270.466 289.626 269.667L286.735 266.776C285.937 265.978 285.937 264.684 286.735 263.886ZM301.189 278.34C301.988 277.541 303.282 277.541 304.08 278.34L330.82 305.08C331.618 305.878 331.618 307.172 330.82 307.97C330.022 308.769 328.728 308.769 327.929 307.97L301.189 281.23C300.391 280.432 300.391 279.138 301.189 278.34ZM314.921 310.138C315.719 309.34 317.013 309.34 317.811 310.138L323.593 315.92C324.391 316.718 324.391 318.013 323.593 318.811C322.795 319.609 321.501 319.609 320.702 318.811L314.921 313.029C314.122 312.231 314.122 310.937 314.921 310.138Z" fill="black"/>
<path fill-rule="evenodd" clip-rule="evenodd" d="M665.659 414.217C665.659 413.088 666.574 412.173 667.703 412.173H671.28C672.409 412.173 673.324 413.088 673.324 414.217C673.324 415.346 672.409 416.261 671.28 416.261H667.703C666.574 416.261 665.659 415.346 665.659 414.217ZM679.456 414.217C679.456 413.088 680.372 412.173 681.5 412.173H731.581C732.71 412.173 733.625 413.088 733.625 414.217C733.625 415.346 732.71 416.261 731.581 416.261H681.5C680.372 416.261 679.456 415.346 679.456 414.217ZM746.401 414.217C746.401 413.088 747.316 412.173 748.445 412.173H752.022C753.151 412.173 754.066 413.088 754.066 414.217C754.066 415.346 753.151 416.261 752.022 416.261H748.445C747.316 416.261 746.401 415.346 746.401 414.217ZM684.056 426.993C684.056 425.864 684.971 424.949 686.1 424.949H700.919C702.048 424.949 702.964 425.864 702.964 426.993C702.964 428.122 702.048 429.037 700.919 429.037H686.1C684.971 429.037 684.056 428.122 684.056 426.993ZM708.074 426.993C708.074 425.864 708.989 424.949 710.118 424.949H752.022C753.151 424.949 754.066 425.864 754.066 426.993C754.066 428.122 753.151 429.037 752.022 429.037H710.118C708.989 429.037 708.074 428.122 708.074 426.993Z" fill="black"/>
<path fill-rule="evenodd" clip-rule="evenodd" d="M128.06 414.217C128.06 413.088 128.975 412.173 130.104 412.173H181.207C182.336 412.173 183.251 413.088 183.251 414.217C183.251 415.346 182.336 416.261 181.207 416.261H130.104C128.975 416.261 128.06 415.346 128.06 414.217ZM193.471 414.217C193.471 413.088 194.386 412.173 195.515 412.173H210.335C211.464 412.173 212.379 413.088 212.379 414.217C212.379 415.346 211.464 416.261 210.335 416.261H195.515C194.386 416.261 193.471 415.346 193.471 414.217ZM131.126 428.015C131.126 426.886 132.041 425.971 133.17 425.971H195.515C196.644 425.971 197.559 426.886 197.559 428.015C197.559 429.144 196.644 430.059 195.515 430.059H133.17C132.041 430.059 131.126 429.144 131.126 428.015ZM203.181 428.015C203.181 426.886 204.096 425.971 205.225 425.971H210.335C211.464 425.971 212.379 426.886 212.379 428.015C212.379 429.144 211.464 430.059 210.335 430.059H205.225C204.096 430.059 203.181 429.144 203.181 428.015Z" fill="black"/>
<path fill-rule="evenodd" clip-rule="evenodd" d="M659.186 205.295C659.984 206.093 659.984 207.387 659.186 208.186L648.346 219.026C647.547 219.824 646.253 219.824 645.455 219.026C644.657 218.228 644.657 216.934 645.455 216.135L656.295 205.295C657.094 204.496 658.388 204.496 659.186 205.295ZM662.077 221.194C662.875 221.992 662.875 223.287 662.077 224.085L634.253 251.909C633.455 252.707 632.161 252.707 631.362 251.909C630.564 251.111 630.564 249.816 631.362 249.018L659.186 221.194C659.984 220.396 661.279 220.396 662.077 221.194ZM638.228 226.253C639.026 227.051 639.026 228.346 638.228 229.144L634.976 232.396C634.177 233.194 632.883 233.194 632.085 232.396C631.287 231.598 631.287 230.303 632.085 229.505L635.337 226.253C636.135 225.455 637.43 225.455 638.228 226.253ZM624.858 239.623C625.656 240.421 625.656 241.716 624.858 242.514L583.303 284.069C582.504 284.867 581.21 284.867 580.412 284.069C579.614 283.271 579.614 281.976 580.412 281.178L621.967 239.623C622.765 238.825 624.06 238.825 624.858 239.623ZM624.497 258.775C625.295 259.573 625.295 260.867 624.497 261.665L618.354 267.808C617.555 268.607 616.261 268.607 615.463 267.808C614.665 267.01 614.665 265.716 615.463 264.917L621.606 258.775C622.404 257.976 623.698 257.976 624.497 258.775ZM611.488 271.783C612.286 272.581 612.286 273.876 611.488 274.674L608.959 277.203C608.16 278.002 606.866 278.002 606.068 277.203C605.269 276.405 605.269 275.111 606.068 274.313L608.597 271.783C609.395 270.985 610.69 270.985 611.488 271.783ZM603.177 280.094C603.975 280.892 603.975 282.187 603.177 282.985L571.74 314.422C570.941 315.221 569.647 315.221 568.849 314.422C568.05 313.624 568.05 312.33 568.849 311.532L600.286 280.094C601.084 279.296 602.379 279.296 603.177 280.094ZM571.378 293.103C572.176 293.901 572.176 295.195 571.378 295.994L562.344 305.027C561.546 305.826 560.252 305.826 559.454 305.027C558.655 304.229 558.655 302.935 559.454 302.137L568.487 293.103C569.286 292.304 570.58 292.305 571.378 293.103Z" fill="black"/>
<path fill-rule="evenodd" clip-rule="evenodd" d="M454.096 163.302C455.225 163.302 456.14 164.218 456.14 165.347V214.916C456.14 216.045 455.225 216.96 454.096 216.96C452.967 216.96 452.052 216.045 452.052 214.916V165.347C452.052 164.218 452.967 163.302 454.096 163.302ZM441.831 177.1C442.96 177.1 443.875 178.015 443.875 179.144V192.942C443.875 194.071 442.96 194.986 441.831 194.986C440.702 194.986 439.787 194.071 439.787 192.942V179.144C439.787 178.015 440.702 177.1 441.831 177.1ZM441.831 199.585C442.96 199.585 443.875 200.501 443.875 201.629V249.155C443.875 250.284 442.96 251.199 441.831 251.199C440.702 251.199 439.787 250.284 439.787 249.155V201.629C439.787 200.501 440.702 199.585 441.831 199.585ZM454.096 221.048C455.225 221.048 456.14 221.964 456.14 223.093V231.78C456.14 232.909 455.225 233.824 454.096 233.824C452.967 233.824 452.052 232.909 452.052 231.78V223.093C452.052 221.964 452.967 221.048 454.096 221.048ZM454.096 237.401C455.225 237.401 456.14 238.316 456.14 239.445V243.023C456.14 244.151 455.225 245.067 454.096 245.067C452.967 245.067 452.052 244.151 452.052 243.023V239.445C452.052 238.316 452.967 237.401 454.096 237.401Z" fill="black"/>
<path fill-rule="evenodd" clip-rule="evenodd" d="M435.951 0.533497C451.457 -0.938252 467.532 7.84453 475.812 22.8029C476.359 23.7906 476.002 25.0345 475.014 25.5813C474.026 26.128 472.783 25.7706 472.236 24.7829C464.675 11.1238 450.088 3.29827 436.337 4.60341C423.277 5.84304 410.402 15.4084 405.044 37.4288C407.966 37.4673 410.693 37.7341 413.041 38.1301C414.154 38.3179 414.904 39.3725 414.717 40.4857C414.529 41.5989 413.474 42.3491 412.361 42.1614C409.538 41.6852 406.162 41.4202 402.601 41.5408C402.569 41.5426 402.537 41.5437 402.505 41.5441C397.477 41.7239 392.087 42.6741 387.365 44.8844C383.353 46.7624 379.867 49.5274 377.443 53.4712C375.02 57.4117 373.569 62.6746 373.861 69.7002C374.449 83.812 380.135 90.9218 386.645 94.345C393.33 97.8602 401.294 97.7021 406.598 96.4161C407.695 96.1502 408.8 96.824 409.066 97.9211C409.332 99.0183 408.658 100.123 407.561 100.389C401.623 101.829 392.57 102.079 384.742 97.9634C376.739 93.7552 370.415 85.1936 369.777 69.8704C369.456 62.1784 371.041 56.0795 373.96 51.3304C376.877 46.5846 381.037 43.3322 385.632 41.1817C390.444 38.9292 395.778 37.861 400.818 37.5358C406.332 13.4603 420.563 1.9941 435.951 0.533497ZM484.085 35.5182C475.131 32.7339 465.224 34.7178 459.924 38.712C459.022 39.3914 457.74 39.2114 457.061 38.3098C456.381 37.4082 456.562 36.1266 457.463 35.4471C463.917 30.5836 475.217 28.4793 485.299 31.6144C495.248 34.7081 503.963 42.8788 506.012 58.174C511.585 59.0362 516.633 63.7328 518.855 69.9933C521.378 77.102 520.384 86.3446 512.945 95.3729C510.02 98.9229 505.554 100.447 501.269 100.447H486.289C485.16 100.447 484.245 99.5316 484.245 98.4027C484.245 97.2738 485.16 96.3586 486.289 96.3586H501.269C504.665 96.3586 507.831 95.1511 509.79 92.7731C516.408 84.7417 516.999 76.9857 515.003 71.3607C512.947 65.5694 508.262 62.1198 504.175 62.1198H502.322L502.14 60.2758C500.687 45.4974 492.809 38.2309 484.085 35.5182ZM442.341 52.4103V60.5868H451.028V52.4103H442.341ZM438.252 51.3883C438.252 49.6949 439.625 48.3221 441.318 48.3221H452.05C453.743 48.3221 455.116 49.6949 455.116 51.3883V61.6088C455.116 63.3022 453.743 64.675 452.05 64.675H448.473V81.0278C448.473 82.1567 447.558 83.0719 446.429 83.0719C445.3 83.0719 444.385 82.1567 444.385 81.0278V64.675H441.318C439.625 64.675 438.252 63.3022 438.252 61.6088V51.3883ZM418.833 71.8293V81.0278H429.054V71.8293H418.833ZM414.745 70.8073C414.745 69.1139 416.118 67.7411 417.811 67.7411H430.076C431.769 67.7411 433.142 69.1139 433.142 70.8073V82.0499C433.142 83.7432 431.769 85.116 430.076 85.116H426.499V97.5216L434.736 105.302C435.35 105.881 435.697 106.687 435.697 107.531V115.778C435.697 116.906 434.782 117.822 433.653 117.822C432.524 117.822 431.609 116.906 431.609 115.778V107.971L423.371 100.191C422.758 99.6121 422.411 98.8057 422.411 97.9622V85.116H417.811C416.118 85.116 414.745 83.7432 414.745 82.0499V70.8073ZM463.293 81.5388V89.7152H471.98V81.5388H463.293ZM459.204 80.5168C459.204 78.8234 460.577 77.4506 462.271 77.4506H473.002C474.695 77.4506 476.068 78.8234 476.068 80.5168V90.7373C476.068 92.4307 474.695 93.8034 473.002 93.8034H470.447V100.039C470.447 100.825 470.145 101.581 469.604 102.151L460.737 111.483V115.778C460.737 116.906 459.822 117.822 458.693 117.822C457.564 117.822 456.649 116.906 456.649 115.778V111.075C456.649 110.289 456.951 109.533 457.492 108.964L466.359 99.6306V93.8034H462.271C460.577 93.8034 459.204 92.4307 459.204 90.7373V80.5168ZM446.429 85.627C447.558 85.627 448.473 86.5422 448.473 87.6711V140.818C448.473 141.947 447.558 142.862 446.429 142.862C445.3 142.862 444.385 141.947 444.385 140.818V87.6711C444.385 86.5422 445.3 85.627 446.429 85.627ZM433.653 123.954C434.782 123.954 435.697 124.869 435.697 125.998V139.796C435.697 140.925 434.782 141.84 433.653 141.84C432.524 141.84 431.609 140.925 431.609 139.796V125.998C431.609 124.869 432.524 123.954 433.653 123.954ZM458.693 123.954C459.822 123.954 460.737 124.869 460.737 125.998V139.796C460.737 140.925 459.822 141.84 458.693 141.84C457.564 141.84 456.649 140.925 456.649 139.796V125.998C456.649 124.869 457.564 123.954 458.693 123.954Z" fill="black"/>
<path fill-rule="evenodd" clip-rule="evenodd" d="M781.662 364.137C781.662 357.363 787.154 351.872 793.927 351.872H846.052C852.825 351.872 858.316 357.363 858.316 364.137V381.512C858.316 382.64 857.401 383.556 856.272 383.556C855.143 383.556 854.228 382.64 854.228 381.512V364.137C854.228 359.621 850.567 355.96 846.052 355.96H793.927C789.411 355.96 785.751 359.621 785.751 364.137V465.32H796.993C798.122 465.32 799.037 466.235 799.037 467.364C799.037 468.493 798.122 469.408 796.993 469.408H785.751V473.496C785.751 478.012 789.411 481.673 793.927 481.673H846.052C850.567 481.673 854.228 478.012 854.228 473.496V469.408H806.192C805.063 469.408 804.148 468.493 804.148 467.364C804.148 466.235 805.063 465.32 806.192 465.32H854.228V451.011C854.228 449.882 855.143 448.967 856.272 448.967C857.401 448.967 858.316 449.882 858.316 451.011V473.496C858.316 480.27 852.825 485.761 846.052 485.761H793.927C787.154 485.761 781.662 480.27 781.662 473.496V364.137ZM812.835 370.78C812.835 369.651 813.75 368.736 814.879 368.736H827.655C828.784 368.736 829.699 369.651 829.699 370.78C829.699 371.909 828.784 372.824 827.655 372.824H814.879C813.75 372.824 812.835 371.909 812.835 370.78ZM820.5 396.331C820.5 392.38 823.704 389.177 827.655 389.177H841.964C843.092 389.177 844.008 390.092 844.008 391.221C844.008 392.35 843.092 393.265 841.964 393.265H827.655C825.961 393.265 824.589 394.638 824.589 396.331V410.129C824.589 411.258 823.673 412.173 822.545 412.173C821.416 412.173 820.5 411.258 820.5 410.129V396.331ZM848.607 391.221C848.607 390.092 849.522 389.177 850.651 389.177H882.846C886.797 389.177 890 392.38 890 396.331V432.614C890 436.565 886.797 439.768 882.846 439.768H849.268L833.879 450.883C831.494 452.605 828.288 450.307 829.153 447.495L831.531 439.768H827.655C823.704 439.768 820.5 436.565 820.5 432.614V418.816C820.5 417.688 821.416 416.772 822.545 416.772C823.673 416.772 824.589 417.688 824.589 418.816V432.614C824.589 434.308 825.961 435.68 827.655 435.68H832.914C834.977 435.68 836.452 437.676 835.845 439.648L833.957 445.783L847.142 436.261C847.665 435.883 848.293 435.68 848.937 435.68H882.846C884.539 435.68 885.912 434.308 885.912 432.614V396.331C885.912 394.638 884.539 393.265 882.846 393.265H850.651C849.522 393.265 848.607 392.35 848.607 391.221Z" fill="black"/>
<path d="M849.119 413.706C849.119 415.117 847.975 416.261 846.564 416.261C845.153 416.261 844.009 415.117 844.009 413.706C844.009 412.295 845.153 411.151 846.564 411.151C847.975 411.151 849.119 412.295 849.119 413.706Z" fill="black"/>
<path d="M857.296 413.706C857.296 415.117 856.152 416.261 854.74 416.261C853.329 416.261 852.185 415.117 852.185 413.706C852.185 412.295 853.329 411.151 854.74 411.151C856.152 411.151 857.296 412.295 857.296 413.706Z" fill="black"/>
<path d="M865.472 413.706C865.472 415.117 864.328 416.261 862.917 416.261C861.506 416.261 860.362 415.117 860.362 413.706C860.362 412.295 861.506 411.151 862.917 411.151C864.328 411.151 865.472 412.295 865.472 413.706Z" fill="black"/>
</svg>
