<svg width="159" height="116" viewBox="0 0 159 116" fill="none" xmlns="http://www.w3.org/2000/svg">
<g filter="url(#filter0_d_360_536)">
<g filter="url(#filter1_i_360_536)">
<path d="M54.0614 100.052C60.6403 98.7366 63.2719 92.1577 62.614 86.8945H83.6667C83.0088 92.1577 85.6403 98.7366 92.2193 100.052V102.684H54.0614V100.052Z" fill="#0D469F"/>
</g>
<g filter="url(#filter2_i_360_536)">
<path fill-rule="evenodd" clip-rule="evenodd" d="M61.8688 86.2368H84.412L84.3195 86.9763C83.6873 92.0342 86.2277 98.1833 92.3484 99.4075L92.8772 99.5133V103.342H53.4036V99.5133L53.9324 99.4075C60.0531 98.1833 62.5935 92.0342 61.9613 86.9763L61.8688 86.2368ZM63.3379 87.5526C63.6896 92.7527 61.0603 99.0098 54.7194 100.58V102.026H91.5615V100.58C85.2206 99.0098 82.5912 92.7527 82.9429 87.5526H63.3379Z" fill="#0D469F"/>
</g>
<path d="M8.00879 10.5789C8.00879 6.94549 10.9543 4 14.5877 4H133.009C136.642 4 139.588 6.9455 139.588 10.5789V80.3158C139.588 83.9492 136.642 86.8947 133.009 86.8947H14.5877C10.9543 86.8947 8.00879 83.9492 8.00879 80.3158V10.5789Z" fill="#0D469F"/>
<path d="M14.5878 10.579C14.5878 9.85228 15.1769 9.26318 15.9036 9.26318H131.693C132.42 9.26318 133.009 9.85228 133.009 10.579V70.4844C133.009 71.211 132.42 71.8001 131.693 71.8001H15.9036C15.1769 71.8001 14.5878 71.211 14.5878 70.4844V10.579Z" fill="#FDFDFD"/>
<path d="M8.00879 75.0527H139.588V80.3159C139.588 83.9493 136.642 86.8948 133.009 86.8948H14.5877C10.9543 86.8948 8.00879 83.9493 8.00879 80.3159V75.0527Z" fill="#225BB8"/>
<path d="M15.9036 10.5791H131.693V14.5265H15.9036V10.5791Z" fill="#BB0E1B"/>
<path d="M115.904 43.4736C115.904 40.5668 118.26 38.2104 121.167 38.2104H145.728C148.635 38.2104 150.991 40.5668 150.991 43.4736V98.7368C150.991 101.644 148.635 104 145.728 104H121.167C118.26 104 115.904 101.644 115.904 98.7368V43.4736Z" fill="#0D469F"/>
<path d="M136.079 99.614C136.079 101.067 134.901 102.246 133.447 102.246C131.994 102.246 130.816 101.067 130.816 99.614C130.816 98.1606 131.994 96.9824 133.447 96.9824C134.901 96.9824 136.079 98.1606 136.079 99.614Z" fill="#FDFDFD"/>
<path d="M118.535 50.0526C118.535 49.3259 119.124 48.7368 119.851 48.7368H147.044C147.771 48.7368 148.36 49.3259 148.36 50.0526V93.9123C148.36 94.6389 147.771 95.228 147.044 95.228H119.851C119.124 95.228 118.535 94.6389 118.535 93.9123V50.0526Z" fill="#FDFDFD"/>
<path fill-rule="evenodd" clip-rule="evenodd" d="M126.43 43.5614C126.43 43.1254 126.783 42.772 127.219 42.772H138.798C139.234 42.772 139.588 43.1254 139.588 43.5614C139.588 43.9975 139.234 44.3509 138.798 44.3509H127.219C126.783 44.3509 126.43 43.9975 126.43 43.5614Z" fill="#FDFDFD"/>
<path d="M118.535 50.0526C118.535 49.3259 119.124 48.7368 119.851 48.7368H147.044C147.771 48.7368 148.36 49.3259 148.36 50.0526V53.1228H118.535V50.0526Z" fill="#BB0E1B"/>
<path d="M54.0614 35.5383L71.8246 21.1055L89.5877 35.5383V46.1055H54.0614V35.5383Z" fill="#3C3C3C"/>
<path d="M60.6404 25.0527H83.0088V47.4212H60.6404V25.0527Z" fill="#FFFBFB"/>
<path d="M54.0614 57.9907V36.8945L69.093 47.5419C69.4631 47.8041 69.4631 48.3534 69.093 48.6156L55.0996 58.5276C54.6639 58.8362 54.0614 58.5246 54.0614 57.9907Z" fill="#3C6AB3"/>
<path d="M89.5878 36.8951V57.9913C89.5878 58.5253 88.9853 58.8368 88.5496 58.5282L74.5562 48.6162C74.1861 48.354 74.1861 47.8047 74.5562 47.5425L89.5878 36.8951Z" fill="#3C6AB3"/>
<path d="M71.8244 44.7896L89.0705 57.3067C90.061 58.0257 89.5525 59.5922 88.3285 59.5922H55.3206C54.0967 59.5922 53.5881 58.0257 54.5787 57.3068L71.8244 44.7896Z" fill="#0D469F"/>
<path fill-rule="evenodd" clip-rule="evenodd" d="M79.0615 30.3158H64.5878V29H79.0615V30.3158Z" fill="black"/>
<path fill-rule="evenodd" clip-rule="evenodd" d="M79.0615 34.2631H64.5878V32.9473H79.0615V34.2631Z" fill="black"/>
<path fill-rule="evenodd" clip-rule="evenodd" d="M71.1667 36.8947H79.0614V38.2104H71.1667V36.8947Z" fill="black"/>
<path d="M123.801 70.6119L132.911 63.2104L142.02 70.6119V76.031H123.801V70.6119Z" fill="#3C3C3C"/>
<path d="M127.175 65.2347H138.646V76.7057H127.175V65.2347Z" fill="#FFFBFB"/>
<path d="M123.801 82.1262V71.3076L131.51 76.7678C131.7 76.9023 131.7 77.184 131.51 77.3184L124.334 82.4015C124.11 82.5598 123.801 82.4 123.801 82.1262Z" fill="#3C6AB3"/>
<path d="M142.02 71.3076V82.1262C142.02 82.4 141.711 82.5598 141.488 82.4015L134.312 77.3184C134.122 77.184 134.122 76.9023 134.312 76.7678L142.02 71.3076Z" fill="#3C6AB3"/>
<path d="M132.911 75.3562L141.755 81.7753C142.263 82.144 142.002 82.9473 141.374 82.9473H124.447C123.82 82.9473 123.559 82.144 124.067 81.7753L132.911 75.3562Z" fill="#0D469F"/>
<path fill-rule="evenodd" clip-rule="evenodd" d="M136.622 67.934H129.2V67.2593H136.622V67.934ZM136.622 69.9583H129.2V69.2836H136.622V69.9583ZM132.573 71.3079H136.622V71.9826H132.573V71.3079Z" fill="black"/>
</g>
<defs>
<filter id="filter0_d_360_536" x="0.00878906" y="0" width="158.983" height="116" filterUnits="userSpaceOnUse" color-interpolation-filters="sRGB">
<feFlood flood-opacity="0" result="BackgroundImageFix"/>
<feColorMatrix in="SourceAlpha" type="matrix" values="0 0 0 0 0 0 0 0 0 0 0 0 0 0 0 0 0 0 127 0" result="hardAlpha"/>
<feOffset dy="4"/>
<feGaussianBlur stdDeviation="4"/>
<feComposite in2="hardAlpha" operator="out"/>
<feColorMatrix type="matrix" values="0 0 0 0 0 0 0 0 0 0 0 0 0 0 0 0 0 0 0.1 0"/>
<feBlend mode="normal" in2="BackgroundImageFix" result="effect1_dropShadow_360_536"/>
<feBlend mode="normal" in="SourceGraphic" in2="effect1_dropShadow_360_536" result="shape"/>
</filter>
<filter id="filter1_i_360_536" x="54.0614" y="86.8945" width="38.1578" height="17.7896" filterUnits="userSpaceOnUse" color-interpolation-filters="sRGB">
<feFlood flood-opacity="0" result="BackgroundImageFix"/>
<feBlend mode="normal" in="SourceGraphic" in2="BackgroundImageFix" result="shape"/>
<feColorMatrix in="SourceAlpha" type="matrix" values="0 0 0 0 0 0 0 0 0 0 0 0 0 0 0 0 0 0 127 0" result="hardAlpha"/>
<feOffset dy="2"/>
<feGaussianBlur stdDeviation="2"/>
<feComposite in2="hardAlpha" operator="arithmetic" k2="-1" k3="1"/>
<feColorMatrix type="matrix" values="0 0 0 0 0 0 0 0 0 0 0 0 0 0 0 0 0 0 0.1 0"/>
<feBlend mode="normal" in2="shape" result="effect1_innerShadow_360_536"/>
</filter>
<filter id="filter2_i_360_536" x="53.4036" y="86.2368" width="39.4736" height="19.1055" filterUnits="userSpaceOnUse" color-interpolation-filters="sRGB">
<feFlood flood-opacity="0" result="BackgroundImageFix"/>
<feBlend mode="normal" in="SourceGraphic" in2="BackgroundImageFix" result="shape"/>
<feColorMatrix in="SourceAlpha" type="matrix" values="0 0 0 0 0 0 0 0 0 0 0 0 0 0 0 0 0 0 127 0" result="hardAlpha"/>
<feOffset dy="2"/>
<feGaussianBlur stdDeviation="2"/>
<feComposite in2="hardAlpha" operator="arithmetic" k2="-1" k3="1"/>
<feColorMatrix type="matrix" values="0 0 0 0 0 0 0 0 0 0 0 0 0 0 0 0 0 0 0.1 0"/>
<feBlend mode="normal" in2="shape" result="effect1_innerShadow_360_536"/>
</filter>
</defs>
</svg>
