<svg width="130" height="136" viewBox="0 0 130 136" fill="none" xmlns="http://www.w3.org/2000/svg">
<g filter="url(#filter0_d_360_495)">
<path d="M54.415 8.60711C54.415 6.06267 56.4777 4 59.0221 4H116.423C118.968 4 121.03 6.06267 121.03 8.60711V48.5352C121.03 51.0796 118.967 53.1423 116.423 53.1423H59.0221C56.4777 53.1423 54.415 51.0796 54.415 48.5352V8.60711Z" fill="#3D6CB4"/>
<path d="M87.0854 19.2891L117.754 53.1428H57.6909L87.0854 19.2891Z" fill="#2155A9"/>
<path d="M54.415 8.60711C54.415 6.06267 56.4777 4 59.0221 4H116.423C118.968 4 121.03 6.06267 121.03 8.60711V8.91423L87.1766 34.0314L54.415 8.91423V8.60711Z" fill="#0D469F"/>
<path d="M77.953 106.442V116.04C77.9569 116.931 77.7634 117.813 77.385 118.629C77.0066 119.446 76.4517 120.178 75.7557 120.781C75.0597 121.383 74.2381 121.842 73.3433 122.127C72.4486 122.413 71.5006 122.519 70.5599 122.438C60.1242 121.369 50.0999 118.005 41.2926 112.616C33.0985 107.704 26.1514 101.15 20.9446 93.4201C15.2131 85.0736 11.6463 75.5708 10.5331 65.6815C10.4484 64.7968 10.5598 63.9051 10.8604 63.0632C11.161 62.2213 11.644 61.4477 12.2789 60.7916C12.9137 60.1355 13.6864 59.6113 14.5478 59.2524C15.4091 58.8935 16.3403 58.7077 17.2819 58.7069H27.4559C29.1018 58.6916 30.6974 59.2414 31.9453 60.2539C33.1932 61.2663 34.0083 62.6723 34.2386 64.2098C34.668 67.2814 35.4644 70.2973 36.6126 73.2C37.0688 74.3452 37.1676 75.5897 36.8971 76.7862C36.6266 77.9826 35.9983 79.0809 35.0865 79.9507L30.7795 84.0139C35.6072 92.0237 42.6371 98.6557 51.1275 103.21L55.4345 99.147C56.3566 98.2868 57.5207 97.694 58.789 97.4388C60.0572 97.1837 61.3764 97.2768 62.5902 97.7073C65.6671 98.7904 68.864 99.5417 72.1199 99.9469C73.7673 100.166 75.2718 100.949 76.3473 102.146C77.4228 103.344 77.9943 104.873 77.953 106.442Z" fill="#0D469A"/>
<path fill-rule="evenodd" clip-rule="evenodd" d="M30.9778 61.4465C30.0145 60.665 28.7683 60.2305 27.4703 60.2425L27.456 60.2427L17.2828 60.2426C16.5417 60.2433 15.8112 60.3897 15.1385 60.67C14.4658 60.9504 13.8688 61.3571 13.3826 61.8596C12.8966 62.3618 12.5321 62.9484 12.3068 63.5796C12.0829 64.2068 11.9998 64.8681 12.0608 65.5233C13.147 75.1529 16.6218 84.412 22.2106 92.5509L22.2184 92.5622C27.2963 100.101 34.0763 106.5 42.0823 111.299L42.0941 111.306C50.6984 116.57 60.4967 119.861 70.7028 120.909C71.4389 120.971 72.1796 120.887 72.8766 120.664C73.5775 120.441 74.2151 120.083 74.7507 119.62C75.2861 119.156 75.707 118.598 75.9917 117.983C76.2764 117.369 76.4203 116.71 76.4174 116.046L76.4174 116.04V106.442C76.4174 106.428 76.4176 106.415 76.4179 106.401C76.4486 105.236 76.0253 104.086 75.2048 103.173C74.3835 102.258 73.219 101.644 71.9235 101.47C68.5615 101.051 65.2595 100.275 62.0804 99.1559L62.077 99.1547C61.1262 98.8176 60.0891 98.7438 59.0919 98.9444C58.0963 99.1447 57.1931 99.6078 56.4851 100.267C56.4841 100.268 56.4831 100.269 56.4821 100.27L52.1814 104.327C51.7007 104.781 50.9839 104.876 50.4016 104.564C41.6757 99.8827 34.439 93.0603 29.4642 84.8068C29.0913 84.1879 29.2001 83.3928 29.7257 82.8969L34.0294 78.8369C34.7271 78.1702 35.1977 77.3394 35.3993 76.4476C35.601 75.5553 35.528 74.627 35.186 73.7685L35.1846 73.7649C33.9929 70.7522 33.1656 67.6208 32.7189 64.4305C32.546 63.2887 31.937 62.2248 30.9778 61.4465ZM27.4492 57.1712C29.4402 57.1544 31.3822 57.8195 32.9129 59.0613C34.4475 60.3064 35.4682 62.0518 35.7574 63.9823L35.7597 63.9972C36.172 66.9465 36.9366 69.8434 38.0397 72.6328C38.6098 74.0643 38.7342 75.6246 38.3951 77.1248C38.056 78.6248 37.2709 79.9893 36.1466 81.0619L36.1404 81.0679L32.7454 84.2706C37.2065 91.2676 43.4354 97.1288 50.8872 101.326L54.387 98.0241C55.5226 96.9647 56.9466 96.2431 58.4861 95.9334C60.0247 95.6238 61.6252 95.7361 63.1016 96.2592C66.0737 97.3054 69.1627 98.0314 72.3096 98.423L72.3226 98.4246C74.3195 98.6903 76.1616 99.6413 77.4899 101.12C78.8157 102.596 79.5349 104.496 79.4888 106.461V116.036C79.4932 117.154 79.2501 118.257 78.7784 119.275C78.3064 120.293 77.6173 121.201 76.7608 121.942C75.9044 122.683 74.8988 123.243 73.8102 123.59C72.7217 123.938 71.5706 124.066 70.4295 123.969L70.4034 123.966C59.7453 122.874 49.5023 119.438 40.4973 113.93C32.1196 108.907 25.0089 102.201 19.6747 94.2838C13.8056 85.7347 10.1488 75.9952 9.00714 65.8533L9.0045 65.828C8.89813 64.7176 9.03831 63.5997 9.41417 62.5469C9.78993 61.4944 10.3916 60.5338 11.1753 59.7238C11.9588 58.9141 12.9072 58.2725 13.9571 57.8349C15.007 57.3975 16.1386 57.1722 17.2806 57.1712L27.4492 57.1712ZM75.3772 77.9508C70.5665 78.2808 66.2491 79.8641 64.0561 81.2492C63.339 81.7021 62.3905 81.4879 61.9376 80.7708C61.4847 80.0537 61.6989 79.1053 62.416 78.6524C65.086 76.966 69.906 75.2475 75.1669 74.8866C80.4448 74.5244 86.401 75.5162 91.1102 79.5526C100.349 87.4714 99.3309 97.4665 98.5309 101.734C98.3745 102.567 97.5721 103.116 96.7384 102.96C95.9048 102.804 95.3558 102.001 95.5121 101.168C96.2477 97.2443 97.0727 88.7086 89.1114 81.8846C85.2206 78.5497 80.171 77.6218 75.3772 77.9508ZM76.2601 82.4446C79.0999 82.5154 81.6594 83.3782 83.9902 84.7767C88.9372 87.7449 90.8786 93.5317 90.8786 99.9469C90.8786 100.795 90.1911 101.483 89.3429 101.483C88.4948 101.483 87.8072 100.795 87.8072 99.9469C87.8072 94.0124 86.014 89.5728 82.41 87.4104C80.4653 86.2436 78.4178 85.5708 76.1836 85.515C73.944 85.4592 71.4217 86.0213 68.5299 87.4672C67.7713 87.8465 66.8488 87.539 66.4695 86.7804C66.0902 86.0218 66.3977 85.0993 67.1563 84.72C70.4073 83.0945 73.4258 82.3739 76.2601 82.4446ZM77.6185 93.2122C76.2215 92.6771 74.4407 92.9779 73.1491 94.1441C72.5196 94.7125 71.5485 94.6629 70.9802 94.0334C70.4118 93.4039 70.4613 92.4328 71.0908 91.8644C73.2009 89.9592 76.1924 89.3769 78.7171 90.344C81.3486 91.3518 83.2001 93.9225 83.2001 97.7073C83.2001 98.5555 82.5126 99.243 81.6644 99.243C80.8163 99.243 80.1287 98.5555 80.1287 97.7073C80.1287 95.023 78.9089 93.7064 77.6185 93.2122Z" fill="#0D469A"/>
</g>
<defs>
<filter id="filter0_d_360_495" x="0.969971" y="0" width="128.06" height="136" filterUnits="userSpaceOnUse" color-interpolation-filters="sRGB">
<feFlood flood-opacity="0" result="BackgroundImageFix"/>
<feColorMatrix in="SourceAlpha" type="matrix" values="0 0 0 0 0 0 0 0 0 0 0 0 0 0 0 0 0 0 127 0" result="hardAlpha"/>
<feOffset dy="4"/>
<feGaussianBlur stdDeviation="4"/>
<feComposite in2="hardAlpha" operator="out"/>
<feColorMatrix type="matrix" values="0 0 0 0 0 0 0 0 0 0 0 0 0 0 0 0 0 0 0.1 0"/>
<feBlend mode="normal" in2="BackgroundImageFix" result="effect1_dropShadow_360_495"/>
<feBlend mode="normal" in="SourceGraphic" in2="effect1_dropShadow_360_495" result="shape"/>
</filter>
</defs>
</svg>
