<svg width="118" height="116" viewBox="0 0 118 116" fill="none" xmlns="http://www.w3.org/2000/svg">
<g filter="url(#filter0_d_360_521)">
<path d="M8.33337 9.33333C8.33337 6.38782 10.7212 4 13.6667 4H56.3334C59.2789 4 61.6667 6.38781 61.6667 9.33333V98.6667C61.6667 101.612 59.2789 104 56.3334 104H13.6667C10.7212 104 8.33337 101.612 8.33337 98.6667V9.33333Z" fill="#0D469F"/>
<path d="M39 97.3335C39 99.5426 37.2091 101.333 35 101.333C32.7909 101.333 31 99.5426 31 97.3335C31 95.1244 32.7909 93.3335 35 93.3335C37.2091 93.3335 39 95.1244 39 97.3335Z" fill="#FDFDFD"/>
<path d="M12.3334 21.3333C12.3334 20.597 12.9303 20 13.6667 20H56.3334C57.0698 20 57.6667 20.597 57.6667 21.3333V89.3333C57.6667 90.0697 57.0698 90.6667 56.3334 90.6667H13.6667C12.9303 90.6667 12.3334 90.0697 12.3334 89.3333V21.3333Z" fill="#FDFDFD"/>
<path fill-rule="evenodd" clip-rule="evenodd" d="M24.3334 12.5329C24.3334 12.0911 24.6915 11.7329 25.1334 11.7329H43.5334C43.9752 11.7329 44.3334 12.0911 44.3334 12.5329C44.3334 12.9747 43.9752 13.3329 43.5334 13.3329H25.1334C24.6915 13.3329 24.3334 12.9747 24.3334 12.5329Z" fill="#FDFDFD"/>
<path d="M12.3334 21.3333C12.3334 20.597 12.9303 20 13.6667 20H56.3334C57.0698 20 57.6667 20.597 57.6667 21.3333V26.6667H12.3334V21.3333Z" fill="#BB0E1B"/>
<path d="M28.3334 53.3335C28.3334 48.9152 31.9151 45.3335 36.3334 45.3335H101.667C106.085 45.3335 109.667 48.9152 109.667 53.3335V56.0002C109.667 60.4184 106.085 64.0002 101.667 64.0002H36.3334C31.9151 64.0002 28.3334 60.4184 28.3334 56.0002V53.3335Z" fill="#0077C7"/>
<path d="M44.3066 51.0405L45.64 53.4405L42.1733 54.6938L45.64 55.9471L44.2533 58.4271L41.3733 56.0538L41.9866 59.7338H39.2133L39.8 56.0538L36.9466 58.4805L35.48 55.9205L38.9466 54.6671L35.5066 53.4671L36.8666 51.0138L39.8266 53.3605L39.2133 49.6538H42.0133L41.3733 53.3605L44.3066 51.0405Z" fill="#FDFDFD"/>
<path d="M58.3976 51.0405L59.7309 53.4405L56.2642 54.6938L59.7309 55.9471L58.3442 58.4271L55.4642 56.0538L56.0776 59.7338H53.3042L53.8909 56.0538L51.0376 58.4805L49.5709 55.9205L53.0376 54.6671L49.5976 53.4671L50.9576 51.0138L53.9176 53.3605L53.3042 49.6538H56.1042L55.4642 53.3605L58.3976 51.0405Z" fill="#FDFDFD"/>
<path d="M72.4885 51.0405L73.8218 53.4405L70.3552 54.6938L73.8218 55.9471L72.4352 58.4271L69.5552 56.0538L70.1685 59.7338H67.3952L67.9818 56.0538L65.1285 58.4805L63.6618 55.9205L67.1285 54.6671L63.6885 53.4671L65.0485 51.0138L68.0085 53.3605L67.3952 49.6538H70.1952L69.5552 53.3605L72.4885 51.0405Z" fill="#FDFDFD"/>
<path d="M86.5794 51.0405L87.9127 53.4405L84.4461 54.6938L87.9127 55.9471L86.5261 58.4271L83.6461 56.0538L84.2594 59.7338H81.4861L82.0727 56.0538L79.2194 58.4805L77.7527 55.9205L81.2194 54.6671L77.7794 53.4671L79.1394 51.0138L82.0994 53.3605L81.4861 49.6538H84.2861L83.6461 53.3605L86.5794 51.0405Z" fill="#FDFDFD"/>
<path d="M100.67 51.0405L102.004 53.4405L98.537 54.6938L102.004 55.9471L100.617 58.4271L97.737 56.0538L98.3503 59.7338H95.577L96.1637 56.0538L93.3103 58.4805L91.8437 55.9205L95.3103 54.6671L91.8703 53.4671L93.2303 51.0138L96.1903 53.3605L95.577 49.6538H98.377L97.737 53.3605L100.67 51.0405Z" fill="#FDFDFD"/>
</g>
<defs>
<filter id="filter0_d_360_521" x="0.333374" y="0" width="117.333" height="116" filterUnits="userSpaceOnUse" color-interpolation-filters="sRGB">
<feFlood flood-opacity="0" result="BackgroundImageFix"/>
<feColorMatrix in="SourceAlpha" type="matrix" values="0 0 0 0 0 0 0 0 0 0 0 0 0 0 0 0 0 0 127 0" result="hardAlpha"/>
<feOffset dy="4"/>
<feGaussianBlur stdDeviation="4"/>
<feComposite in2="hardAlpha" operator="out"/>
<feColorMatrix type="matrix" values="0 0 0 0 0 0 0 0 0 0 0 0 0 0 0 0 0 0 0.1 0"/>
<feBlend mode="normal" in2="BackgroundImageFix" result="effect1_dropShadow_360_521"/>
<feBlend mode="normal" in="SourceGraphic" in2="effect1_dropShadow_360_521" result="shape"/>
</filter>
</defs>
</svg>
