<svg width="114" height="120" viewBox="0 0 114 120" fill="none" xmlns="http://www.w3.org/2000/svg">
<path d="M46.415 4.60711C46.415 2.06267 48.4777 0 51.0221 0H108.423C110.967 0 113.03 2.06267 113.03 4.60711V44.5352C113.03 47.0796 110.967 49.1423 108.423 49.1423H51.0221C48.4777 49.1423 46.415 47.0796 46.415 44.5352V4.60711Z" fill="#3D6CB4"/>
<path d="M79.0855 15.2889L109.754 49.1426H49.691L79.0855 15.2889Z" fill="#2155A9"/>
<path d="M46.415 4.60711C46.415 2.06267 48.4777 0 51.0221 0H108.423C110.967 0 113.03 2.06267 113.03 4.60711V4.91423L79.1765 30.0314L46.415 4.91423V4.60711Z" fill="#0D469F"/>
<path d="M69.9531 102.442V112.04C69.9569 112.931 69.7635 113.813 69.3851 114.629C69.0067 115.446 68.4518 116.179 67.7558 116.781C67.0598 117.383 66.2382 117.842 65.3434 118.127C64.4487 118.413 63.5007 118.519 62.56 118.439C52.1243 117.369 42.1 114.005 33.2927 108.617C25.0986 103.704 18.1515 97.1505 12.9447 89.4202C7.21322 81.0737 3.64642 71.5709 2.53324 61.6816C2.44849 60.7969 2.55995 59.9052 2.86051 59.0633C3.16106 58.2214 3.64414 57.4478 4.27899 56.7917C4.91383 56.1356 5.68653 55.6114 6.54788 55.2525C7.40923 54.8936 8.34037 54.7078 9.28201 54.707H19.456C21.1019 54.6917 22.6975 55.2415 23.9454 56.254C25.1933 57.2664 26.0084 58.6724 26.2387 60.2099C26.6681 63.2815 27.4645 66.2974 28.6127 69.2001C29.0689 70.3453 29.1677 71.5898 28.8972 72.7863C28.6267 73.9827 27.9984 75.081 27.0866 75.9508L22.7796 80.014C27.6073 88.0238 34.6372 94.6558 43.1276 99.2103L47.4346 95.1471C48.3567 94.2869 49.5208 93.6941 50.789 93.4389C52.0573 93.1838 53.3765 93.2769 54.5903 93.7074C57.6672 94.7905 60.8641 95.5418 64.12 95.947C65.7674 96.1662 67.2719 96.949 68.3474 98.1465C69.4229 99.344 69.9944 100.873 69.9531 102.442Z" fill="#0D469A"/>
<path fill-rule="evenodd" clip-rule="evenodd" d="M22.9778 57.4465C22.0145 56.665 20.7683 56.2305 19.4703 56.2425L19.456 56.2427L9.28275 56.2426C8.54173 56.2433 7.81123 56.3897 7.13854 56.67C6.4658 56.9504 5.86877 57.3571 5.38258 57.8596C4.89662 58.3618 4.53212 58.9484 4.30676 59.5796C4.08286 60.2068 3.99977 60.8681 4.06079 61.5233C5.14701 71.1529 8.62177 80.412 14.2106 88.5509L14.2184 88.5622C19.2963 96.101 26.0763 102.5 34.0823 107.299L34.0941 107.306C42.6984 112.57 52.4967 115.861 62.7028 116.909C63.4389 116.971 64.1796 116.887 64.8766 116.664C65.5775 116.441 66.2151 116.083 66.7507 115.62C67.2861 115.156 67.707 114.598 67.9917 113.983C68.2764 113.369 68.4203 112.71 68.4174 112.046L68.4174 112.04V102.442C68.4174 102.428 68.4176 102.415 68.4179 102.401C68.4486 101.236 68.0253 100.086 67.2048 99.1726C66.3835 98.2581 65.219 97.6439 63.9235 97.47C60.5615 97.0512 57.2595 96.275 54.0804 95.1559L54.077 95.1547C53.1262 94.8175 52.0891 94.7438 51.0919 94.9444C50.0963 95.1447 49.1931 95.6078 48.4851 96.2673C48.4841 96.2682 48.4831 96.2691 48.4821 96.27L44.1814 100.327C43.7007 100.781 42.9839 100.876 42.4016 100.564C33.6757 95.8827 26.439 89.0603 21.4642 80.8068C21.0913 80.1879 21.2001 79.3928 21.7257 78.8969L26.0294 74.8369C26.7271 74.1702 27.1977 73.3394 27.3993 72.4476C27.601 71.5553 27.528 70.627 27.186 69.7685L27.1846 69.7649C25.9929 66.7522 25.1656 63.6208 24.7189 60.4305C24.546 59.2887 23.937 58.2248 22.9778 57.4465ZM19.4492 53.1712C21.4402 53.1544 23.3822 53.8195 24.9129 55.0613C26.4475 56.3064 27.4682 58.0518 27.7574 59.9823L27.7597 59.9972C28.172 62.9465 28.9366 65.8434 30.0397 68.6328C30.6098 70.0643 30.7342 71.6246 30.3951 73.1248C30.056 74.6248 29.2709 75.9893 28.1466 77.0619L28.1404 77.0679L24.7454 80.2706C29.2065 87.2676 35.4354 93.1288 42.8872 97.3258L46.387 94.0241C47.5226 92.9647 48.9466 92.2431 50.4861 91.9334C52.0247 91.6238 53.6252 91.7361 55.1016 92.2592C58.0737 93.3054 61.1627 94.0314 64.3096 94.423L64.3226 94.4246C66.3195 94.6903 68.1616 95.6413 69.4899 97.1203C70.8157 98.5964 71.5349 100.496 71.4888 102.461V112.036C71.4932 113.154 71.2501 114.257 70.7784 115.275C70.3064 116.293 69.6173 117.201 68.7608 117.942C67.9044 118.683 66.8988 119.243 65.8102 119.59C64.7217 119.938 63.5706 120.066 62.4295 119.969L62.4034 119.966C51.7453 118.874 41.5023 115.438 32.4973 109.93C24.1196 104.907 17.0089 98.2012 11.6747 90.2838C5.80557 81.7347 2.14875 71.9952 1.00714 61.8533L1.0045 61.828C0.898134 60.7176 1.03831 59.5997 1.41417 58.5469C1.78993 57.4944 2.39159 56.5338 3.17532 55.7238C3.95882 54.9141 4.90717 54.2725 5.95714 53.8349C7.00698 53.3975 8.13855 53.1722 9.28061 53.1712H19.4492ZM67.3772 73.9508C62.5665 74.2808 58.2491 75.8641 56.0561 77.2492C55.339 77.7021 54.3905 77.4879 53.9376 76.7708C53.4847 76.0537 53.6989 75.1053 54.416 74.6524C57.086 72.966 61.906 71.2475 67.1669 70.8866C72.4448 70.5244 78.401 71.5162 83.1102 75.5526C92.3488 83.4714 91.3309 93.4665 90.5309 97.7336C90.3745 98.5672 89.5721 99.1163 88.7384 98.96C87.9048 98.8037 87.3558 98.0012 87.5121 97.1676C88.2477 93.2443 89.0727 84.7086 81.1114 77.8846C77.2206 74.5497 72.171 73.6218 67.3772 73.9508ZM68.2601 78.4446C71.0999 78.5154 73.6594 79.3782 75.9902 80.7767C80.9372 83.7449 82.8786 89.5317 82.8786 95.9469C82.8786 96.7951 82.1911 97.4826 81.3429 97.4826C80.4948 97.4826 79.8072 96.7951 79.8072 95.9469C79.8072 90.0124 78.014 85.5729 74.41 83.4104C72.4653 82.2436 70.4178 81.5708 68.1836 81.515C65.944 81.4592 63.4217 82.0213 60.5299 83.4672C59.7713 83.8465 58.8488 83.539 58.4695 82.7804C58.0902 82.0218 58.3977 81.0993 59.1563 80.72C62.4073 79.0945 65.4258 78.3739 68.2601 78.4446ZM69.6185 89.2122C68.2215 88.6771 66.4407 88.9779 65.1491 90.1441C64.5196 90.7125 63.5485 90.6629 62.9802 90.0334C62.4118 89.4039 62.4613 88.4328 63.0908 87.8644C65.2009 85.9592 68.1924 85.3769 70.7171 86.3439C73.3486 87.3518 75.2001 89.9225 75.2001 93.7073C75.2001 94.5555 74.5126 95.243 73.6644 95.243C72.8163 95.243 72.1287 94.5555 72.1287 93.7073C72.1287 91.023 70.9089 89.7064 69.6185 89.2122Z" fill="#0D469A"/>
</svg>
