<svg width="123" height="111" viewBox="0 0 123 111" fill="none" xmlns="http://www.w3.org/2000/svg">
<path fill-rule="evenodd" clip-rule="evenodd" d="M113.056 6.35018C113.241 5.75275 113.875 5.41887 114.472 5.60366C117.431 6.52027 112.093 9.45806 113.056 6.35018Z" stroke="#3DB3E5"/>
<path fill-rule="evenodd" clip-rule="evenodd" d="M74.8086 48.9498C74.9934 48.3524 75.6276 48.0185 76.225 48.2033C79.1838 49.1188 73.8458 52.0566 74.8086 48.9498Z" stroke="#3DB3E5"/>
<path fill-rule="evenodd" clip-rule="evenodd" d="M15.5378 33.3409C15.7226 32.7435 16.3568 32.4096 16.9542 32.5944C19.913 33.511 14.575 36.4477 15.5378 33.3409Z" stroke="#3DB3E5"/>
<path fill-rule="evenodd" clip-rule="evenodd" d="M48.7325 59.0974C52.6436 57.8721 56.7448 57.8994 60.5477 58.2186L66.2133 58.7342C67.9457 58.9336 69.7811 58.7436 71.6594 58.6187C74.3862 58.3992 77.1161 58.037 79.8491 57.7325L87.0781 56.8726C88.2981 56.7287 89.4405 56.546 90.7424 56.42C92.0129 56.3077 93.2917 56.2919 94.5748 56.3959C97.1041 56.6164 99.8046 57.2716 101.896 59.1184C102.416 59.593 102.857 60.0561 103.273 60.7081C103.676 61.3307 103.964 62.3093 103.652 63.1954C103.351 64.0627 102.754 64.6066 102.196 65.015C101.625 65.4255 101.031 65.7143 100.443 65.9841C98.34 66.8829 96.1875 67.369 94.0372 67.7943C91.8901 68.2121 89.7145 68.4851 87.5936 68.7382C82.1412 69.3902 76.7349 70.268 72.0731 72.9097C70.6704 73.7885 70.6305 73.4619 71.5891 72.2639C72.5005 71.0428 74.8041 69.1529 78.0138 68.2163C83.6888 66.5973 89.3996 66.6235 94.7144 65.4413C96.0479 65.1578 97.3645 64.8208 98.5951 64.3808C99.2072 64.1572 99.8025 63.9157 100.308 63.6091C100.806 63.3151 101.245 62.9445 101.374 62.6852C101.503 62.429 101.48 62.4405 101.342 62.072C101.26 61.904 101.123 61.7013 100.924 61.4756C100.758 61.2446 100.539 61.0577 100.335 60.854C99.4844 60.0718 98.3504 59.529 97.1335 59.152C95.6647 58.7184 94.0446 58.5578 92.415 58.5998C91.6003 58.6239 90.7803 58.6922 89.9655 58.8098L87.3773 59.1804C83.9251 59.6665 80.4528 60.1411 76.9943 60.5233C75.0918 60.7322 73.1871 60.9275 71.2678 61.0798C70.305 61.1501 69.3453 61.2194 68.3563 61.2446C67.8712 61.2646 67.3546 61.2593 66.8202 61.2341L65.3828 61.1155C61.5693 60.7973 57.8031 60.3217 54.1346 60.5999C51.8814 60.7816 49.6754 61.2835 47.5954 62.1507C45.5113 63.0106 43.5646 64.2233 41.7429 65.6072C38.9879 67.7586 36.2853 70.122 33.5239 72.3647C30.7635 74.6211 27.979 76.846 25.1294 78.9532C20.7217 82.2564 16.273 85.3622 11.501 88.0553C10.4395 88.6286 9.4252 89.2376 8.33534 89.7825C6.28162 90.7233 4.92613 91.3385 3.89716 91.5884C2.86925 91.8394 2.24453 91.8919 1.70695 91.8425C1.46231 91.8194 1.15677 91.8289 1.00348 91.7806C0.742037 91.6987 1.00663 91.4173 1.68175 90.9417C2.35267 90.4545 3.44568 89.8108 4.87258 89.0559C13.3541 84.5999 21.6625 78.8545 29.555 72.433C32.497 70.0569 35.3707 67.5874 38.3327 65.1211C41.2852 62.6232 44.7563 60.245 48.7042 59.0407L48.7325 59.0974Z" fill="#3DB3E5"/>
<path fill-rule="evenodd" clip-rule="evenodd" d="M66.3173 87.5618C69.9543 87.4011 73.5546 87.2951 77.1024 86.9381C78.8769 86.7575 80.6419 86.5297 82.3911 86.2178C83.2447 86.0383 84.1802 85.9228 84.9498 85.6572L86.1573 85.3086C86.5615 85.2036 86.9521 84.9873 87.3511 84.8329C89.6915 83.9079 91.8691 82.4674 94.0404 81.0772C97.8454 78.5384 101.444 75.6206 104.88 72.5327C108.316 69.4395 111.577 66.1395 114.623 62.6735C115.95 61.1438 117.243 59.5468 118.268 57.8731C118.807 57.0489 119.206 56.1732 119.454 55.2881C119.573 54.8492 119.649 54.4083 119.644 54.0051C119.647 53.6187 119.525 53.1924 119.429 53.0622L119.408 53.0244C119.324 52.8984 119.184 52.8186 119.037 52.7955C118.892 52.7735 118.765 52.7766 118.471 52.8354C117.955 52.9394 117.383 53.1672 116.829 53.4329C115.714 53.9746 114.617 54.6571 113.545 55.3763L110.339 57.5959L108.741 58.733C108.207 59.1121 107.629 59.4365 107.09 59.8135C105.732 60.729 105.695 60.3699 106.455 59.1037C107.186 57.8049 108.739 55.5884 111.293 53.7657C112.567 52.8911 113.87 52.0501 115.334 51.3235C116.074 50.9665 116.842 50.6274 117.793 50.4048C118.049 50.3596 118.286 50.3071 118.583 50.2924C118.928 50.2578 119.324 50.2914 119.676 50.3691C120.035 50.4499 120.382 50.5896 120.681 50.7975C120.995 50.9938 121.206 51.3025 121.444 51.5776C121.995 52.5183 122.07 53.2092 122.095 53.9043C122.104 54.5899 121.995 55.2041 121.844 55.7764C121.531 56.9051 121.067 57.9277 120.494 58.8212C119.389 60.6597 118.154 62.1874 116.882 63.7414C114.328 66.7957 111.525 69.5959 108.598 72.2712C103.725 76.659 98.613 81.22 92.7773 84.7321C91.1593 85.6719 89.492 86.5475 87.7112 87.2457C86.8419 87.6269 85.8654 87.8253 84.9477 88.1162C84.029 88.3167 83.1261 88.4973 82.2074 88.6443C78.5451 89.2785 74.8492 89.5462 71.1859 89.731C66.6763 89.9462 62.1993 90.0617 57.7685 90.5657C56.1967 90.8156 54.5871 91.2545 53.0017 91.8257C51.4099 92.3591 49.8424 93.0048 48.2779 93.6463C45.1543 94.9556 42.0978 96.4266 39.0866 97.9364C34.4205 100.319 29.9792 102.917 25.5935 105.646C24.6234 106.241 23.7047 106.864 22.7439 107.483C19.1814 109.774 18.0695 110.434 16.9912 110.547C16.7497 110.581 16.4578 110.669 16.2898 110.668C15.7386 110.743 16.7025 109.021 19.2791 107.116C23.06 104.286 27.1769 101.806 31.4135 99.4001C35.6605 97.0125 40.0557 94.7561 44.5737 92.6845C47.9514 91.1736 51.3385 89.709 55.0659 88.6663C55.51 88.5151 56.0424 88.4459 56.5369 88.343C57.0419 88.2443 57.549 88.1487 57.9963 88.1172C58.9224 88.0154 59.8474 87.9314 60.7735 87.8537C62.6235 87.7046 64.4693 87.5964 66.3047 87.5019L66.3173 87.5618Z" fill="#3DB3E5"/>
<path fill-rule="evenodd" clip-rule="evenodd" d="M26.6925 96.5948C25.9649 96.2756 25.2845 95.8283 24.5947 95.4283C23.9311 94.9747 23.277 94.5022 22.6733 93.9741C22.2491 93.5688 21.743 93.2591 21.3587 92.8139C19.9318 91.3051 18.927 89.4845 18.1742 87.6512C18.0241 87.2344 17.8603 86.826 17.6891 86.4217C17.5169 86.0175 17.4161 85.5923 17.2712 85.1838C16.8733 84.1402 16.6182 83.0482 16.5877 81.9342C16.5814 81.5856 16.9825 81.5709 17.4424 81.7746C17.8991 81.9804 18.4356 82.3815 18.612 82.9422C19.2725 84.936 20.0935 86.7661 20.9839 88.6161C21.2674 89.1611 21.6569 89.6577 22.0517 90.1459C22.5147 90.5733 22.9337 91.0479 23.4188 91.4458C23.9448 91.892 24.4624 92.3519 25.0556 92.7225C25.6142 93.1415 26.2347 93.4764 26.8479 93.8281C27.628 94.2166 28.4155 94.6156 29.2576 94.8907C30.5102 95.3632 31.8342 95.717 33.1655 95.9323C34.206 96.0856 35.2497 96.0677 36.2944 96.0772C36.5233 96.0814 36.7501 96.0646 36.9811 96.0814C37.8368 96.1475 38.093 96.3501 38.2274 97.0085C38.2589 97.1586 38.303 97.3088 38.3166 97.4568C38.3618 97.9555 37.9743 98.3377 37.3108 98.4574C35.3515 98.784 33.2579 98.6853 31.1948 98.1981C29.6639 97.8201 28.1362 97.3434 26.6694 96.6557L26.6925 96.5948Z" fill="#3DB3E5"/>
<path fill-rule="evenodd" clip-rule="evenodd" d="M9.92407 89.0878C11.6765 89.4627 13.1264 90.5284 14.1659 91.6182C15.2264 92.7228 16.0369 93.8998 16.7499 95.0422C18.1663 97.2964 19.3643 99.6126 20.9276 100.948C21.4736 101.473 22.0753 101.651 22.6664 101.829L20.787 103.88C20.577 103.075 20.2683 102.282 19.9081 101.488C18.8403 99.1286 17.1562 96.9027 15.5445 94.5109C14.8484 93.4284 13.8709 92.3858 13.0162 91.0733C12.5941 90.4181 12.1899 89.6937 11.9431 88.8274C11.6922 87.9759 11.666 86.9207 12.0303 86.0115L12.3778 85.1421L13.2272 85.2765C14.5197 85.4812 15.5855 86.0818 16.4853 86.737C17.7841 87.7155 18.854 88.8316 19.8756 89.9541C20.894 91.0786 21.8495 92.222 22.8071 93.3349C24.0345 94.7597 25.2839 96.1541 26.6006 97.3867C27.913 98.6057 29.3032 99.7134 30.7878 100.121C31.6645 100.298 31.758 100.99 30.5778 101.551C29.9835 101.816 29.0669 101.879 28.0579 101.638C27.051 101.398 25.9958 100.847 25.0939 100.065C22.5918 97.8634 20.7156 95.3981 18.7679 93.1239C17.803 91.9868 16.836 90.8843 15.8322 89.9488C14.84 89.0311 13.7522 88.271 12.8839 88.1376L14.735 87.0016C14.6079 87.3155 14.5785 87.663 14.736 88.2017C14.9051 88.7309 15.2537 89.344 15.6726 89.9604C16.2585 90.8392 17.0638 91.7348 17.804 92.8131C18.4613 93.7644 19.1774 94.7135 19.8903 95.6994C21.3109 97.6629 22.764 99.8048 23.5735 102.338L23.7888 103.092L24.4177 105.3L22.1435 104.887C20.5119 104.59 19.1669 103.634 18.1946 102.619C17.2034 101.593 16.4496 100.483 15.7713 99.4016C14.4021 97.2534 13.2419 95.0611 11.6355 93.5607C10.8585 92.8519 9.99967 92.3564 9.05681 92.1422L10.3903 91.2539C10.2695 91.7127 10.4931 92.5874 10.9016 93.3811C11.2985 94.1917 11.8255 94.997 12.3957 95.7782C13.6871 97.5411 15.1781 99.2273 16.6827 100.91C17.4376 101.753 18.202 102.59 18.9558 103.471C19.3328 103.912 19.7044 104.362 20.0698 104.879C20.2504 105.142 20.4342 105.407 20.6043 105.832C20.662 106.08 20.8352 106.333 20.6263 106.97C20.5486 107.217 20.2399 107.509 20.01 107.626C19.8378 107.696 19.6477 107.749 19.463 107.778L20.157 107.395C19.9554 107.601 19.7937 107.82 19.527 107.979C19.2624 108.148 18.9842 108.28 18.6765 108.323C17.8681 108.459 17.1877 108.228 16.6858 107.985C16.1577 107.737 15.7198 107.443 15.3041 107.139C14.483 106.525 13.7627 105.866 13.0729 105.195C11.6964 103.851 10.4333 102.457 9.19435 101.064C8.64732 100.461 8.11184 99.8699 7.56061 99.2619C6.57365 98.1322 5.95733 97.4172 5.62659 96.8964C5.28325 96.3609 5.30005 96.0701 5.30215 95.6301C5.29165 95.5346 5.2633 95.4464 5.15306 95.3655C5.06801 95.3235 4.94201 95.3036 4.82442 95.2889C4.62913 95.2616 4.47373 95.1965 4.52728 94.9057C4.56613 94.7671 4.62493 94.5592 4.90002 94.4111C5.20135 94.2295 5.46594 94.2011 5.80928 94.2148C6.90334 94.3439 7.74751 94.9193 8.64522 95.7194C10.7315 97.6471 12.4891 99.7218 14.3497 101.676C15.2684 102.635 16.2091 103.605 17.1257 104.33C17.5699 104.692 18.0529 104.998 18.2712 105.068C18.3006 105.082 18.2975 105.066 18.309 105.072L18.3206 105.079C18.3048 105.147 18.2954 105.318 18.2765 105.346C18.2429 105.462 18.2261 105.589 18.2292 105.722L18.2439 105.901C18.2408 105.919 18.2397 105.94 18.2418 105.962C18.3458 106.309 18.2167 105.791 17.7662 105.55L19.275 105.816C19.2582 105.926 19.2645 106.042 19.2971 106.155C19.3128 106.212 19.3359 106.267 19.3643 106.321L19.4115 106.399V106.415C19.4136 106.439 19.4325 106.47 19.4693 106.489C19.4493 106.467 19.359 106.432 19.3118 106.442C19.275 106.442 19.2771 106.457 19.2152 106.457C19.1406 106.454 19.0682 106.456 18.9968 106.464C18.8519 106.478 18.7154 106.518 18.5894 106.577C18.5442 106.607 18.4455 106.639 18.3237 106.673L17.9972 106.785L17.6822 106.918L17.5279 106.993L17.53 106.999C17.5195 106.976 17.3767 106.742 17.2129 106.531C16.878 106.085 16.4538 105.586 16.017 105.089C14.3633 103.212 12.5584 101.29 10.8816 99.1758C10.0417 98.1112 9.22165 97.0119 8.47618 95.7393C8.10449 95.1041 7.75591 94.409 7.46927 93.6058C7.20153 92.811 6.93694 91.8093 7.20363 90.5326L7.64881 88.4022L9.61958 88.924L9.93247 89.007L9.92407 89.0878Z" fill="#3DB3E5"/>
<path fill-rule="evenodd" clip-rule="evenodd" d="M27.7165 37.3878C27.6671 38.1606 27.8803 38.9008 27.9916 39.6578C28.2352 40.3802 28.4347 41.1257 28.8294 41.7913C29.5455 43.1405 30.5335 44.4015 31.8145 45.3129C32.2481 45.6888 32.7867 45.9145 33.2676 46.2222C33.7895 46.45 34.3134 46.6842 34.8468 46.8836C36.743 47.5598 38.8366 47.7037 40.7927 47.1976C42.7551 46.7062 44.5274 45.5376 45.9018 43.9732C47.1008 42.5704 47.9282 40.8306 48.2988 39.0384C48.7881 36.7158 48.4584 34.3492 47.7098 32.1611C47.4736 31.4839 47.9807 31.2729 48.7556 31.6697C49.5241 32.0477 50.5353 33.1974 50.739 34.8396C51.1085 37.707 50.4985 40.6406 49.0916 43.1164C48.3954 44.3606 47.4862 45.4778 46.411 46.4217C45.3684 47.395 44.1011 48.1268 42.7813 48.6644C41.1654 49.2083 39.4561 49.5946 37.7216 49.5001C36.0091 49.3994 34.2766 49.0623 32.7479 48.2832C31.0648 47.4559 29.5634 46.2862 28.3528 44.8572C27.1789 43.3936 26.3505 41.6748 25.9064 39.8678C25.373 37.6356 25.5158 35.2742 26.2581 33.1271C27.3763 29.8617 29.9057 27.1906 32.9558 25.7469C35.3056 24.5909 38.005 24.0743 40.6478 24.5899C41.2148 24.7369 41.8048 24.7978 42.3561 25.0235C43.3735 25.4519 44.035 25.77 44.3814 26.1669C44.7489 26.5302 44.8875 26.8347 44.9085 27.1875C44.9169 27.3471 44.9505 27.5234 44.919 27.6578C44.7983 28.1198 43.931 27.9277 42.7078 27.366C40.841 26.589 38.7883 26.3349 36.7965 26.6793C34.8058 27.0153 32.8854 27.9329 31.3431 29.2926C30.7425 29.7735 30.2721 30.3762 29.7713 30.9558C29.366 31.5994 28.9071 32.2189 28.6352 32.9339C28.0115 34.3167 27.665 35.8454 27.769 37.3815L27.7165 37.3878Z" fill="#3DB3E5"/>
<path fill-rule="evenodd" clip-rule="evenodd" d="M90.8028 34.9148C95.6736 34.5525 100.108 31.6095 102.643 27.3908C103.572 25.8568 104.216 24.159 104.636 22.4213C105.39 19.3554 105.285 16.0596 104.193 13.0851C103.118 10.1011 101.026 7.51399 98.3751 5.66606C96.0106 4.04388 93.2135 3.00127 90.3839 2.69783C86.73 2.27155 83.0636 3.08526 79.8276 4.68435C78.827 5.18623 78.5656 4.6182 79.1493 3.56615C79.7111 2.52459 81.3301 1.03154 83.7177 0.493964C87.8965 -0.466749 92.3337 -0.00791643 96.2112 1.71192C100.081 3.4076 103.482 6.36954 105.403 10.204C107.713 14.7524 108.076 20.3739 106.281 25.1848C104.397 30.4798 100.028 34.8885 94.6478 36.558C94.2372 36.6934 93.8267 36.8184 93.4046 36.9045C92.9846 36.9979 92.5678 37.1155 92.1426 37.147L89.6069 37.4473C88.7554 37.4525 87.9007 37.4137 87.0503 37.3969C86.6229 37.4116 86.203 37.315 85.7819 37.2467L84.5209 37.0305C82.0157 36.4656 79.541 35.4975 77.4956 33.9089C75.4335 32.3802 73.6087 30.4808 72.375 28.2328C71.7986 27.4139 71.493 26.4605 71.0604 25.5712C70.6646 24.664 70.4704 23.6876 70.1648 22.7458C70.0136 21.7724 69.8341 20.7907 69.7627 19.8027L69.7669 18.3118C69.7721 17.813 69.7522 17.3101 69.8593 16.8208C70.0189 15.9599 70.0567 15.079 70.3213 14.2316C70.8337 12.6661 71.2053 11.6382 71.7125 11.0461C72.1661 10.4287 72.543 10.1441 72.9787 10.0055C73.1772 9.94255 73.3956 9.83965 73.5604 9.83965C74.1379 9.8554 73.846 11.1374 73.0942 13.1187C72.0726 16.1205 71.8458 19.4058 72.5902 22.5169C73.3189 25.6247 74.9967 28.5363 77.3718 30.7265C78.2096 31.5938 79.2501 32.2174 80.2465 32.8831L81.8645 33.6863C82.4 33.9646 83.0027 34.0801 83.5676 34.2911L84.4296 34.5714L85.3273 34.7205C85.9268 34.7993 86.5169 34.9778 87.128 34.9841L88.9581 35.024C89.2636 35.0481 89.5691 35.0219 89.8736 34.9715L90.7892 34.856L90.8028 34.9148Z" fill="#3DB3E5"/>
<path fill-rule="evenodd" clip-rule="evenodd" d="M90.9933 19.767C89.5371 19.5245 87.6912 19.9917 85.7037 20.1387C84.9676 20.1807 84.1781 20.2468 83.3381 20.0358C83.1449 19.9759 82.9528 19.9108 82.7627 19.8384C82.5643 19.7324 82.37 19.6515 82.18 19.5056C81.7947 19.2399 81.4629 18.8178 81.2791 18.3548C80.9547 17.4014 81.1815 16.5783 81.4377 15.9294C81.9994 14.6243 82.8593 13.6625 83.7738 12.7806C84.597 12.0131 85.479 11.3075 86.4596 10.7332C87.0906 10.3688 87.7752 10.0559 88.5312 9.88899C89.2777 9.72099 90.1397 9.73464 90.8852 10.0958C91.3577 10.3352 91.049 10.6712 90.608 10.9662C90.146 11.2613 89.684 11.6361 89.1339 11.7768C87.0969 12.3585 84.85 14.0878 83.505 16.0375C83.105 16.6056 82.9349 17.3416 83.0704 17.6282C83.1302 17.7626 83.2194 17.875 83.4735 17.9779C83.715 18.0745 84.0542 18.1469 84.4091 18.1763C86.0134 18.316 87.8907 17.7815 89.893 17.7217C91.1046 17.6807 92.5693 17.9065 93.6182 18.8336C94.0162 19.1801 94.3343 19.536 94.6063 19.9833C94.8687 20.4274 95.0861 20.9745 95.0661 21.575C95.0556 22.1777 94.7816 22.7268 94.4593 23.1321C94.1327 23.5458 93.7547 23.865 93.3715 24.1453C92.1672 24.9843 90.9419 25.6384 89.6557 26.1487C89.3722 26.261 89.1003 26.3838 88.8105 26.4773C87.7332 26.8164 87.3542 26.7461 86.9836 26.2474C86.8985 26.1329 86.7967 26.0227 86.7337 25.903C86.5163 25.4966 86.8702 25.0273 87.5925 24.6924C88.6488 24.2083 89.6998 23.7264 90.7624 23.2392C91.2695 22.9967 91.7567 22.7384 92.1704 22.4622C92.5714 22.1924 92.9074 21.8732 92.9904 21.6884C93.0618 21.5467 93.0828 21.5236 93.046 21.3451C93.0051 21.1729 92.856 20.9115 92.6155 20.6479C92.2039 20.167 91.7094 19.914 90.9891 19.8164L90.9933 19.767Z" fill="#3DB3E5"/>
<path fill-rule="evenodd" clip-rule="evenodd" d="M86.1251 11.6953C86.2228 11.7016 86.0989 11.8066 85.8395 11.9736C85.7555 12.0271 85.4878 12.1562 85.4447 12.1625C85.3586 12.1741 85.2757 12.1846 85.2148 12.1835C85.177 12.1835 84.9355 12.0061 84.8431 11.9505C84.7539 11.8969 84.7077 11.8224 84.6688 11.7436C84.5911 11.584 84.4987 11.4318 84.4189 11.2732C84.4 11.2375 84.3958 11.1955 84.4021 11.1483C84.4273 10.9866 84.3727 10.8627 84.2919 10.7514C84.2782 10.7325 84.2751 10.7083 84.2247 10.7083C84.1417 10.7094 83.9832 10.3776 83.9947 10.3188C84.0231 10.1739 84.0199 10.0437 84.0304 9.90618C84.0325 9.88728 84.0084 9.87888 84.0504 9.84108C84.147 9.75394 84.1123 9.73084 84.105 9.69304C84.0945 9.64159 84.0903 9.58804 84.105 9.52399C84.1123 9.4925 84.1659 9.43895 84.2058 9.3917C84.2425 9.3497 84.4147 9.2783 84.4357 9.2762C84.4987 9.27095 84.5701 9.21636 84.6373 9.17961C84.6604 9.16806 84.6909 9.15231 84.7108 9.14391C84.7539 9.12606 85.1728 9.24471 85.1854 9.2741C85.1885 9.28145 85.472 9.61639 85.5161 9.64894C85.5382 9.66574 85.5235 9.70144 85.5193 9.73189C85.5172 9.74554 85.7681 10.0017 85.7723 10.0154C85.7912 10.0836 85.8679 10.1256 85.7986 10.2369C85.7849 10.259 85.7975 10.2695 85.8059 10.281C85.8784 10.3808 85.8952 10.5068 85.9256 10.6275C85.9403 10.6884 85.9834 10.7367 86.0107 10.7923C86.0159 10.8018 86.0054 10.8196 86.0033 10.8333C86.0012 10.849 85.9939 10.869 86.0012 10.8816C86.081 11.0055 86.0905 11.164 86.2049 11.2711C86.2322 11.2953 86.1818 11.499 86.2154 11.5252C86.2354 11.541 86.0852 11.6932 86.1251 11.6953Z" fill="#3DB3E5"/>
<path fill-rule="evenodd" clip-rule="evenodd" d="M92.1694 26.3911C92.2681 26.3974 92.1432 26.5024 91.8838 26.6694C91.7998 26.7229 91.5321 26.852 91.489 26.8583C91.4029 26.8699 91.32 26.8804 91.2591 26.8793C91.2213 26.8793 90.9798 26.7019 90.8874 26.6463C90.7982 26.5927 90.752 26.5182 90.7131 26.4394C90.6354 26.2798 90.5441 26.1276 90.4632 25.969C90.4454 25.9333 90.4401 25.8913 90.4475 25.8441C90.4716 25.6824 90.417 25.5585 90.3362 25.4472C90.3225 25.4283 90.3194 25.4041 90.269 25.4041C90.186 25.4052 90.0275 25.0734 90.0391 25.0146C90.0674 24.8697 90.0642 24.7395 90.0747 24.602C90.0768 24.5831 90.0527 24.5747 90.0947 24.5369C90.1913 24.4497 90.1566 24.4266 90.1493 24.3888C90.1388 24.3374 90.1346 24.2838 90.1493 24.2198C90.1566 24.1883 90.2102 24.1347 90.2501 24.0875C90.2868 24.0455 90.459 23.9741 90.4811 23.972C90.543 23.9668 90.6144 23.9122 90.6816 23.8754C90.7047 23.8639 90.7362 23.8481 90.7551 23.8397C90.7982 23.8219 91.2182 23.9405 91.2297 23.9699C91.2329 23.9773 91.5163 24.3122 91.5604 24.3447C91.5835 24.3615 91.5688 24.3972 91.5636 24.4277C91.5615 24.4424 91.8124 24.6975 91.8166 24.7112C91.8355 24.7794 91.9122 24.8214 91.8429 24.9327C91.8292 24.9548 91.8418 24.9653 91.8502 24.9768C91.9237 25.0766 91.9395 25.2026 91.9699 25.3233C91.9846 25.3853 92.0277 25.4325 92.055 25.4881C92.0602 25.4976 92.0497 25.5154 92.0476 25.5291C92.0455 25.5459 92.0382 25.5648 92.0455 25.5774C92.1253 25.7013 92.1348 25.8598 92.2503 25.9669C92.2765 25.9911 92.2261 26.1948 92.2608 26.221C92.2797 26.2368 92.1295 26.389 92.1694 26.3911Z" fill="#3DB3E5"/>
<path fill-rule="evenodd" clip-rule="evenodd" d="M41.0111 38.1014C39.8656 37.9072 38.3946 38.2757 36.806 38.3912C36.217 38.4248 35.5839 38.4773 34.9088 38.3072C34.3281 38.1749 33.5449 37.734 33.2456 36.9402C32.9852 36.1664 33.17 35.5049 33.3769 34.9852C33.8305 33.9383 34.5192 33.1729 35.251 32.4705C35.9094 31.8573 36.6139 31.2945 37.3961 30.8347C37.9011 30.5438 38.4482 30.2929 39.0529 30.1585C39.6514 30.0241 40.3433 30.0367 40.9418 30.3286C41.3198 30.5239 41.0657 30.8042 40.7098 31.0552C40.337 31.304 39.9769 31.6221 39.5464 31.7334C37.9484 32.1965 36.1603 33.5635 35.0894 35.1007C34.7691 35.5469 34.6389 36.1286 34.7387 36.3375C34.7649 36.5212 35.187 36.7081 35.7739 36.7543C37.0412 36.8688 38.5385 36.4457 40.1376 36.3995C41.1056 36.3659 42.2795 36.5475 43.1226 37.2898C43.4502 37.5523 43.678 37.8883 43.9153 38.2138C44.0193 38.3954 44.0959 38.6107 44.183 38.8091C44.2649 39.0107 44.2586 39.269 44.2849 39.4958C44.2733 39.7268 44.1998 39.962 44.1379 40.1846C44.0298 40.3746 43.9258 40.5814 43.7988 40.7494C43.6602 40.8996 43.5247 41.0613 43.3798 41.1967L42.9283 41.5642C41.9645 42.2299 40.9901 42.7601 39.9643 43.1727C39.7396 43.2641 39.5223 43.3596 39.2913 43.4384C38.4314 43.7093 38.13 43.6484 37.8287 43.2305C37.7594 43.1339 37.6775 43.0425 37.6261 42.9417C37.4486 42.6026 37.7258 42.2152 38.3001 41.9443C39.1474 41.5495 39.9759 41.1631 40.8127 40.7725C41.2211 40.5835 41.5886 40.3725 41.9277 40.1604C42.2133 39.9462 42.5199 39.6984 42.5577 39.5672C42.6071 39.5094 42.5619 39.4926 42.6155 39.458C42.5808 39.4149 42.6239 39.395 42.6018 39.3257C42.5546 39.2501 42.5567 39.1818 42.4958 39.0873C42.416 38.9908 42.3414 38.8921 42.27 38.7881C41.9592 38.4154 41.5708 38.2201 41.008 38.1434L41.0111 38.1014Z" fill="#3DB3E5"/>
<path fill-rule="evenodd" clip-rule="evenodd" d="M37.1569 31.6179C37.2377 31.6211 37.1338 31.7071 36.9164 31.8457C36.8471 31.8898 36.6235 31.9969 36.5878 32.0032C36.5164 32.0137 36.4481 32.0232 36.3967 32.0232C36.3662 32.0242 36.1699 31.8846 36.0943 31.8415C36.0208 31.7995 35.984 31.7407 35.9536 31.6778C35.8906 31.5507 35.8171 31.4289 35.7531 31.3029C35.7384 31.2746 35.7352 31.241 35.7415 31.2032C35.7636 31.0719 35.7205 30.9732 35.6554 30.885C35.6449 30.8703 35.6428 30.8514 35.6008 30.8525C35.5326 30.8535 35.4055 30.59 35.416 30.5427C35.4412 30.4251 35.4412 30.3202 35.4517 30.2099C35.4538 30.1942 35.4339 30.1879 35.4696 30.1574C35.5504 30.086 35.5221 30.0671 35.5168 30.0377C35.5084 29.9968 35.5053 29.9527 35.5189 29.9012C35.5263 29.876 35.5704 29.8319 35.604 29.7941C35.6344 29.7584 35.7783 29.6996 35.7961 29.6975C35.8476 29.6933 35.9074 29.6471 35.9641 29.6177C35.983 29.6072 36.0092 29.5946 36.025 29.5873C36.0607 29.5715 36.4061 29.6618 36.4156 29.6849C36.4177 29.6912 36.6466 29.9558 36.6823 29.981C36.7012 29.9947 36.6886 30.023 36.6844 30.0482C36.6823 30.0598 36.886 30.2614 36.8891 30.2719C36.9038 30.3275 36.9668 30.3601 36.908 30.4503C36.8965 30.4682 36.907 30.4766 36.9133 30.485C36.9721 30.5648 36.9836 30.6656 37.0067 30.7622C37.0193 30.8105 37.0529 30.8493 37.075 30.8934C37.0792 30.9008 37.0697 30.9155 37.0687 30.926C37.0666 30.9396 37.0603 30.9554 37.0666 30.9648C37.1306 31.0635 37.1359 31.1906 37.2293 31.2756C37.2503 31.2945 37.2062 31.4594 37.2345 31.4804C37.2503 31.4919 37.1243 31.6169 37.1569 31.6179Z" fill="#3DB3E5"/>
<path fill-rule="evenodd" clip-rule="evenodd" d="M41.9729 43.3274C42.0537 43.3305 41.9498 43.4166 41.7325 43.5552C41.6632 43.5993 41.4395 43.7064 41.4038 43.7127C41.3324 43.7232 41.2642 43.7327 41.2138 43.7327C41.1823 43.7337 40.9859 43.5941 40.9103 43.551C40.8368 43.509 40.8001 43.4502 40.7696 43.3872C40.7067 43.2602 40.6332 43.1384 40.5691 43.0124C40.5544 42.984 40.5513 42.9504 40.5576 42.9126C40.5796 42.7814 40.5366 42.6827 40.4715 42.5945C40.461 42.5798 40.4589 42.5609 40.4179 42.562C40.3486 42.563 40.2226 42.2995 40.2321 42.2522C40.2573 42.1346 40.2573 42.0296 40.2678 41.9194C40.2699 41.9036 40.251 41.8973 40.2856 41.8669C40.3665 41.7955 40.3381 41.7766 40.3329 41.7472C40.3245 41.7062 40.3224 41.6621 40.335 41.6107C40.3423 41.5855 40.3864 41.5414 40.42 41.5036C40.4505 41.4679 40.5943 41.4091 40.6122 41.407C40.6636 41.4028 40.7235 41.3566 40.7801 41.3272C40.8001 41.3167 40.8253 41.3041 40.841 41.2968C40.8767 41.281 41.2222 41.3713 41.2316 41.3944C41.2337 41.4007 41.4637 41.6653 41.4994 41.6905C41.5183 41.7041 41.5046 41.7325 41.5004 41.7566C41.4983 41.7692 41.702 41.9708 41.7052 41.9813C41.7199 42.037 41.7829 42.0695 41.7241 42.1598C41.7125 42.1777 41.723 42.1861 41.7293 42.1945C41.7881 42.2732 41.7997 42.3751 41.8228 42.4717C41.8354 42.52 41.87 42.5588 41.891 42.6029C41.8952 42.6103 41.8858 42.625 41.8847 42.6355C41.8837 42.6491 41.8763 42.6649 41.8826 42.6743C41.9467 42.773 41.9519 42.9 42.0454 42.9851C42.0663 43.004 42.0223 43.1688 42.0506 43.1898C42.0663 43.2014 41.9404 43.3263 41.9729 43.3274Z" fill="#3DB3E5"/>
</svg>
