<svg width="121" height="115" viewBox="0 0 121 115" fill="none" xmlns="http://www.w3.org/2000/svg">
<path fill-rule="evenodd" clip-rule="evenodd" d="M40.334 111.082C33.6079 109.541 40.251 97.6528 47.2144 88.7008C51.4363 83.2724 54.3731 77.6646 54.3731 77.6646L51.6589 75.7158C51.6589 75.7158 45.9943 85.0794 42.625 88.6724C39.2567 92.2654 34.2263 100.427 33.9911 103.591C33.7559 106.757 33.9544 111.082 40.334 111.082Z" fill="#3DB3E5"/>
<path fill-rule="evenodd" clip-rule="evenodd" d="M92.9154 106.029C77.884 105.365 41.826 59.2494 41.826 59.2494C45.0662 57.7773 48.9479 51.5646 48.9479 51.5646L47.3793 49.9067C47.3793 49.9067 41.93 57.2082 37.6545 57.9747C37.6545 57.9747 36.5079 57.9264 38.3307 59.7344C40.1534 61.5446 55.3559 78.1173 58.3956 81.9581C61.4342 85.7988 80.0732 104.98 85.2737 106.532C90.176 107.993 90.176 107.993 91.5966 106.96L92.9154 106.029Z" fill="#3DB3E5"/>
<path fill-rule="evenodd" clip-rule="evenodd" d="M33.5132 58.2634C30.5187 58.8283 27.4307 58.6813 24.5234 57.9359L22.9421 57.4886C22.4119 57.3489 21.9174 57.1074 21.4081 56.9111C19.6137 56.1961 17.98 55.1618 16.4103 54.0699C15.6742 53.4588 14.9046 52.8855 14.2127 52.2282C13.5491 51.5415 12.8131 50.9263 12.2282 50.1692C11.6886 49.5172 11.1006 48.903 10.6312 48.1964C10.1378 47.5097 9.61593 46.8419 9.21694 46.1017L8.38746 44.7105C8.14282 44.2296 7.92023 43.735 7.69239 43.2458C7.46244 42.7554 7.23145 42.2661 7.12015 41.7306C6.97526 41.2099 6.84716 40.6838 6.75371 40.1525C6.63717 39.49 6.81251 39.5404 7.24195 39.9877C7.70183 40.4287 8.35071 41.2624 8.9051 42.2955C10.6774 46.0534 13.1144 49.5067 16.3263 52.266C18.2362 53.926 20.5849 55.2164 23.0156 56.0942C25.6899 57.0507 28.5699 57.5054 31.408 57.224C32.2732 57.1127 33.1426 56.972 33.9941 56.7746C34.8246 56.4932 35.6866 56.3179 36.4909 55.9441C38.9625 54.9329 41.2704 53.4577 43.1677 51.6056C44.6187 50.1461 45.7936 48.4725 46.6105 46.6455C46.7953 46.2455 46.9538 45.8455 47.1008 45.4286C47.672 43.8957 47.8211 43.4095 48.345 43.1544C48.4605 43.0967 48.5813 43.0095 48.6873 42.9801C49.0191 42.873 49.2113 43.6489 48.8774 44.932C47.924 48.7612 45.1983 52.2093 41.8699 54.598C39.3909 56.4019 36.5497 57.6597 33.5237 58.296L33.5132 58.2634Z" fill="#3DB3E5"/>
<path fill-rule="evenodd" clip-rule="evenodd" d="M28.4609 40.6119C28.631 40.4019 29.3082 39.5735 30.0243 38.7849C30.7372 37.9933 31.5163 37.2698 31.6654 37.1459C31.8765 36.9422 32.9086 36.1632 33.0178 36.0792C33.0283 36.0729 33.1385 35.9952 33.3044 35.8776C33.3863 35.8219 33.4819 35.7568 33.5858 35.6875L33.6656 35.6497C33.7087 35.6445 33.6751 35.5836 33.6824 35.55L33.6782 35.488C33.6688 35.4282 33.6614 35.3694 33.6541 35.3127C33.6194 35.0691 33.5911 34.8717 33.5785 34.7772C33.569 34.6859 33.4336 33.3923 33.2939 32.0515C33.1469 30.7275 32.7952 29.3961 32.6828 29.1284C32.6114 28.9352 32.414 28.3021 32.1736 27.6752C31.9269 27.0494 31.6518 26.4247 31.5405 26.221C31.4712 26.0814 31.8271 25.8987 31.8964 26.0089C32.1894 26.4741 32.4833 26.9465 32.6965 27.4589C32.8603 27.8506 33.2215 28.7126 33.464 29.5211C33.715 30.3274 33.8662 31.0645 33.884 31.1233C34.0289 31.6766 34.1496 32.2352 34.2609 32.7917L34.409 33.5697L34.6095 34.6407L34.7229 35.1657L34.9098 35.9553C34.9077 36.0172 34.9844 36.1065 34.9161 36.1453L34.7502 36.2766L34.4132 36.5433L33.9732 36.9086L33.2078 37.5659C32.4644 38.2001 31.7715 38.8721 31.1205 39.6071C30.7498 40.027 30.4013 40.468 30.0401 40.9038C29.8301 41.1621 29.5781 41.3878 29.3576 41.6408C29.1948 41.8256 28.9135 41.792 28.6111 41.6944C28.2667 41.5873 28.3402 40.762 28.4609 40.6119Z" fill="#3DB3E5"/>
<path fill-rule="evenodd" clip-rule="evenodd" d="M88.2342 48.5038C82.8458 47.2481 73.4906 40.7887 69.844 40.7887C68.3457 40.7887 69.6918 46.4732 70.39 46.7567C71.0893 47.0402 68.2922 47.0055 67.8249 43.9386C67.3567 40.8716 68.3667 36.6738 68.3667 36.6738C68.3667 36.6738 74.6077 40.8989 77.3881 41.6444C80.1684 42.3899 89.8281 47.1641 89.8281 47.1641C89.8281 47.1641 88.9178 48.6624 88.2342 48.5038Z" fill="#3DB3E5"/>
<path fill-rule="evenodd" clip-rule="evenodd" d="M67.7008 47.895C67.7008 47.895 68.7119 48.167 68.3664 49.9068C68.0199 51.6476 62.3837 63.8335 62.3837 63.8335L60.5148 61.2328L67.7008 47.895Z" fill="#3DB3E5"/>
<path fill-rule="evenodd" clip-rule="evenodd" d="M61.7481 18.7402C61.2304 21.3924 59.2061 23.4923 58.3955 23.548C57.9808 23.5753 57.2615 23.7244 57.3812 23.3264C56.9875 24.6326 57.86 27.2355 59.1914 25.9513C59.9736 25.1975 60.6235 24.241 61.2399 23.3537C62.3287 21.784 65.8923 19.4037 64.9494 17.224C64.9494 17.224 63.6464 14.3188 60.2466 16.7788C60.2466 16.7788 62.1302 16.7788 61.7481 18.7402Z" fill="#3DB3E5"/>
<path fill-rule="evenodd" clip-rule="evenodd" d="M95.4413 34.5727C94.3032 33.1689 92.9277 31.891 91.4651 30.713C90.9296 30.2856 90.3616 29.8982 89.8072 29.4908C87.849 28.0545 85.7858 26.7347 83.6743 25.4936C82.7388 24.9392 81.7791 24.4153 80.831 23.8966C79.6173 23.2204 78.3647 22.6072 77.2412 21.7284C76.8968 21.4271 77.0385 21.383 77.3997 21.4974C77.7672 21.6066 78.4035 21.8208 79.1101 22.182C81.6164 23.4651 84.1972 24.6799 86.6321 26.2065C88.0905 27.1158 89.6529 27.9946 91.1144 28.9931C92.7051 30.1051 94.2664 31.2957 95.6282 32.7258C96.4671 33.6025 97.241 34.5601 97.8531 35.6405C98.0767 36.0531 98.2983 36.4742 98.4463 36.9288C98.628 37.3414 98.7067 37.9179 98.8191 38.2528C98.9629 38.9143 99.7504 39.349 100.512 39.7259C101.725 40.3139 103.099 40.7969 104.225 41.7954C104.482 42.0001 104.715 42.2259 104.933 42.481C105.337 42.9493 105.522 43.3283 105.555 43.6276C105.598 43.9237 105.563 44.1169 105.473 44.2943C105.432 44.3762 105.401 44.4697 105.354 44.5243C105.192 44.7133 104.814 44.3699 104.246 43.8628C103.534 43.0155 102.646 42.3855 101.585 41.8678C101.054 41.5991 100.495 41.3649 99.8837 41.072C99.2895 40.7601 98.607 40.4388 97.9791 39.7228C97.5003 39.2314 97.2956 38.2266 97.2525 37.9977C97.1622 37.605 97.0278 37.2081 96.8409 36.8238C96.485 36.0479 95.9915 35.2982 95.4172 34.5968L95.4413 34.5727Z" fill="#3DB3E5"/>
<path fill-rule="evenodd" clip-rule="evenodd" d="M49.2315 46.1601C48.4293 48.7325 46.9887 51.0802 45.1975 53.0468C43.3947 55.0187 41.2034 56.5695 38.863 57.7475C38.001 58.1644 37.1369 58.5644 36.2413 58.9015C35.3183 59.1766 34.4122 59.5293 33.4672 59.7194C30.1378 60.4397 26.6572 60.2843 23.4128 59.397C20.1621 58.5056 17.1497 56.8939 14.5615 54.8003C12.2726 52.9313 10.2409 50.7317 8.62501 48.281C6.58597 45.1343 5.05617 41.5171 4.88187 37.7541C4.79893 36.5896 5.03622 36.7303 5.57695 37.6102C5.84259 38.0512 6.23003 38.6623 6.56707 39.4067C6.91566 40.1522 7.49104 40.9491 7.76193 41.9172C9.00615 45.2655 10.9391 48.3104 13.3404 50.9238C15.7385 53.5445 18.7162 55.6718 22.0698 56.9958C22.578 57.1764 23.0883 57.3591 23.5997 57.5418C24.1131 57.7307 24.6591 57.7948 25.1914 57.925C26.2571 58.2158 27.3669 58.2232 28.4684 58.3334C29.0196 58.345 29.5729 58.2935 30.1263 58.2778L30.9568 58.2421C31.2298 58.2053 31.5017 58.1497 31.7757 58.1045L33.4106 57.821L34.9939 57.3391C39.6264 55.8576 43.9165 52.84 46.2296 48.5257C46.9404 47.208 47.4665 45.7905 47.7972 44.3248C48.0618 42.8401 48.3043 41.3376 48.2676 39.8204L48.2812 38.9605L48.1993 38.1016C48.1374 37.5304 48.1059 36.954 48.023 36.3849C47.772 35.2604 47.6114 34.1128 47.2082 33.0261C46.5572 30.8085 45.5051 28.7233 44.2683 26.7945C42.3111 23.8084 39.765 21.299 36.8754 19.3943C36.2098 19.0289 35.5819 18.6215 34.8994 18.3002C32.3732 17.0623 31.55 16.972 31.0439 16.2287C30.9253 16.0701 30.7552 15.9021 30.6859 15.7551C30.5693 15.5063 30.815 15.3446 31.4104 15.2784C31.7065 15.2438 32.0907 15.2385 32.5454 15.2753C32.9801 15.3603 33.4851 15.4842 34.05 15.648C37.3469 16.7431 40.2049 18.9019 42.6377 21.4302C45.0589 23.9879 47.0339 27.0307 48.3768 30.3633C50.3906 35.2982 50.8484 40.968 49.2787 46.1685L49.2315 46.1601Z" fill="#3DB3E5"/>
<path fill-rule="evenodd" clip-rule="evenodd" d="M32.3074 35.3828C32.32 35.3618 32.3315 35.3324 32.3378 35.2851L32.1551 34.4042C32.0228 33.791 31.8759 33.1747 31.7205 32.5615C31.6092 32.1132 31.4286 31.6858 31.3236 31.2343C30.9372 29.6457 30.5445 28.0519 30.0846 26.478C29.8799 25.7798 29.6174 25.0973 29.3444 24.4306C28.9737 23.5811 28.5748 22.7422 28.4477 21.7993C28.4078 21.5064 28.7984 21.3909 29.2772 21.4644C29.7518 21.5389 30.3429 21.7983 30.5907 22.2834C31.375 24.0368 31.9483 25.8669 32.3483 27.7642C32.5804 28.9013 33.0487 30.009 33.3742 31.1451L33.8697 33.0319L34.337 35.0268L34.5302 35.9151C34.548 36.0558 34.6236 36.2185 34.5932 36.3382L34.1973 36.5692L33.4214 37.027L32.8838 37.3557C31.8885 37.9741 30.9288 38.6461 30.0941 39.4566C29.4452 40.0877 28.9296 40.829 28.3889 41.5524C28.2703 41.712 28.1632 41.8768 28.034 42.0312C27.5521 42.595 27.2927 42.6842 26.7804 42.4491C26.6638 42.3966 26.5399 42.3535 26.4339 42.2884C26.0748 42.0711 26.0191 41.6133 26.2879 41.104C27.0817 39.5984 28.3028 38.2565 29.7318 37.0743C30.2621 36.6375 30.8227 36.2364 31.3929 35.8689L31.8223 35.5959L32.1908 35.3712C32.2097 35.3681 32.2297 35.3691 32.2496 35.3607L32.3074 35.3828Z" fill="#3DB3E5"/>
<path fill-rule="evenodd" clip-rule="evenodd" d="M19.8242 42.0329C19.0241 41.6318 18.224 41.2297 17.426 40.8296C17.132 40.6868 16.817 40.5997 16.5252 40.4485C15.4909 39.933 14.5082 39.2862 13.4886 38.7412C13.0424 38.484 12.5647 38.2929 12.1174 38.0483C11.5315 37.7627 10.9393 37.4739 10.428 37.0382C10.2684 36.9028 10.3923 36.7222 10.6537 36.5804C10.9141 36.4429 11.3247 36.3116 11.6859 36.4072C12.32 36.593 12.9668 36.7369 13.5684 36.9909C14.168 37.2482 14.7644 37.5243 15.3397 37.8572C16.0348 38.2478 16.8422 38.4494 17.5825 38.7832L20.0383 39.8826L21.5555 40.564C22.3262 40.8989 23.0875 41.2696 23.8718 41.5741C24.4797 41.8145 25.1275 41.9447 25.7617 42.1641C25.9014 42.2124 26.0473 42.2418 26.1838 42.3017C26.6878 42.5369 26.7718 42.7626 26.5754 43.3097C26.5303 43.4336 26.4935 43.5616 26.4379 43.6813C26.2489 44.0835 25.8783 44.2935 25.5055 44.2336C24.3915 44.052 23.3079 43.6782 22.2275 43.1931C21.4233 42.8246 20.6137 42.4518 19.8063 42.0812L19.8242 42.0329Z" fill="#3DB3E5"/>
<path fill-rule="evenodd" clip-rule="evenodd" d="M90.1371 90.6693C91.4097 92.2043 92.6938 93.7866 93.7574 95.5726C94.7916 97.3586 95.787 99.3137 95.9172 101.672C95.9812 102.832 95.746 104.103 95.1339 105.172C94.5344 106.253 93.623 107.051 92.6938 107.655C92.2633 107.955 91.6575 108.23 91.0716 108.435L90.1696 108.623C89.8715 108.667 89.5785 108.652 89.2835 108.664C88.118 108.639 87.0292 108.389 86.0401 108.016C83.1328 106.937 80.6727 105.287 78.3533 103.517C74.27 100.386 70.5909 96.8536 67.0756 93.1871C63.5614 89.5206 60.2036 85.7229 56.9256 81.8632C54.0161 78.4308 51.1507 74.9638 48.2035 71.6428C46.3198 69.5009 44.3931 67.3883 42.4601 65.2926C40.5198 63.22 38.6152 61.0528 36.6475 59.145C36.5047 58.9928 36.385 58.8552 36.2853 58.7345C36.1876 58.6169 36.1267 58.5654 36.069 58.4867C35.9598 58.3439 35.9115 58.2347 35.9451 58.1728C35.9829 58.0552 36.4722 58.0363 37.2481 58.3303C38.801 58.8962 41.1897 60.5446 43.4723 62.9491C47.4674 67.2644 51.2683 71.7005 55.0041 76.2238C58.7032 80.725 62.4694 85.1758 66.3931 89.5196C68.7366 92.1193 71.2566 94.6518 73.8804 97.0835C76.5127 99.4995 79.2563 101.846 82.2077 103.747C83.8215 104.785 85.5141 105.726 87.2602 106.261C88.1317 106.504 89.0063 106.637 89.8232 106.572C90.2116 106.493 90.6064 106.431 90.9456 106.249C91.2942 106.108 91.7131 105.827 92.0407 105.574C93.4581 104.547 94.1133 102.931 93.7574 101.18C93.4518 99.4397 92.5111 97.7366 91.4569 96.1543C90.1444 94.1919 88.5789 92.3534 86.9798 90.5254C85.3954 88.7279 83.6934 86.9713 82.0166 85.2189C76.898 79.9207 71.6976 74.6373 66.4824 69.5009C62.4284 65.5047 58.3472 61.6986 54.2681 57.821C53.3672 56.9695 52.4863 56.1369 51.5781 55.279C48.2413 52.0672 47.3509 50.8702 47.0653 49.7426C46.9992 49.4832 46.8784 49.1735 46.8858 48.9971C46.9057 48.702 47.2848 48.7913 48.0134 49.2386C48.7484 49.6901 49.7921 50.5111 51.0667 51.6336C58.5373 58.388 66.1558 65.7766 73.6736 73.3332C76.4655 76.1409 79.2521 78.9653 82.0156 81.8233C84.7623 84.6855 87.572 87.5383 90.1749 90.6241L90.1371 90.6693Z" fill="#3DB3E5"/>
<path fill-rule="evenodd" clip-rule="evenodd" d="M85.6948 46.0608C82.6835 44.7336 79.6638 43.417 76.6525 42.0436C75.5531 41.5386 74.4318 41.0871 73.3419 40.5337C72.3906 40.0487 71.4068 39.5268 70.486 38.9199C69.5767 38.3267 68.6843 37.6904 67.8348 36.9849C66.1475 35.5863 64.5862 33.836 63.7788 31.6605C63.4271 30.7018 63.2234 29.6834 63.1845 28.6639C63.1656 27.6401 63.2885 26.6301 63.5163 25.6862C63.7861 24.4587 64.2135 23.2775 64.7773 22.1551C65.3517 21.0484 66.0341 19.946 67.0369 19.1312C67.6847 18.6356 67.7865 18.9664 67.6521 19.6782C67.5377 20.4195 67.293 21.5272 66.7765 22.679C66.3019 23.7038 65.9974 24.8063 65.6729 25.8741C65.3643 26.965 65.2068 28.0045 65.275 29.0219C65.3706 31.0725 66.493 33.0086 68.1173 34.655C69.0769 35.6503 70.2561 36.5103 71.5087 37.2851C72.7193 38.0516 74.0916 38.6659 75.4355 39.3126C78.408 40.7143 81.4508 42.0384 84.4873 43.3634L90.1036 45.8098C92.9406 47.0425 95.7734 48.3277 98.58 49.5918C100.759 50.5872 102.936 51.4744 105.064 52.601C105.534 52.8457 105.997 53.0893 106.46 53.3717C108.159 54.4469 108.606 55.1147 108.486 55.8097C108.462 55.9651 108.455 56.1331 108.399 56.2434C108.178 56.5899 107.526 56.2864 106.404 55.5997C104.692 54.5844 102.758 53.6783 100.801 52.7648C98.8372 51.8545 96.8234 50.9494 94.7949 50.0559C91.7636 48.7434 88.7176 47.4247 85.679 46.1091L85.6948 46.0608Z" fill="#3DB3E5"/>
<path fill-rule="evenodd" clip-rule="evenodd" d="M97.6014 35.8377C96.4947 33.5026 94.4378 31.5224 92.1625 29.8634C91.3331 29.246 90.4143 28.7452 89.5313 28.1898C86.3814 26.2641 83.0068 24.5831 79.5797 22.9977C78.0583 22.2942 76.4949 21.6527 74.9525 21.0006C72.9712 20.1722 70.9374 19.3522 69.1703 18.0103C68.6181 17.5945 68.9414 17.2785 69.6533 17.1756C70.3578 17.0863 71.4708 17.1273 72.5712 17.6008C76.4697 19.3375 80.5583 20.9355 84.5041 23.0061C86.8644 24.2366 89.4043 25.3863 91.7499 26.8584C94.2982 28.4974 96.7803 30.4251 98.6093 33.0112C99.17 33.8029 99.6457 34.666 100.016 35.5752C100.215 36.0236 100.335 36.5055 100.49 36.9696L100.643 37.692L100.719 38.0521C100.74 38.1655 100.739 38.2317 100.75 38.324L100.774 38.5781L100.799 38.8385C100.864 38.8942 100.949 38.9225 101.024 38.9645L101.757 39.3299C102.368 39.6449 102.966 39.9893 103.544 40.3652C104.7 41.1128 105.779 41.9821 106.754 42.9502C108.334 44.5126 109.684 46.3185 110.572 48.3943C110.771 48.8489 110.941 49.3036 111.082 49.7834C111.2 50.2307 111.276 50.6076 111.319 50.9258C111.341 51.2481 111.311 51.5148 111.279 51.7332C111.198 52.171 111.033 52.4335 110.796 52.6498C110.687 52.7475 110.587 52.8714 110.481 52.9302C110.122 53.1307 109.726 52.4556 109.205 51.3521C108.585 49.6868 107.851 48.0909 106.833 46.6555C105.825 45.2171 104.545 43.9466 103.076 42.8883C102.457 42.4473 101.809 42.042 101.133 41.6745L100.62 41.4057L99.9344 41.0739C99.7758 40.9973 99.5627 40.9028 99.3947 40.8051C99.2404 40.6823 99.1018 40.551 99.0293 40.3799L98.9621 40.2654L98.9285 40.2066L98.9117 40.1762C99.0272 40.0932 98.7521 40.2875 98.7805 40.2675L98.7794 40.2644L98.7784 40.2602L98.7752 40.2518L98.7689 40.235L98.6755 39.9672L98.4896 39.4307C98.3888 38.2873 98.2933 38.0038 98.1484 37.4179C98.0592 37.1575 97.9878 36.8908 97.888 36.6326L97.551 35.8671L97.6014 35.8377Z" fill="#3DB3E5"/>
<path fill-rule="evenodd" clip-rule="evenodd" d="M68.2418 35.1324C68.4644 35.4726 68.6954 36.8081 68.7311 38.0418C68.7867 39.2829 68.8004 40.4526 68.8088 40.671C68.8119 40.9975 68.7888 42.4213 68.8245 42.5672C68.8329 42.5903 68.8172 43.1657 68.8581 43.7432C68.8949 44.3217 69.0135 44.8719 69.0786 44.9506C69.0849 44.9632 69.1122 45.0178 69.1426 45.1186C69.2004 45.1459 69.1164 45.1858 69.3789 45.3475C69.7873 45.6247 70.474 45.9607 71.1733 46.2956C72.5949 47.0023 74.0575 47.7299 74.3683 47.8853C74.5983 47.9766 75.2944 48.3798 75.9601 48.8429C76.6237 49.3101 77.2326 49.8592 77.4468 50.0335C77.5907 50.1553 77.2032 50.5974 77.0804 50.5239C76.5638 50.1921 76.021 49.9075 75.4897 49.603C75.0865 49.3626 74.1688 48.8754 73.2953 48.5079C72.4269 48.1341 71.6279 47.838 71.5607 47.8149C70.9391 47.6197 70.3155 47.4254 69.6844 47.1955C69.3883 47.0884 69.0933 46.9718 68.7888 46.829C68.6838 46.786 68.5736 46.724 68.4654 46.6652L68.3016 46.576L68.1 46.408C67.7987 46.1676 67.6622 45.9124 67.5236 45.6573C67.2779 45.1554 67.1687 44.6881 67.069 44.2304C66.9073 43.382 66.7949 42.562 66.7519 41.7514C66.7204 40.5891 66.6889 39.431 66.6563 38.2697C66.6343 37.624 66.5324 36.994 66.5104 36.3902C66.4862 36.0291 66.4789 35.6983 66.5419 35.3308C66.5524 35.0956 66.7991 34.8363 66.9913 34.5896C67.0984 34.4531 67.3094 34.514 67.6013 34.6505C67.9037 34.7901 68.183 35.02 68.2418 35.1324Z" fill="#3DB3E5"/>
<path fill-rule="evenodd" clip-rule="evenodd" d="M40.7678 112.796C39.5771 113.024 38.273 112.86 37.1895 112.392C36.1836 111.918 35.1494 111.374 34.3556 110.456C33.5387 109.596 32.9655 108.444 32.7996 107.294C32.6106 106.149 32.6578 105.005 32.893 103.956C33.2006 102.409 33.7298 100.967 34.4008 99.623C34.9814 98.4502 35.6681 97.2994 36.3915 96.2242C37.1065 95.1459 37.8457 94.1023 38.5828 93.0544L43.0598 86.8333C44.386 84.998 45.6753 83.1227 46.9363 81.2654C48.5564 78.8767 50.0631 76.3998 52.0203 74.2484C52.6219 73.5722 52.8046 73.8421 52.6954 74.6915C52.5862 75.5409 52.2597 77.0203 51.3609 78.4241C48.044 83.3044 44.556 88.0544 40.9841 92.7898C38.8778 95.652 36.739 98.6591 35.4528 101.892C35.0948 102.775 34.8039 103.679 34.659 104.585C34.511 105.485 34.4575 106.404 34.6779 107.23C35.036 108.908 36.4744 110.175 38.209 110.757C39.2128 111.109 40.3026 111.06 41.3337 110.663C42.3679 110.27 43.3255 109.577 44.1907 108.781C46.8072 106.315 48.8011 103.108 50.5671 99.9086C51.9373 97.3992 53.0471 94.8152 54.2409 92.2281C54.5013 91.6569 54.7638 91.1004 55.0568 90.5345C56.1403 88.4377 56.7493 87.8613 57.5042 87.7489C57.6617 87.7122 57.8255 87.6408 57.9295 87.6324C58.109 87.6198 58.1111 87.8487 58.0754 88.3127C58.0586 88.7884 57.8371 89.4016 57.5 90.1743C55.565 94.8036 53.2382 99.6975 50.27 104.342C49.1633 106.065 47.9149 107.731 46.4617 109.287C45.7173 110.055 44.9235 110.798 43.9996 111.441C43.0672 112.068 41.9983 112.61 40.7835 112.842L40.7678 112.796Z" fill="#3DB3E5"/>
<path fill-rule="evenodd" clip-rule="evenodd" d="M59.8246 60.0723C59.9023 59.8581 60.3916 59.1189 60.8567 58.3829C61.3156 57.6437 61.766 56.9171 61.8479 56.7838C61.9707 56.5854 62.5451 55.7023 62.5934 55.5952C62.6039 55.5795 62.8475 55.2267 63.111 54.8445C63.3766 54.4644 63.6423 54.0455 63.7221 53.9121C63.8134 53.7872 66.1076 50.2519 66.263 49.7774C66.4016 49.4676 67.3886 47.7845 67.544 47.521C67.5933 47.4464 68.1414 47.4506 68.1456 47.6165C68.1361 48.214 67.9839 48.6192 67.7697 49.0455C67.4558 49.685 66.3953 51.8395 66.348 51.935L65.7905 53.2549L65.5154 53.8638C65.254 54.4266 64.9936 54.9873 64.7311 55.5522C64.4907 56.0814 64.2891 56.6326 64.0266 57.1502C63.6412 57.9125 63.259 58.6706 62.8737 59.4318C62.6553 59.8655 62.4642 60.3159 62.2343 60.7443C62.1114 61.0047 61.8531 61.1842 61.683 61.4142C61.6253 61.5034 61.4646 61.5055 61.2704 61.4698C61.0678 61.4299 60.8042 61.3354 60.6215 61.2819C60.5218 61.2535 60.4483 61.1905 60.3559 61.0866C60.2729 60.9889 60.1133 60.8146 60.0409 60.6834C59.855 60.3967 59.7931 60.1458 59.8246 60.0723Z" fill="#3DB3E5"/>
<path fill-rule="evenodd" clip-rule="evenodd" d="M74.4727 58.9539C75.4954 57.5837 76.5936 56.2544 77.7518 54.9724C78.1738 54.5052 78.5665 54.0085 79.0327 53.5739C80.6287 52.0262 82.5155 50.6455 84.5346 49.731C85.4102 49.3068 86.2848 48.8847 87.1521 48.4658C87.7023 48.2012 88.2294 47.8967 88.7712 47.6415C89.3088 47.4042 89.8348 47.1733 90.3986 46.9255C90.7357 46.7816 90.8858 47.0462 90.7997 47.5092C90.7178 47.9702 90.3734 48.6485 89.7571 49.0695C87.4923 50.3778 85.1876 51.1327 83.1507 52.3517C81.9306 53.0972 80.867 54.1954 79.8527 55.2916C78.7345 56.5043 77.6814 57.7979 76.6787 59.1418C76.0666 59.9724 75.4639 60.8134 74.8864 61.6744C74.0191 62.9837 73.1172 64.2877 72.3045 65.6296C71.6735 66.6775 71.1349 67.7558 70.4534 68.7753C70.3117 69.0042 70.1699 69.232 69.9998 69.4473C69.6985 69.8547 69.4465 70.0899 69.205 70.2032C68.9772 70.324 68.7955 70.3502 68.596 70.3229C68.5057 70.3103 68.4091 70.3114 68.3367 70.2872C68.1015 70.2095 68.1677 69.736 68.4249 69.0609C68.8606 68.0792 69.3499 67.1174 69.8413 66.1115C70.3841 65.1456 70.9627 64.167 71.557 63.1937C72.4274 61.7332 73.4332 60.3346 74.4318 58.9287L74.4727 58.9539Z" fill="#3DB3E5"/>
<path fill-rule="evenodd" clip-rule="evenodd" d="M60.8962 24.7608C61.4264 25.0349 61.9524 25.2942 62.4974 25.5452C62.7703 25.6701 63.0454 25.7909 63.3373 25.9074C63.4812 25.9641 63.6334 26.0198 63.7962 26.0733C63.8886 26.0995 63.9579 26.1258 64.0702 26.1499C64.1773 26.1699 64.277 26.2056 64.5311 26.1909C64.5962 26.1919 64.5563 25.8056 64.4849 25.4244C64.4534 25.2491 64.4209 25.0748 64.4209 25.0748C64.4093 24.9813 64.4114 24.8879 64.4251 24.7965C64.4324 24.7503 64.4429 24.7052 64.4566 24.6611C64.4692 24.6548 64.4534 24.6548 64.4534 24.6548L64.4093 24.6464C64.3789 24.6422 64.3106 24.617 64.2634 24.6054L63.9033 24.4731C63.6534 24.3745 63.3961 24.2611 63.1399 24.1435C62.6286 23.9083 62.111 23.6521 61.608 23.3927C61.6017 23.3885 61.5524 23.4704 61.482 23.5985C61.4138 23.7256 61.3224 23.8957 61.2311 24.0658C61.0515 24.4081 60.8804 24.7545 60.8962 24.7608Z" fill="#3DB3E5"/>
<path fill-rule="evenodd" clip-rule="evenodd" d="M62.3331 22.0496L65.252 23.2035C65.2824 23.2266 65.8567 21.7724 65.8189 21.7692L62.9 20.6153C62.8748 20.6017 62.3047 22.0422 62.3331 22.0496Z" fill="#3DB3E5"/>
<path fill-rule="evenodd" clip-rule="evenodd" d="M63.9104 18.3508C63.6647 18.5639 63.5345 18.838 63.3865 19.091L62.956 19.8533L62.1118 21.359C61.5459 22.3512 60.9663 23.3318 60.3258 24.2327C60.0056 24.679 59.6665 25.1094 59.3095 25.458C59.1341 25.6197 58.9451 25.7825 58.796 25.8528C58.6312 25.9316 58.5997 25.9148 58.5997 25.9148C58.5829 25.9211 58.459 25.7951 58.374 25.6229C58.3467 25.5315 58.3141 25.4444 58.2763 25.3562C58.249 25.2564 58.2427 25.1336 58.2238 25.0223C58.1671 24.5593 58.2112 24.0227 58.2931 23.4935C58.6669 21.3716 59.509 19.1687 60.6471 17.3617C60.7952 17.1622 60.9558 16.9281 61.1081 16.7979L61.2194 16.6834C61.2477 16.6687 61.2687 16.6624 61.2897 16.6456C61.3013 16.6089 61.4346 16.5847 61.5197 16.5532C61.8997 16.4462 62.3481 16.4714 62.766 16.6204C63.1797 16.7653 63.5912 16.9869 63.8558 17.2809C64.0973 17.5927 64.2359 17.8174 64.1404 18.0988C64.1068 18.2174 65.0748 19.1141 65.3447 18.671C65.8161 17.9014 65.5368 16.8199 65.0328 16.2876C64.5383 15.7091 63.9251 15.3122 63.2427 15.1053C62.5644 14.8985 61.8052 14.8649 61.0797 15.0959C60.897 15.1683 60.7353 15.1956 60.5222 15.35C60.4245 15.4151 60.3227 15.4854 60.2345 15.5558L60.0466 15.7532C59.7757 16.0209 59.6276 16.2824 59.4344 16.5459C58.754 17.5948 58.2616 18.6784 57.8311 19.7945C57.4101 20.9127 57.0636 22.0593 56.8693 23.2751C56.7791 23.8852 56.7182 24.511 56.799 25.1955C56.8273 25.3688 56.8399 25.5368 56.8851 25.7153C56.9449 25.899 57.0111 26.0838 57.0814 26.2644C57.2568 26.5962 57.4741 26.9784 57.9855 27.2356C58.5199 27.4939 59.111 27.3459 59.4523 27.1663C59.825 26.9836 60.0739 26.7568 60.3258 26.5342C60.8036 26.0817 61.1837 25.6029 61.5438 25.1178C62.2557 24.1466 62.8657 23.1418 63.4589 22.137C64.0238 21.1269 64.6706 20.1357 65.1378 19.1551C65.162 18.9104 64.1666 18.1755 63.9104 18.3508Z" fill="#3DB3E5"/>
<path fill-rule="evenodd" clip-rule="evenodd" d="M112.802 32.5229C112.7 32.6499 112.562 32.4693 112.405 32.1029C112.354 31.9863 112.293 31.6146 112.317 31.5548C112.365 31.4403 112.414 31.329 112.47 31.2461C112.504 31.1978 113.124 30.8912 113.332 30.7684C113.533 30.6518 113.746 30.593 113.962 30.5468L115.28 30.2371C115.377 30.215 115.479 30.2119 115.585 30.2266C115.946 30.2791 116.287 30.2182 116.622 30.1174C116.677 30.1006 116.738 30.1006 116.782 30.0281C116.851 29.9063 117.787 29.732 117.917 29.7604C118.238 29.8318 118.552 29.858 118.868 29.9095C118.914 29.9168 118.957 29.8853 119.007 29.9557C119.123 30.1195 119.211 30.0764 119.306 30.0775C119.438 30.0764 119.572 30.0901 119.707 30.1331C119.776 30.1541 119.85 30.2486 119.922 30.3221C119.987 30.3893 119.985 30.6613 119.969 30.6917C119.921 30.7831 119.981 30.9028 119.998 31.0141C120.005 31.0519 120.012 31.1002 120.013 31.1306C120.012 31.1988 119.35 31.7396 119.275 31.748C119.266 31.7501 119.01 31.8194 118.733 31.895C118.461 31.9748 118.179 32.0598 118.121 32.0861C118.063 32.1134 117.994 32.0819 117.928 32.0672C117.896 32.0588 117.087 32.3423 117.052 32.3444C116.876 32.3549 116.714 32.4515 116.512 32.3318C116.473 32.3087 116.439 32.3234 116.405 32.3318C116.11 32.4126 115.799 32.4095 115.493 32.4284C115.335 32.4378 115.185 32.4882 115.031 32.5155C115.004 32.5208 114.971 32.5029 114.942 32.4998C114.904 32.4935 114.865 32.4788 114.83 32.4882C114.468 32.5743 114.088 32.5617 113.733 32.6982C113.651 32.7297 113.214 32.6289 113.121 32.6709C113.068 32.693 112.843 32.4714 112.802 32.5229Z" fill="#3DB3E5"/>
<path fill-rule="evenodd" clip-rule="evenodd" d="M102.782 16.189C102.647 16.1218 102.804 15.9738 103.133 15.7628C103.238 15.6945 103.586 15.5685 103.645 15.5832C103.763 15.6084 103.877 15.6399 103.967 15.6809C104.027 15.7071 104.396 16.2709 104.533 16.461C104.664 16.6447 104.739 16.8453 104.797 17.0479C104.92 17.4595 105.043 17.8753 105.165 18.2869C105.19 18.3793 105.195 18.4759 105.185 18.5756C105.147 18.9211 105.214 19.2392 105.317 19.5521C105.334 19.6056 105.335 19.6623 105.405 19.7022C105.525 19.7631 105.702 20.6472 105.671 20.7732C105.605 21.0798 105.581 21.3769 105.523 21.6846C105.515 21.7276 105.544 21.7696 105.477 21.8158C105.32 21.9219 105.356 22.009 105.352 22.1025C105.344 22.2316 105.331 22.3597 105.276 22.4941C105.251 22.5592 105.156 22.6243 105.081 22.6862C105.014 22.7419 104.756 22.7125 104.729 22.6936C104.647 22.6421 104.528 22.6862 104.422 22.6904C104.387 22.6915 104.339 22.6925 104.311 22.6925C104.251 22.6799 103.781 22.092 103.768 22.0258C103.766 22.0153 103.713 21.7875 103.637 21.5418C103.567 21.2982 103.481 21.0409 103.455 20.9905C103.429 20.938 103.46 20.8751 103.473 20.8142C103.481 20.7848 103.198 20.054 103.193 20.0225C103.18 19.8618 103.082 19.718 103.192 19.53C103.214 19.4922 103.198 19.4628 103.189 19.4324C103.103 19.1668 103.096 18.8833 103.064 18.605C103.049 18.4612 102.994 18.3278 102.959 18.1903C102.953 18.1661 102.968 18.1357 102.971 18.1084C102.974 18.0737 102.986 18.038 102.977 18.0065C102.874 17.6863 102.861 17.3398 102.703 17.0385C102.666 16.9702 102.727 16.566 102.674 16.4925C102.647 16.4505 102.837 16.2163 102.782 16.189Z" fill="#3DB3E5"/>
<path fill-rule="evenodd" clip-rule="evenodd" d="M24.3625 8.12236C24.4391 8.26096 24.2386 8.3355 23.8795 8.39535C23.765 8.4132 23.4311 8.3733 23.3881 8.32815C23.3051 8.24101 23.2243 8.15071 23.1686 8.06041C23.1287 8.00581 23.0647 7.19839 23.0384 6.9296C23.0069 6.66186 23.0374 6.41826 23.0773 6.17257L23.2873 4.72571C23.3009 4.62177 23.3377 4.51992 23.387 4.42647C23.555 4.09993 23.638 3.75659 23.6485 3.4164C23.6495 3.35971 23.6695 3.30406 23.6107 3.24316C23.5382 3.12766 23.575 2.28454 23.6149 2.18269C23.7503 1.91495 23.8312 1.63776 23.8826 1.35427C23.891 1.31227 23.8669 1.27552 23.9246 1.22617C24.0664 1.10228 24.0275 1.02143 24.0244 0.93113C24.0212 0.833483 24.0181 0.728487 24.0118 0.542642C24.0128 0.474394 24.0622 0.380947 24.0916 0.2917C24.1189 0.210853 24.2974 0.143655 24.3278 0.154154C24.4097 0.181453 24.4706 0.0911562 24.5378 0.0449576C24.5609 0.0292081 24.5913 0.00925867 24.6123 0.0019089C24.647 -0.0400898 25.4733 0.62349 25.5195 0.755786C25.5584 0.764186 26.0498 2.13649 26.0057 2.29504C26.0256 2.37694 25.9847 2.45988 25.9605 2.54178C25.9668 2.58378 26.0466 3.6579 26.0256 3.6957C25.9868 3.91199 26.0172 4.12828 25.8282 4.31203C25.7904 4.34773 25.7936 4.39077 25.7904 4.43382C25.739 4.78661 25.5878 5.11735 25.4576 5.43969C25.3925 5.60664 25.3662 5.77673 25.3169 5.94473C25.3085 5.97518 25.277 6.00038 25.2591 6.02767C25.236 6.06232 25.2045 6.09487 25.1951 6.13267C25.1016 6.52746 24.9105 6.896 24.8769 7.28869C24.8643 7.37898 24.5987 7.76012 24.6029 7.86407C24.6018 7.92077 24.3289 8.06566 24.3625 8.12236Z" fill="#3DB3E5"/>
<path fill-rule="evenodd" clip-rule="evenodd" d="M9.1364 18.0357C9.29705 17.9632 9.34325 18.1995 9.3401 18.6258C9.338 18.7612 9.23405 19.1476 9.17945 19.1906C9.07236 19.2757 8.96421 19.3555 8.86236 19.4059C8.80147 19.4416 7.95204 19.3922 7.6633 19.3702C7.37876 19.3597 7.12257 19.2778 6.86847 19.1854C6.36134 18.9933 5.85106 18.8116 5.36282 18.6069C5.25362 18.5628 5.15388 18.4977 5.06358 18.4158C4.75174 18.1344 4.3895 17.9716 4.01886 17.8393C3.95691 17.8162 3.90232 17.7763 3.81727 17.8099C3.67552 17.8603 2.73055 17.4109 2.6287 17.3133C2.37461 17.0582 2.09742 16.8555 1.82548 16.6392C1.78663 16.6077 1.72993 16.614 1.71943 16.5216C1.68898 16.3137 1.58504 16.298 1.49579 16.2392C1.37189 16.1573 1.24695 16.0817 1.1325 15.9704C1.07895 15.9053 1.04325 15.7866 0.998104 15.6953C0.956105 15.6103 1.04535 15.4412 1.07475 15.4255C1.1577 15.3835 1.13565 15.2743 1.15455 15.1945C1.16085 15.1672 1.16925 15.1304 1.1787 15.1094C1.2018 15.0391 2.20557 14.8333 2.30741 14.8574C2.34206 14.8375 3.59887 15.1756 3.74482 15.1997C3.82252 15.2113 3.87712 15.2785 3.93696 15.331C3.96846 15.353 4.96488 15.604 4.99953 15.6229C5.18538 15.7184 5.39642 15.751 5.51507 15.9851C5.53817 16.0313 5.58016 16.0407 5.61796 16.0554C5.9487 16.1793 6.23954 16.3862 6.53773 16.5668C6.69103 16.6602 6.86112 16.7075 7.02177 16.782C7.05117 16.7946 7.07007 16.8314 7.09527 16.8534C7.12572 16.8818 7.15407 16.9185 7.19081 16.9322C7.5793 17.0771 7.92894 17.3175 8.33633 17.3879C8.42768 17.4078 8.78782 17.7322 8.90016 17.7385C8.96001 17.7459 9.07026 18.0672 9.1364 18.0357Z" fill="#3DB3E5"/>
<path fill-rule="evenodd" clip-rule="evenodd" d="M22.0991 106.161C22.0371 105.973 22.2503 105.87 22.6209 105.843C22.7385 105.835 23.0714 105.931 23.1102 105.984C23.1858 106.089 23.2593 106.189 23.3066 106.281C23.3213 106.342 23.3664 107.123 23.4609 107.37C23.5187 107.615 23.5491 107.85 23.5785 108.089C23.6446 108.572 23.7738 109.047 23.9733 109.489C24.0163 109.587 24.0321 109.697 24.0583 109.805C24.1203 110.185 24.3114 110.526 24.5686 110.803C24.6117 110.848 24.6432 110.906 24.7251 110.918C24.8469 110.951 25.5388 111.65 25.6154 111.766C25.795 112.063 26.0354 112.307 26.2916 112.553C26.3284 112.586 26.3851 112.589 26.3977 112.665C26.4302 112.84 26.5394 112.867 26.6339 112.923C26.761 113.01 26.9027 113.067 27.0318 113.167C27.0959 113.214 27.1452 113.314 27.2009 113.4C27.2523 113.477 27.1641 113.661 27.1326 113.674C27.0434 113.713 27.0749 113.826 27.0602 113.91C27.0549 113.937 27.0476 113.975 27.0381 113.996C27.0297 114.058 25.9157 114.078 25.7992 114.003C25.7813 114.007 25.4096 113.863 25.0201 113.685C24.6421 113.494 24.2442 113.273 24.1707 113.219C24.0856 113.172 24.0342 113.083 23.9754 113.006C23.9092 113.017 22.9527 112.135 22.9433 112.069C22.7879 111.85 22.5968 111.648 22.5758 111.348C22.5716 111.291 22.5369 111.249 22.5065 111.205C22.265 110.816 22.1222 110.376 22.0067 109.939C21.9342 109.698 21.8755 109.497 21.8093 109.276C21.7999 109.236 21.8062 109.192 21.8083 109.149C21.8093 109.094 21.8188 109.038 21.8083 108.988C21.6875 108.458 21.697 107.912 21.6571 107.372C21.6287 107.242 21.8492 106.666 21.8482 106.528C21.8387 106.444 22.1211 106.233 22.0991 106.161Z" fill="#3DB3E5"/>
</svg>
